<?xml version="1.0" standalone="no"?>
<!DOCTYPE svg PUBLIC "-//W3C//DTD SVG 20010904//EN"
 "http://www.w3.org/TR/2001/REC-SVG-20010904/DTD/svg10.dtd">
<svg version="1.0" xmlns="http://www.w3.org/2000/svg"
 width="2550.000000pt" height="500.000000pt" viewBox="0 0 2550.000000 800"
 preserveAspectRatio="xMidYMid meet">

<g transform="translate(0.000000,1248.000000) scale(0.100000,-0.100000)"
fill="#000000" stroke="none">
<path d="M12648 12185 c-5 -5 -8 -230 -8 -502 l0 -493 -73 0 c-40 0 -77 -4
-83 -9 -5 -5 -54 -14 -109 -21 -157 -20 -214 -29 -350 -60 -87 -19 -331 -94
-390 -120 -11 -4 -47 -18 -80 -31 -175 -66 -466 -228 -678 -378 -168 -120
-424 -361 -573 -541 -409 -494 -643 -1052 -724 -1725 -20 -163 -10 -634 15
-755 3 -14 10 -59 16 -100 5 -41 14 -91 19 -110 5 -19 21 -81 35 -138 110
-440 321 -860 616 -1227 223 -278 540 -552 859 -742 82 -49 381 -195 450 -219
41 -14 79 -30 85 -35 5 -5 18 -9 28 -9 10 0 33 -6 50 -14 117 -50 426 -120
647 -146 120 -15 317 -23 356 -15 l34 6 0 493 0 493 123 7 c250 14 557 62 732
115 129 39 327 107 371 127 29 13 59 24 67 24 8 0 31 11 51 25 20 14 40 25 43
25 3 0 46 20 94 45 48 25 95 45 103 45 8 0 20 9 26 20 6 11 18 20 26 20 9 0
30 12 48 26 17 14 58 43 91 65 33 21 80 54 105 74 25 19 52 35 61 35 8 0 26
14 38 31 13 17 38 37 57 45 19 8 40 26 46 39 6 13 27 35 47 48 45 31 219 205
291 293 30 36 76 91 102 120 26 29 60 73 75 96 15 24 50 79 78 123 28 44 70
109 93 145 22 36 62 110 88 165 25 55 52 107 60 116 8 9 16 25 18 35 2 11 12
37 21 59 29 66 32 75 79 215 70 211 124 459 151 690 20 164 20 538 1 692 -56
447 -185 843 -399 1223 -167 297 -406 583 -713 855 -119 106 -419 311 -554
379 -221 112 -269 133 -434 192 -220 79 -459 135 -696 164 -143 18 -521 31
-532 20z m512 -141 c830 -97 1571 -523 2090 -1201 149 -193 234 -336 337 -558
264 -571 345 -1187 237 -1804 -32 -184 -75 -356 -120 -479 -20 -53 -42 -117
-51 -141 -24 -70 -134 -297 -197 -405 -207 -358 -541 -725 -870 -957 -319
-225 -642 -377 -1006 -473 -213 -56 -497 -96 -682 -96 l-108 0 0 420 0 420 58
0 c57 0 59 1 78 35 11 20 24 33 32 30 18 -6 82 26 82 42 0 10 -28 13 -125 13
-118 0 -125 1 -125 20 0 19 7 20 156 20 129 0 161 3 185 17 35 21 44 45 29 73
-18 34 -52 40 -216 40 -145 0 -154 1 -154 19 0 18 11 19 163 23 102 2 170 8
184 16 47 26 37 82 -18 101 -18 6 -98 11 -180 11 l-149 0 0 25 0 25 167 0
c157 0 168 1 190 22 30 28 29 52 -3 77 -25 19 -40 21 -190 21 l-164 0 0 30 0
30 176 0 177 0 33 35 c43 45 71 123 90 248 34 223 57 287 160 459 159 265 189
351 188 553 0 147 -16 226 -69 342 -99 216 -252 358 -487 452 -68 27 -88 31
-177 31 l-101 0 0 -1055 0 -1055 -183 0 c-177 0 -184 1 -205 23 -42 44 -82
150 -93 242 -14 127 -48 273 -75 326 -12 26 -51 91 -85 145 -177 281 -226 503
-165 744 30 117 53 172 109 258 75 116 182 214 307 280 109 58 225 92 316 92
l74 0 0 1238 c0 681 3 1242 8 1246 9 10 209 -1 372 -20z m-833 -1776 c14 -15
44 -103 87 -254 36 -128 66 -234 66 -237 0 -7 -103 -38 -108 -33 -7 8 -132
461 -132 480 0 20 37 63 56 65 6 1 20 -9 31 -21z m-721 -440 c16 -11 102 -93
191 -182 l163 -160 -37 -38 c-20 -21 -41 -38 -45 -38 -5 0 -90 79 -188 177
-193 189 -202 204 -154 242 33 26 35 26 70 -1z m-237 -772 c113 -29 221 -57
238 -61 18 -3 35 -10 37 -14 3 -4 -1 -29 -8 -57 -11 -43 -16 -49 -37 -46 -61
7 -466 116 -481 130 -25 22 -23 67 4 86 12 9 27 16 32 16 5 0 101 -24 215 -54z
m339 -698 c11 -29 17 -56 13 -60 -11 -12 -468 -178 -489 -178 -44 0 -68 73
-34 102 9 9 114 52 232 96 264 98 244 90 251 91 4 1 15 -23 27 -51z m1070
-1020 l-3 -53 -175 0 c-187 1 -220 8 -220 47 0 12 7 30 17 40 14 16 35 18 200
18 l184 0 -3 -52z m-3 -173 l0 -50 -181 0 c-195 0 -214 5 -214 52 0 43 44 53
230 50 l165 -2 0 -50z m0 -170 l0 -50 -168 -3 c-137 -2 -173 0 -198 13 -24 13
-30 22 -27 43 5 46 35 52 223 49 l170 -2 0 -50z m5 -170 l0 -55 -73 0 -73 0
-16 34 c-13 25 -25 35 -51 40 -18 3 -42 13 -53 21 -17 13 -3 14 124 15 l142 0
0 -55z"/>
<path d="M13219 10263 c-9 -16 -40 -118 -69 -228 -29 -110 -56 -204 -61 -209
-5 -6 -9 -22 -9 -37 0 -25 6 -29 54 -43 30 -9 59 -16 65 -16 5 0 15 19 21 43
6 23 16 56 21 72 5 17 32 110 59 209 l50 178 -23 29 c-31 40 -86 41 -108 2z"/>
<path d="M13782 9698 c-91 -90 -174 -171 -184 -180 -10 -10 -18 -21 -18 -25 1
-5 21 -28 45 -53 l45 -45 190 191 c104 104 190 198 190 207 0 27 -46 67 -76
67 -22 0 -61 -33 -192 -162z"/>
<path d="M14285 9089 c-55 -16 -161 -46 -235 -65 -74 -20 -137 -37 -138 -39
-6 -6 21 -116 29 -121 7 -4 76 13 359 88 153 40 150 38 150 98 0 39 -4 52 -19
60 -26 14 -31 13 -146 -21z"/>
<path d="M13845 8383 c-35 -84 -51 -70 204 -172 126 -50 243 -91 258 -91 55 0
81 88 35 117 -11 6 -107 46 -213 88 -107 42 -204 80 -217 85 -39 17 -51 11
-67 -27z"/>
<!-- <path d="M8017 3723 c-8 -10 -191 -483 -407 -1052 -215 -569 -397 -1046 -405
-1061 -20 -39 -70 -67 -151 -87 -38 -9 -75 -21 -81 -26 -7 -5 -13 -31 -13 -58
l0 -49 63 8 c80 9 342 9 480 0 l107 -8 0 44 c0 52 -8 59 -80 76 -96 22 -150
57 -150 97 0 19 64 204 212 616 l10 27 358 0 357 0 107 -310 c58 -171 106
-321 106 -334 0 -36 -50 -72 -131 -93 -78 -20 -96 -40 -84 -94 l6 -28 112 7
c130 8 411 9 577 2 l115 -5 3 41 c4 49 -13 66 -79 82 -69 17 -131 46 -155 73
-12 14 -187 473 -408 1074 -213 578 -392 1056 -398 1063 -15 18 -52 15 -71 -5z
m102 -908 c78 -225 141 -413 141 -417 0 -5 -135 -8 -300 -8 -165 0 -300 2
-300 5 0 21 305 844 310 838 4 -4 71 -192 149 -418z"/>
<path d="M2007 3689 c-9 -57 10 -81 76 -96 72 -16 112 -37 132 -67 15 -22 13
-103 -20 -928 -20 -496 -39 -923 -41 -947 -8 -64 -51 -103 -143 -131 -79 -24
-92 -40 -84 -97 l5 -33 92 8 c117 9 315 9 433 0 l93 -8 6 25 c9 37 -4 75 -29
84 -12 5 -49 17 -82 26 -42 12 -71 29 -97 55 -46 46 -45 12 -18 610 11 239 27
594 35 789 8 195 16 356 18 357 2 2 178 -440 392 -981 384 -969 390 -985 417
-985 22 0 31 8 46 37 11 21 174 449 363 952 287 762 345 909 351 885 7 -29 69
-1450 68 -1572 0 -35 -5 -72 -10 -83 -14 -25 -71 -54 -151 -74 -82 -22 -91
-29 -87 -79 l3 -41 115 5 c166 7 387 6 523 -3 l117 -7 0 44 c0 24 -6 48 -12
54 -7 5 -42 17 -78 26 -80 21 -108 38 -125 79 -9 23 -19 189 -34 572 -27 685
-49 1184 -56 1258 -9 106 21 142 146 171 68 16 79 26 79 71 0 54 1 54 -210 43
-257 -12 -278 -15 -304 -41 -13 -14 -145 -358 -346 -899 -179 -483 -327 -878
-330 -878 -3 0 -153 379 -334 843 -181 463 -339 865 -351 893 -21 48 -26 52
-71 62 -27 6 -128 13 -224 17 -96 3 -196 8 -221 11 -46 6 -46 6 -52 -27z"/>
<path d="M17281 3707 c-14 -18 -39 -122 -82 -346 -26 -135 -29 -165 -18 -172
17 -11 60 -11 75 -1 6 4 34 56 63 116 63 131 119 192 207 226 54 22 77 24 287
28 l227 4 0 -956 c0 -818 -2 -962 -15 -992 -18 -43 -85 -76 -193 -95 -87 -15
-107 -35 -97 -93 l7 -35 127 7 c162 9 480 9 644 0 l127 -8 0 49 c0 27 -6 53
-12 58 -7 5 -47 15 -88 21 -99 16 -160 47 -182 92 -17 33 -18 101 -18 993 l0
959 228 -4 c207 -4 232 -6 284 -27 86 -33 138 -91 206 -230 52 -107 59 -116
87 -119 17 -2 38 3 48 11 18 12 18 16 3 72 -8 33 -27 130 -42 215 -29 173 -47
226 -75 235 -11 4 -95 1 -187 -5 -168 -12 -1387 -7 -1533 6 -51 4 -68 2 -78
-9z"/>
<path d="M13833 3085 c-253 -55 -410 -272 -373 -513 31 -195 152 -303 480
-427 169 -63 255 -110 316 -170 60 -59 78 -113 72 -207 -7 -113 -70 -198 -176
-240 -74 -29 -247 -32 -332 -6 -117 36 -217 136 -276 278 -38 90 -51 108 -85
115 -38 9 -72 -3 -65 -21 10 -27 46 -247 53 -321 l6 -71 66 -31 c145 -66 331
-98 520 -88 195 10 320 57 414 156 95 99 132 204 125 357 -3 77 -9 101 -36
156 -64 130 -182 215 -470 335 -263 110 -345 162 -386 245 -84 168 40 330 263
345 192 13 343 -65 426 -219 42 -80 62 -98 108 -98 39 0 39 0 33 33 -3 17 -10
75 -16 127 -6 52 -13 114 -16 137 l-5 42 -111 36 c-189 61 -395 80 -535 50z"/>
<path d="M4615 3067 c-11 -41 8 -62 69 -76 101 -22 101 -23 353 -451 l233
-395 0 -280 c0 -204 -4 -287 -13 -305 -12 -25 -52 -42 -164 -70 -43 -11 -60
-33 -49 -68 6 -17 27 -18 352 -18 l345 0 -3 34 c-3 40 -9 44 -103 66 -120 28
-115 13 -115 368 l0 301 217 366 c120 201 233 382 253 402 27 29 48 39 95 49
82 16 90 22 93 63 l3 37 -78 -8 c-90 -8 -281 -9 -398 -2 l-80 5 -3 -31 c-4
-38 8 -48 79 -63 72 -15 99 -34 99 -70 0 -17 -40 -95 -106 -207 -58 -98 -133
-225 -166 -281 -33 -57 -63 -103 -67 -103 -11 0 -351 590 -351 610 0 26 19 38
89 54 35 8 66 17 69 20 5 6 6 66 0 72 -2 2 -62 -2 -133 -8 -123 -10 -396 -5
-477 8 -34 6 -38 4 -43 -19z"/> -->
<!-- <path d="M9185 3071 c-9 -31 3 -60 28 -65 117 -22 142 -30 164 -52 l23 -23 0
-684 c0 -646 -1 -686 -18 -707 -13 -15 -45 -29 -103 -44 l-84 -21 -3 -35 -3
-35 361 0 360 0 0 30 c0 37 -16 55 -48 55 -47 0 -165 33 -183 51 -18 18 -19
38 -19 319 l0 300 98 0 97 -1 220 -306 c121 -168 242 -330 268 -359 74 -82
102 -91 304 -98 165 -5 172 -5 178 14 10 31 -3 57 -31 64 -59 15 -137 49 -165
74 -24 20 -458 583 -492 638 -5 9 13 22 58 44 96 46 186 134 233 228 35 73 37
81 37 176 0 93 -3 107 -32 168 -41 88 -98 148 -182 192 -120 63 -153 67 -581
76 -212 4 -406 11 -431 15 -42 7 -48 5 -54 -14z m721 -122 c129 -24 224 -98
261 -202 27 -79 24 -235 -7 -305 -50 -115 -149 -161 -362 -169 l-138 -6 0 347
0 346 93 0 c51 0 120 -5 153 -11z"/>
<path d="M10847 3069 c-9 -13 -30 -91 -47 -173 -17 -82 -36 -159 -41 -173 -7
-20 -5 -25 17 -34 41 -15 59 -3 94 64 66 125 124 174 228 196 29 6 127 11 217
11 l165 0 0 -697 c0 -810 13 -730 -119 -758 -128 -28 -126 -26 -129 -65 l-3
-35 381 0 380 0 0 32 c0 36 -21 53 -67 53 -55 0 -138 29 -160 55 l-23 26 0
696 0 695 198 -3 c192 -4 198 -5 254 -32 68 -34 107 -76 153 -167 36 -72 56
-87 98 -71 24 9 25 13 16 43 -6 18 -23 95 -39 171 -16 76 -36 150 -45 163 -16
25 -17 25 -118 17 -134 -11 -1163 -10 -1294 1 -100 8 -101 8 -116 -15z"/>
<path d="M12535 3070 c-9 -30 4 -59 28 -64 130 -27 161 -43 172 -89 3 -12 4
-325 3 -695 l-3 -674 -23 -18 c-12 -10 -52 -25 -89 -34 -76 -17 -98 -34 -90
-68 l6 -23 325 0 c312 0 325 1 330 19 7 28 -11 55 -42 62 -79 17 -135 39 -148
59 -12 19 -14 126 -12 709 l3 688 22 18 c20 15 55 26 149 45 23 5 35 33 27 65
-5 18 -11 19 -102 12 -124 -9 -341 -9 -458 0 -86 7 -92 6 -98 -12z"/>
<path d="M14777 3069 c-9 -13 -30 -91 -47 -173 -17 -82 -36 -159 -41 -173 -7
-20 -5 -25 17 -34 41 -15 59 -3 94 64 66 125 124 174 228 196 29 6 127 11 217
11 l165 0 0 -697 c0 -810 13 -730 -119 -758 -128 -28 -126 -26 -129 -65 l-3
-35 381 0 380 0 0 32 c0 36 -21 53 -67 53 -55 0 -138 29 -160 55 l-23 26 0
696 0 695 198 -3 c192 -4 198 -5 254 -32 68 -34 107 -76 153 -167 36 -72 56
-87 98 -71 24 9 25 13 16 43 -6 18 -23 95 -39 171 -16 76 -36 150 -45 163 -16
25 -17 25 -118 17 -134 -11 -1163 -10 -1294 1 -100 8 -101 8 -116 -15z"/>
<path d="M19165 3067 c-11 -41 8 -62 69 -76 101 -22 101 -23 353 -451 l233
-395 0 -280 c0 -204 -4 -287 -13 -305 -12 -25 -52 -42 -164 -70 -43 -11 -60
-33 -49 -68 6 -17 27 -18 352 -18 l345 0 -3 34 c-3 40 -9 44 -103 66 -120 28
-115 13 -115 368 l0 301 217 366 c120 201 233 382 253 402 27 29 48 39 95 49
82 16 90 22 93 63 l3 37 -78 -8 c-90 -8 -281 -9 -398 -2 l-80 5 -3 -31 c-4
-38 8 -48 79 -63 72 -15 99 -34 99 -70 0 -17 -40 -95 -106 -207 -58 -98 -133
-225 -166 -281 -33 -57 -63 -103 -67 -103 -11 0 -351 590 -351 610 0 26 19 38
89 54 35 8 66 17 69 20 5 6 6 66 0 72 -2 2 -62 -2 -133 -8 -123 -10 -396 -5
-477 8 -34 6 -38 4 -43 -19z"/>
<path d="M20805 3071 c-9 -31 3 -60 28 -65 117 -22 142 -30 164 -52 l23 -23 0
-683 c0 -601 -2 -686 -15 -706 -14 -20 -60 -37 -147 -56 -31 -7 -49 -34 -42
-62 5 -18 19 -19 365 -19 l359 0 0 31 c0 40 -13 50 -73 58 -75 11 -146 35
-168 57 -18 18 -19 35 -19 299 l0 280 153 0 c183 0 262 15 373 69 135 67 220
160 263 289 66 194 -33 425 -222 516 -112 54 -143 58 -567 66 -217 5 -411 12
-431 15 -32 6 -38 4 -44 -14z m785 -135 c98 -36 174 -115 202 -209 18 -61 15
-242 -5 -295 -50 -132 -175 -191 -404 -192 l-103 0 0 361 0 362 133 -6 c86 -3
148 -11 177 -21z"/>
<path d="M22236 3075 c-17 -46 -1 -63 75 -81 85 -19 118 -33 129 -55 6 -11 10
-282 10 -698 0 -661 -1 -682 -19 -700 -19 -19 -108 -51 -142 -51 -31 0 -63
-34 -56 -61 l6 -24 638 1 637 1 17 27 c9 15 29 73 43 129 15 56 36 130 48 165
11 35 17 66 14 69 -3 3 -22 6 -42 7 -35 1 -39 -2 -70 -55 -53 -91 -118 -155
-192 -191 l-67 -33 -230 0 c-215 0 -233 2 -277 22 l-48 22 0 320 0 321 221 0
221 0 27 -27 c18 -18 34 -52 46 -96 19 -72 36 -88 79 -80 21 4 21 9 21 254 l0
250 -24 6 c-37 9 -54 -8 -78 -83 -37 -115 -34 -114 -294 -114 l-219 0 0 320 0
320 228 0 c249 0 315 -10 381 -53 43 -28 83 -81 124 -164 27 -53 52 -69 88
-58 16 5 19 12 14 28 -10 30 -40 176 -55 265 -6 39 -20 82 -29 93 -17 21 -19
21 -157 9 -142 -12 -948 -8 -1025 5 -28 5 -38 3 -43 -10z"/> -->
</g>
</svg>
