<?xml version="1.0" standalone="no"?>
<!DOCTYPE svg PUBLIC "-//W3C//DTD SVG 20010904//EN"
 "http://www.w3.org/TR/2001/REC-SVG-20010904/DTD/svg10.dtd">
<svg version="1.0" xmlns="http://www.w3.org/2000/svg"
 width="800pt" height="200pt" viewBox="0 0 800 400"
 preserveAspectRatio="xMidYMid meet">

<g transform="translate(0.000000,450.000000) scale(0.031250,-0.031250)"
fill="#000000" stroke="none">
<path d="M12648 12185 c-5 -5 -8 -230 -8 -502 l0 -493 -73 0 c-40 0 -77 -4
-83 -9 -5 -5 -54 -14 -109 -21 -157 -20 -214 -29 -350 -60 -87 -19 -331 -94
-390 -120 -11 -4 -47 -18 -80 -31 -175 -66 -466 -228 -678 -378 -168 -120
-424 -361 -573 -541 -409 -494 -643 -1052 -724 -1725 -20 -163 -10 -634 15
-755 3 -14 10 -59 16 -100 5 -41 14 -91 19 -110 5 -19 21 -81 35 -138 110
-440 321 -860 616 -1227 223 -278 540 -552 859 -742 82 -49 381 -195 450 -219
41 -14 79 -30 85 -35 5 -5 18 -9 28 -9 10 0 33 -6 50 -14 117 -50 426 -120
647 -146 120 -15 317 -23 356 -15 l34 6 0 493 0 493 123 7 c250 14 557 62 732
115 129 39 327 107 371 127 29 13 59 24 67 24 8 0 31 11 51 25 20 14 40 25 43
25 3 0 46 20 94 45 48 25 95 45 103 45 8 0 20 9 26 20 6 11 18 20 26 20 9 0
30 12 48 26 17 14 58 43 91 65 33 21 80 54 105 74 25 19 52 35 61 35 8 0 26
14 38 31 13 17 38 37 57 45 19 8 40 26 46 39 6 13 27 35 47 48 45 31 219 205
291 293 30 36 76 91 102 120 26 29 60 73 75 96 15 24 50 79 78 123 28 44 70
109 93 145 22 36 62 110 88 165 25 55 52 107 60 116 8 9 16 25 18 35 2 11 12
37 21 59 29 66 32 75 79 215 70 211 124 459 151 690 20 164 20 538 1 692 -56
447 -185 843 -399 1223 -167 297 -406 583 -713 855 -119 106 -419 311 -554
379 -221 112 -269 133 -434 192 -220 79 -459 135 -696 164 -143 18 -521 31
-532 20z m512 -141 c830 -97 1571 -523 2090 -1201 149 -193 234 -336 337 -558
264 -571 345 -1187 237 -1804 -32 -184 -75 -356 -120 -479 -20 -53 -42 -117
-51 -141 -24 -70 -134 -297 -197 -405 -207 -358 -541 -725 -870 -957 -319
-225 -642 -377 -1006 -473 -213 -56 -497 -96 -682 -96 l-108 0 0 420 0 420 58
0 c57 0 59 1 78 35 11 20 24 33 32 30 18 -6 82 26 82 42 0 10 -28 13 -125 13
-118 0 -125 1 -125 20 0 19 7 20 156 20 129 0 161 3 185 17 35 21 44 45 29 73
-18 34 -52 40 -216 40 -145 0 -154 1 -154 19 0 18 11 19 163 23 102 2 170 8
184 16 47 26 37 82 -18 101 -18 6 -98 11 -180 11 l-149 0 0 25 0 25 167 0
c157 0 168 1 190 22 30 28 29 52 -3 77 -25 19 -40 21 -190 21 l-164 0 0 30 0
30 176 0 177 0 33 35 c43 45 71 123 90 248 34 223 57 287 160 459 159 265 189
351 188 553 0 147 -16 226 -69 342 -99 216 -252 358 -487 452 -68 27 -88 31
-177 31 l-101 0 0 -1055 0 -1055 -183 0 c-177 0 -184 1 -205 23 -42 44 -82
150 -93 242 -14 127 -48 273 -75 326 -12 26 -51 91 -85 145 -177 281 -226 503
-165 744 30 117 53 172 109 258 75 116 182 214 307 280 109 58 225 92 316 92
l74 0 0 1238 c0 681 3 1242 8 1246 9 10 209 -1 372 -20z m-833 -1776 c14 -15
44 -103 87 -254 36 -128 66 -234 66 -237 0 -7 -103 -38 -108 -33 -7 8 -132
461 -132 480 0 20 37 63 56 65 6 1 20 -9 31 -21z m-721 -440 c16 -11 102 -93
191 -182 l163 -160 -37 -38 c-20 -21 -41 -38 -45 -38 -5 0 -90 79 -188 177
-193 189 -202 204 -154 242 33 26 35 26 70 -1z m-237 -772 c113 -29 221 -57
238 -61 18 -3 35 -10 37 -14 3 -4 -1 -29 -8 -57 -11 -43 -16 -49 -37 -46 -61
7 -466 116 -481 130 -25 22 -23 67 4 86 12 9 27 16 32 16 5 0 101 -24 215 -54z
m339 -698 c11 -29 17 -56 13 -60 -11 -12 -468 -178 -489 -178 -44 0 -68 73
-34 102 9 9 114 52 232 96 264 98 244 90 251 91 4 1 15 -23 27 -51z m1070
-1020 l-3 -53 -175 0 c-187 1 -220 8 -220 47 0 12 7 30 17 40 14 16 35 18 200
18 l184 0 -3 -52z m-3 -173 l0 -50 -181 0 c-195 0 -214 5 -214 52 0 43 44 53
230 50 l165 -2 0 -50z m0 -170 l0 -50 -168 -3 c-137 -2 -173 0 -198 13 -24 13
-30 22 -27 43 5 46 35 52 223 49 l170 -2 0 -50z m5 -170 l0 -55 -73 0 -73 0
-16 34 c-13 25 -25 35 -51 40 -18 3 -42 13 -53 21 -17 13 -3 14 124 15 l142 0
0 -55z"/>
<path d="M13219 10263 c-9 -16 -40 -118 -69 -228 -29 -110 -56 -204 -61 -209
-5 -6 -9 -22 -9 -37 0 -25 6 -29 54 -43 30 -9 59 -16 65 -16 5 0 15 19 21 43
6 23 16 56 21 72 5 17 32 110 59 209 l50 178 -23 29 c-31 40 -86 41 -108 2z"/>
<path d="M13782 9698 c-91 -90 -174 -171 -184 -180 -10 -10 -18 -21 -18 -25 1
-5 21 -28 45 -53 l45 -45 190 191 c104 104 190 198 190 207 0 27 -46 67 -76
67 -22 0 -61 -33 -192 -162z"/>
<path d="M14285 9089 c-55 -16 -161 -46 -235 -65 -74 -20 -137 -37 -138 -39
-6 -6 21 -116 29 -121 7 -4 76 13 359 88 153 40 150 38 150 98 0 39 -4 52 -19
60 -26 14 -31 13 -146 -21z"/>
<path d="M13845 8383 c-35 -84 -51 -70 204 -172 126 -50 243 -91 258 -91 55 0
81 88 35 117 -11 6 -107 46 -213 88 -107 42 -204 80 -217 85 -39 17 -51 11
-67 -27z"/>
</g>
</svg>
