<svg xmlns="http://www.w3.org/2000/svg" width="800" height="450" viewBox="0 0 800 450">
  <!-- Background -->
  <rect width="800" height="450" rx="8" fill="#f8fafc" />
  
  <!-- Header -->
  <rect width="800" height="60" rx="8" fill="#4f46e5" />
  <text x="30" y="38" font-family="Arial" font-size="20" font-weight="bold" fill="white">Ethos Creative</text>
  
  <!-- Navigation -->
  <text x="200" y="38" font-family="Arial" font-size="16" fill="white">Dashboard</text>
  <text x="320" y="38" font-family="Arial" font-size="16" fill="white">Projects</text>
  <text x="420" y="38" font-family="Arial" font-size="16" fill="white">Community</text>
  <text x="540" y="38" font-family="Arial" font-size="16" fill="white">Resources</text>
  
  <!-- User Avatar -->
  <circle cx="750" cy="30" r="20" fill="white" />
  
  <!-- Dashboard Widgets -->
  <rect x="30" y="90" width="350" height="160" rx="8" fill="white" stroke="#e2e8f0" />
  <rect x="40" y="100" width="330" height="30" rx="4" fill="#f1f5f9" />
  <text x="50" y="120" font-family="Arial" font-size="14" fill="#64748b">Recent Projects</text>
  
  <rect x="40" y="140" width="330" height="30" rx="4" fill="#f1f5f9" />
  <rect x="40" y="180" width="330" height="30" rx="4" fill="#f1f5f9" />
  <rect x="40" y="220" width="330" height="20" rx="4" fill="#f1f5f9" />
  
  <rect x="400" y="90" width="350" height="160" rx="8" fill="white" stroke="#e2e8f0" />
  <rect x="410" y="100" width="330" height="30" rx="4" fill="#f1f5f9" />
  <text x="420" y="120" font-family="Arial" font-size="14" fill="#64748b">Activity Feed</text>
  
  <rect x="410" y="140" width="330" height="20" rx="4" fill="#f1f5f9" />
  <rect x="410" y="170" width="330" height="20" rx="4" fill="#f1f5f9" />
  <rect x="410" y="200" width="330" height="20" rx="4" fill="#f1f5f9" />
  <rect x="410" y="230" width="330" height="20" rx="4" fill="#f1f5f9" />
  
  <rect x="30" y="270" width="720" height="160" rx="8" fill="white" stroke="#e2e8f0" />
  <rect x="40" y="280" width="700" height="30" rx="4" fill="#f1f5f9" />
  <text x="50" y="300" font-family="Arial" font-size="14" fill="#64748b">Project Timeline</text>
  
  <rect x="40" y="320" width="700" height="100" rx="4" fill="#f1f5f9" />
  <line x1="40" y1="370" x2="740" y2="370" stroke="#cbd5e1" stroke-width="1" />
  
  <!-- Timeline Markers -->
  <circle cx="100" cy="370" r="8" fill="#4f46e5" />
  <circle cx="200" cy="370" r="8" fill="#4f46e5" />
  <circle cx="300" cy="370" r="8" fill="#4f46e5" />
  <circle cx="400" cy="370" r="8" fill="#4f46e5" />
  <circle cx="500" cy="370" r="8" fill="#4f46e5" />
  <circle cx="600" cy="370" r="8" fill="#4f46e5" />
  <circle cx="700" cy="370" r="8" fill="#4f46e5" />
</svg> 