<svg version="1.1" id="Layer_1" xmlns="http://www.w3.org/2000/svg" xmlns:xlink="http://www.w3.org/1999/xlink" x="0px" y="0px"
	 width="100%" viewBox="0 0 1008 1008" enable-background="new 0 0 1008 1008" xml:space="preserve">
<path fill="#000000" opacity="1.000000" stroke="none" 
	d="
M555.531372,1.000000 
	C559.990479,4.307154 565.028748,2.888205 569.412292,3.344886 
	C609.873657,7.560155 649.054077,17.169340 687.239685,30.840006 
	C722.700134,43.535053 756.147522,60.427288 787.822632,80.855797 
	C806.548523,92.932831 824.516296,106.038239 841.495422,120.422882 
	C858.370361,134.719208 874.024658,150.317200 889.005371,166.622101 
	C908.124268,187.430908 925.259827,209.708725 940.693604,233.358475 
	C959.375610,261.985779 974.805542,292.251190 987.309021,324.048859 
	C995.942322,346.004517 1002.711243,368.541870 1008.880310,391.657471 
	C1009.000000,405.687561 1009.000000,419.375122 1009.000000,433.531342 
	C1006.270813,427.538971 1006.085083,420.524780 1004.716309,413.776855 
	C997.438538,377.899658 986.629028,343.205444 971.900879,309.640106 
	C958.570251,279.259583 942.319519,250.605591 923.418213,223.425812 
	C913.189758,208.717499 902.081299,194.681290 890.250183,181.188568 
	C880.149658,169.669571 869.851318,158.351303 858.701721,147.870392 
	C832.145020,122.906357 803.558228,100.568962 772.342712,81.627045 
	C756.545349,72.041008 740.334412,63.239010 723.633301,55.407833 
	C688.970337,39.154396 652.895203,27.073517 615.371338,19.216507 
	C600.452454,16.092703 585.464417,13.456366 570.372986,11.643375 
	C560.859375,10.500458 551.219849,9.952147 541.647095,9.165497 
	C526.163147,7.893093 510.699066,8.272642 495.251038,8.512194 
	C471.528351,8.880059 447.976105,11.673141 424.610321,15.780870 
	C397.951843,20.467463 371.834839,27.274441 346.281342,36.246414 
	C319.724579,45.570641 294.239960,57.228008 269.549438,70.718971 
	C248.085892,82.446724 227.658707,95.742035 208.119949,110.420349 
	C185.210876,127.630592 163.999069,146.789230 144.498047,167.734802 
	C118.516525,195.640884 95.670670,226.002335 76.521057,259.003387 
	C56.857689,292.889862 41.324139,328.650208 29.964476,366.157196 
	C22.319298,391.399841 16.712736,417.109131 13.251869,443.285309 
	C11.208237,458.742249 10.059865,474.240936 9.099118,489.801575 
	C8.420721,500.789185 7.995837,511.769470 8.496166,522.687439 
	C9.625197,547.324768 11.612328,571.883484 15.899898,596.262756 
	C21.114069,625.910828 28.820110,654.836365 39.066776,683.080078 
	C48.426994,708.880371 59.977684,733.689331 73.591644,757.568359 
	C84.626335,776.923401 96.647209,795.584778 110.189621,813.261902 
	C119.156189,824.966003 128.490021,836.351501 138.326370,847.366699 
	C147.215027,857.320496 156.703598,866.651123 166.288589,875.858582 
	C192.720917,901.249695 221.796921,923.252563 253.273773,942.065857 
	C296.187317,967.714844 341.767395,986.986023 390.304779,999.056702 
	C404.742828,1002.647217 419.287506,1005.886475 434.079712,1007.797058 
	C434.540802,1007.856628 434.961914,1008.225952 435.700806,1008.725464 
	C421.312439,1009.000000 406.624878,1009.000000 391.468658,1009.000000 
	C388.440033,1006.576843 384.956299,1006.419739 381.854645,1005.634094 
	C354.131775,998.612183 327.364899,988.953796 301.301636,977.225830 
	C272.594330,964.308044 245.382675,948.787476 219.563080,930.805969 
	C202.531143,918.944519 186.394135,905.979370 170.891266,892.160706 
	C158.446869,881.068176 146.662582,869.300232 135.340240,857.148132 
	C112.799553,832.955627 92.881599,806.695251 75.656960,778.387512 
	C68.408195,766.474548 61.432957,754.405884 55.158184,742.000854 
	C35.319595,702.780273 20.818857,661.603516 11.700976,618.585205 
	C7.996336,601.106689 5.279989,583.471252 3.416013,565.677490 
	C2.926888,561.008240 3.819977,556.016541 1.248784,551.280701 
	C1.000000,524.312439 1.000000,497.624878 1.000000,470.468658 
	C4.344604,465.679688 2.835275,460.384521 3.389135,455.654663 
	C5.452471,438.034088 8.004617,420.515228 11.709104,403.176666 
	C15.941941,383.365265 21.090935,363.772491 27.811850,344.659332 
	C34.092175,326.799133 41.218842,309.275787 49.274418,292.099121 
	C59.742325,269.778717 72.029686,248.539673 85.574837,228.007858 
	C94.061974,215.143005 103.414284,202.903900 112.974419,190.791672 
	C128.053818,171.686752 145.110672,154.481369 162.488953,137.572632 
	C178.455521,122.037491 195.941818,108.256592 213.922394,95.152283 
	C237.483398,77.980911 262.504395,63.145302 288.790985,50.562939 
	C328.500275,31.555668 369.914062,17.628172 413.255096,9.485271 
	C429.876892,6.362374 446.553955,3.986035 463.391357,2.417068 
	C468.004028,1.987241 472.668121,2.092125 477.623230,1.144455 
	C503.687561,1.000000 529.375122,1.000000 555.531372,1.000000 
z"/>
<path fill="#000000" opacity="1.000000" stroke="none" 
	d="
M1009.000000,630.531372 
	C1006.475098,639.575562 1003.980652,648.160217 1001.419312,656.724915 
	C995.047241,678.031738 987.553162,698.905457 978.425049,719.222168 
	C965.182495,748.697021 949.476929,776.738953 930.962708,803.205811 
	C921.076294,817.338806 910.327209,830.785645 899.235962,844.012939 
	C886.592834,859.091187 872.642395,872.879517 858.523621,886.447998 
	C843.127014,901.244568 826.241943,914.422119 808.925476,926.943054 
	C784.111816,944.884888 757.792542,960.356323 730.092224,973.404480 
	C700.615845,987.289429 670.091003,998.331909 638.484253,1006.323792 
	C636.403748,1006.849792 634.269775,1007.201233 632.232056,1008.741211 
	C617.312439,1009.000000 602.624878,1009.000000 587.468628,1009.000000 
	C593.085754,1006.145935 599.814026,1006.108276 606.232849,1004.835388 
	C643.645203,997.416443 679.781189,986.114685 714.647156,970.628662 
	C755.120850,952.651855 792.494934,929.686218 826.975037,901.922302 
	C845.391602,887.092957 862.732422,871.076843 878.807373,853.794434 
	C905.100830,825.526062 928.055542,794.671265 947.316833,761.183105 
	C969.536072,722.552246 986.421875,681.702881 997.685730,638.529602 
	C1001.908997,622.342407 1004.993652,605.928833 1008.730835,589.294189 
	C1009.000000,602.687561 1009.000000,616.375122 1009.000000,630.531372 
z"/>
<path fill="#000000" opacity="1.000000" stroke="none" 
	d="
M126.524063,381.653687 
	C136.518127,352.030853 149.437134,324.244629 165.778976,298.000366 
	C180.844284,273.806152 198.178955,251.524170 217.817917,230.830902 
	C245.374527,201.794922 276.557800,177.622498 311.229645,157.793991 
	C346.974091,137.352066 384.972900,122.834328 425.245300,114.245041 
	C443.088928,110.439346 461.085693,107.973236 479.292389,106.500488 
	C498.271545,104.965256 517.279663,105.072388 536.175720,105.916679 
	C564.153076,107.166718 591.734436,111.954727 618.843933,119.342766 
	C649.613281,127.728226 678.841309,139.871201 706.851135,154.931839 
	C727.519409,166.045029 746.700562,179.466614 765.188110,193.944946 
	C782.021118,207.127548 797.007812,222.259415 811.718872,237.606812 
	C823.171875,249.555344 833.225769,262.819489 842.861511,276.337189 
	C855.915344,294.650024 867.355042,313.926727 877.143127,334.151367 
	C892.692688,366.280457 903.671509,399.957794 910.291748,435.026917 
	C913.581604,452.454346 915.437744,470.034637 916.598816,487.765686 
	C917.460693,500.927216 917.729919,514.073669 917.174194,527.151917 
	C915.741760,560.865112 910.402588,594.017761 900.817322,626.451416 
	C892.118286,655.886292 880.263733,683.995605 865.166931,710.664185 
	C854.283569,729.889709 841.854980,748.119202 827.917725,765.348389 
	C818.503723,776.985962 808.584656,788.184326 798.065735,798.724426 
	C783.551025,813.268494 767.949219,826.727112 751.248596,838.792419 
	C732.102173,852.624695 712.067871,865.054626 690.851990,875.454285 
	C655.024231,893.016663 617.462524,905.227173 577.994568,911.499329 
	C560.447266,914.287842 542.804749,915.493713 525.093567,916.725098 
	C511.214569,917.690063 497.486237,916.816528 483.816101,916.066345 
	C461.179626,914.824219 438.745941,911.275269 416.605927,905.932800 
	C384.813049,898.261169 354.340454,887.081421 325.339020,872.102844 
	C296.769379,857.347107 270.397003,839.294434 245.984589,818.232056 
	C215.416489,791.858704 189.465729,761.585266 167.900314,727.612244 
	C147.419403,695.347717 131.985016,660.724121 121.372673,623.922729 
	C115.763290,604.470520 111.739960,584.727600 108.882278,564.750854 
	C107.619591,555.924011 107.257202,546.927063 106.438309,538.031860 
	C105.272789,525.371460 105.620522,512.749451 105.746964,500.129517 
	C106.006828,474.194427 109.271820,448.557709 114.895035,423.235291 
	C117.990547,409.295654 121.651917,395.508270 126.524063,381.653687 
M734.584412,181.931259 
	C723.897095,174.919434 713.141174,167.983231 701.855957,161.993088 
	C676.287415,148.421448 649.864746,136.945648 621.933044,128.927887 
	C592.328613,120.429985 562.186401,115.085037 531.524963,113.581131 
	C508.813965,112.467194 486.048859,113.239685 463.356964,116.143158 
	C440.447632,119.074455 417.964722,123.744164 395.912262,130.395065 
	C367.526093,138.956177 340.542664,150.847961 314.732269,165.495255 
	C284.070007,182.895966 256.551147,204.384583 231.286652,228.833115 
	C221.979263,237.839874 213.625473,247.750015 205.264923,257.651550 
	C188.166306,277.901733 173.560394,299.828888 161.011505,323.107605 
	C146.941742,349.207581 136.014084,376.607330 127.935905,405.165680 
	C119.324356,435.609650 115.006165,466.719727 113.500320,498.215118 
	C112.986366,508.964874 113.497276,519.786560 114.087654,530.606873 
	C115.164780,550.348022 117.486618,569.852844 121.380386,589.190552 
	C127.794548,621.045410 137.928940,651.668640 152.008743,680.983582 
	C161.955902,701.694214 173.462738,721.450623 186.747253,740.217407 
	C198.556610,756.900146 211.489288,772.625854 225.636612,787.339050 
	C236.233398,798.359680 247.756683,808.379761 259.460449,818.236755 
	C280.919464,836.309753 304.308289,851.454041 329.075806,864.382996 
	C359.507874,880.268860 391.589966,891.937317 425.142395,899.442871 
	C446.514740,904.223816 468.151031,907.654785 489.985443,908.431030 
	C510.382050,909.156189 530.832092,909.193604 551.260559,906.851501 
	C570.562134,904.638611 589.661560,901.615784 608.447388,896.787964 
	C639.600891,888.781860 669.358582,877.247803 697.835083,862.126892 
	C731.245667,844.386169 761.219604,822.088684 788.521790,796.105530 
	C800.537231,784.670410 811.314209,772.075256 821.770447,759.154053 
	C838.347839,738.668823 852.475647,716.659241 864.662842,693.380615 
	C880.299438,663.512817 891.751892,632.090881 899.312378,599.204651 
	C905.842529,570.800110 908.763123,542.011047 909.648926,512.954346 
	C909.846375,506.476929 908.884399,500.032745 908.804688,493.603088 
	C908.641602,480.454315 907.287842,467.409332 905.350037,454.496552 
	C902.356445,434.548523 897.850220,414.902527 891.978333,395.524414 
	C881.613953,361.320435 866.779724,329.245178 847.785645,299.073090 
	C836.809021,281.636841 824.394897,265.253815 810.818115,249.701233 
	C797.022949,233.898453 782.041565,219.407639 766.035950,205.890076 
	C756.129517,197.523560 745.623291,189.981857 734.584412,181.931259 
z"/>
<path fill="#000000" opacity="1.000000" stroke="none" 
	d="
M937.720581,478.334412 
	C941.969177,465.115570 948.099915,460.624512 961.652344,460.701752 
	C965.953369,460.726257 970.309448,460.033936 974.560791,461.252045 
	C988.140625,465.143005 994.581665,480.544037 988.319763,494.206940 
	C985.491089,500.378784 981.351624,505.863831 979.295288,512.475037 
	C976.994995,519.870056 979.131409,525.754822 984.233276,531.071655 
	C988.367798,535.380371 992.448303,539.747375 996.389771,544.231750 
	C998.038757,546.107849 1000.648010,548.217468 997.847656,550.991516 
	C995.252747,553.562073 992.596924,552.213562 990.287598,550.324524 
	C989.013916,549.282654 987.880737,547.998596 986.929321,546.650757 
	C985.713928,544.929077 984.437012,543.177612 982.163086,544.344604 
	C979.922668,545.494385 978.823181,547.526794 979.645813,550.212952 
	C981.878723,557.503357 984.131470,564.788147 986.287781,572.101318 
	C987.001038,574.520447 988.899658,577.650696 985.291382,578.985779 
	C981.565918,580.364075 980.059998,577.162659 978.837341,574.333008 
	C976.885498,569.815674 975.004028,565.268066 972.598206,559.559692 
	C972.323425,565.481262 971.845825,570.172424 972.915222,574.868958 
	C973.025818,575.354248 973.294250,575.868774 973.214844,576.321594 
	C972.727112,579.104248 975.233215,583.576477 970.416077,584.043945 
	C965.744141,584.497253 966.011353,580.204529 965.620667,576.899963 
	C964.984558,571.520020 964.182556,566.159729 962.788208,560.719604 
	C962.304810,564.472717 961.824524,568.226318 961.336548,571.978821 
	C961.145386,573.448914 961.050720,574.943787 960.710144,576.379395 
	C960.187073,578.584412 959.347717,580.649902 956.444336,580.184204 
	C953.795776,579.759338 953.597656,577.666321 953.691223,575.607178 
	C953.954651,569.814270 954.321289,564.026062 954.638000,558.235474 
	C954.671021,557.631897 954.642456,557.024902 954.642456,555.651184 
	C951.759888,560.387451 949.281067,564.452576 946.810730,568.522827 
	C945.818665,570.157410 944.667725,571.805908 942.489624,570.915039 
	C940.394043,570.057922 940.506287,567.932495 940.772095,566.138550 
	C941.010376,564.530518 941.434387,562.805359 942.289612,561.457397 
	C947.144836,553.804688 949.010010,545.312683 949.565857,536.446777 
	C949.755615,533.419739 950.761658,530.609131 951.379761,527.695618 
	C952.250793,523.590088 950.670654,522.025513 946.597839,522.705383 
	C939.561951,523.879822 938.372253,522.606628 937.528870,515.554382 
	C937.043945,511.499634 936.921631,507.111786 933.512390,503.760986 
	C931.922607,502.198547 932.105591,499.514282 933.449829,497.707458 
	C937.716736,491.972351 936.893311,485.205811 937.720581,478.334412 
M963.561523,477.031769 
	C962.857605,476.367065 962.111267,475.741302 961.457642,475.030365 
	C959.521790,472.924652 957.173645,471.652069 954.365112,472.601868 
	C951.601929,473.536285 950.281250,476.078674 949.847595,478.725403 
	C949.436279,481.236267 950.503052,483.788300 952.115906,485.620544 
	C955.803162,489.809387 959.832214,493.697296 963.883301,497.873199 
	C968.960205,492.908508 973.880432,488.943878 976.729553,483.132629 
	C978.167053,480.200684 978.127625,477.270294 976.167847,474.682556 
	C974.675354,472.712006 972.377380,472.094849 969.916260,472.400635 
	C967.095154,472.751160 966.239685,475.540405 963.561523,477.031769 
z"/>
<path fill="#000000" opacity="1.000000" stroke="none" 
	d="
M33.874069,573.436646 
	C36.409340,565.453552 39.306469,558.027893 40.737358,550.144653 
	C41.215599,547.509888 40.804111,545.155518 38.462383,544.205139 
	C36.137196,543.261475 34.481308,545.300781 33.358288,547.179749 
	C32.178329,549.153992 30.403297,550.244446 28.479527,551.281189 
	C26.366289,552.420044 24.419842,552.786072 22.677576,550.684875 
	C20.782608,548.399597 22.143955,546.768188 23.709143,545.078308 
	C28.663784,539.728821 33.314240,534.088684 38.223511,528.727417 
	C43.666004,522.783936 42.600212,516.547180 40.535374,510.289948 
	C38.937984,505.449310 36.101044,501.008942 33.732800,496.433258 
	C28.937456,487.168213 29.123795,478.100189 34.401043,469.048370 
	C36.364738,465.680145 39.141060,463.156921 42.693970,462.286621 
	C53.358406,459.674438 64.012634,459.071869 74.159027,464.576752 
	C81.045715,468.313141 82.766579,474.983948 83.183861,481.850464 
	C83.520226,487.385498 83.570877,492.635193 87.126511,497.374481 
	C88.884323,499.717560 88.490707,501.911377 86.025589,504.699036 
	C83.841087,507.169281 82.819878,511.369965 83.138443,515.359802 
	C83.642532,521.673340 80.647484,524.490845 74.378265,523.012878 
	C69.638954,521.895508 68.695564,524.204590 69.485451,527.639160 
	C72.237640,539.606079 71.463142,552.538818 79.052246,563.226501 
	C79.776855,564.247009 80.055237,565.678467 80.241661,566.962585 
	C80.461296,568.475464 80.261925,570.046326 78.650246,570.836121 
	C76.741905,571.771362 75.325066,570.652954 74.402916,569.251099 
	C71.599037,564.988586 68.971146,560.610291 65.913918,556.336792 
	C67.304626,562.101990 65.550797,567.973267 67.098724,573.767944 
	C67.803902,576.407715 67.774559,579.869385 63.737061,580.189575 
	C59.950691,580.489807 59.918255,577.444580 59.625679,574.700195 
	C59.163895,570.368652 58.501949,566.058472 56.850323,561.796143 
	C56.363361,566.001099 55.868500,570.205200 55.397652,574.411926 
	C55.323860,575.071228 55.516296,575.794250 55.317455,576.399780 
	C54.331161,579.402954 55.642387,584.480469 50.448685,584.084106 
	C45.404213,583.699097 48.219040,579.121399 47.718410,576.437500 
	C46.687069,570.908447 49.350925,565.409973 48.313705,559.135315 
	C45.755009,565.010925 43.490868,570.264893 41.177284,575.496948 
	C40.207901,577.689209 39.098434,579.896484 36.080658,579.148376 
	C33.124233,578.415466 33.741005,575.968811 33.874069,573.436646 
M48.740017,472.297089 
	C43.169960,474.321960 41.324173,479.018188 44.317944,483.996399 
	C47.527599,489.333618 52.523430,492.965515 57.456909,498.011200 
	C61.080479,494.096100 64.478844,490.681274 67.560066,487.000977 
	C69.479706,484.708130 70.835213,482.011993 70.646759,478.786438 
	C70.470665,475.772552 68.966743,473.806335 66.228859,472.752930 
	C63.580235,471.733856 61.400543,472.418793 59.557903,474.604553 
	C58.758057,475.553406 58.311142,477.085541 56.123997,476.939972 
	C54.235863,475.402466 53.182957,471.836395 48.740017,472.297089 
z"/>
<path fill="#000000" opacity="1.000000" stroke="none" 
	d="
M125.578194,231.289093 
	C121.247810,231.462189 121.430328,229.396606 123.089081,226.996140 
	C126.768227,221.671906 130.629303,216.473694 134.377441,211.196564 
	C135.149857,210.109039 135.641571,208.815506 137.426895,209.440323 
	C139.281906,210.089569 139.741043,211.663696 139.134857,213.038208 
	C137.346085,217.094254 139.920609,218.581436 142.696808,220.476486 
	C152.426880,227.118347 162.053284,233.914001 171.646820,240.752594 
	C174.041824,242.459854 176.036697,244.349182 178.908829,241.385818 
	C180.147339,240.107971 181.970261,240.541992 184.151474,242.191635 
	C179.295319,249.228851 174.488983,256.193878 169.662476,263.188171 
	C163.954651,261.714691 166.412811,258.320190 167.589218,255.012650 
	C162.171417,251.199310 156.794846,247.415009 150.890717,243.259384 
	C146.587952,249.489441 142.496277,255.413864 138.133911,261.730225 
	C143.341904,265.272675 148.112106,268.516602 152.881393,271.761871 
	C154.502045,272.864624 155.883316,272.436340 157.456955,271.423309 
	C159.750290,269.946960 159.835220,270.078888 163.411301,272.082642 
	C158.365723,279.182373 153.353256,286.235474 148.460693,293.119873 
	C145.683868,292.511841 145.212906,290.630127 145.773819,289.141113 
	C147.452103,284.686005 144.427811,282.902863 141.609924,280.921082 
	C131.712296,273.960144 121.791870,267.031616 111.898453,260.064728 
	C110.225456,258.886627 108.779175,258.472382 107.047409,260.117798 
	C105.449844,261.635681 103.351418,262.022369 101.683464,260.315308 
	C99.741463,258.327728 101.941795,257.166199 102.953262,255.764236 
	C106.446472,250.922379 109.897598,246.049835 113.326683,241.162277 
	C114.196465,239.922577 114.905037,238.394043 116.792244,239.294327 
	C118.457840,240.088913 118.714287,241.841446 118.103760,243.176453 
	C116.569412,246.531570 118.553421,248.107452 120.871895,249.655746 
	C122.665138,250.853302 124.514626,251.970322 126.270035,253.220184 
	C132.450531,257.620758 132.440979,257.637848 136.882492,251.209351 
	C138.016525,249.568024 139.147766,247.924530 140.259598,246.268127 
	C145.106506,239.047348 145.104141,239.044952 137.727081,234.030396 
	C136.767136,233.377853 135.610962,232.900864 134.871674,232.056976 
	C132.104050,228.897797 129.185898,228.685944 125.578194,231.289093 
z"/>
<path fill="#000000" opacity="1.000000" stroke="none" 
	d="
M675.669800,926.200745 
	C674.959045,924.646667 674.234192,923.496704 673.832275,922.243225 
	C673.114990,920.006165 672.154053,918.229187 669.389771,918.429810 
	C666.858643,918.613403 664.950256,920.390686 664.799133,922.381348 
	C664.086853,931.766235 660.765564,941.071777 665.093567,950.651428 
	C666.709412,954.227966 669.756897,955.262634 672.726074,957.936340 
	C667.829529,960.828674 662.785706,961.671387 658.029968,963.097046 
	C656.105957,963.673828 655.193359,961.654968 656.217346,960.211670 
	C660.377197,954.348389 656.448120,949.265869 653.639832,945.395386 
	C649.714478,939.985107 645.251343,934.642334 639.405334,930.205505 
	C636.612122,934.090271 633.973938,932.302856 631.561707,929.632446 
	C629.326721,927.158264 626.783752,926.686462 623.955322,928.259277 
	C620.915955,929.949219 622.891968,932.385620 623.367065,934.443604 
	C625.044861,941.711548 626.711609,948.990112 628.713562,956.172302 
	C630.033569,960.907776 629.408691,966.951111 636.967773,968.418579 
	C631.516602,971.949829 626.068237,972.519287 621.003967,973.864624 
	C618.874756,974.430298 618.213623,971.700867 619.808350,969.997925 
	C622.024353,967.631592 621.420532,965.272461 620.709595,962.602417 
	C618.322632,953.638062 616.069153,944.637695 613.838379,935.632751 
	C613.352295,933.670410 613.293945,931.379456 610.537964,931.475281 
	C607.702942,931.573792 605.401978,932.753845 604.436340,935.707764 
	C603.804382,937.640991 604.113525,940.983643 601.581299,940.766357 
	C598.322144,940.486694 600.145691,937.016418 599.595581,934.993591 
	C597.587097,927.607971 598.350647,928.383179 605.619446,926.579773 
	C613.343445,924.663330 621.052979,922.659241 628.677551,920.387085 
	C631.464172,919.556641 633.535156,919.054199 634.451477,922.551331 
	C635.231201,925.527161 637.244690,925.170044 639.548035,924.553772 
	C642.838257,923.673340 645.854004,921.603333 650.043152,922.026733 
	C647.972229,929.261169 655.123718,931.118286 657.931763,937.288208 
	C658.605225,932.331116 659.118530,928.848267 659.514160,925.352112 
	C659.580811,924.763184 659.333252,923.844116 658.903076,923.537476 
	C652.309631,918.836731 658.103210,918.626709 661.095276,917.394104 
	C667.080139,914.928528 672.954407,912.132751 679.079285,910.087097 
	C684.564636,908.255066 690.475220,906.568726 695.283508,911.818665 
	C700.818726,917.862366 699.452881,927.455627 692.463379,932.259827 
	C690.860718,933.361328 688.271423,934.009766 689.625671,936.589478 
	C691.136902,939.468079 690.627502,943.915222 695.189758,944.642395 
	C696.862183,944.908936 698.828491,944.832458 698.921570,947.040466 
	C699.016296,949.289368 696.742798,949.191101 695.326111,949.826660 
	C692.451782,951.116028 689.518738,952.274231 686.642517,953.559448 
	C685.534607,954.054504 684.420349,954.582520 683.420044,953.630981 
	C682.406921,952.667358 682.695007,951.442139 683.443787,950.460449 
	C684.885071,948.570984 684.347900,946.841248 683.493774,944.885376 
	C680.842407,938.814392 678.353271,932.672546 675.669800,926.200745 
M684.392029,914.508545 
	C682.685974,914.536682 680.382629,914.684021 681.321533,916.984619 
	C682.939819,920.950012 683.583618,925.577881 687.362305,928.451233 
	C691.985840,924.350281 691.103821,919.566162 684.392029,914.508545 
z"/>
<path fill="#000000" opacity="1.000000" stroke="none" 
	d="
M746.215942,155.811951 
	C747.201172,155.653580 748.358337,155.078735 749.144104,155.403290 
	C754.989441,157.817764 757.262573,153.649811 760.054382,149.928238 
	C766.617920,141.178467 773.278564,132.497223 780.102783,123.950195 
	C781.914856,121.680679 782.773193,119.959190 780.599915,117.512383 
	C779.277161,116.023102 779.459534,114.144547 780.338440,112.145172 
	C785.075806,111.668976 786.922119,116.105095 789.994324,118.191696 
	C795.739563,122.093819 801.209106,126.514511 806.282471,131.265015 
	C812.735718,137.307526 814.068970,146.024185 810.383057,152.594772 
	C807.660828,157.447525 803.564941,159.865295 798.075562,159.308884 
	C792.848511,158.779053 791.090637,161.397537 791.381531,165.996841 
	C791.877563,173.839294 789.498108,182.020294 794.054077,189.417480 
	C794.366516,189.924774 794.313965,190.723938 794.259583,191.372971 
	C794.193115,192.167175 793.945251,192.946198 793.777466,193.723969 
	C786.252136,192.425003 778.585388,183.984268 778.690491,177.000854 
	C778.805420,169.359924 778.104065,161.701111 779.125977,154.077194 
	C779.248901,153.160034 778.845398,152.477539 777.427002,151.644363 
	C773.171143,154.955872 770.233887,159.666992 767.104431,164.178864 
	C766.346069,165.272247 766.975403,166.420395 767.790405,167.354874 
	C769.586975,169.414749 771.856873,172.168457 769.504700,174.288147 
	C766.607422,176.899078 765.166443,172.745667 763.256714,171.358017 
	C758.430908,167.851364 753.773010,164.114380 748.983093,160.556900 
	C747.640930,159.560074 746.134277,158.813126 745.944397,156.478516 
	C746.030884,156.016403 746.215942,155.811951 746.215942,155.811951 
M790.710876,133.279694 
	C787.300537,136.869217 784.492554,140.894974 781.886658,145.008606 
	C787.480652,150.800171 791.649353,151.143890 796.371460,146.382126 
	C801.454834,141.256058 801.535645,136.363449 796.754517,131.847534 
	C794.363159,129.588913 792.519531,129.426987 790.710876,133.279694 
z"/>
<path fill="#000000" opacity="1.000000" stroke="none" 
	d="
M592.831604,84.324150 
	C591.853638,87.866989 593.196716,89.666679 596.160217,90.822968 
	C597.985718,91.535225 600.885925,91.979187 599.676331,95.108376 
	C598.462952,98.247261 595.939087,96.271248 594.137146,95.933342 
	C587.481201,94.685196 580.867859,93.197937 574.268372,91.671288 
	C572.977417,91.372658 570.927002,91.597595 570.979126,89.397469 
	C571.029785,87.257683 572.608765,86.595016 574.439148,86.705643 
	C577.976196,86.919395 578.974731,84.629692 579.562317,81.821144 
	C582.104309,69.671417 584.571960,57.505123 587.258545,45.387402 
	C587.887085,42.552345 587.108093,40.926651 584.584412,39.838127 
	C582.550537,38.960869 581.074036,37.491817 581.969238,35.186985 
	C583.011475,32.503567 585.047058,34.287487 586.637451,34.631496 
	C594.233154,36.274525 601.816589,37.975456 609.396545,39.690166 
	C612.155457,40.314274 614.760315,41.342934 617.305542,42.611588 
	C623.606506,45.752308 626.606384,50.572689 626.428223,57.781025 
	C626.260010,64.589951 622.588196,68.390991 616.934387,71.000114 
	C616.047668,71.409302 615.117920,71.725258 613.264099,72.456871 
	C618.208008,81.089432 619.082092,91.526596 627.733337,97.908401 
	C628.906128,98.773560 630.173279,99.710587 629.415344,101.606514 
	C628.554626,103.759491 626.851929,103.460594 625.239197,103.083702 
	C621.690979,102.254448 618.147461,101.377602 614.657715,100.333855 
	C611.231934,99.309258 609.204529,96.685631 607.841736,93.547806 
	C604.940918,86.868782 602.135193,80.148476 599.237549,73.468025 
	C598.701477,72.232025 597.881592,71.150887 595.937012,71.238068 
	C594.187500,75.213135 593.888977,79.660965 592.831604,84.324150 
M597.487427,61.448532 
	C597.280823,63.155025 597.841492,64.070000 599.646912,64.729958 
	C604.963379,66.673378 609.490234,64.375084 611.542847,58.377094 
	C613.617188,52.315716 611.122070,47.206253 605.432068,45.329258 
	C602.516174,44.367371 601.022583,45.201900 600.411621,48.103264 
	C599.527100,52.304264 598.594666,56.495174 597.487427,61.448532 
z"/>
<path fill="#000000" opacity="1.000000" stroke="none" 
	d="
M424.523224,43.169163 
	C439.126953,49.975414 442.414154,64.611923 439.752380,76.957428 
	C436.848846,90.424149 423.638885,99.984756 409.950470,100.454811 
	C395.868744,100.938362 384.695251,96.063004 379.615723,82.670395 
	C371.097565,60.211422 386.440186,41.598190 407.120972,40.708363 
	C412.891754,40.460068 418.806335,39.925201 424.523224,43.169163 
M411.804657,48.493740 
	C399.798309,44.830124 389.850800,52.243126 390.424652,64.805260 
	C390.795624,72.925812 393.817719,80.338188 399.009247,86.592354 
	C404.081482,92.702797 410.725403,94.678543 416.577698,92.475677 
	C423.723541,89.785919 428.256989,83.595596 427.511871,75.445724 
	C426.513184,64.522423 422.330444,54.956730 411.804657,48.493740 
z"/>
<path fill="#000000" opacity="1.000000" stroke="none" 
	d="
M490.655487,60.246086 
	C491.811493,61.107601 492.454041,62.280567 494.373657,61.797943 
	C495.176483,54.185131 493.274139,46.534222 493.234253,38.833515 
	C493.220337,36.147915 490.483459,35.354931 488.242767,34.642624 
	C486.648834,34.135914 485.548370,33.344791 485.890106,31.452047 
	C486.221313,29.617510 487.718414,29.759022 489.005066,29.711514 
	C493.474335,29.546507 497.955872,29.840231 502.388245,28.775955 
	C503.676971,28.466515 505.566315,28.272772 506.086609,30.302294 
	C506.542786,32.081486 505.588074,33.075222 503.947021,33.646976 
	C499.423889,35.222870 500.217163,38.993286 500.488251,42.432796 
	C501.397766,53.971809 502.390137,65.504280 503.343536,77.039856 
	C503.520844,79.184807 503.534790,81.352951 503.868195,83.472000 
	C504.103119,84.965050 504.793640,86.602646 503.442078,87.655251 
	C501.858215,88.888794 499.918243,88.502106 498.280945,87.516685 
	C494.376495,85.166824 491.651672,81.580788 488.666718,78.240616 
	C479.810425,68.330231 470.158142,59.216591 459.935913,49.515419 
	C460.569916,60.134956 461.000580,69.917877 462.179047,79.676338 
	C462.554108,82.781837 463.383453,84.631462 466.493225,85.324318 
	C467.945160,85.647797 469.419098,86.201866 469.142029,88.270279 
	C468.856018,90.405037 467.212708,90.263268 465.759003,90.326271 
	C461.124756,90.527122 456.461731,90.086601 451.868774,91.222427 
	C450.837463,91.477463 449.421661,91.392982 448.999573,89.912231 
	C448.670929,88.759384 448.525543,87.343132 449.916656,86.924416 
	C456.734833,84.872169 454.818024,79.287262 454.430511,74.866730 
	C453.751526,67.121330 452.987518,59.390266 452.627014,51.617771 
	C452.466339,48.153473 451.864868,44.711838 451.596893,41.249592 
	C451.387543,38.544827 449.101135,38.424232 447.371338,37.679405 
	C445.936432,37.061546 444.511475,36.629234 444.865448,34.615974 
	C445.235382,32.511971 446.930450,32.728680 448.365295,32.708420 
	C452.692200,32.647346 457.032654,32.481945 461.345154,32.738239 
	C466.440979,33.041080 468.933624,37.434341 471.679321,40.703903 
	C477.478607,47.609745 484.201141,53.550423 490.655487,60.246086 
z"/>
<path fill="#000000" opacity="1.000000" stroke="none" 
	d="
M161.005600,754.038452 
	C162.235977,755.843567 163.223465,757.384399 164.313995,758.848511 
	C169.071274,765.235535 169.082123,765.227478 163.636566,770.330444 
	C167.427933,774.218323 171.240067,778.046143 173.853836,784.161011 
	C166.481339,783.024780 162.639343,786.905273 159.047714,791.653259 
	C159.273270,792.176147 159.385040,792.890381 159.796509,793.312561 
	C161.900894,795.471924 163.208817,800.463867 166.372559,799.008728 
	C170.021637,797.330322 175.389984,795.557434 174.792740,789.386414 
	C174.643387,787.843079 175.634796,786.821899 177.309494,787.113586 
	C179.027863,787.412964 185.661133,797.448120 185.721649,800.007141 
	C177.894287,798.567383 174.577927,805.560242 169.280411,808.946899 
	C165.950516,811.075806 163.132095,813.991333 159.992615,816.436401 
	C157.963547,818.016663 156.083801,819.540161 156.269775,822.482178 
	C156.343597,823.649841 156.156418,824.891663 154.620392,825.134033 
	C153.510773,825.309143 152.680069,824.741272 152.045959,823.915405 
	C149.923248,821.150879 147.842560,818.353943 145.718765,815.590210 
	C145.065842,814.740540 144.621948,813.875610 145.290192,812.879089 
	C145.915848,811.946045 146.788467,811.754272 147.904327,812.039673 
	C153.843536,813.559326 156.199341,808.145752 159.187347,805.204407 
	C161.383987,803.042236 157.628448,800.161255 155.852905,797.929199 
	C155.252197,797.174011 154.566864,796.486145 153.500763,795.301331 
	C149.893539,799.928650 142.098618,800.480103 143.047638,808.384094 
	C141.450516,809.806152 140.081848,809.205200 139.028122,808.016602 
	C136.940918,805.661987 134.913940,803.239502 133.056839,800.702576 
	C132.338562,799.721375 131.346527,798.349060 132.542114,797.089172 
	C133.310898,796.279236 134.381363,795.593994 135.638977,796.537598 
	C137.361206,797.829773 138.298828,796.396423 139.436401,795.443298 
	C146.173523,789.798035 152.910751,784.152222 159.711090,778.583679 
	C162.275970,776.483337 163.978073,774.701477 159.269043,773.274841 
	C156.579376,772.460083 156.545227,770.884460 157.920288,768.706909 
	C159.064484,766.895081 160.047791,765.011108 159.200424,762.614685 
	C157.803177,758.663147 156.178116,757.983276 152.686829,760.338562 
	C144.570984,765.813843 136.466156,771.305786 128.397522,776.850220 
	C126.527336,778.135254 124.357086,779.296814 125.170563,782.341919 
	C125.501160,783.579346 124.591957,784.637939 123.344002,784.945312 
	C122.019592,785.271545 121.035187,784.316711 120.471497,783.344971 
	C118.465210,779.886414 116.349579,776.521606 113.671928,773.533325 
	C112.946533,772.723755 112.642967,771.784607 113.351913,770.822327 
	C114.144287,769.746826 115.480614,769.299377 116.450523,769.976868 
	C119.363640,772.011658 121.365135,770.286743 123.584396,768.731689 
	C132.400696,762.553955 141.258392,756.435425 150.142838,750.265808 
	C149.156235,746.876099 147.521942,744.806030 144.324722,744.366150 
	C141.761337,744.013489 138.636902,745.410767 136.627029,741.667114 
	C139.812836,740.081543 142.690018,738.542297 145.657867,737.204102 
	C148.374680,735.978943 149.975052,737.565796 151.379669,739.705933 
	C154.471848,744.417297 157.660736,749.065125 161.005600,754.038452 
z"/>
<path fill="#000000" opacity="1.000000" stroke="none" 
	d="
M165.328644,177.301819 
	C167.828064,174.197052 169.992645,171.247940 172.502045,168.629257 
	C174.020157,167.045029 175.956696,166.221451 178.259033,167.940262 
	C180.637299,169.715775 183.255539,171.184555 185.841309,172.660446 
	C186.933594,173.283920 187.854279,173.786407 187.487122,175.267761 
	C187.163239,176.574677 186.382401,177.260025 185.033844,177.290558 
	C184.534805,177.301849 183.982346,177.460114 183.544617,177.301666 
	C174.221069,173.927231 170.803360,181.997437 165.597488,186.563477 
	C164.470993,187.551514 164.053650,188.858719 165.311401,190.029846 
	C169.052429,193.513245 172.112244,197.729980 176.389984,200.710480 
	C179.910522,198.806168 182.218506,195.906952 184.402145,193.038773 
	C186.599167,190.153046 181.232635,186.487045 185.583832,182.997330 
	C189.817184,186.796631 194.190964,190.677719 198.500671,194.628723 
	C199.320236,195.380066 199.285446,196.445557 198.548599,197.328506 
	C197.546616,198.529205 196.177368,198.387817 194.856216,198.140686 
	C190.441940,197.314941 185.738510,199.585709 183.828125,203.503281 
	C183.293564,204.599457 182.901886,205.854019 183.694565,206.823944 
	C186.953033,210.811081 190.370193,214.651505 194.757339,217.490189 
	C196.143875,218.387344 197.475021,218.032974 198.423813,217.131561 
	C204.166000,211.676239 211.024490,206.746735 207.833405,196.996124 
	C207.256592,195.233658 207.142044,192.744812 209.749161,192.008026 
	C212.229797,191.306992 212.661194,193.684219 213.573715,195.129501 
	C220.303528,205.788300 220.666748,204.591660 211.396927,213.592361 
	C203.642242,221.121933 196.472900,229.178177 189.293137,237.232819 
	C188.387451,238.248856 187.680313,239.531372 186.086288,238.640182 
	C184.489914,237.747665 184.188263,235.891312 184.915115,234.707367 
	C187.742859,230.101334 184.564590,227.632172 181.791565,225.030182 
	C173.447510,217.200714 164.992111,209.488907 156.712189,201.592743 
	C154.686584,199.661041 152.859329,199.423508 150.494019,200.624603 
	C148.790009,201.489899 146.836502,201.911987 145.493210,200.147186 
	C143.870041,198.014664 145.962082,196.836868 147.161545,195.621292 
	C153.121613,189.581085 159.140762,183.599167 165.328644,177.301819 
z"/>
<path fill="#000000" opacity="1.000000" stroke="none" 
	d="
M546.435486,89.314056 
	C544.577393,89.134087 543.250427,88.693558 543.084900,87.093033 
	C542.910278,85.404388 544.284912,84.880150 545.604858,84.523582 
	C548.757629,83.671951 548.790710,81.661575 547.716003,79.148277 
	C547.327087,78.238853 546.921143,77.284943 546.807739,76.317917 
	C546.113464,70.400162 542.630310,69.087769 537.093201,69.257332 
	C525.445374,69.614052 525.436829,69.335632 522.051086,81.227997 
	C523.233398,83.436470 528.179749,82.635338 526.927063,86.407448 
	C525.738098,89.987869 522.565308,87.119324 520.348022,87.280891 
	C515.760986,87.615150 511.132599,87.381660 506.574921,87.381660 
	C505.263977,84.298584 505.427948,82.140457 508.667603,81.799187 
	C511.595459,81.490791 512.993713,79.824692 514.217041,77.472656 
	C521.504700,63.461124 528.857605,49.483532 536.198669,35.499794 
	C536.892151,34.178829 537.438049,32.692169 538.426819,31.631372 
	C541.159668,28.699469 544.153748,29.322811 545.527954,33.068119 
	C551.182983,48.480122 556.823730,63.897724 562.364929,79.350861 
	C563.421204,82.296387 564.542542,84.905472 567.942505,85.736656 
	C569.378174,86.087624 570.343201,87.087349 569.984558,88.661179 
	C569.602234,90.338966 568.065613,90.341057 566.750732,90.331543 
	C560.115784,90.283577 553.551392,88.798843 546.435486,89.314056 
M541.643005,60.957981 
	C540.225952,56.991352 539.412598,52.774624 536.792358,48.475231 
	C534.712708,53.326904 532.448425,57.292152 531.318848,61.952202 
	C533.579773,62.597664 535.321472,63.485573 537.058289,63.476139 
	C538.657959,63.467453 541.342896,65.071800 541.643005,60.957981 
z"/>
<path fill="#000000" opacity="1.000000" stroke="none" 
	d="
M745.942200,156.122025 
	C745.229553,156.395554 744.413513,156.906403 744.010071,156.680496 
	C736.666687,152.568817 729.372925,148.368591 722.061340,144.183014 
	C722.981995,139.702316 726.298462,141.090393 728.705444,140.984222 
	C731.522217,137.601593 730.101929,133.379395 731.548950,129.871353 
	C731.606567,129.731567 731.559998,129.539871 731.535339,129.376373 
	C731.090881,126.430183 717.220703,119.105225 714.678711,120.658638 
	C712.014404,122.286797 709.539307,124.245499 707.086365,126.191856 
	C705.169189,127.713081 706.575806,129.110031 707.492432,130.484329 
	C708.395569,131.838440 708.745850,133.368042 707.520264,134.593079 
	C706.305481,135.807327 705.122437,134.740097 703.960632,134.080109 
	C700.209167,131.949097 696.410767,129.900696 692.650818,127.784416 
	C691.240967,126.990906 689.330383,126.329079 690.284241,124.133545 
	C691.021790,122.436020 692.883606,122.284561 694.177856,122.882568 
	C697.042480,124.206177 698.741272,122.712532 700.824646,121.146790 
	C713.809692,111.387779 726.877136,101.737999 739.949951,92.096329 
	C741.919983,90.643356 744.013733,88.632950 746.674927,90.227982 
	C749.364746,91.840134 748.377625,94.727707 748.148438,97.079651 
	C746.576172,113.213333 745.022766,129.352280 743.096619,145.445648 
	C742.618286,149.442535 747.151184,151.250122 746.241516,155.434586 
	C746.215942,155.811951 746.030884,156.016403 745.942200,156.122025 
M729.319031,118.783745 
	C730.789856,119.689606 731.895752,120.065544 732.645874,117.799461 
	C733.941467,113.885101 733.733948,109.879128 734.534607,104.975761 
	C729.622437,107.923538 726.099854,110.874435 722.905640,114.265442 
	C724.507019,116.518356 726.889160,117.110085 729.319031,118.783745 
z"/>
<path fill="#000000" opacity="1.000000" stroke="none" 
	d="
M884.323608,287.153778 
	C869.966064,287.773804 863.127808,282.921600 857.179199,268.284760 
	C853.398132,258.981293 855.604370,253.134415 864.542847,248.481079 
	C865.799011,247.827148 866.809753,247.835052 867.641357,248.861237 
	C868.571777,250.009262 869.616760,251.280792 868.822571,252.908875 
	C868.022949,254.548172 867.114197,256.142120 866.150940,257.692322 
	C861.810608,264.676880 863.984985,269.184570 869.154785,275.141724 
	C871.308899,277.623932 874.413574,279.668976 877.963623,277.283234 
	C881.349243,275.007935 883.381897,271.992004 882.287842,267.546265 
	C881.260681,263.372711 880.341553,259.162140 879.617126,254.926453 
	C877.725159,243.863922 880.143066,237.370728 888.232422,234.788574 
	C898.589050,231.482651 904.846069,233.757339 911.229614,242.470673 
	C912.690125,244.464279 913.851135,246.707626 914.938538,248.939102 
	C919.669495,258.647919 919.594788,258.945953 911.997437,266.091888 
	C910.702698,267.309662 909.552246,269.128326 907.429321,267.322937 
	C905.637573,265.799103 905.323059,264.207703 906.677246,262.097778 
	C909.880005,257.107574 909.678162,252.210556 906.271423,247.237930 
	C903.981873,243.896042 901.430298,241.031540 897.125244,242.123138 
	C893.027100,243.162262 891.278625,247.564758 892.619202,252.906784 
	C894.075989,258.711823 895.079834,264.500977 895.483215,270.516052 
	C896.054993,279.042389 892.051392,283.968170 884.323608,287.153778 
z"/>
<path fill="#000000" opacity="1.000000" stroke="none" 
	d="
M329.722290,82.210419 
	C327.573639,82.497742 326.108002,81.984215 324.730103,80.840805 
	C319.536133,76.530701 314.057983,77.838928 308.896851,80.653465 
	C305.684662,82.405205 303.426514,85.611687 304.646118,89.414581 
	C306.074219,93.867554 310.508667,94.243095 314.228851,93.961044 
	C320.228760,93.506157 326.204315,93.749512 332.186432,93.690041 
	C338.543091,93.626831 342.980194,97.168007 345.549286,102.542976 
	C348.359100,108.421577 348.173859,114.628036 344.015350,119.936096 
	C337.281097,128.531921 327.680481,131.378845 317.301239,132.377640 
	C314.499878,132.647217 312.627289,131.696381 311.356171,129.006302 
	C310.378998,126.938232 308.678040,125.223648 307.431183,123.267578 
	C306.571167,121.918396 305.140594,120.381279 306.493683,118.778915 
	C307.986511,117.011101 310.131226,117.390862 311.997986,118.258705 
	C313.022766,118.735115 313.932220,119.584099 314.719360,120.427742 
	C321.550812,127.749557 330.595001,123.499138 334.877686,118.828346 
	C338.150909,115.258499 337.065796,110.309212 332.825134,107.921951 
	C329.246918,105.907585 325.439514,106.004379 321.660217,106.788185 
	C317.017212,107.751122 312.323608,107.749382 307.762604,107.058571 
	C301.648712,106.132561 297.302734,102.227875 296.034729,96.221535 
	C294.574188,89.303413 295.416382,82.469788 301.381775,77.557434 
	C307.343445,72.648186 314.596436,70.785538 322.062378,69.678062 
	C324.162292,69.366577 325.928009,69.889359 327.115692,71.957008 
	C328.353180,74.111359 329.815735,76.140579 331.242279,78.180893 
	C332.520569,80.009178 332.010010,81.251572 329.722290,82.210419 
z"/>
<path fill="#000000" opacity="1.000000" stroke="none" 
	d="
M816.479736,218.694489 
	C810.940430,212.709518 804.695801,207.798523 800.377319,201.640137 
	C801.784424,199.679565 803.050598,199.400330 803.754822,199.859451 
	C809.009583,203.285416 811.562683,199.146164 814.550354,196.178177 
	C823.145325,187.639923 831.734253,179.095551 840.216614,170.661865 
	C835.663086,162.647583 831.901794,160.632172 823.998291,162.022247 
	C821.330627,162.491440 819.914795,161.496613 818.866394,158.926056 
	C821.460815,155.417480 825.723450,154.046417 829.152710,151.632812 
	C831.585938,149.920242 833.635315,152.224152 835.042847,153.930206 
	C840.974365,161.119949 847.719116,167.514771 854.321350,174.046188 
	C858.564880,178.244263 862.991394,182.258545 867.367859,186.320724 
	C869.405212,188.211777 869.763184,190.037918 867.879028,192.358704 
	C866.214478,194.408920 864.889221,196.736649 863.439819,198.958618 
	C862.597412,200.250137 861.748169,201.705490 859.932068,200.647369 
	C858.416260,199.764236 857.311401,198.410507 858.249146,196.498444 
	C861.399475,190.074829 857.196228,186.314728 853.316711,182.325317 
	C851.430237,180.385345 849.931213,180.150604 847.932068,182.200012 
	C838.874084,191.485474 829.769226,200.726318 820.579834,209.881393 
	C818.760986,211.693497 819.422607,213.214096 819.943176,215.247757 
	C820.484375,217.362198 821.361328,220.826935 816.479736,218.694489 
z"/>
<path fill="#000000" opacity="1.000000" stroke="none" 
	d="
M890.250488,324.617859 
	C888.125793,320.627502 886.133240,316.988861 884.262573,313.288574 
	C883.634277,312.045776 882.330017,310.519073 884.044434,309.306641 
	C885.504028,308.274414 887.271851,308.284119 888.406616,310.005463 
	C890.203369,312.731110 892.247803,311.775635 894.450317,310.668427 
	C905.600708,305.063141 916.722412,299.396698 927.964294,293.980286 
	C931.186401,292.427826 931.639160,290.755096 929.931213,287.804169 
	C927.276306,283.217316 924.626709,278.846832 918.294556,279.284851 
	C916.430908,279.413788 915.055542,278.501862 914.839050,276.469299 
	C914.590698,274.137115 916.176941,273.945526 917.972168,273.621216 
	C929.026367,271.624237 928.944275,271.622711 934.082642,281.900879 
	C939.508118,292.753326 944.976196,303.588348 950.677063,314.297150 
	C952.736938,318.166534 952.961365,320.983429 948.772522,323.452026 
	C946.233337,324.948425 944.025024,327.006226 941.679199,328.803284 
	C938.646667,327.367645 937.770325,325.337402 939.878784,322.825348 
	C944.289551,317.570160 942.271301,312.697418 939.450012,307.679840 
	C938.212952,305.479736 936.888489,305.003601 934.615356,306.160980 
	C923.209351,311.968262 911.771362,317.713104 900.310303,323.411072 
	C898.065796,324.526978 897.156677,326.159912 897.317627,328.600342 
	C897.444397,330.521545 897.283630,332.377747 894.588562,332.591644 
	C892.049194,330.751709 891.980896,327.433929 890.250488,324.617859 
z"/>
<path fill="#000000" opacity="1.000000" stroke="none" 
	d="
M100.151642,312.032471 
	C95.074417,309.490570 90.327431,307.123016 85.159508,304.545502 
	C81.638260,310.353760 77.658409,315.709473 82.580383,322.711060 
	C83.837311,324.499084 83.931824,326.780762 81.865685,328.707306 
	C77.811661,327.363525 75.153267,324.032013 71.922913,321.586426 
	C69.845612,320.013794 70.571854,317.673035 71.632362,315.666199 
	C73.724174,311.707825 76.007797,307.846710 77.992928,303.836853 
	C82.856232,294.013275 87.754883,284.200714 92.287849,274.223999 
	C93.675217,271.170532 95.288124,270.791443 98.042763,271.715302 
	C100.233727,272.450104 102.481918,273.039886 104.737808,273.546722 
	C106.331596,273.904816 108.235435,273.666718 108.188301,276.144257 
	C108.143364,278.507019 106.693848,279.397064 104.603348,279.321533 
	C97.881523,279.078705 95.087845,283.735962 92.487892,288.770325 
	C91.318367,291.034943 91.826508,292.402740 94.100952,293.524231 
	C106.618233,299.696320 119.097939,305.944641 131.104141,311.924561 
	C132.921127,311.907990 133.320450,310.905670 133.937897,310.144836 
	C135.308258,308.456207 137.177414,308.143311 138.810089,309.306335 
	C140.723358,310.669250 139.198456,312.198517 138.455933,313.631134 
	C135.782135,318.789795 133.034378,323.915710 130.564407,329.171448 
	C129.701614,331.007324 128.969284,332.684967 126.703957,332.018463 
	C124.654587,331.415466 124.673790,329.748077 125.317940,327.943054 
	C126.316864,325.143921 124.364182,324.144653 122.308388,323.128815 
	C115.014824,319.524689 107.754677,315.852936 100.151642,312.032471 
z"/>
<path fill="#000000" opacity="1.000000" stroke="none" 
	d="
M670.432800,71.448410 
	C672.729065,69.509903 674.770874,67.815216 676.812683,66.120529 
	C676.009460,64.016197 675.062866,63.591881 674.241394,63.018299 
	C672.839966,62.039711 672.287842,60.697151 673.154297,59.131153 
	C674.123657,57.379112 675.504089,57.910393 677.029602,58.483944 
	C681.377136,60.118488 685.806763,61.534786 690.151917,63.175144 
	C691.410461,63.650253 693.384949,63.742741 693.035339,65.936722 
	C692.743774,67.766029 691.287170,68.559135 689.737976,68.235466 
	C684.791870,67.202103 682.031555,70.816177 678.936401,73.315445 
	C673.391785,77.792709 667.854736,82.369377 662.925842,87.492630 
	C658.422302,92.173805 657.723328,98.861206 655.873474,104.843544 
	C655.189392,107.055908 657.883301,107.583626 659.153076,108.756264 
	C660.389771,109.898453 661.975769,110.888466 660.745544,112.858795 
	C659.626404,114.650993 658.015930,114.339943 656.343628,113.619919 
	C649.933411,110.859932 643.368103,108.549538 636.615967,106.755630 
	C635.237366,106.389351 633.516663,105.926682 633.935486,103.833008 
	C634.308228,101.969421 635.843140,101.513069 637.386169,101.724007 
	C641.686523,102.311874 642.707520,99.492554 644.373962,96.303368 
	C650.294250,84.973320 646.002319,73.907997 644.217102,62.754681 
	C643.484436,58.177444 642.878052,53.528214 638.649048,50.455471 
	C637.456299,49.588852 637.414124,47.966164 638.085571,46.777721 
	C638.928772,45.285336 640.307434,45.887074 641.597656,46.406509 
	C647.287720,48.697350 652.992676,50.938171 658.950623,52.486572 
	C660.779541,52.961887 663.322205,53.197971 663.067383,55.923794 
	C662.760071,59.210709 659.787109,57.779125 657.513611,58.406452 
	C657.193604,65.349831 659.369934,71.934868 660.311035,79.570869 
	C664.097473,76.547546 667.137939,74.119888 670.432800,71.448410 
z"/>
<path fill="#000000" opacity="1.000000" stroke="none" 
	d="
M230.988373,140.957138 
	C237.508209,144.951401 243.710999,148.774307 250.942291,153.231125 
	C249.513336,146.913376 248.319473,141.557480 247.082123,136.211655 
	C246.708649,134.598145 246.301620,132.982346 245.759872,131.419632 
	C243.880981,125.999832 246.312912,116.704567 235.055969,120.468208 
	C235.611160,115.944374 246.065048,107.160286 251.252945,106.034050 
	C252.743347,107.113434 252.775391,109.160339 252.033234,110.016449 
	C248.093903,114.560707 250.721725,119.290634 251.634171,123.703590 
	C254.514481,137.633926 257.956543,151.447327 260.986023,165.348495 
	C261.396271,167.231094 262.912567,169.519638 260.894867,171.350952 
	C258.516632,173.509491 256.585846,171.431442 254.652298,170.320511 
	C241.138763,162.556412 227.604034,154.827667 214.168976,146.929611 
	C211.169586,145.166367 208.432190,143.782227 204.842285,145.130524 
	C203.624313,145.587967 201.665588,145.837646 201.025482,143.914566 
	C200.429321,142.123459 201.847977,141.351944 203.126099,140.442688 
	C208.524780,136.602097 213.849136,132.657028 219.200317,128.749664 
	C220.462524,127.828018 221.564484,125.956795 223.392090,127.725815 
	C224.735947,129.026581 224.156479,130.408844 223.245346,131.761353 
	C221.655640,134.121155 222.456360,135.673523 224.857513,136.951340 
	C226.897812,138.037125 228.740936,139.493423 230.988373,140.957138 
z"/>
<path fill="#000000" opacity="1.000000" stroke="none" 
	d="
M254.097000,869.150513 
	C244.750595,875.794983 235.698700,882.233093 226.620316,888.633667 
	C225.444107,889.463013 224.150925,890.932800 222.637131,889.825562 
	C220.865692,888.529724 222.080994,886.754211 222.652817,885.283447 
	C225.759689,877.292236 228.940674,869.329834 232.317429,860.798462 
	C222.870300,865.620544 216.109772,873.514648 206.937378,877.402344 
	C205.194122,875.065674 205.917480,873.407654 206.609619,871.662170 
	C210.828339,861.022766 214.979523,850.356628 219.187012,839.712769 
	C220.518707,836.343933 222.292709,833.115417 220.802460,829.256653 
	C220.384521,828.174561 220.940720,826.951660 222.418106,826.235718 
	C227.894073,828.253601 231.187973,833.378479 236.259567,836.395386 
	C235.812469,837.301880 235.580261,838.319580 235.255859,838.349854 
	C228.647705,838.966736 227.864151,844.596924 225.930878,849.158630 
	C224.398087,852.775513 223.101883,856.492615 221.341949,861.105286 
	C229.953918,854.976685 237.846268,849.360168 246.951706,842.880310 
	C247.597870,854.980408 239.620453,863.378479 238.218399,873.626099 
	C242.958115,870.250000 247.403824,866.397705 252.462799,863.691956 
	C256.683014,861.434692 255.576218,857.532654 256.439484,853.879761 
	C261.643951,855.471558 264.370483,859.280884 268.785858,862.579041 
	C263.588013,865.246765 257.908905,864.924561 254.097000,869.150513 
z"/>
<path fill="#000000" opacity="1.000000" stroke="none" 
	d="
M867.058838,231.124023 
	C862.940918,234.502701 859.183655,237.777435 855.166138,240.693542 
	C851.554138,243.315292 847.832275,245.567490 850.116394,251.043472 
	C850.585510,252.168091 849.773499,253.344559 848.609558,253.898117 
	C847.407043,254.470001 846.320251,254.184433 845.597717,253.011230 
	C842.007385,247.181229 837.018616,242.459045 832.941284,237.014893 
	C832.108826,235.903381 831.242371,234.684280 832.313416,233.452728 
	C833.309204,232.307770 834.902527,232.470123 835.977722,233.294678 
	C838.700073,235.382278 840.904480,234.349030 843.136353,232.531876 
	C852.789551,224.672546 862.380676,216.733688 872.167725,209.044357 
	C874.491150,207.218903 875.566895,205.763672 874.155334,202.871002 
	C873.026306,200.557663 873.752930,198.658478 876.964172,197.830002 
	C881.495361,203.436005 885.739990,209.559586 890.844727,214.972763 
	C891.824951,216.012207 892.981262,217.842850 891.339478,219.446152 
	C889.776672,220.972275 888.248291,220.185776 886.946716,218.975388 
	C885.222534,217.372009 883.791443,217.838547 882.135681,219.177292 
	C877.241943,223.133957 872.255981,226.976654 867.058838,231.124023 
z"/>
<path fill="#000000" opacity="1.000000" stroke="none" 
	d="
M300.260132,144.350800 
	C296.720123,146.569794 293.527863,148.655426 290.299988,150.684387 
	C289.089203,151.445450 287.727661,152.788574 286.407837,151.074982 
	C285.303925,149.641739 285.156250,147.635376 286.634125,146.556427 
	C289.579132,144.406372 288.329346,142.340103 287.025360,140.134125 
	C280.701233,129.435593 274.306274,118.778137 268.082428,108.021645 
	C266.680115,105.598045 265.446289,103.945091 262.278534,105.126892 
	C260.636658,105.739433 259.051483,105.242050 258.293152,103.216942 
	C257.503021,101.106895 259.085754,100.493515 260.327881,99.857597 
	C265.954651,96.976944 271.412476,93.831055 276.643036,90.272835 
	C277.816620,89.474487 279.405884,88.560280 280.658966,90.137230 
	C281.674683,91.415436 281.728333,93.168205 280.569855,94.276787 
	C277.531555,97.184189 279.388123,99.401733 281.006042,102.097664 
	C287.065582,112.194588 292.937683,122.404961 298.797180,132.620331 
	C300.326538,135.286682 301.810608,137.393494 305.427948,135.911362 
	C306.948090,135.288528 308.460480,135.958389 309.019592,137.678772 
	C309.642883,139.596619 308.163849,140.330917 306.817749,141.032639 
	C304.754303,142.108276 302.669495,143.142883 300.260132,144.350800 
z"/>
<path fill="#000000" opacity="1.000000" stroke="none" 
	d="
M349.945435,78.873604 
	C348.952362,76.174561 348.229675,73.786980 347.267609,71.500114 
	C345.973724,68.424515 345.490662,64.276672 340.245087,65.969490 
	C339.061371,66.351486 338.149811,65.180832 337.916595,63.885628 
	C337.681610,62.580433 338.168884,61.449951 339.369873,61.013798 
	C346.072144,58.579842 352.798676,56.210907 359.545898,53.904568 
	C360.476349,53.586525 361.604553,53.772682 362.009644,54.962296 
	C362.471741,56.319401 362.397980,57.847862 361.156586,58.587772 
	C357.537628,60.744755 358.850494,63.203224 359.972046,66.219521 
	C364.129089,77.399391 368.057251,88.667519 371.864502,99.972168 
	C372.876648,102.977394 374.010376,105.126778 377.645294,104.730904 
	C379.041626,104.578827 380.492645,105.091026 380.808228,106.587494 
	C381.225433,108.565933 379.545380,108.960373 378.099030,109.470078 
	C372.163574,111.561829 366.240265,113.688324 360.319885,115.822510 
	C358.782990,116.376534 357.310730,116.511971 356.360474,114.924133 
	C355.298492,113.149666 356.574371,111.914207 357.866394,111.272911 
	C361.048523,109.693512 360.287964,107.362457 359.413696,104.936882 
	C356.323700,96.363754 353.212402,87.798302 349.945435,78.873604 
z"/>
<path fill="#000000" opacity="1.000000" stroke="none" 
	d="
M429.626282,956.786377 
	C429.984680,953.887573 430.176422,951.396790 430.705566,948.979858 
	C431.493134,945.382507 432.585754,941.864136 428.978485,938.999451 
	C428.593170,938.693420 428.926605,937.482300 428.926605,936.157166 
	C435.131622,937.153442 441.055328,937.679626 446.748413,939.118408 
	C455.250336,941.266846 457.983826,953.404602 451.150085,959.677368 
	C448.044769,962.527893 448.404449,964.790161 449.516663,967.931335 
	C451.328125,973.047241 454.049072,977.677124 457.523682,982.027405 
	C450.705139,984.581360 446.086609,982.851135 443.542206,977.023315 
	C441.700470,972.804993 440.192169,968.441101 438.449371,963.919373 
	C435.058533,968.811218 435.360779,973.032471 439.189056,977.216125 
	C439.927032,978.022461 440.409027,978.802795 439.820892,979.853882 
	C439.377594,980.646179 438.690613,981.010315 437.752075,980.841858 
	C433.522095,980.082825 429.277985,979.395142 425.065308,978.550476 
	C423.434998,978.223511 421.786346,976.225403 423.378571,975.575256 
	C429.356049,973.134521 426.968903,967.582458 428.507019,963.573059 
	C429.261566,961.606201 429.266418,959.351685 429.626282,956.786377 
M445.246704,946.607971 
	C444.310455,944.942383 443.143677,943.656128 440.492249,944.005859 
	C439.483887,948.355530 437.854675,952.683838 438.990997,957.538086 
	C445.059143,955.771790 445.806702,954.495605 445.246704,946.607971 
z"/>
<path fill="#000000" opacity="1.000000" stroke="none" 
	d="
M391.121948,963.063721 
	C390.840027,964.036011 390.444061,964.760986 390.616028,965.306946 
	C391.168091,967.059814 393.537384,968.729065 391.478851,970.581970 
	C389.706970,972.176819 387.711182,970.344727 385.888458,969.859680 
	C383.559082,969.239929 380.920349,969.286255 378.545441,966.753235 
	C387.385376,961.212341 390.746185,951.594299 396.248779,943.540588 
	C399.706238,938.479919 402.699341,933.104126 406.011566,927.940796 
	C406.952942,926.473267 407.794983,924.622986 410.112793,924.823975 
	C412.931976,925.068420 412.054718,927.457947 412.555725,929.023499 
	C414.250916,934.320435 413.204102,939.876465 414.129211,945.315857 
	C415.233521,951.809082 415.024994,958.527710 415.349274,965.150452 
	C415.491150,968.048340 416.163879,970.720520 418.176117,972.931702 
	C419.004822,973.842224 419.532715,974.913025 418.919647,976.112915 
	C418.147156,977.624756 416.689301,977.397156 415.413422,977.112427 
	C411.695435,976.282837 407.998230,975.357605 404.302399,974.431763 
	C401.106842,973.631226 400.652252,971.267517 403.316925,970.111755 
	C409.111603,967.598511 405.707672,963.480774 405.351593,960.287170 
	C404.923981,956.452393 400.799408,957.268677 398.131622,956.359741 
	C394.236298,955.032410 394.065460,958.766052 392.514008,960.583923 
	C391.985016,961.203796 391.676910,962.012207 391.121948,963.063721 
M401.465393,945.100037 
	C401.128967,946.989807 398.276306,948.617859 400.781372,950.786987 
	C401.848724,951.711182 403.558014,952.200073 404.450684,951.208801 
	C407.296600,948.048828 403.916840,944.972900 404.589966,940.964661 
	C403.233673,942.716187 402.526733,943.629211 401.465393,945.100037 
z"/>
<path fill="#000000" opacity="1.000000" stroke="none" 
	d="
M175.060562,830.013184 
	C173.511856,831.750061 172.205582,833.236633 170.694427,834.956360 
	C173.985519,839.011230 176.719559,843.289124 182.949997,840.858337 
	C183.924515,840.478027 185.373474,840.528015 185.898956,841.953125 
	C186.419800,843.365784 185.376053,843.957214 184.395493,844.688293 
	C176.848618,850.315491 176.476929,850.509888 170.443573,843.326416 
	C166.433228,838.551575 161.791336,834.326904 157.787460,829.545349 
	C158.496033,828.770020 158.883560,828.060181 159.142548,828.104370 
	C165.552338,829.197083 168.362335,824.115662 172.099319,820.630249 
	C175.371414,817.578430 178.351837,814.252686 182.041977,811.600342 
	C185.384964,809.197571 188.518723,806.268616 186.724121,801.589417 
	C187.625488,801.199219 188.051346,800.876709 188.193756,800.973083 
	C194.953445,805.546631 199.997116,811.932068 205.590469,817.719543 
	C207.000366,819.178345 202.086914,826.956848 199.833511,827.035278 
	C197.502319,827.116516 197.523849,825.388123 198.050568,823.923340 
	C199.806961,819.039246 196.830429,816.170715 193.746613,812.932556 
	C190.892868,814.684326 188.992065,817.190979 186.888489,819.459473 
	C185.836288,820.594177 184.975967,821.852905 186.089249,823.448303 
	C187.096573,824.891846 188.263611,825.994080 190.243225,825.321472 
	C191.501953,824.893860 192.994492,824.254883 193.821640,825.728027 
	C194.850861,827.560913 193.043350,828.267334 191.984375,829.247742 
	C189.566971,831.485718 187.197815,833.775818 184.942535,835.917969 
	C183.203857,835.570251 182.437592,834.565674 182.974777,833.358276 
	C184.127518,830.767090 184.411102,828.501892 181.518112,827.010254 
	C178.410080,825.407776 177.135193,828.291992 175.060562,830.013184 
z"/>
<path fill="#000000" opacity="1.000000" stroke="none" 
	d="
M703.044067,898.952087 
	C706.192566,897.352356 709.115356,896.100220 711.810730,894.471619 
	C716.278320,891.772339 719.559753,892.369507 721.787964,897.318237 
	C722.314880,898.488586 723.659790,899.235352 723.695679,900.772339 
	C722.382751,902.891296 720.708069,902.633545 719.185730,901.141785 
	C715.735840,897.761047 712.529297,899.760986 709.846924,901.890930 
	C706.984680,904.163940 710.032410,906.444336 710.920227,908.446655 
	C713.357056,913.941895 714.670532,914.392029 717.795654,911.793579 
	C718.999634,910.792542 718.993713,909.752686 718.969421,908.323181 
	C718.934753,906.280457 720.578003,904.709534 722.003784,906.725037 
	C724.485352,910.232971 727.134705,913.956238 727.117859,918.469910 
	C725.261536,919.460754 724.392639,918.522156 723.587341,917.743713 
	C721.650330,915.871582 720.000244,916.941895 718.243591,918.050293 
	C715.827271,919.575012 717.411560,921.187805 718.054626,922.779297 
	C718.365601,923.549011 718.645752,924.375549 719.145325,925.016113 
	C720.619873,926.906982 720.204041,931.180359 724.004028,930.139771 
	C727.794312,929.101868 731.662354,927.375732 731.681335,922.250793 
	C731.685913,921.015686 731.307739,919.339355 733.170410,919.025513 
	C735.156921,918.690796 735.647217,920.383484 736.153992,921.747620 
	C738.526367,928.132996 737.790039,929.617371 731.558838,932.711853 
	C726.956116,934.997620 722.180786,936.962402 717.915222,939.921021 
	C716.620239,940.819275 714.951843,942.001282 713.382507,940.573975 
	C712.173645,939.474487 712.971619,938.123718 713.733337,936.985779 
	C714.897339,935.246704 713.824036,933.763611 713.097534,932.336548 
	C709.257935,924.794312 705.362488,917.280273 701.449829,909.775513 
	C700.591125,908.128357 699.533813,906.639954 697.433167,906.397339 
	C696.276794,906.263733 695.010925,906.157227 694.891052,904.583313 
	C694.781067,903.138611 695.905762,902.592102 696.931946,902.053284 
	C698.844421,901.049255 700.786499,900.101624 703.044067,898.952087 
z"/>
<path fill="#000000" opacity="1.000000" stroke="none" 
	d="
M250.863251,892.886963 
	C244.594879,893.371582 242.916794,897.520630 242.915146,903.131592 
	C239.043869,902.153503 236.631119,899.548096 233.909286,897.595398 
	C232.139191,896.325500 232.733597,893.822083 234.728546,894.063599 
	C239.335342,894.621460 241.680481,891.285217 244.594208,889.193970 
	C251.994308,883.882690 259.085999,878.142212 266.317841,872.595398 
	C267.785278,871.469910 269.386719,870.653809 271.290649,871.020386 
	C272.736542,872.763550 272.286346,874.506348 271.821869,876.300842 
	C269.539429,885.118347 267.398468,893.974182 264.986816,902.755798 
	C264.016846,906.287781 262.726898,909.564758 263.984436,913.404846 
	C264.781525,915.838867 263.131104,916.975708 260.873749,915.616821 
	C257.090790,913.339355 253.480484,910.775208 248.791718,907.664368 
	C253.440659,905.519226 257.072906,903.241760 256.627411,898.274719 
	C256.331421,894.974548 253.037109,894.721375 250.863251,892.886963 
M258.334320,885.149231 
	C257.291290,886.117859 255.836395,886.688538 255.217468,888.389282 
	C256.489685,889.053772 257.346924,890.450439 259.165314,890.001587 
	C259.838409,888.043030 261.042572,886.245178 260.587769,883.744934 
	C259.869934,884.178711 259.331543,884.503967 258.334320,885.149231 
z"/>
<path fill="#000000" opacity="1.000000" stroke="none" 
	d="
M343.670807,927.224609 
	C346.956177,915.140930 358.813812,911.459412 366.835754,919.609802 
	C368.912048,921.719360 368.982635,928.660522 366.759003,930.502502 
	C365.082886,931.891052 364.225739,930.917236 363.659180,929.072021 
	C362.848633,926.432251 362.580322,923.394165 359.728333,921.879089 
	C357.682129,920.792236 355.580811,919.389343 353.408142,921.704590 
	C351.228149,924.027710 351.205963,926.465210 353.196167,928.852600 
	C355.636322,931.779602 358.667969,934.161011 360.668701,937.516357 
	C364.370178,943.724060 362.278625,952.868774 356.174805,956.403625 
	C350.154724,959.889954 339.372498,957.194092 336.460327,951.139465 
	C334.449341,946.958313 337.328003,943.222473 338.237549,939.352478 
	C340.928925,939.109802 341.241608,940.771240 341.298706,942.497375 
	C341.377655,944.883789 342.078522,947.110901 343.176361,949.144897 
	C344.663788,951.900696 347.055847,953.638855 350.133606,951.948792 
	C353.151581,950.291443 354.850067,947.680298 352.756622,944.058594 
	C351.499969,941.884583 350.002228,939.922302 348.101105,938.258362 
	C344.900238,935.457092 343.286865,931.962341 343.670807,927.224609 
z"/>
<path fill="#000000" opacity="1.000000" stroke="none" 
	d="
M886.711792,745.713867 
	C894.014587,748.483521 900.185059,752.261658 905.068848,757.939270 
	C905.284790,758.190369 905.565002,758.386353 905.779541,758.638489 
	C909.521667,763.037537 911.980103,767.998474 909.468994,773.666321 
	C906.928833,779.399536 901.240112,778.989319 896.450256,778.190491 
	C885.330627,776.336121 876.142456,770.817200 870.526672,760.806030 
	C865.249939,751.399353 869.791382,744.337585 880.448975,744.706604 
	C882.408264,744.774414 884.350586,745.329529 886.711792,745.713867 
M880.057190,761.456909 
	C883.037903,763.564148 885.901917,765.867859 889.030090,767.726929 
	C892.595276,769.845520 896.298279,771.810059 900.136108,773.359009 
	C902.030090,774.123413 904.572815,774.298889 906.021240,772.052551 
	C907.425110,769.875427 905.374146,768.643799 904.227539,767.416626 
	C896.650024,759.305603 887.860718,752.957092 877.249634,749.358521 
	C875.808044,748.869507 874.321594,748.405334 873.123901,749.842163 
	C871.791870,751.440125 872.515442,752.995056 873.407715,754.451477 
	C874.993713,757.040222 877.215393,759.063354 880.057190,761.456909 
z"/>
<path fill="#000000" opacity="1.000000" stroke="none" 
	d="
M542.277588,947.095581 
	C541.946289,949.941528 544.310913,952.260254 542.566284,954.800171 
	C540.735107,955.034424 539.338013,954.458496 538.685242,952.607056 
	C538.036377,950.766663 536.655090,949.559509 535.103455,948.588074 
	C532.243774,946.798035 529.497437,947.586792 527.629883,949.977173 
	C525.566956,952.617920 526.992859,955.228088 529.326904,956.835510 
	C531.476074,958.315674 534.058899,959.192749 536.500183,960.217346 
	C545.997620,964.203369 546.346130,970.362305 544.859619,978.064697 
	C543.669678,984.230652 538.293396,986.925293 529.849976,986.338501 
	C525.271423,986.020264 521.350647,984.882385 521.069641,979.143677 
	C520.965637,977.020386 520.367249,974.921326 519.967468,972.658813 
	C522.579102,970.898193 524.223572,972.439087 525.070679,974.438599 
	C525.874390,976.335571 526.908691,978.038513 528.251282,979.439575 
	C530.578735,981.868286 533.369568,982.687805 536.124329,980.012146 
	C538.856506,977.358459 538.774475,973.670044 535.559448,971.470825 
	C532.581360,969.433594 529.125427,968.102722 525.913940,966.396790 
	C520.935730,963.752319 519.956177,958.910950 520.125366,954.079468 
	C520.293213,949.288818 522.132324,944.894531 527.477051,943.413513 
	C532.619202,941.988586 537.620117,941.997620 541.966736,945.731628 
	C542.174194,945.909851 542.154846,946.352112 542.277588,947.095581 
z"/>
<path fill="#000000" opacity="1.000000" stroke="none" 
	d="
M284.360962,915.283569 
	C282.656647,918.116699 280.662170,920.288879 282.042999,923.810425 
	C282.823456,925.800842 281.435608,927.711243 278.983765,926.361694 
	C275.127075,924.238770 271.501495,921.695984 267.988373,919.464539 
	C268.119171,917.531616 269.033539,916.756104 270.288605,916.782654 
	C273.419006,916.848877 274.492462,914.518677 275.715240,912.377136 
	C279.417999,905.892578 283.093536,899.392212 286.727356,892.868774 
	C287.557251,891.378967 289.480469,889.800415 287.612335,888.040955 
	C285.845825,886.377014 283.599152,885.695068 281.210968,887.129822 
	C280.217773,887.726562 279.219421,888.327942 278.172150,888.817627 
	C277.161957,889.289856 276.206696,889.024780 275.473938,888.189392 
	C274.507660,887.087646 274.887024,886.043518 275.722931,885.074768 
	C277.234558,883.322937 278.740021,881.564880 280.289154,879.846497 
	C281.492004,878.512146 282.850677,878.599854 284.326599,879.458801 
	C291.925598,883.881348 299.543640,888.271057 307.146698,892.686707 
	C308.536926,893.494141 309.786530,894.670959 308.771362,896.295227 
	C307.225769,898.768188 307.758636,902.616943 304.763184,903.866943 
	C302.716766,904.720886 302.673767,902.281921 302.711853,900.882202 
	C302.814972,897.090576 300.671051,895.144226 296.984406,893.692627 
	C292.109100,900.338013 288.735046,907.901794 284.360962,915.283569 
z"/>
<path fill="#000000" opacity="1.000000" stroke="none" 
	d="
M317.483612,897.938843 
	C325.212860,901.531799 332.539673,905.042358 339.924377,908.426636 
	C341.451050,909.126160 343.722107,909.513550 342.982788,911.534607 
	C341.943146,914.376709 342.494781,918.155579 339.406616,919.878967 
	C337.638153,920.865845 336.648712,919.251099 336.734528,917.504333 
	C336.940491,913.311096 334.537506,911.568298 330.134308,910.680298 
	C326.187866,922.091492 317.818604,931.824158 317.572998,945.445557 
	C312.916901,943.313782 308.507446,941.294983 304.232544,939.337769 
	C304.232544,938.567200 304.131226,938.010681 304.247040,937.961121 
	C311.002075,935.068054 312.095856,928.111023 315.066071,922.603516 
	C317.807556,917.520081 319.863098,912.066650 322.165802,906.899475 
	C317.770874,901.803406 313.602844,906.680603 309.437622,907.263794 
	C309.272064,901.753113 312.541199,897.967834 317.483612,897.938843 
z"/>
<path fill="#000000" opacity="1.000000" stroke="none" 
	d="
M478.347778,968.051025 
	C478.287445,970.661133 478.299652,972.770874 477.684021,974.916504 
	C477.108093,976.923950 476.730652,979.202942 478.731598,980.926086 
	C479.794800,981.841675 480.643616,982.969055 479.780945,984.384521 
	C479.081451,985.532410 477.670502,985.539978 476.613007,985.275513 
	C472.864990,984.338501 468.760681,985.083130 464.343658,982.938599 
	C472.854767,976.915833 468.529510,968.071411 470.564087,960.755371 
	C471.255585,958.268860 470.523743,955.508423 471.275299,952.863220 
	C471.896515,950.676880 472.400177,948.140076 469.418396,946.917175 
	C466.781433,945.835815 464.930328,947.262512 463.297943,949.012207 
	C461.929352,950.479065 461.266510,953.114624 458.386414,951.683228 
	C458.230652,951.304199 457.960876,950.981201 458.007935,950.714050 
	C459.669495,941.282654 459.728638,940.788696 469.105682,941.829834 
	C475.848602,942.578491 482.695038,942.021545 489.360504,943.637207 
	C490.990295,944.032166 492.497498,944.380859 492.200043,946.280334 
	C491.769592,949.029236 493.978271,951.831665 492.148804,954.397034 
	C491.303131,955.582764 489.958679,954.946167 489.254852,953.858398 
	C488.635254,952.901001 488.421906,951.680420 487.801270,950.723999 
	C486.280060,948.379395 483.686890,947.598694 481.310638,948.056641 
	C479.323944,948.439514 479.250275,950.904663 479.387848,952.723022 
	C479.767487,957.740234 478.630096,962.631470 478.347778,968.051025 
z"/>
<path fill="#000000" opacity="1.000000" stroke="none" 
	d="
M581.019531,939.876343 
	C581.648682,943.423767 584.221985,946.272827 582.581970,950.025024 
	C578.007263,949.522827 576.376953,941.501587 570.094421,945.334778 
	C570.359802,955.413757 572.510315,965.440002 573.441956,975.588867 
	C573.485229,976.061157 573.682983,976.562866 573.942017,976.965149 
	C576.946472,981.632324 576.938354,981.535583 571.016296,982.496277 
	C568.097229,982.969788 565.249512,984.087585 562.320251,982.699463 
	C567.759094,971.235474 561.721619,960.114563 561.545044,948.859802 
	C561.524353,947.540527 560.795959,946.675049 559.442322,946.488342 
	C557.305420,946.193726 555.566956,946.806213 554.215454,948.605286 
	C552.973511,950.258484 552.858215,952.794495 550.077209,953.715027 
	C547.608887,950.453247 548.285645,946.718506 549.253601,943.442444 
	C550.075745,940.659912 553.247375,941.942993 555.440613,941.669312 
	C562.160889,940.830688 568.892456,940.074036 575.598572,939.134949 
	C577.423401,938.879395 579.162598,938.284424 581.019531,939.876343 
z"/>
<path fill="#000000" opacity="1.000000" stroke="none" 
	d="
M833.347778,825.827332 
	C840.778931,829.648376 845.944458,834.167114 846.565063,843.244141 
	C847.213745,852.731384 838.019653,858.864380 828.885376,855.306946 
	C820.599487,852.080078 815.160645,842.874939 816.755310,834.173218 
	C817.632080,829.389221 821.453918,825.979187 826.447998,825.692627 
	C828.601257,825.569092 830.770020,825.716675 833.347778,825.827332 
M841.185364,843.362854 
	C839.100708,837.885376 834.829224,834.512329 829.838562,832.012268 
	C827.390076,830.785645 824.556641,830.465393 822.476562,832.828003 
	C820.346741,835.247253 821.233215,837.918884 822.849915,840.173706 
	C825.696228,844.143555 829.259399,847.333252 833.809143,849.354309 
	C839.018250,851.668274 841.423462,850.042114 841.185364,843.362854 
z"/>
<path fill="#000000" opacity="1.000000" stroke="none" 
	d="
M498.730133,944.114868 
	C503.695190,943.645386 508.282928,943.249695 512.768616,944.164124 
	C506.925812,957.996460 508.817200,971.590820 511.361420,985.902771 
	C507.005554,986.701904 502.122253,986.673828 496.923248,985.809021 
	C503.547668,974.758789 499.506439,962.865234 501.616394,951.776733 
	C501.960449,949.968445 501.119659,948.571167 499.523560,947.619934 
	C498.250183,946.861084 497.538849,945.852661 498.730133,944.114868 
z"/>
<path fill="#000000" opacity="1.000000" stroke="none" 
	d="
M843.601318,817.380920 
	C845.218506,818.625916 846.065735,820.911621 848.340454,819.872375 
	C850.231445,819.008545 849.148315,817.379944 849.135193,815.946594 
	C849.116882,813.957581 850.669250,813.123596 852.141724,814.291504 
	C854.524963,816.181702 857.328430,817.902588 858.106262,821.119019 
	C857.702332,821.537415 857.518921,821.843384 857.249084,821.987976 
	C855.578979,822.883118 851.823486,820.507385 852.219849,823.932556 
	C852.555481,826.832581 855.311157,829.421814 858.683716,829.940002 
	C860.063721,830.152039 861.587402,829.461853 863.166260,830.682861 
	C861.747314,834.609802 857.902222,836.527954 855.671082,839.719177 
	C855.044983,840.614807 853.522217,840.425781 852.865601,838.979370 
	C848.558777,829.492065 841.468384,823.007446 831.717590,819.392334 
	C831.589844,819.344971 831.523132,819.133057 830.948547,818.317505 
	C834.871948,814.058716 838.471130,809.018494 843.193604,805.475708 
	C845.783691,803.532715 848.592102,807.235596 850.908813,809.099426 
	C850.134094,811.611877 848.482056,811.595825 846.838989,810.960510 
	C844.535217,810.069763 843.425415,811.617981 842.235718,812.965271 
	C840.569824,814.851746 842.355103,815.919373 843.601318,817.380920 
z"/>
<path fill="#000000" opacity="1.000000" stroke="none" 
	d="
M796.828857,878.147827 
	C792.155151,872.123413 787.374939,866.589417 783.389404,860.532532 
	C780.946594,856.820251 777.878418,859.393494 774.533081,859.061890 
	C776.221863,854.592957 778.927795,851.301147 779.151245,847.208740 
	C782.576721,846.297607 783.430542,849.164978 784.692383,850.730164 
	C791.523010,859.203552 798.308350,867.728638 804.696350,876.535461 
	C806.875305,879.539490 809.819519,876.630127 812.493713,879.005981 
	C808.416138,882.528748 805.128967,886.712402 798.307800,888.794006 
	C801.399231,883.952026 799.437317,881.130493 796.828857,878.147827 
z"/>
<path fill="#000000" opacity="1.000000" stroke="none" 
	d="
M879.677368,798.287842 
	C873.897278,793.812622 868.447266,789.473816 862.961914,785.179993 
	C858.356628,781.575012 858.338501,781.598206 851.832397,784.302856 
	C852.994202,779.651184 853.962646,775.503235 853.906189,770.701904 
	C860.081787,772.799438 863.941650,777.048828 868.411316,780.283691 
	C873.649109,784.074524 878.708984,788.136169 883.619324,792.344788 
	C886.428650,794.752625 889.436646,795.003601 893.725586,793.717529 
	C891.065491,799.326721 887.833740,802.937866 883.812805,806.648254 
	C882.275391,803.467896 883.553345,799.739319 879.677368,798.287842 
z"/>
<path fill="#000000" opacity="1.000000" stroke="none" 
	d="
M747.569336,887.919678 
	C751.034546,883.810181 754.986816,883.738037 758.908386,886.034973 
	C762.354248,888.053345 762.832214,891.634094 762.101379,895.226868 
	C761.289307,899.219116 757.504578,901.969177 753.660461,901.237793 
	C749.617615,900.468689 746.642761,898.317932 746.673645,893.637451 
	C746.685547,891.835571 746.398438,889.980591 747.569336,887.919678 
z"/>
<path fill="#000000" opacity="1.000000" stroke="none" 
	d="
M797.318359,245.705994 
	C815.862488,265.115875 831.583191,286.286591 845.246643,308.928802 
	C869.228149,348.669373 885.819580,391.323822 894.402710,437.010468 
	C897.492310,453.456146 899.359436,470.017914 900.567749,486.733063 
	C901.579285,500.726318 901.814270,514.713501 901.128296,528.613159 
	C899.986267,551.753296 897.057129,574.733887 891.901978,597.423401 
	C883.976318,632.306580 871.442017,665.401978 854.467224,696.821533 
	C841.645813,720.553467 826.359070,742.613098 808.941711,763.245239 
	C800.020203,773.813538 790.647583,783.927551 780.601196,793.380249 
	C760.864319,811.950806 739.604980,828.538391 716.529663,842.887207 
	C690.286926,859.205627 662.539978,872.152588 633.263306,881.817444 
	C608.022461,890.149902 582.162170,895.758545 555.674988,898.504395 
	C539.482239,900.183105 523.263855,901.691772 507.005951,901.275208 
	C462.993683,900.147461 420.047363,893.166382 378.507324,877.905273 
	C345.532745,865.790955 314.733063,849.747498 286.071899,829.552979 
	C263.575562,813.702148 242.863525,795.681946 224.337250,775.372925 
	C199.174286,747.788391 178.061096,717.315369 161.485519,683.749268 
	C145.703400,651.790100 134.564972,618.264282 127.923851,583.326843 
	C125.118187,568.566895 123.570068,553.562073 122.437935,538.502014 
	C121.235695,522.509399 121.239532,506.524078 121.885239,490.614716 
	C122.724289,469.941406 125.464119,449.378998 129.895126,429.085724 
	C134.900726,406.160950 141.684540,383.795532 150.657059,362.128845 
	C158.993607,341.997864 168.934021,322.674011 180.525284,304.189911 
	C188.022537,292.234314 196.132812,280.727417 204.974884,269.759369 
	C218.933411,252.444611 233.834442,236.076187 250.509384,221.194916 
	C268.304077,205.314346 287.149139,191.021057 307.370819,178.501816 
	C330.613770,164.112106 355.179749,152.499710 380.979736,143.354843 
	C402.935181,135.572678 425.364502,129.763489 448.301514,126.053497 
	C462.508698,123.755501 476.817810,121.668259 491.272552,121.721733 
	C497.278961,121.743950 503.206299,120.645554 509.154724,120.728142 
	C557.402100,121.398102 604.366699,128.897369 649.684082,146.205460 
	C681.392090,158.315720 711.031982,174.096390 738.557434,193.783752 
	C750.818787,202.553558 762.565918,212.050186 773.684265,222.358673 
	C781.741333,229.828964 789.635498,237.410553 797.318359,245.705994 
M583.004089,886.398071 
	C597.595520,883.214050 612.117676,879.739868 626.346313,875.178284 
	C656.242188,865.594055 684.602173,852.611145 711.352051,836.176453 
	C731.922424,823.538208 751.262878,809.131165 768.931885,792.744263 
	C783.038513,779.661194 796.296387,765.673035 808.344666,750.528381 
	C823.596375,731.357117 837.268921,711.230042 848.618713,689.535278 
	C860.039062,667.705688 869.680786,645.175232 876.896240,621.540405 
	C887.088928,588.152832 892.282043,554.005737 893.541687,519.252625 
	C894.269592,499.171906 892.418274,479.168671 889.773071,459.227997 
	C886.646606,435.658691 881.293762,412.625031 873.692688,390.150116 
	C864.999573,364.445953 853.726013,339.889832 839.757019,316.570557 
	C823.721802,289.801880 804.973022,265.179352 783.001770,242.997986 
	C773.166077,233.068344 762.733032,223.844070 751.940002,214.973846 
	C730.802917,197.602417 708.004700,182.791077 683.679932,170.350464 
	C664.746033,160.666916 645.062561,152.787460 624.748474,146.407043 
	C594.713257,136.973328 563.951111,131.156830 532.608215,129.581314 
	C502.398254,128.062744 472.214966,129.604736 442.350098,135.353333 
	C410.768616,141.432358 380.262299,150.845261 351.159973,164.494797 
	C328.872528,174.947998 307.789062,187.478516 287.794098,201.964798 
	C262.352600,220.397110 239.737198,241.684982 219.370789,265.546356 
	C200.058380,288.172882 183.951340,312.903839 170.499878,339.324768 
	C156.600494,366.625519 146.206039,395.271027 139.302185,425.186340 
	C132.823944,453.257385 129.548920,481.658173 129.351486,510.438416 
	C129.246613,525.723938 130.544174,540.908813 132.231003,556.096191 
	C134.819229,579.399170 139.725525,602.193787 146.799820,624.494873 
	C156.375412,654.681091 169.313797,683.319885 186.077850,710.303894 
	C198.813278,730.803284 212.910812,750.245117 229.268036,767.877930 
	C244.519516,784.318787 260.742676,799.840027 278.690338,813.477356 
	C306.901001,834.912903 337.298462,852.438965 370.127228,865.741150 
	C390.308228,873.918518 411.077789,880.191162 432.388367,884.663696 
	C454.973358,889.403625 477.733521,892.658508 500.872437,892.658081 
	C511.205536,892.657898 521.542969,892.827820 531.870056,892.577209 
	C537.818420,892.432922 543.773254,891.785767 549.684387,891.041504 
	C560.523987,889.676697 571.333374,888.072510 583.004089,886.398071 
z"/>
<path fill="#000000" opacity="1.000000" stroke="none" 
	d="
M506.653137,329.999878 
	C506.655975,310.000061 506.552887,290.499207 506.743683,271.001221 
	C506.786407,266.634399 505.410156,265.080627 501.011963,265.243347 
	C496.787994,265.399628 492.445251,266.003876 487.187683,264.372986 
	C495.058289,250.577240 502.697113,237.187775 511.066498,222.517792 
	C519.354797,236.997574 526.998230,250.350739 534.850586,264.068848 
	C530.053284,266.230408 525.866211,265.298431 521.856323,265.248718 
	C517.930786,265.200073 516.231812,266.152527 516.253784,270.519501 
	C516.414734,302.518402 516.383240,334.518555 516.298279,366.518005 
	C516.289001,370.017334 517.186584,371.650452 521.033691,371.695953 
	C554.472900,372.091583 586.742188,378.784058 618.137695,390.056366 
	C620.615112,390.945862 623.136536,391.712738 625.989929,392.652710 
	C630.258667,384.225006 633.033813,375.366882 636.395874,366.766876 
	C643.527344,348.524902 650.442078,330.198303 657.463318,311.913147 
	C659.889954,305.593506 659.771606,305.383179 653.330933,303.108459 
	C650.362488,302.060059 647.468384,300.799042 644.554443,299.600647 
	C644.109863,299.417786 643.740662,299.051483 642.584595,298.246246 
	C654.299988,287.858154 666.296631,278.307404 679.570190,267.905884 
	C682.192566,284.442596 684.579468,299.494446 687.079468,315.259613 
	C680.318359,314.463226 675.305176,310.243134 668.585693,309.758423 
	C657.702454,338.335297 646.750732,367.091766 635.812134,395.813873 
	C636.847290,398.229309 639.190491,398.601044 641.067627,399.418518 
	C665.101196,409.884521 687.410095,423.266937 708.313721,439.030579 
	C713.348328,442.827240 718.315247,446.719452 723.203857,450.702057 
	C726.448608,453.345459 728.322632,453.677582 731.404541,449.623505 
	C744.935181,431.824799 759.029053,414.454132 772.930420,396.937531 
	C775.705688,393.440521 778.498657,389.956360 781.347168,386.519012 
	C783.303040,384.158722 783.851807,382.342255 780.961914,379.939240 
	C777.578308,377.125702 773.303772,375.244476 770.288696,370.301727 
	C784.904297,364.336731 799.188049,358.507141 814.080383,352.429199 
	C814.497375,359.018250 812.669067,364.600952 812.073608,370.277344 
	C811.194641,378.656921 809.572693,386.956787 808.351379,395.302917 
	C807.684143,399.862518 807.058899,400.194916 803.241943,397.381409 
	C800.304688,395.216278 797.380859,393.016388 794.613770,390.642334 
	C792.722778,389.019989 791.379272,389.447052 790.025391,391.177979 
	C778.889648,405.415405 767.756470,419.654846 756.611572,433.885071 
	C750.788208,441.320587 744.969971,448.760468 739.085388,456.147369 
	C737.837158,457.714264 736.694336,459.289764 735.807251,461.665405 
	C743.275330,467.850891 750.295166,474.688873 756.975647,481.835724 
	C763.989136,489.338837 770.530029,497.281738 777.385010,504.936127 
	C779.808105,507.641846 779.166504,509.498260 777.012390,512.191162 
	C765.324768,526.802307 751.504822,539.351562 738.363037,552.546692 
	C735.491943,555.429382 735.979065,557.061523 738.257019,559.927368 
	C751.043640,576.014893 763.478638,592.382324 776.296997,608.444031 
	C781.323364,614.742065 785.817383,621.526917 791.810242,627.384583 
	C796.634460,623.704529 801.194031,620.226440 806.702087,616.024780 
	C809.441345,632.063782 811.887207,647.197998 813.613098,664.005432 
	C798.167175,657.849854 784.018494,652.211304 768.698975,646.106079 
	C774.187073,641.616394 778.593750,638.011475 783.437195,634.049194 
	C777.349854,626.121765 771.400757,618.242371 765.311096,610.473206 
	C754.774231,597.030334 744.033386,583.745911 733.608887,570.217224 
	C727.810791,562.692810 727.900391,562.380432 720.812012,568.064758 
	C700.556885,584.307800 678.895813,598.379761 655.911255,610.414612 
	C650.028381,613.494934 643.966675,616.241333 637.928162,619.012695 
	C635.890442,619.947876 635.208435,620.896057 636.103394,623.217468 
	C646.784607,650.923767 657.366211,678.668457 667.984009,706.399231 
	C668.035034,706.532593 668.229919,706.610718 668.649719,706.952271 
	C672.999390,706.706482 676.769409,703.997498 680.974426,702.636353 
	C685.872986,701.050781 686.510925,701.657288 685.675354,706.688049 
	C683.480225,719.905396 681.381226,733.138733 679.231995,746.363770 
	C679.180664,746.679382 678.988403,746.972107 678.364014,748.469360 
	C666.305969,738.652161 654.524353,729.060059 642.518738,719.285522 
	C644.864380,714.918884 649.355835,714.877258 652.825867,713.640015 
	C657.725586,711.893127 658.722290,710.530090 656.672119,704.941162 
	C647.362976,679.563965 637.287476,654.481384 627.951294,629.118835 
	C627.386963,627.585815 626.633667,626.122498 625.798218,624.244385 
	C617.965515,626.783569 610.325684,629.350952 602.629944,631.737976 
	C579.902832,638.787415 556.701721,643.205322 532.901245,644.513611 
	C528.950195,644.730774 524.997131,645.685913 521.015930,645.332153 
	C516.644470,644.943726 515.245911,646.660339 515.269958,651.040161 
	C515.426514,679.539062 515.349121,708.039185 515.348877,736.538940 
	C515.348816,740.205566 515.463013,743.876526 515.319763,747.537476 
	C515.202271,750.538940 516.404968,751.656738 519.418274,751.692810 
	C524.174316,751.749756 528.992310,751.041443 534.288086,752.317139 
	C531.979492,759.286316 527.692566,764.834167 524.438538,770.884705 
	C520.976685,777.321777 517.183350,783.579956 513.588013,789.946228 
	C511.848419,793.026611 510.160828,792.767944 508.541687,789.948181 
	C501.849213,778.292664 495.191376,766.617249 488.540619,754.937866 
	C488.137634,754.230164 487.762573,753.442383 488.434845,752.227783 
	C492.718872,751.016418 497.369354,751.706848 501.937256,751.697998 
	C505.308411,751.691467 506.702789,750.619507 506.693451,747.081299 
	C506.608093,714.748535 506.627808,682.415344 506.673523,650.082397 
	C506.677734,647.116516 505.933319,645.425476 502.516571,645.333740 
	C465.911346,644.351196 430.547150,637.095764 395.863342,623.560608 
	C384.738098,652.758484 373.729095,681.651184 362.581757,710.907104 
	C368.334412,713.270691 373.614685,715.440247 380.285736,718.181213 
	C367.573517,728.591492 355.700958,738.314148 342.695221,748.964844 
	C340.110229,732.604553 337.722351,717.491516 335.218811,701.646667 
	C342.299530,702.699097 347.354919,705.762878 353.372864,707.371277 
	C356.807098,698.458191 360.225281,689.705750 363.555267,680.919739 
	C370.732849,661.982117 377.796844,643.001038 385.083588,624.105713 
	C386.284790,620.990784 386.090973,619.658752 382.732941,618.126648 
	C353.903137,604.973022 326.951141,588.723083 302.439758,568.545227 
	C300.030548,566.562012 297.523712,564.697327 294.512634,562.349060 
	C289.910706,568.087891 285.343262,573.695129 280.871155,579.377502 
	C267.745850,596.054871 254.737976,612.825562 241.490112,629.404724 
	C238.783218,632.792297 238.476089,635.079590 242.414673,637.412292 
	C243.679626,638.161438 244.644852,639.403931 245.792480,640.366699 
	C247.747543,642.006836 251.391846,642.949036 250.842804,645.786560 
	C250.337143,648.399841 246.649277,648.424438 244.283951,649.406616 
	C234.319672,653.544556 224.336395,657.636841 214.347733,661.715698 
	C212.533066,662.456665 210.720154,663.358887 207.758408,662.871521 
	C210.036285,647.661255 212.291931,632.599365 214.603897,617.161438 
	C221.062073,619.285767 224.466156,624.839050 230.557098,627.299744 
	C249.243683,603.577148 268.031158,579.726501 286.708008,556.016235 
	C278.255463,547.477600 269.844543,539.216064 261.713287,530.687805 
	C255.875351,524.564758 250.380646,518.112122 244.796799,511.750305 
	C242.867172,509.551849 242.530930,507.755554 244.801056,504.915100 
	C252.796371,494.911072 262.096893,486.117004 270.418304,476.427429 
	C274.201141,472.022552 279.128510,468.771210 283.334503,464.740448 
	C287.063568,461.166687 285.966248,458.746582 283.394684,455.517853 
	C275.025513,445.009888 266.822815,434.369537 258.494568,423.828705 
	C249.455414,412.388062 240.347366,401.001831 231.134857,389.422821 
	C225.155273,391.277496 221.829773,397.254791 215.173157,399.574615 
	C212.851669,383.977936 210.611145,368.925293 208.164948,352.490723 
	C223.701340,358.689117 237.912231,364.358734 252.671585,370.247131 
	C249.382065,374.802277 245.259140,377.295074 241.518417,380.093445 
	C238.929688,382.029999 239.011414,383.436157 240.843384,385.758606 
	C255.200439,403.959503 269.465637,422.232849 283.787018,440.461945 
	C286.650879,444.107269 289.685364,447.618774 292.542725,451.269012 
	C294.250366,453.450439 295.999695,453.564636 298.017578,451.822418 
	C313.913055,438.098602 331.157593,426.274414 349.223907,415.630920 
	C359.399506,409.636139 369.836731,404.117340 380.746948,399.559235 
	C386.649994,397.093018 387.113861,396.513672 384.793365,390.348877 
	C375.042847,364.444824 365.157227,338.591644 355.411285,312.685883 
	C354.266602,309.643280 352.894562,308.981476 349.849213,310.385345 
	C345.671478,312.311218 341.420532,314.235291 335.730713,315.048218 
	C338.183197,299.442627 340.563995,284.293213 343.191803,267.571838 
	C356.145782,278.186279 368.074921,287.960968 380.426208,298.081543 
	C376.291046,301.038940 372.242096,302.258331 368.210052,303.451874 
	C364.127014,304.660492 363.264526,306.836151 364.834625,310.882782 
	C374.435669,335.627747 383.842468,360.448029 393.320892,385.240601 
	C393.735443,386.324982 394.327789,387.351776 394.647461,388.460144 
	C395.670532,392.006989 397.512146,392.496918 401.006531,391.222137 
	C413.783813,386.560791 426.675415,382.228058 440.023651,379.385437 
	C454.769196,376.245331 469.555817,373.613068 484.633942,372.462372 
	C490.441498,372.019196 496.225281,371.577942 502.029205,371.692749 
	C505.510223,371.761597 506.728241,370.432617 506.693146,366.995392 
	C506.568817,354.831360 506.650055,342.665253 506.653137,329.999878 
M584.720215,594.793213 
	C587.166504,594.383301 589.630249,594.056763 592.056519,593.550781 
	C622.072815,587.291626 651.001526,577.654541 678.671021,564.516113 
	C708.510803,550.347229 736.147888,532.620422 761.613403,511.501190 
	C764.910522,508.766815 764.518066,507.235016 761.720459,505.056610 
	C752.690308,498.025085 743.692688,490.965088 734.274109,484.433502 
	C705.052673,464.169220 673.693054,448.059235 640.136353,436.418579 
	C611.633545,426.531097 582.378601,419.696289 551.494202,417.082001 
	C559.583740,422.028290 567.846802,425.490509 574.436157,432.826660 
	C556.088074,436.690155 545.082520,447.243530 543.718201,465.011108 
	C542.774109,477.305145 548.826538,487.904968 559.754761,494.067688 
	C578.231750,504.487396 593.389465,498.148682 606.408020,481.578796 
	C611.616150,498.640472 611.615784,514.556335 608.035400,530.314148 
	C600.943054,561.528870 582.161316,583.911926 554.114014,599.119995 
	C564.234863,598.541504 574.101440,597.074585 584.720215,594.793213 
M386.466370,581.811340 
	C412.261719,590.051514 438.400848,596.623840 465.893402,598.278259 
	C431.116211,578.226135 411.966034,548.476929 411.942230,508.623322 
	C411.918427,468.788361 431.173096,439.029541 465.656677,418.541534 
	C438.119476,420.132904 411.910400,426.312714 386.360870,434.917725 
	C338.807434,450.933563 295.645782,474.899323 257.413666,507.950958 
	C259.208496,509.836182 260.391418,511.239227 261.743652,512.453796 
	C263.094788,513.667419 264.654419,514.645264 266.055878,515.807007 
	C288.129395,534.106018 312.373566,549.051025 337.933594,561.874268 
	C353.357117,569.612000 369.444244,575.853699 386.466370,581.811340 
z"/>
<path fill="#000000" opacity="1.000000" stroke="none" 
	d="
M411.556396,448.889526 
	C409.167786,452.816040 403.379333,453.856049 400.455261,451.212952 
	C398.775604,449.694641 399.479858,448.238892 400.714233,446.890961 
	C403.585022,443.756073 408.826294,444.557953 411.556396,448.889526 
z"/>
</svg>