<?xml version="1.0" standalone="no"?>
<!DOCTYPE svg PUBLIC "-//W3C//DTD SVG 20010904//EN"
 "http://www.w3.org/TR/2001/REC-SVG-20010904/DTD/svg10.dtd">
<svg version="1.0" xmlns="http://www.w3.org/2000/svg"
 width="1021.000000pt" height="1021.000000pt" viewBox="0 0 1021.000000 1021.000000"
 preserveAspectRatio="xMidYMid meet">

<g transform="translate(0.000000,1021.000000) scale(0.100000,-0.100000)"
fill="#000000" stroke="none">
<path d="M4795 10203 c-403 -32 -652 -71 -974 -154 -1325 -341 -2468 -1216
-3155 -2417 -851 -1486 -887 -3348 -97 -4867 506 -972 1308 -1756 2286 -2235
547 -268 1091 -425 1720 -497 200 -22 808 -26 1005 -5 1260 132 2327 648 3200
1548 683 704 1146 1598 1334 2569 100 520 116 1166 41 1683 -123 847 -448
1640 -945 2307 -289 389 -663 767 -1045 1056 -776 588 -1712 936 -2710 1009
-126 9 -560 11 -660 3z m855 -87 c615 -73 1125 -222 1655 -481 228 -112 368
-192 575 -329 941 -625 1643 -1540 2000 -2606 352 -1052 341 -2236 -30 -3268
-567 -1580 -1867 -2774 -3480 -3196 -600 -157 -1270 -200 -1905 -121 -843 105
-1675 441 -2363 954 -289 216 -636 542 -851 801 -659 790 -1045 1698 -1158
2721 -22 204 -25 793 -5 989 88 843 352 1597 798 2278 561 856 1353 1513 2298
1906 466 194 966 316 1501 365 160 15 806 6 965 -13z"/>
<path d="M4870 9919 c-25 -4 -67 -8 -93 -8 -41 -1 -48 -4 -45 -18 2 -11 14
-19 31 -21 37 -4 44 -23 56 -157 14 -144 14 -234 -2 -265 -20 -42 -92 -72
-159 -68 -100 7 -130 56 -148 243 -5 61 -13 131 -16 158 -6 47 -6 47 30 62 40
17 51 51 14 42 -13 -3 -57 -8 -98 -12 -116 -9 -140 -14 -140 -30 0 -9 10 -15
23 -15 12 0 27 -4 34 -8 8 -5 20 -78 33 -191 23 -215 37 -252 110 -288 88 -45
268 -25 333 35 63 59 69 100 47 310 -9 92 -15 172 -13 179 3 6 18 16 34 22 28
9 38 25 22 34 -5 2 -28 0 -53 -4z"/>
<path d="M5090 9917 c0 -8 14 -20 31 -26 29 -10 30 -13 25 -48 -3 -21 -15
-117 -26 -213 -27 -228 -25 -219 -60 -227 -21 -4 -30 -11 -30 -24 0 -17 9 -19
70 -21 39 -1 80 -2 93 -2 29 -1 29 28 0 32 -12 2 -26 9 -31 15 -8 10 30 393
41 403 1 2 40 -101 86 -229 46 -128 86 -235 90 -239 13 -15 33 14 133 197
l103 190 3 -155 c1 -85 0 -165 -3 -177 -3 -15 -16 -25 -37 -31 -17 -4 -33 -13
-35 -19 -5 -13 32 -19 165 -28 76 -5 83 -4 80 12 -2 9 -14 20 -28 23 l-25 6
-3 231 c-2 200 0 233 14 247 8 9 24 16 35 16 10 0 19 6 19 14 0 15 -115 32
-148 22 -10 -4 -58 -81 -117 -191 -55 -101 -103 -181 -106 -177 -4 4 -37 94
-75 200 -42 118 -75 194 -84 196 -8 3 -52 8 -97 11 -70 6 -83 5 -83 -8z"/>
<path d="M6000 9833 c0 -11 11 -25 25 -31 14 -6 25 -17 25 -24 -1 -7 -33 -110
-73 -228 l-72 -215 -32 -3 c-17 -2 -34 -9 -36 -16 -4 -9 20 -19 82 -35 103
-25 101 -25 101 -8 0 8 -11 19 -25 25 -14 6 -25 17 -25 24 0 19 114 378 120
378 3 0 22 -109 43 -242 20 -133 41 -246 46 -251 12 -12 29 6 184 195 66 81
122 147 123 145 1 -1 -14 -78 -35 -172 l-36 -170 -37 -3 c-29 -2 -38 -8 -38
-21 0 -14 10 -20 40 -25 22 -3 74 -17 115 -30 66 -21 75 -22 75 -8 0 9 -11 25
-25 37 l-24 20 45 210 c24 116 47 218 50 227 3 10 18 18 37 20 19 2 33 9 35
18 2 11 -16 19 -70 31 -40 9 -77 15 -83 13 -5 -3 -68 -76 -140 -164 -71 -87
-133 -156 -136 -152 -4 4 -18 90 -33 192 -15 102 -31 194 -35 205 -6 14 -30
27 -82 42 -41 12 -82 25 -91 28 -13 5 -18 2 -18 -12z"/>
<path d="M3947 9785 c-121 -45 -167 -153 -108 -252 25 -40 73 -61 167 -73 103
-14 141 -27 159 -53 40 -57 -4 -129 -87 -141 -59 -9 -102 8 -145 58 -18 20
-42 36 -53 36 -11 0 -20 -2 -20 -3 0 -2 13 -35 28 -73 l28 -69 63 -3 c84 -4
159 13 214 48 55 35 80 79 81 141 0 101 -64 150 -221 170 -119 15 -153 34
-153 88 0 56 42 85 122 86 51 0 60 -3 90 -32 41 -40 73 -45 64 -10 -3 13 -12
40 -21 60 l-15 37 -78 -1 c-42 0 -94 -7 -115 -14z"/>
<path d="M3567 9671 c-92 -37 -106 -56 -41 -56 l39 0 36 -90 c20 -49 46 -116
57 -148 l22 -58 -23 12 c-12 7 -89 49 -172 94 -82 46 -167 92 -189 103 l-38
21 -57 -21 c-31 -11 -67 -25 -80 -30 -32 -12 -11 -36 27 -30 l29 4 81 -211
c45 -117 82 -218 82 -226 0 -8 -9 -20 -20 -27 -18 -12 -30 -54 -12 -46 4 2 44
17 90 33 58 21 82 34 80 45 -2 11 -13 14 -39 12 l-35 -3 -67 172 c-37 95 -65
174 -63 176 3 3 109 -53 237 -124 270 -149 262 -145 282 -130 13 10 4 42 -74
240 -49 126 -89 236 -89 245 0 8 10 26 22 39 37 39 8 41 -85 4z"/>
<path d="M7079 9472 c-13 -9 -113 -94 -222 -190 -178 -155 -201 -173 -226
-167 -17 4 -32 1 -38 -7 -9 -10 9 -22 78 -55 74 -35 91 -39 96 -27 3 9 -3 21
-16 30 -32 23 -26 37 32 87 l54 46 81 -37 82 -37 -2 -75 -3 -75 -33 -5 c-18
-3 -32 -9 -31 -15 1 -5 50 -33 111 -62 91 -44 110 -50 115 -36 4 10 -3 22 -17
33 l-23 17 7 290 c8 315 7 321 -45 285z m-66 -213 l-6 -96 -69 31 -70 31 74
66 c40 37 74 66 74 66 1 -1 -1 -45 -3 -98z"/>
<path d="M7335 9300 c-39 -39 -47 -52 -37 -62 10 -10 18 -9 41 5 43 25 89 21
144 -13 26 -17 46 -34 44 -38 -2 -4 -57 -94 -123 -200 l-118 -193 -38 6 c-56
10 -49 -14 15 -49 28 -16 74 -44 101 -62 53 -35 77 -36 51 -1 -8 12 -18 27
-21 33 -4 10 210 371 236 398 11 11 94 -37 115 -66 8 -13 15 -42 15 -65 0 -39
5 -46 28 -42 9 2 42 88 42 111 0 11 -17 26 -42 39 -36 18 -304 182 -379 232
-25 17 -25 16 -74 -33z"/>
<path d="M2821 9329 c-191 -38 -313 -228 -256 -400 25 -74 110 -160 180 -180
117 -33 246 2 329 91 53 56 70 88 85 157 41 196 -138 372 -338 332z m70 -89
c57 -30 114 -92 150 -166 27 -53 31 -72 27 -115 -9 -86 -75 -149 -157 -149
-119 0 -263 155 -265 284 -1 128 128 205 245 146z"/>
<path d="M4765 9149 c-1177 -109 -2209 -683 -2911 -1621 -704 -941 -962 -2144
-708 -3293 142 -640 432 -1224 863 -1740 103 -124 374 -393 504 -500 601 -498
1296 -800 2087 -907 224 -30 757 -33 975 -5 651 85 1245 303 1765 650 902 602
1526 1530 1735 2582 168 843 67 1704 -291 2487 -379 828 -1053 1522 -1880
1936 -402 201 -822 328 -1299 393 -172 24 -668 34 -840 18z m595 -64 c323 -15
699 -90 1039 -207 429 -148 839 -375 1201 -664 173 -138 465 -431 604 -604
669 -837 972 -1866 860 -2928 -96 -919 -515 -1776 -1190 -2432 -939 -912
-2264 -1304 -3549 -1049 -1503 298 -2717 1454 -3089 2939 -88 355 -121 656
-113 1050 6 290 12 354 52 596 158 947 680 1828 1447 2440 654 524 1460 827
2293 864 157 6 191 6 445 -5z"/>
<path d="M4810 8994 c-1223 -106 -2280 -729 -2957 -1744 -341 -511 -550 -1095
-625 -1745 -17 -144 -17 -646 0 -790 106 -919 488 -1720 1123 -2354 630 -631
1416 -1010 2329 -1123 167 -21 721 -18 890 5 803 107 1506 423 2100 944 368
322 697 748 912 1178 421 840 524 1800 291 2710 -325 1272 -1284 2305 -2530
2724 -245 82 -492 139 -775 177 -108 15 -648 27 -758 18z m489 -64 c368 -20
678 -79 1012 -190 1316 -439 2305 -1574 2553 -2930 47 -259 60 -405 60 -700 0
-295 -13 -441 -60 -700 -162 -888 -652 -1707 -1363 -2279 -430 -346 -931 -597
-1457 -730 -572 -144 -1184 -155 -1757 -30 -1103 241 -2052 967 -2577 1973
-220 421 -350 845 -412 1346 -8 66 -13 222 -13 420 0 198 5 354 13 420 94 757
363 1400 830 1984 121 152 401 434 550 554 608 492 1337 791 2082 852 253 20
327 22 539 10z"/>
<path d="M5070 8295 l0 -235 -74 0 c-407 0 -948 -153 -1343 -380 -830 -478
-1369 -1295 -1477 -2240 -9 -74 -16 -170 -16 -212 l0 -78 -235 0 -235 0 0 -40
0 -40 233 0 234 0 6 -129 c24 -497 194 -1014 475 -1441 120 -184 232 -321 387
-475 522 -521 1186 -817 1928 -861 l117 -7 0 -233 0 -234 40 0 40 0 0 233 0
233 163 12 c862 63 1634 482 2152 1167 327 433 522 930 580 1480 8 77 15 166
15 198 l0 57 235 0 235 0 0 40 0 40 -235 0 -235 0 0 53 c0 156 -42 445 -95
652 -142 558 -479 1102 -912 1477 -219 189 -388 301 -648 428 -244 120 -453
192 -707 244 -148 30 -364 56 -470 56 l-78 0 0 235 0 235 -40 0 -40 0 0 -235z
m0 -1108 l0 -323 -122 -12 c-311 -31 -606 -142 -858 -320 -122 -86 -316 -280
-402 -402 -186 -263 -297 -570 -324 -897 l-7 -83 -325 0 -325 0 6 123 c28 560
282 1123 697 1537 389 390 880 625 1445 693 17 2 72 5 123 6 l92 1 0 -323z
m320 313 c537 -67 1033 -307 1415 -686 323 -322 550 -732 649 -1175 28 -126
56 -340 56 -431 l0 -58 -324 0 -325 0 -5 43 c-3 23 -8 74 -11 112 -3 39 -17
121 -31 184 -169 756 -799 1302 -1576 1366 l-88 7 0 324 0 324 78 0 c43 0 116
-5 162 -10z m-320 -1455 l0 -265 40 0 40 0 0 265 0 265 58 -6 c372 -38 688
-223 892 -524 105 -154 183 -372 197 -547 l6 -83 -412 0 -412 0 3 -37 3 -38
408 -3 407 -2 0 -44 c0 -114 -55 -317 -122 -451 -109 -216 -317 -424 -533
-532 -128 -65 -342 -123 -449 -123 l-46 0 0 230 0 230 -40 0 -40 0 0 -230 0
-230 -44 0 c-66 0 -202 26 -291 56 -306 102 -556 321 -700 612 -67 135 -98
249 -119 434 l-6 48 438 2 437 3 3 38 3 37 -440 0 -440 0 5 53 c23 222 84 400
198 571 210 315 544 505 939 535 16 1 17 -18 17 -264z m-1701 -1092 c63 -618
426 -1145 975 -1412 178 -87 409 -152 586 -166 41 -3 90 -8 108 -11 l32 -5 0
-326 0 -326 -112 7 c-496 30 -972 215 -1363 531 -121 98 -313 297 -407 423
-249 331 -408 721 -463 1135 -8 65 -15 152 -15 193 l0 74 324 0 323 0 12 -117z
m4138 5 c-38 -645 -354 -1269 -857 -1690 -285 -240 -670 -428 -1027 -504 -126
-27 -338 -54 -420 -54 l-53 0 0 325 0 324 33 5 c17 3 66 8 107 11 257 20 568
134 805 296 116 78 281 229 368 336 205 253 341 570 377 878 6 55 14 119 16
143 l5 42 326 0 326 0 -6 -112z"/>
<path d="M4995 5676 c-89 -25 -145 -111 -145 -225 0 -42 9 -68 54 -153 57
-109 72 -163 61 -222 -7 -36 -21 -55 -144 -196 -57 -66 -62 -75 -47 -86 25
-17 50 -7 89 37 40 44 56 48 81 20 22 -24 19 -42 -31 -204 -29 -92 -34 -120
-25 -129 22 -22 46 6 87 105 22 53 44 100 49 104 5 5 6 -48 2 -125 -6 -115 -5
-133 8 -138 33 -12 44 15 56 137 7 66 16 122 20 124 9 6 17 -33 26 -127 8 -77
22 -105 49 -94 16 6 17 17 11 131 -4 69 -5 125 -2 125 3 0 26 -36 52 -79 48
-84 65 -99 84 -75 10 11 4 32 -28 101 -24 51 -44 111 -47 143 -4 30 -13 86
-21 124 -20 96 -14 110 43 102 62 -8 85 6 82 52 -1 20 3 50 10 66 6 15 10 34
9 41 -2 7 7 21 20 31 l22 19 -26 49 c-19 36 -27 67 -29 117 -4 75 -29 142 -66
176 -56 51 -209 76 -304 49z m86 -115 c27 -27 30 -28 39 -12 5 10 23 24 40 31
28 11 34 11 58 -7 61 -46 46 -110 -49 -206 l-62 -62 -62 65 c-67 70 -85 97
-85 129 0 46 36 88 78 90 8 1 27 -12 43 -28z"/>
<path d="M2254 8984 c-80 -48 -149 -118 -182 -183 -68 -139 -2 -315 144 -387
120 -59 238 -25 380 109 l77 72 -29 73 c-15 39 -31 72 -35 72 -16 0 -22 -25
-20 -87 2 -64 2 -65 -41 -108 -67 -67 -158 -81 -240 -39 -51 26 -118 95 -145
148 -32 63 -29 145 6 194 54 77 144 111 207 79 29 -14 54 -13 54 3 0 15 -84
89 -101 90 -8 0 -42 -16 -75 -36z"/>
<path d="M7934 8976 c-4 -10 1 -25 11 -36 9 -10 15 -25 13 -34 -1 -8 -66 -92
-143 -186 -146 -179 -140 -174 -202 -155 -37 12 -28 -19 15 -51 20 -15 96 -76
169 -136 72 -59 136 -108 142 -108 6 0 36 17 66 37 46 31 53 40 42 51 -10 10
-20 10 -41 2 -40 -15 -88 -12 -116 6 -39 26 -110 97 -110 110 0 6 27 46 61 88
l61 76 54 -46 c58 -49 60 -54 43 -85 -7 -15 -7 -24 1 -34 11 -13 27 2 113 113
18 23 -9 39 -31 19 -10 -9 -25 -17 -33 -17 -15 0 -103 68 -108 83 -2 5 21 38
50 74 30 36 57 70 60 76 9 13 121 -75 139 -108 8 -14 11 -40 7 -64 -3 -27 -1
-44 8 -51 11 -9 20 1 44 49 17 33 31 62 31 64 0 2 -63 55 -141 118 -77 63
-153 125 -170 138 -25 21 -29 21 -35 7z"/>
<path d="M1610 8408 c-23 -29 -86 -101 -141 -160 -54 -58 -99 -111 -99 -117 0
-16 27 -13 56 5 23 16 26 16 47 -3 12 -11 85 -75 162 -143 176 -155 168 -146
149 -182 -14 -27 -12 -48 5 -48 4 0 39 37 78 83 39 46 105 120 147 164 42 44
76 85 76 91 0 5 -16 35 -36 65 -23 36 -41 54 -50 50 -17 -6 -17 -7 -3 -56 16
-58 3 -91 -61 -158 -67 -71 -60 -72 -160 21 l-65 59 52 53 c49 49 53 51 79 39
19 -8 30 -9 38 -1 13 13 -114 133 -128 120 -4 -4 -2 -24 5 -43 12 -34 11 -36
-31 -86 -24 -28 -45 -51 -47 -51 -3 0 -38 30 -78 66 l-74 67 46 54 c60 70 88
85 147 77 64 -9 61 12 -6 51 -29 17 -56 31 -59 33 -4 2 -26 -21 -49 -50z"/>
<path d="M8546 8434 c-3 -9 1 -25 9 -37 8 -12 15 -24 15 -28 0 -6 -211 -194
-320 -286 -32 -27 -33 -27 -63 -10 -59 34 -53 2 14 -75 35 -40 76 -89 91 -108
23 -30 28 -32 34 -16 4 10 -1 33 -11 54 l-17 37 64 57 c34 32 67 57 72 58 5 0
26 -20 47 -44 48 -55 126 -90 182 -83 47 6 83 31 115 78 20 28 23 43 18 81 -7
63 -21 88 -113 193 -43 50 -88 103 -99 118 -25 31 -30 33 -38 11z m131 -197
c33 -49 36 -77 13 -115 -23 -37 -75 -72 -108 -72 -28 0 -71 21 -95 47 -17 19
-15 22 70 96 49 42 90 77 93 77 3 0 15 -15 27 -33z"/>
<path d="M1270 8022 c0 -5 -29 -53 -65 -106 -50 -75 -61 -98 -49 -103 8 -3 23
2 33 11 26 24 38 21 123 -35 l77 -51 -61 -91 c-33 -51 -64 -96 -69 -101 -5 -5
-43 14 -90 44 l-81 54 6 39 c10 62 -14 44 -87 -66 -50 -75 -62 -100 -51 -104
8 -3 23 2 33 11 10 9 23 16 29 16 7 0 98 -57 202 -127 l190 -126 -6 -39 c-4
-23 -3 -38 4 -38 9 0 142 191 142 204 0 12 -38 5 -50 -9 -7 -8 -16 -15 -21
-15 -22 0 -179 114 -175 127 3 7 33 53 66 103 l61 90 89 -60 90 -61 -6 -39
c-4 -25 -3 -40 4 -40 5 0 40 45 77 101 49 73 64 104 56 112 -8 8 -18 4 -36
-13 l-25 -23 -195 129 -195 129 2 39 c2 24 -2 41 -9 43 -7 3 -13 0 -13 -5z"/>
<path d="M8938 7995 c-1 -6 -2 -28 -2 -51 l-1 -41 -183 -122 c-100 -66 -191
-121 -201 -121 -10 0 -24 7 -31 15 -15 18 -43 20 -38 3 7 -28 144 -227 153
-224 10 3 10 18 -1 72 -5 29 -2 33 73 82 112 74 118 64 53 -106 -27 -72 -50
-141 -50 -153 0 -13 19 -54 41 -91 32 -53 44 -66 54 -58 9 8 11 20 5 41 -10
33 -6 48 45 187 l38 101 30 -15 c75 -40 166 -11 199 63 34 78 23 114 -95 298
-80 124 -86 133 -89 120z m97 -225 c19 -37 19 -89 0 -116 -17 -25 -74 -54
-103 -54 -23 0 -77 42 -92 71 -9 16 0 26 72 73 46 30 89 55 95 55 7 1 19 -12
28 -29z"/>
<path d="M872 7386 c-5 -6 -15 -27 -22 -46 -8 -19 -56 -122 -107 -229 -51
-107 -93 -195 -93 -196 0 -1 24 -20 54 -43 67 -50 85 -41 50 26 -13 25 -24 50
-24 56 0 6 12 37 28 68 l27 58 210 -99 210 -98 -2 -34 c-3 -70 21 -50 74 63
29 61 53 112 53 114 0 13 -35 0 -49 -17 -17 -21 -17 -21 -226 76 -116 54 -212
99 -214 101 -9 8 31 93 54 114 15 14 43 26 67 29 28 4 44 12 46 22 4 20 -123
53 -136 35z"/>
<path d="M9067 7366 c-134 -48 -206 -159 -195 -299 7 -81 35 -144 93 -206 62
-66 129 -95 220 -95 56 0 80 5 120 26 141 74 195 227 135 383 -58 150 -234
240 -373 191z m239 -105 c44 -20 77 -65 89 -118 17 -81 -52 -182 -167 -243
-146 -78 -288 -16 -288 125 0 71 43 135 128 192 97 66 164 78 238 44z"/>
<path d="M1418 2827 c-60 -28 -64 -50 -9 -41 36 6 43 3 70 -27 17 -18 31 -36
31 -39 -1 -3 -73 -54 -161 -113 -140 -95 -164 -108 -190 -102 -16 4 -29 4 -29
0 0 -15 84 -134 92 -129 4 3 8 17 8 32 1 24 21 41 162 136 l161 109 18 -24
c20 -26 25 -84 9 -94 -12 -7 -14 -45 -2 -45 4 0 25 18 47 40 l38 39 -48 68
c-26 37 -68 100 -94 140 -25 40 -48 72 -51 72 -3 -1 -26 -11 -52 -22z"/>
<path d="M8711 2742 c-17 -17 -31 -41 -31 -54 1 -69 87 -168 185 -214 101 -48
181 -41 211 19 14 27 14 33 -1 72 -34 90 -173 189 -284 202 -46 5 -52 3 -80
-25z m161 -59 c114 -69 188 -137 188 -174 0 -45 -35 -48 -116 -10 -121 57
-244 157 -244 200 0 56 62 50 172 -16z"/>
<path d="M8530 2466 c0 -24 -3 -53 -7 -63 -6 -17 -5 -17 15 1 21 19 22 18 89
-34 38 -29 99 -76 136 -104 61 -46 68 -54 63 -78 -3 -16 -4 -28 -1 -28 7 0 85
106 85 115 0 4 -8 0 -19 -9 -18 -16 -26 -11 -178 107 -87 68 -164 126 -171
131 -9 5 -12 -5 -12 -38z"/>
<path d="M1619 2493 c-1 -5 -1 -16 0 -25 1 -11 -45 -56 -126 -123 -114 -94
-131 -105 -157 -99 -15 3 -27 2 -25 -3 8 -17 84 -112 92 -112 4 -1 7 12 7 28
0 24 11 38 58 75 l57 46 42 -47 c24 -27 42 -51 40 -55 -1 -5 -27 -28 -57 -53
-45 -37 -60 -44 -82 -39 -16 3 -28 2 -28 -3 1 -4 23 -33 50 -63 l50 -55 0 31
c0 33 -6 27 203 197 46 37 62 45 73 36 7 -6 18 -8 23 -4 12 7 -69 115 -84 111
-5 -1 -10 -13 -10 -25 0 -15 -18 -39 -51 -67 l-52 -45 -43 52 -43 52 49 44
c40 35 56 43 76 39 15 -3 29 -3 32 0 6 7 -74 112 -85 113 -5 1 -9 -2 -9 -6z"/>
<path d="M1867 2204 c-4 -4 -4 -17 -1 -29 4 -17 -18 -43 -116 -138 -104 -102
-123 -116 -140 -107 -13 7 -21 7 -26 -1 -4 -6 30 -48 77 -97 46 -48 85 -89 87
-91 6 -10 92 44 92 57 0 9 -6 12 -16 8 -49 -19 -62 -17 -98 14 -20 18 -36 40
-36 50 0 10 23 39 51 63 l52 45 25 -30 c21 -24 23 -33 14 -48 -21 -34 1 -29
49 13 47 40 54 73 10 45 -18 -11 -24 -10 -48 15 l-28 27 52 52 52 52 31 -29
c37 -35 45 -58 30 -86 -23 -42 6 -41 35 1 l28 40 -79 83 c-43 45 -81 85 -84
90 -4 4 -9 4 -13 1z"/>
<path d="M8367 2098 c-50 -57 -54 -63 -34 -66 30 -5 198 -161 195 -181 -1 -9
0 -18 2 -21 6 -5 80 73 80 83 0 4 -12 4 -27 1 -23 -4 -35 1 -62 30 -30 30 -32
37 -21 51 8 10 23 15 37 12 32 -6 29 3 -13 44 -36 33 -37 34 -30 8 4 -19 0
-31 -13 -43 -18 -16 -21 -16 -55 14 -20 18 -36 38 -36 44 0 23 36 46 71 46
l34 0 -25 20 c-14 11 -30 20 -37 20 -6 0 -36 -28 -66 -62z"/>
<path d="M8225 1951 c-60 -25 -82 -109 -46 -179 48 -95 163 -133 230 -76 57
48 50 142 -16 206 -55 54 -114 71 -168 49z m68 -42 c34 -18 80 -59 99 -88 21
-30 23 -82 6 -99 -45 -45 -183 42 -203 130 -12 50 46 84 98 57z"/>
<path d="M2200 1938 c0 -8 5 -19 11 -25 9 -9 -11 -67 -75 -229 -48 -119 -84
-220 -79 -224 4 -5 66 34 138 85 71 51 131 92 132 91 2 -1 -24 -69 -57 -151
-33 -82 -57 -152 -53 -156 5 -4 93 53 196 127 151 107 193 133 211 128 13 -3
26 -2 29 3 7 10 -75 83 -92 83 -14 0 -14 -27 -1 -35 16 -10 4 -22 -98 -97 -54
-39 -103 -75 -110 -81 -8 -7 -6 7 6 39 11 27 38 95 61 152 43 106 47 122 33
122 -5 0 -69 -43 -142 -96 -73 -53 -131 -90 -128 -83 3 8 27 67 54 132 44 107
50 117 72 115 41 -5 33 15 -24 60 -64 50 -84 60 -84 40z"/>
<path d="M7778 1732 c-46 -24 -64 -60 -53 -108 11 -41 52 -78 77 -69 47 18 16
81 -34 70 -26 -6 -28 -4 -28 23 0 16 9 37 20 47 39 35 106 -7 155 -97 29 -51
30 -58 28 -170 0 -65 1 -118 3 -118 3 0 45 31 93 68 l88 69 -31 51 c-30 49
-56 72 -41 35 21 -50 18 -59 -36 -102 -28 -23 -53 -40 -55 -38 -2 1 1 20 6 42
18 77 12 147 -17 205 -45 86 -113 122 -175 92z"/>
<path d="M2530 1390 c-109 -84 -163 -119 -182 -120 -39 0 -35 -11 17 -44 49
-30 63 -30 46 2 -9 16 -4 24 30 52 44 35 51 34 108 -9 22 -17 23 -19 9 -67
-10 -36 -19 -49 -33 -49 -30 0 -27 -19 8 -41 17 -11 45 -29 60 -39 l29 -18 -7
34 c-4 24 9 87 44 219 46 171 51 201 33 199 -4 0 -77 -54 -162 -119z m73 -33
c-9 -31 -21 -57 -27 -57 -6 0 -22 9 -36 19 l-25 20 25 19 c14 11 36 29 50 40
14 11 26 19 27 18 2 -1 -5 -28 -14 -59z"/>
<path d="M2775 1384 c-33 -43 -28 -51 16 -29 30 16 35 16 66 1 18 -9 33 -19
32 -23 0 -5 -37 -71 -82 -148 -63 -107 -87 -141 -105 -143 -34 -5 -27 -16 30
-48 73 -40 71 -40 64 -7 -6 25 6 52 75 171 l82 142 31 -18 c24 -14 32 -26 34
-52 5 -54 17 -55 37 -5 9 25 15 48 13 51 -11 10 -249 144 -257 144 -5 0 -21
-16 -36 -36z"/>
<path d="M7510 1363 c-51 -19 -68 -85 -30 -123 45 -45 123 -13 123 51 0 46
-52 86 -93 72z"/>
<path d="M7042 1233 c-97 -51 -118 -73 -69 -73 19 0 34 -24 96 -148 66 -134
72 -150 60 -170 -7 -11 -11 -23 -8 -26 2 -3 58 22 123 55 94 49 116 64 111 77
-4 9 -9 32 -12 50 -8 47 -31 41 -35 -10 -3 -39 -7 -45 -45 -66 -24 -13 -47
-20 -53 -17 -11 7 -73 125 -68 130 2 1 17 10 34 18 28 15 33 15 44 2 7 -8 19
-15 26 -15 10 0 6 17 -16 60 -30 60 -52 73 -43 26 4 -19 -1 -28 -25 -40 -17
-9 -33 -16 -36 -16 -6 0 -66 115 -66 125 0 3 19 14 42 25 42 19 61 17 89 -7 9
-7 18 -10 22 -7 8 9 -43 84 -57 83 -6 -1 -57 -26 -114 -56z"/>
<path d="M3106 1199 c-15 -22 -25 -43 -23 -45 2 -3 20 4 39 15 30 18 38 19 66
9 18 -7 32 -17 32 -23 0 -5 -31 -75 -68 -155 -55 -118 -72 -146 -90 -148 -35
-5 -22 -20 41 -49 61 -28 76 -27 57 4 -10 15 -1 42 55 163 36 80 69 148 73
152 4 4 22 -1 39 -12 23 -14 32 -27 35 -51 5 -49 22 -45 36 7 7 26 11 48 10
49 -2 1 -55 26 -118 54 -63 29 -119 57 -124 62 -18 17 -33 9 -60 -32z"/>
<path d="M6747 1098 c-43 -17 -76 -36 -74 -42 2 -6 11 -10 20 -8 20 3 22 1 93
-168 56 -133 60 -147 46 -163 -27 -30 -4 -31 68 -2 68 28 89 53 38 47 -22 -3
-28 4 -52 59 -15 34 -25 62 -24 63 69 28 108 74 108 126 0 36 -31 90 -61 105
-40 21 -74 18 -162 -17z m128 -44 c26 -41 31 -91 10 -114 -10 -11 -23 -20 -30
-20 -12 0 -76 146 -67 155 3 3 20 5 38 5 23 0 36 -7 49 -26z"/>
<path d="M3481 1035 c-66 -56 -63 -140 9 -210 33 -32 40 -46 40 -77 0 -29 -6
-41 -24 -53 -22 -14 -28 -14 -60 -1 -35 15 -42 28 -48 90 -4 39 -24 44 -31 8
-3 -17 -9 -41 -12 -55 -6 -23 -1 -30 41 -57 89 -56 180 -30 204 60 15 55 5 81
-51 145 -66 76 -66 135 1 135 38 0 68 -26 76 -65 9 -50 21 -52 34 -4 10 35 9
44 -7 61 -45 51 -125 61 -172 23z"/>
<path d="M6598 1040 c-49 -15 -65 -40 -27 -40 20 0 21 -4 15 -52 -3 -29 -6
-69 -6 -88 l0 -35 -47 54 c-63 70 -67 79 -52 97 20 24 6 25 -64 2 -67 -22 -80
-38 -40 -48 12 -3 54 -42 95 -88 60 -66 78 -94 93 -142 18 -58 18 -61 0 -80
-10 -11 -16 -22 -13 -25 8 -8 137 39 138 50 1 6 -8 11 -19 13 -14 2 -27 21
-42 60 -20 53 -21 64 -12 175 8 86 15 123 27 136 24 26 9 29 -46 11z"/>
<path d="M6135 970 c-117 -29 -150 -41 -149 -54 0 -9 1 -34 2 -56 2 -28 6 -40
17 -40 8 0 15 9 15 21 0 11 4 29 10 39 11 21 78 46 90 34 4 -5 28 -91 52 -191
38 -153 43 -184 32 -194 -23 -19 -17 -42 9 -35 12 4 46 12 75 18 56 12 65 23
28 37 -20 8 -28 30 -70 197 -26 103 -43 190 -39 195 4 4 23 10 40 14 28 6 37
2 64 -24 17 -17 34 -29 39 -26 14 8 -32 105 -49 104 -9 -1 -83 -18 -166 -39z"/>
<path d="M4044 913 c-20 -32 -77 -122 -126 -200 -62 -99 -95 -143 -108 -143
-10 0 -20 -6 -23 -13 -4 -10 13 -17 55 -26 65 -13 85 -8 54 15 -18 13 -19 15
-2 51 33 74 38 76 99 63 52 -12 55 -14 61 -49 11 -69 8 -87 -21 -100 -34 -15
-22 -26 47 -39 30 -6 63 -14 73 -17 21 -9 23 12 3 34 -10 11 -19 79 -31 236
-9 121 -18 226 -20 233 -8 24 -25 12 -61 -45z m5 -186 c1 -38 1 -39 -31 -32
-58 13 -59 16 -20 82 l37 61 7 -36 c4 -20 7 -54 7 -75z"/>
<path d="M4280 840 c0 -6 7 -13 15 -16 20 -8 19 -22 -7 -198 -20 -135 -24
-149 -45 -157 -13 -5 -23 -12 -23 -17 0 -10 150 -35 159 -26 3 3 -5 14 -18 24
-24 17 -24 20 -15 86 5 38 14 68 19 68 6 -1 26 -43 45 -94 37 -97 43 -103 103
-114 42 -8 49 5 17 32 -10 10 -30 46 -44 82 -13 36 -27 72 -31 81 -4 11 0 18
14 22 26 6 61 64 61 100 0 36 -25 83 -50 97 -17 9 -166 40 -192 40 -5 0 -8 -5
-8 -10z m160 -66 c19 -19 16 -91 -6 -115 -9 -11 -30 -19 -47 -19 -25 0 -28 3
-24 23 3 12 9 48 12 80 7 53 9 57 29 51 11 -3 28 -12 36 -20z"/>
<path d="M5685 814 c-44 -7 -99 -13 -123 -13 -66 -1 -82 -14 -82 -66 0 -48 15
-59 29 -22 12 30 29 43 69 52 23 5 32 3 32 -7 0 -7 9 -83 20 -168 17 -136 17
-156 5 -166 -31 -23 -16 -33 43 -27 84 7 91 11 64 32 -21 15 -26 34 -42 162
-27 200 -28 189 19 189 31 0 44 -6 60 -26 11 -14 24 -24 29 -22 12 5 -17 98
-31 97 -7 -1 -48 -8 -92 -15z"/>
<path d="M4597 793 c-4 -6 -9 -30 -12 -54 l-7 -44 29 33 c23 26 35 32 67 32
l39 0 -7 -72 c-3 -40 -9 -117 -12 -172 -6 -84 -10 -99 -26 -104 -10 -2 -18
-10 -18 -17 0 -9 22 -14 68 -17 75 -6 85 -2 58 18 -17 12 -18 22 -12 116 14
227 16 238 42 238 36 0 54 -10 70 -41 18 -37 34 -37 34 -1 0 65 -5 69 -93 76
-45 4 -112 9 -148 12 -39 4 -69 2 -72 -3z"/>
<path d="M5264 776 c-44 -20 -64 -53 -64 -106 1 -65 19 -90 97 -130 79 -41 98
-71 69 -114 -11 -18 -25 -26 -45 -26 -45 0 -60 9 -82 51 -27 55 -43 51 -34 -8
4 -27 9 -51 11 -55 9 -15 88 -29 125 -23 69 12 112 89 89 158 -14 44 -43 70
-112 100 -59 26 -75 49 -64 93 12 48 95 44 121 -6 18 -36 35 -39 35 -7 0 48
-12 67 -49 77 -46 13 -59 12 -97 -4z"/>
<path d="M4970 770 c0 -5 10 -14 21 -21 21 -11 21 -14 15 -178 -7 -148 -10
-168 -27 -181 -29 -23 -14 -30 63 -30 69 0 85 10 48 30 -20 11 -21 17 -14 178
6 148 9 169 26 182 10 9 16 19 12 23 -11 11 -144 8 -144 -3z"/>
</g>
</svg>
