<?xml version="1.0" standalone="no"?>
<!DOCTYPE svg PUBLIC "-//W3C//DTD SVG 20010904//EN"
 "http://www.w3.org/TR/2001/REC-SVG-20010904/DTD/svg10.dtd">
<svg version="1.0" xmlns="http://www.w3.org/2000/svg"
 width="1021.000000pt" height="1022.000000pt" viewBox="0 0 1021.000000 1022.000000"
 preserveAspectRatio="xMidYMid meet">

<g transform="translate(0.000000,1022.000000) scale(0.100000,-0.100000)"
fill="#000000" stroke="none">
<path d="M4795 10204 c-22 -2 -96 -9 -165 -14 -381 -33 -822 -128 -1205 -260
-1385 -478 -2529 -1577 -3068 -2945 -472 -1201 -472 -2548 0 -3750 376 -956
1051 -1790 1918 -2370 708 -473 1471 -745 2355 -837 167 -17 783 -17 950 0
1066 112 1981 493 2790 1162 149 123 523 495 639 635 700 847 1083 1778 1182
2875 16 174 16 646 0 820 -99 1090 -482 2027 -1170 2860 -126 153 -495 521
-651 650 -797 660 -1693 1038 -2740 1156 -127 15 -735 28 -835 18z m695 -75
c939 -67 1856 -412 2625 -986 744 -555 1333 -1324 1673 -2183 468 -1185 468
-2515 0 -3700 -371 -938 -1038 -1765 -1878 -2330 -264 -178 -672 -392 -955
-503 -469 -184 -942 -294 -1455 -337 -161 -14 -629 -14 -790 0 -648 55 -1223
211 -1785 484 -535 260 -965 566 -1380 981 -752 751 -1240 1703 -1410 2746
-49 306 -59 440 -59 809 0 369 10 503 59 809 169 1040 657 1993 1405 2741 192
193 336 318 545 475 280 210 508 349 830 506 805 392 1661 554 2575 488z"/>
<path d="M5006 9923 c-10 -10 7 -33 24 -33 36 0 39 -19 30 -210 -5 -102 -9
-204 -10 -228 0 -40 -3 -44 -35 -58 -19 -8 -35 -18 -35 -23 0 -7 138 -21 217
-21 42 0 44 22 1 38 l-31 11 6 107 c3 58 8 108 10 110 2 2 56 1 120 -2 l117
-7 -1 -61 c-1 -111 -12 -160 -34 -164 -27 -5 -48 -23 -38 -33 13 -11 243 -16
244 -4 1 5 -11 17 -27 26 -33 18 -31 -8 -19 312 l7 169 34 14 c43 18 44 34 1
34 -19 0 -75 3 -125 6 -79 6 -92 5 -92 -9 0 -8 14 -20 30 -26 29 -10 30 -12
30 -73 0 -35 -3 -80 -7 -102 l-6 -39 -116 7 c-63 4 -117 9 -120 11 -2 3 0 49
5 102 8 90 11 98 31 101 28 4 51 30 32 36 -21 7 -237 14 -243 9z"/>
<path d="M4614 9900 c-58 -12 -133 -52 -171 -92 -142 -147 -77 -419 113 -474
64 -18 181 -15 283 9 l55 12 13 74 c8 40 12 76 9 78 -12 12 -36 -8 -50 -40
-20 -50 -52 -75 -112 -87 -97 -20 -180 24 -228 123 -53 108 -44 232 23 298 79
79 225 79 265 0 16 -30 42 -46 51 -31 3 5 -2 36 -11 69 -13 44 -22 61 -38 65
-30 8 -153 5 -202 -4z"/>
<path d="M4065 9805 c-44 -12 -131 -33 -193 -46 -88 -18 -112 -27 -110 -39 2
-9 17 -16 41 -18 28 -2 38 -8 42 -25 3 -12 26 -107 50 -212 25 -104 45 -198
43 -209 -2 -10 -12 -24 -23 -30 -26 -14 -36 -29 -27 -38 4 -4 79 10 167 31 88
22 187 45 220 52 l60 14 3 73 c2 60 0 72 -13 72 -9 0 -24 -19 -35 -45 -11 -26
-32 -52 -49 -63 -39 -24 -159 -48 -172 -35 -12 12 -49 147 -49 179 0 17 10 23
51 32 72 17 85 15 103 -13 21 -32 51 -34 42 -2 -4 12 -14 52 -22 90 -20 85
-32 89 -48 15 -5 -23 -13 -28 -63 -38 -32 -7 -63 -14 -69 -17 -13 -5 -62 182
-51 193 10 10 113 34 149 34 28 0 47 -8 73 -31 50 -44 60 -27 27 44 -30 66
-28 65 -147 32z"/>
<path d="M6084 9613 c-76 -98 -153 -198 -173 -223 -19 -25 -36 -47 -37 -49 -2
-2 -18 -4 -36 -6 -19 -1 -34 -8 -36 -17 -2 -11 19 -20 80 -33 46 -11 89 -21
96 -23 23 -7 12 28 -13 40 -14 6 -25 14 -25 18 0 4 18 34 40 67 l41 60 92 -21
92 -21 12 -70 c6 -39 8 -73 5 -77 -4 -3 -18 -8 -32 -10 -14 -1 -26 -10 -28
-18 -2 -11 22 -21 100 -38 57 -13 113 -26 126 -29 32 -8 29 24 -3 39 -14 6
-28 21 -30 32 -5 22 -95 545 -95 552 0 2 -9 4 -20 4 -13 0 -61 -54 -156 -177z
m100 -45 c4 -35 10 -75 13 -90 l5 -26 -63 15 c-35 9 -68 19 -72 23 -10 9 92
152 103 145 4 -2 11 -33 14 -67z"/>
<path d="M3555 9666 c-27 -13 -131 -54 -230 -91 -99 -37 -183 -70 -187 -74 -4
-4 -2 -35 4 -69 13 -70 37 -82 49 -25 11 53 35 80 91 101 29 11 56 18 59 16 3
-2 43 -101 89 -219 l83 -217 -28 -22 c-56 -44 -17 -43 100 3 111 43 142 69 77
64 -22 -2 -34 3 -41 15 -15 29 -161 408 -161 419 0 15 80 43 120 43 19 0 46
-9 60 -20 26 -20 60 -27 60 -11 0 20 -66 111 -80 110 -8 0 -37 -11 -65 -23z"/>
<path d="M6634 9666 c-4 -9 5 -25 23 -40 l28 -24 -86 -214 -87 -213 -41 -3
c-52 -4 -54 -25 -3 -40 20 -7 78 -30 127 -51 74 -32 91 -37 94 -24 1 9 -11 27
-28 40 -17 14 -31 30 -31 36 0 16 64 177 70 177 22 -1 36 -35 65 -155 19 -75
40 -144 46 -152 18 -21 140 -75 157 -68 10 4 6 14 -17 40 -16 19 -35 52 -40
72 -22 83 -51 202 -51 206 0 3 15 9 33 12 83 18 127 68 127 144 0 84 -47 127
-212 196 -57 23 -119 50 -136 59 -28 15 -33 15 -38 2z m247 -157 c50 -50 -1
-179 -71 -179 -34 0 -90 19 -90 31 0 10 56 153 71 181 9 17 12 17 40 3 16 -9
39 -25 50 -36z"/>
<path d="M7173 9381 c-34 -39 -40 -51 -30 -60 10 -8 24 -5 53 10 46 23 71 20
137 -16 l47 -27 -18 -31 c-11 -18 -63 -110 -117 -205 l-97 -173 -35 3 c-48 4
-52 -14 -9 -35 20 -9 65 -34 102 -57 36 -22 70 -40 75 -40 14 0 10 26 -6 40
-8 7 -15 19 -15 28 0 8 50 105 112 214 l112 198 45 -26 c63 -36 81 -59 81
-104 0 -32 22 -71 34 -59 10 10 44 124 39 131 -2 5 -31 22 -64 39 -33 16 -134
72 -225 124 -91 52 -168 95 -172 95 -4 -1 -26 -23 -49 -49z"/>
<path d="M2750 9306 c-8 -8 -87 -58 -175 -111 -88 -53 -162 -99 -165 -101 -11
-12 25 -21 47 -13 14 5 28 9 33 9 6 0 174 -267 246 -391 2 -4 -5 -18 -16 -32
-18 -23 -27 -57 -15 -57 2 0 42 24 87 53 46 29 124 77 173 106 50 30 100 60
111 67 l22 13 -19 67 c-10 37 -21 69 -24 72 -12 12 -30 -21 -32 -60 -2 -23 -9
-51 -18 -64 -18 -28 -126 -94 -153 -94 -14 0 -34 24 -70 85 l-51 84 58 36 c32
19 62 35 67 35 4 0 18 -10 31 -22 16 -15 27 -18 33 -12 7 7 -4 35 -36 87 -47
79 -70 91 -61 32 6 -38 -2 -47 -73 -88 l-46 -26 -31 52 c-17 29 -40 68 -52 88
l-21 35 73 42 c81 47 94 49 143 26 19 -9 41 -13 51 -10 14 6 8 15 -32 56 -53
54 -63 58 -85 36z"/>
<path d="M4805 9154 c-1429 -114 -2688 -961 -3328 -2240 -211 -422 -345 -880
-403 -1379 -21 -183 -24 -633 -5 -805 56 -519 192 -993 408 -1424 264 -528
647 -999 1113 -1371 581 -463 1265 -748 2045 -852 190 -25 733 -25 935 0 1081
135 2033 665 2706 1508 686 859 995 1983 843 3067 -156 1119 -755 2103 -1681
2763 -533 380 -1187 631 -1858 715 -129 16 -648 28 -775 18z m700 -80 c604
-59 1170 -252 1701 -579 429 -265 842 -653 1145 -1077 683 -955 906 -2168 609
-3313 -181 -700 -545 -1325 -1072 -1840 -657 -643 -1463 -1022 -2383 -1120
-309 -33 -745 -19 -1070 36 -1476 246 -2719 1347 -3149 2785 -521 1748 205
3616 1772 4562 731 441 1579 630 2447 546z"/>
<path d="M4810 8994 c-853 -74 -1620 -396 -2255 -945 -146 -126 -364 -354
-489 -509 -465 -582 -738 -1241 -832 -2010 -25 -202 -25 -638 0 -840 114 -933
498 -1721 1153 -2360 619 -606 1369 -968 2253 -1087 194 -26 736 -26 930 0
621 84 1154 278 1653 603 900 587 1517 1512 1711 2564 45 247 60 414 60 700 0
286 -15 453 -60 700 -194 1052 -811 1977 -1711 2564 -495 322 -1026 517 -1643
602 -110 15 -657 28 -770 18z m698 -80 c1171 -120 2239 -795 2858 -1806 290
-475 474 -1002 539 -1548 23 -190 30 -533 16 -720 -40 -525 -164 -977 -395
-1439 -541 -1080 -1550 -1837 -2738 -2055 -225 -42 -421 -59 -678 -59 -312 0
-560 26 -845 89 -906 203 -1728 749 -2275 1515 -947 1323 -947 3115 0 4438
362 506 854 927 1410 1206 474 238 967 365 1545 399 106 6 416 -5 563 -20z"/>
<path d="M4600 7913 c-761 -57 -1324 -464 -1541 -1113 -203 -609 -89 -1144
419 -1965 58 -93 134 -216 169 -273 96 -156 152 -307 197 -532 67 -338 80
-775 27 -926 -45 -127 -236 -385 -522 -703 l-90 -101 1346 0 c1279 0 1347 1
1340 18 -42 109 -133 697 -120 782 13 88 62 153 150 198 77 40 173 36 335 -13
107 -33 139 -38 225 -39 94 -1 104 1 167 32 76 37 151 113 189 189 20 41 24
63 24 148 0 98 -1 102 -42 185 -44 87 -52 133 -32 173 7 12 40 52 75 89 35 36
64 70 64 76 0 5 -14 23 -31 41 -42 44 -36 71 20 92 25 9 58 31 74 49 38 42 33
69 -33 177 -53 87 -60 113 -34 134 9 7 71 30 138 52 66 21 132 45 144 53 50
33 66 131 36 221 -9 26 -104 182 -212 348 -203 311 -229 363 -216 435 8 43 41
110 54 110 5 0 17 15 27 33 20 38 22 140 3 262 -32 214 -120 619 -167 769
-184 585 -770 924 -1719 995 -130 10 -359 12 -464 4z m638 -605 c124 -115 228
-205 232 -201 5 4 25 67 45 138 21 72 41 136 45 143 4 9 70 -87 186 -274 l178
-288 13 65 c7 35 20 109 30 163 l18 100 249 -465 c137 -255 265 -493 284 -529
l35 -65 -109 105 c-60 58 -177 172 -260 253 l-151 149 -28 -136 c-16 -75 -32
-136 -36 -136 -4 0 -93 124 -199 276 -106 151 -196 272 -200 267 -4 -4 -20
-70 -35 -146 -16 -76 -32 -134 -36 -130 -5 6 -442 804 -499 912 -19 36 -7 26
238 -201z m-1091 -213 c-5 -29 0 -38 30 -65 32 -30 38 -32 68 -23 32 10 33 9
54 -34 21 -43 21 -46 4 -59 -10 -7 -21 -14 -25 -14 -5 0 -8 -24 -8 -54 0 -50
2 -54 30 -66 17 -7 30 -13 30 -14 0 -2 -7 -24 -16 -50 -16 -45 -18 -47 -47
-40 -26 5 -34 1 -64 -31 -30 -33 -33 -40 -24 -66 9 -27 8 -30 -29 -49 -50 -25
-54 -25 -70 4 -12 23 -17 24 -64 19 -28 -3 -52 -9 -54 -13 -15 -36 -29 -43
-68 -30 -52 16 -57 22 -45 52 8 22 5 29 -33 61 -30 25 -47 33 -57 26 -26 -16
-38 -9 -60 33 l-21 42 26 19 c22 16 26 26 26 69 0 46 -2 51 -30 61 -33 12 -34
20 -10 83 9 23 14 25 43 20 28 -5 36 -1 65 34 27 32 31 43 22 59 -16 31 -13
36 35 59 l44 21 18 -30 c13 -22 23 -29 38 -25 11 3 34 6 52 6 25 0 33 5 41 30
l11 29 46 -16 c45 -15 47 -17 42 -48z m645 -311 c-3 -36 1 -42 44 -78 l46 -39
34 17 c19 9 36 16 37 16 2 0 16 -25 32 -55 26 -48 28 -57 15 -65 -44 -26 -48
-33 -43 -96 5 -61 5 -62 45 -75 27 -9 37 -17 33 -27 -3 -8 -10 -35 -17 -59
l-11 -45 -43 6 c-24 3 -44 2 -44 -2 0 -5 -16 -27 -35 -50 -36 -41 -36 -42 -20
-73 19 -35 18 -36 -46 -73 l-46 -26 -24 30 c-23 28 -26 29 -86 23 -60 -5 -63
-7 -73 -39 -13 -39 -11 -39 -79 -18 l-53 15 6 38 c5 35 3 39 -45 75 -48 35
-53 37 -81 25 -34 -14 -42 -8 -78 62 l-19 36 30 17 c31 18 33 26 23 100 -6 42
-11 49 -41 61 -25 11 -33 19 -29 32 2 10 10 37 17 60 12 42 12 42 53 37 40 -5
42 -4 77 44 33 45 35 51 23 73 -21 37 -17 44 38 74 l51 28 26 -31 c25 -30 28
-31 84 -25 56 6 59 7 73 43 l15 38 57 -17 57 -18 -3 -39z m-454 -650 l53 -7
-7 -57 c-6 -56 -6 -57 25 -70 18 -7 50 -26 72 -42 l40 -29 49 30 49 30 52 -71
53 -71 -43 -36 -42 -36 14 -40 c8 -22 18 -59 21 -81 7 -40 9 -41 61 -53 51
-12 54 -14 49 -39 -2 -15 -8 -52 -12 -82 l-7 -55 -57 -3 c-52 -3 -57 -5 -68
-33 -7 -16 -26 -48 -42 -70 l-29 -40 26 -46 c15 -25 23 -49 19 -53 -5 -5 -36
-29 -69 -54 l-60 -46 -35 41 -35 40 -40 -14 c-22 -8 -59 -18 -82 -22 -38 -6
-44 -10 -53 -43 -5 -21 -10 -43 -10 -51 0 -11 -13 -12 -62 -7 -124 14 -119 11
-112 71 6 51 6 52 -25 65 -18 7 -50 26 -73 43 l-42 30 -47 -27 -48 -27 -42 58
c-23 32 -46 63 -51 70 -7 8 3 23 31 48 23 21 38 41 36 46 -3 4 -14 41 -24 81
l-19 72 -47 12 c-26 7 -48 14 -50 16 -1 2 3 39 11 83 7 44 13 82 13 84 1 2 26
1 55 -1 53 -4 55 -3 67 24 6 16 25 47 42 70 l30 42 -27 47 c-14 26 -26 49 -26
51 0 6 126 98 134 98 3 0 22 -18 41 -39 l35 -39 61 19 c33 10 69 19 79 19 20
0 25 10 36 74 6 37 7 38 43 33 20 -4 60 -9 89 -13z m1643 -531 c45 -41 98
-138 124 -227 13 -44 20 -56 33 -52 97 30 242 38 304 17 125 -41 113 -178 -29
-346 l-60 -71 54 -59 c30 -33 70 -92 90 -132 30 -61 35 -80 31 -118 -10 -83
-62 -115 -190 -115 -45 0 -112 7 -147 15 -66 16 -80 12 -81 -23 0 -20 -47
-130 -77 -181 -15 -25 -26 -54 -25 -63 6 -34 -17 -58 -53 -58 -18 0 -37 5 -40
10 -3 6 -18 10 -33 10 -72 0 -166 127 -203 274 -6 25 -14 46 -18 46 -3 -1 -33
-7 -66 -15 -77 -19 -215 -19 -259 -1 -116 48 -98 194 44 348 l59 65 -35 34
c-38 36 -134 174 -134 191 0 6 -11 19 -25 30 -27 21 -33 61 -12 77 6 6 28 24
48 40 20 17 49 35 65 42 52 20 212 12 305 -17 13 -3 19 6 28 41 6 25 23 71 37
103 53 121 107 172 181 172 36 0 50 -6 84 -37z m-1053 -1525 c16 -16 15 -63 0
-76 -7 -5 -24 -12 -38 -14 l-25 -3 -3 -269 -2 -269 178 -271 c279 -422 294
-454 258 -524 -32 -63 -25 -62 -568 -62 -471 0 -494 1 -525 20 -43 26 -56 54
-51 110 6 57 24 89 260 446 l178 270 0 277 0 277 -22 0 c-47 0 -74 53 -42 84
13 13 46 16 203 16 132 0 191 -4 199 -12z"/>
<path d="M3921 6958 c-57 -38 -76 -73 -76 -133 0 -60 19 -95 76 -133 28 -20
43 -23 87 -20 86 7 145 69 145 153 0 84 -59 146 -145 153 -44 3 -59 0 -87 -20z"/>
<path d="M4566 6625 c-78 -28 -126 -96 -126 -180 0 -60 19 -103 63 -142 50
-44 109 -59 167 -44 193 51 200 306 11 370 -43 14 -67 13 -115 -4z"/>
<path d="M4129 5827 c-54 -20 -107 -65 -137 -116 -24 -40 -27 -57 -27 -131 0
-97 13 -128 76 -190 99 -96 264 -93 363 6 124 123 90 339 -66 420 -43 22 -162
29 -209 11z"/>
<path d="M5809 5571 c-34 -35 -55 -70 -76 -127 -49 -128 -49 -130 -5 -145 20
-6 66 -25 101 -40 l63 -29 67 29 c36 16 82 34 102 40 l37 12 -17 57 c-51 168
-117 252 -197 252 -20 0 -41 -14 -75 -49z"/>
<path d="M5344 5316 c-41 -18 -49 -32 -30 -52 22 -21 20 -60 -4 -81 -19 -18
-19 -19 3 -62 12 -24 49 -73 82 -109 l61 -65 85 64 86 64 12 90 c7 50 14 99
17 111 5 19 -2 22 -71 37 -91 20 -198 21 -241 3z"/>
<path d="M6201 5314 c-36 -8 -66 -16 -69 -18 -3 -4 6 -75 24 -191 3 -22 19
-41 62 -73 31 -23 69 -52 84 -64 l28 -22 31 30 c55 51 118 144 135 199 15 46
15 58 4 85 -27 66 -147 87 -299 54z"/>
<path d="M5671 5217 c-6 -35 -11 -76 -11 -91 l0 -28 33 21 c17 12 62 38 99 58
38 21 65 40 60 44 -11 10 -141 59 -156 59 -9 0 -18 -21 -25 -63z"/>
<path d="M6010 5254 c-36 -14 -69 -29 -73 -33 -5 -5 20 -24 55 -43 34 -19 80
-45 101 -57 l37 -23 0 24 c-2 58 -26 153 -40 155 -8 1 -44 -9 -80 -23z"/>
<path d="M5845 5179 c-22 -12 -75 -41 -117 -67 l-78 -46 0 -138 0 -138 68 -44
c37 -24 92 -56 122 -71 l55 -28 62 33 c48 24 63 37 63 54 0 50 50 82 90 56 25
-15 30 9 30 143 l0 127 -67 44 c-71 45 -167 96 -180 96 -4 -1 -26 -10 -48 -21z"/>
<path d="M5546 4984 c-57 -47 -65 -58 -55 -71 13 -15 124 -103 131 -103 2 0 3
52 3 115 0 63 -2 115 -5 115 -4 0 -37 -25 -74 -56z"/>
<path d="M6160 4924 c0 -89 3 -114 13 -108 19 11 137 105 137 109 0 6 -136
115 -144 115 -3 0 -6 -52 -6 -116z"/>
<path d="M5391 4838 c-70 -82 -102 -142 -108 -201 -9 -75 50 -117 165 -117 54
0 193 26 203 38 3 4 -1 54 -9 112 -14 103 -15 106 -51 131 -20 14 -59 45 -88
68 l-52 42 -60 -73z"/>
<path d="M6260 4852 c-31 -26 -66 -54 -78 -62 -19 -12 -25 -29 -32 -85 -5 -38
-12 -88 -15 -111 l-7 -40 54 -13 c29 -7 88 -15 130 -18 226 -17 259 122 78
320 -29 32 -57 57 -64 56 -6 0 -36 -21 -66 -47z"/>
<path d="M5660 4724 c0 -15 5 -56 11 -92 11 -63 12 -64 39 -58 16 3 57 18 92
34 l63 29 -60 31 c-33 17 -79 43 -102 57 l-43 26 0 -27z"/>
<path d="M5982 4666 c-30 -15 -50 -32 -45 -36 20 -18 154 -63 163 -54 5 5 12
34 16 64 l6 55 -43 0 c-29 0 -62 -9 -97 -29z"/>
<path d="M5795 4579 c-49 -21 -93 -40 -97 -41 -11 -4 24 -112 57 -180 30 -61
76 -112 113 -123 19 -5 24 -2 33 24 12 34 35 45 72 36 23 -6 28 -1 56 57 17
35 40 91 50 124 l18 61 -91 37 c-50 20 -98 39 -106 41 -8 2 -55 -14 -105 -36z"/>
<path d="M4650 3935 l0 -55 45 0 c38 0 45 -3 45 -20 0 -17 -7 -20 -45 -20
l-45 0 0 -50 0 -50 45 0 c38 0 45 -3 45 -20 0 -17 -7 -20 -45 -20 l-45 0 0
-50 0 -50 45 0 c38 0 45 -3 45 -20 0 -17 -7 -20 -45 -20 l-45 0 0 -64 c0 -63
-1 -65 -75 -174 -41 -61 -75 -113 -75 -115 0 -3 16 -11 36 -17 43 -14 76 -9
212 36 58 19 117 34 133 34 16 0 29 3 29 8 0 4 -23 41 -50 82 l-50 75 0 283 0
282 -80 0 -80 0 0 -55z"/>
<path d="M4875 3223 c-11 -2 -69 -20 -130 -40 -90 -28 -121 -34 -175 -31 -36
2 -72 7 -81 12 -13 6 -40 -29 -132 -171 -134 -209 -157 -252 -157 -292 0 -62
-6 -61 522 -61 343 0 484 3 503 12 63 29 40 86 -154 381 -136 206 -134 204
-196 190z"/>
<path d="M7777 9086 c-3 -8 1 -20 9 -26 8 -7 14 -21 14 -32 0 -10 -59 -102
-132 -204 -113 -158 -135 -184 -153 -179 -75 23 -68 -6 17 -64 40 -28 85 -60
100 -72 25 -18 29 -19 34 -4 4 8 -1 24 -10 34 -9 10 -16 23 -16 29 0 18 260
377 275 380 8 2 23 -1 33 -7 15 -8 23 -7 31 3 9 10 -1 21 -46 51 -32 21 -77
53 -100 71 -47 39 -49 39 -56 20z"/>
<path d="M2265 8994 c-16 -14 -58 -48 -92 -76 -35 -27 -63 -54 -63 -60 0 -5
18 -7 43 -3 l42 6 58 -71 c32 -39 57 -75 55 -79 -7 -20 -180 -153 -188 -145
-4 5 -33 40 -64 78 -55 67 -56 70 -40 93 8 14 13 31 10 40 -5 11 -26 -2 -89
-53 -118 -97 -114 -93 -98 -103 7 -5 26 -4 42 2 15 6 30 9 32 7 145 -174 287
-351 287 -360 0 -6 -7 -21 -16 -34 -18 -29 -3 -44 24 -24 85 62 171 143 163
151 -7 7 -19 6 -37 -2 -32 -14 -36 -12 -115 85 l-59 72 91 76 c71 60 94 74
105 65 7 -6 38 -41 69 -78 54 -67 65 -93 45 -106 -12 -7 -14 -45 -2 -45 4 1
21 12 37 26 17 14 58 48 93 76 44 35 60 54 53 61 -7 7 -19 7 -36 -1 -15 -7
-31 -10 -36 -7 -5 4 -74 85 -154 182 -140 170 -144 177 -130 199 16 25 20 54
8 54 -5 -1 -21 -12 -38 -26z"/>
<path d="M8055 8809 c-17 -4 -46 -24 -64 -43 -28 -29 -35 -45 -39 -89 -4 -49
0 -63 47 -157 28 -56 51 -112 51 -122 0 -11 -13 -33 -29 -49 -44 -44 -81 -40
-139 15 -45 43 -47 47 -47 98 1 29 5 68 9 85 7 27 5 34 -10 40 -10 3 -19 2
-21 -3 -2 -6 -19 -34 -38 -63 -34 -51 -34 -53 -19 -84 46 -88 177 -187 249
-187 55 0 117 40 143 92 31 62 25 101 -39 225 -51 99 -56 121 -38 154 19 36
56 42 105 19 60 -30 86 -74 83 -145 -3 -81 12 -88 54 -25 l35 52 -21 35 c-38
66 -113 131 -169 148 -57 17 -60 17 -103 4z"/>
<path d="M1624 8418 c-54 -62 -134 -150 -177 -195 l-78 -83 38 -55 c21 -30 43
-53 48 -51 6 2 9 28 7 62 -3 57 -2 62 39 112 41 53 42 53 63 34 228 -201 327
-297 322 -314 -3 -10 -9 -27 -12 -38 -12 -37 18 -21 71 38 118 130 125 144 62
121 l-35 -12 -133 119 c-73 65 -151 136 -173 156 l-41 37 53 52 c52 51 54 52
102 46 34 -4 52 -2 60 8 9 10 -1 19 -46 44 -32 17 -60 31 -64 31 -3 0 -51 -51
-106 -112z"/>
<path d="M8412 8498 c-42 -24 -51 -33 -42 -43 8 -10 26 -12 60 -8 48 6 50 5
102 -46 l53 -52 -41 -37 c-307 -280 -303 -276 -338 -264 -18 7 -35 12 -39 12
-21 0 2 -34 74 -109 61 -65 82 -82 91 -73 9 9 9 15 0 24 -7 7 -12 20 -12 29 0
10 75 85 172 173 l173 155 37 -42 c46 -51 54 -79 41 -129 -8 -30 -7 -40 4 -49
7 -7 15 -10 16 -8 2 2 20 27 41 56 l37 52 -92 98 c-50 54 -130 142 -177 195
-47 54 -90 97 -96 97 -6 -1 -35 -15 -64 -31z"/>
<path d="M433 5593 c-51 -17 -105 -77 -121 -132 -24 -78 -16 -118 48 -251 90
-186 86 -214 -54 -370 -91 -101 -104 -130 -59 -130 18 0 38 13 64 41 44 47 78
50 93 8 7 -20 0 -56 -29 -155 -20 -71 -39 -136 -42 -145 -6 -20 25 -33 42 -19
7 6 32 57 55 113 23 56 45 104 47 107 3 3 3 -53 1 -125 -6 -138 -4 -155 17
-155 24 0 33 26 45 130 21 187 25 191 46 34 15 -114 22 -131 50 -120 15 6 16
19 10 131 -3 69 -3 125 1 125 5 0 28 -34 52 -76 45 -78 64 -95 84 -75 8 8 1
32 -31 96 -23 47 -42 99 -42 115 0 16 -9 75 -20 130 -10 55 -16 108 -13 117 5
12 16 14 53 10 76 -9 83 2 93 156 1 15 7 27 13 27 6 0 17 7 24 15 10 12 7 23
-15 61 -21 36 -27 60 -29 118 -3 84 -32 154 -74 185 -68 48 -223 65 -309 34z
m100 -108 l25 -26 26 26 c30 30 65 32 94 5 53 -50 38 -104 -56 -198 l-65 -65
-68 71 c-77 80 -92 119 -65 170 25 49 69 56 109 17z"/>
<path d="M9529 5596 c-102 -27 -149 -92 -157 -216 -3 -55 -11 -86 -28 -117
-29 -51 -30 -70 -4 -78 12 -4 20 -14 19 -23 -1 -9 3 -30 10 -46 6 -16 9 -42 6
-57 -10 -45 20 -67 84 -61 l51 5 0 -39 c-1 -22 -7 -68 -15 -104 -8 -36 -14
-82 -15 -103 0 -23 -15 -68 -41 -118 -42 -85 -46 -114 -15 -114 13 0 33 23 64
75 24 41 46 77 48 79 12 13 13 -17 4 -119 -10 -115 -5 -140 25 -140 18 0 24
19 36 128 7 54 16 101 20 107 6 5 9 5 9 -1 0 -5 7 -63 15 -129 15 -122 32
-162 57 -137 12 12 13 207 2 245 -3 9 -1 17 4 17 5 0 26 -42 47 -92 21 -51 46
-102 56 -113 17 -17 21 -18 33 -5 12 13 10 30 -20 125 -42 133 -51 189 -34
210 21 25 47 17 86 -25 23 -25 46 -40 61 -40 47 0 37 28 -39 113 -132 147
-128 141 -128 213 0 58 5 74 56 171 68 130 76 181 45 264 -25 66 -61 103 -120
124 -51 18 -158 19 -222 1z m69 -106 c12 -12 22 -26 22 -31 0 -6 13 3 29 20
35 37 69 40 98 9 50 -55 36 -102 -57 -196 l-63 -63 -45 43 c-104 100 -127 164
-77 213 29 30 64 32 93 5z"/>
<path d="M1418 2827 c-57 -26 -57 -43 -1 -39 37 3 44 0 69 -33 23 -30 25 -39
13 -45 -7 -5 -79 -54 -159 -110 -129 -89 -149 -100 -177 -95 -18 3 -33 3 -33
1 0 -3 20 -35 45 -72 43 -63 50 -65 57 -19 4 23 313 240 328 230 6 -4 17 -20
26 -37 15 -28 14 -34 -2 -69 -25 -56 -10 -60 39 -11 31 31 39 46 32 56 -6 7
-48 69 -94 137 -46 68 -86 125 -90 126 -3 0 -27 -9 -53 -20z"/>
<path d="M8718 2751 c-38 -31 -44 -72 -18 -126 41 -85 166 -170 266 -181 88
-9 138 41 115 117 -25 84 -182 196 -289 206 -37 4 -53 1 -74 -16z m114 -44
c80 -42 164 -103 206 -151 37 -42 38 -48 16 -71 -21 -21 -60 -13 -134 26 -145
77 -242 175 -210 214 19 23 52 18 122 -18z"/>
<path d="M8530 2466 c0 -24 -3 -53 -7 -63 -6 -17 -6 -17 15 0 25 23 16 28 175
-97 113 -88 125 -100 116 -118 -23 -42 1 -27 45 28 44 57 54 83 18 51 -17 -16
-28 -10 -186 113 -93 72 -170 130 -172 130 -2 0 -4 -20 -4 -44z"/>
<path d="M1619 2473 c0 -24 -19 -44 -123 -128 -80 -65 -132 -100 -147 -100
-35 0 -32 -14 17 -70 l44 -50 0 31 c0 25 10 39 58 78 l57 47 43 -48 c23 -26
42 -50 42 -54 0 -4 -26 -28 -57 -53 -43 -36 -62 -46 -80 -41 -34 8 -29 -10 19
-65 43 -50 62 -56 53 -17 -5 19 14 39 126 130 102 83 134 105 145 96 7 -6 18
-8 24 -4 10 6 -67 115 -82 115 -5 0 -8 -12 -9 -27 0 -21 -13 -38 -52 -70 l-52
-42 -33 37 c-58 67 -58 66 4 117 43 35 59 43 70 34 7 -6 18 -8 23 -4 10 6 -61
106 -80 113 -5 2 -9 -9 -10 -25z"/>
<path d="M1867 2204 c-4 -4 -4 -16 -1 -28 4 -17 -19 -45 -115 -139 -106 -105
-122 -117 -140 -108 -48 26 -25 -14 57 -100 l89 -92 41 24 c45 26 59 56 20 43
-42 -14 -72 -6 -100 25 -16 17 -28 37 -28 44 0 6 24 33 54 59 l53 47 23 -24
c17 -18 20 -30 15 -54 -4 -17 -5 -31 -3 -31 3 0 26 19 51 43 46 42 54 67 14
46 -16 -9 -25 -6 -48 18 l-29 29 50 49 50 49 35 -34 c36 -35 42 -58 25 -90
-18 -34 7 -31 34 4 14 19 26 38 26 43 0 14 -166 184 -173 177z"/>
<path d="M8369 2098 c-56 -64 -60 -75 -31 -70 10 1 54 -31 105 -79 67 -62 87
-87 87 -107 0 -26 1 -26 40 18 46 52 49 63 16 54 -17 -4 -33 3 -60 26 -30 27
-34 35 -25 52 8 14 18 19 35 15 33 -6 30 3 -12 44 l-36 34 6 -31 c5 -22 2 -35
-8 -43 -12 -11 -22 -7 -56 20 -22 18 -40 38 -40 44 0 24 38 48 70 43 16 -3 30
-1 30 3 0 8 -46 39 -58 39 -5 0 -33 -28 -63 -62z"/>
<path d="M8218 1944 c-32 -17 -58 -62 -58 -100 0 -42 38 -111 77 -141 24 -19
50 -28 87 -31 48 -4 57 -1 85 24 117 104 -53 324 -191 248z m104 -53 c76 -48
111 -114 84 -156 -22 -34 -61 -32 -118 4 -58 37 -88 79 -88 125 0 62 49 73
122 27z"/>
<path d="M2205 1940 c-3 -5 -1 -17 5 -27 10 -15 -4 -58 -74 -232 -46 -118 -82
-219 -80 -223 5 -8 48 20 204 133 36 26 66 46 68 44 2 -1 -16 -49 -39 -106
-22 -57 -49 -125 -60 -151 -10 -26 -15 -49 -10 -52 4 -3 92 55 196 129 146
105 193 133 210 129 40 -10 35 11 -11 50 -46 39 -73 41 -53 4 6 -11 7 -24 2
-28 -26 -24 -207 -150 -210 -146 -2 2 21 66 51 142 56 138 63 164 48 164 -5 0
-46 -28 -93 -61 -46 -34 -105 -77 -132 -96 l-48 -35 20 48 c76 191 86 209 114
210 15 1 29 3 32 6 4 4 -120 108 -130 108 -2 0 -6 -4 -10 -10z"/>
<path d="M7820 1737 c0 -32 41 -331 46 -336 2 -2 28 15 58 38 30 22 57 41 59
41 2 0 17 -18 32 -40 27 -39 27 -41 10 -60 -30 -33 -7 -23 50 23 55 43 72 67
33 46 -19 -10 -25 -8 -49 22 -16 19 -29 40 -29 47 0 17 35 15 50 -3 7 -9 15
-13 18 -11 2 3 -15 28 -38 56 -23 28 -45 48 -48 45 -3 -3 0 -11 6 -17 14 -14
16 -44 3 -52 -5 -3 -48 46 -97 109 -49 63 -92 114 -96 115 -5 0 -8 -11 -8 -23z
m107 -273 c-23 -19 -45 -34 -48 -34 -4 0 -10 33 -13 73 -4 39 -10 90 -13 112
l-6 40 61 -79 61 -79 -42 -33z"/>
<path d="M2533 1391 c-112 -85 -167 -121 -186 -121 -38 0 -34 -11 16 -40 60
-35 61 -36 53 -5 -7 28 -3 33 51 71 20 14 25 13 62 -12 44 -28 47 -39 27 -94
-8 -23 -19 -35 -31 -35 -36 0 -23 -20 35 -57 62 -38 75 -39 59 -4 -8 16 2 66
41 210 29 110 47 193 42 198 -5 5 -76 -41 -169 -111z m69 -43 l-17 -57 -34 21
-34 22 49 42 c27 24 50 40 51 36 2 -4 -5 -33 -15 -64z"/>
<path d="M2777 1384 c-35 -43 -29 -53 16 -29 31 16 35 16 65 1 18 -9 32 -19
32 -23 0 -3 -37 -71 -82 -149 -68 -118 -87 -144 -105 -144 -36 0 -27 -12 34
-47 57 -34 81 -35 61 -4 -9 15 2 41 66 152 42 74 80 140 85 148 7 11 14 10 40
-8 24 -18 31 -30 31 -56 0 -43 17 -54 30 -20 27 72 32 66 -104 143 -69 40
-129 72 -133 72 -5 0 -21 -16 -36 -36z"/>
<path d="M7503 1360 c-46 -19 -57 -83 -20 -118 33 -31 80 -29 106 4 28 36 26
60 -8 95 -31 31 -42 33 -78 19z"/>
<path d="M7047 1234 c-103 -52 -124 -74 -71 -74 21 0 33 -18 96 -145 64 -128
71 -148 60 -165 -7 -12 -10 -25 -7 -30 4 -7 204 89 228 110 11 10 -15 101 -28
97 -5 -2 -12 -21 -15 -43 -4 -32 -11 -42 -45 -61 -22 -13 -43 -23 -47 -23 -8
0 -82 129 -77 134 2 2 19 11 38 21 32 16 36 16 46 1 7 -9 17 -16 24 -16 6 0
-3 27 -21 63 -32 61 -33 62 -36 29 -2 -24 -11 -36 -32 -47 -16 -8 -31 -15 -34
-15 -6 0 -66 115 -66 125 0 3 20 15 45 26 43 19 46 19 75 3 16 -10 32 -15 36
-12 6 7 -44 78 -55 77 -3 0 -55 -25 -114 -55z"/>
<path d="M3107 1201 c-31 -47 -25 -58 19 -30 30 18 35 19 68 5 l35 -15 -67
-143 c-81 -173 -79 -168 -103 -168 -34 0 -20 -16 41 -45 60 -29 84 -29 60 0
-11 13 -2 39 55 163 37 81 71 150 74 154 3 4 21 0 39 -9 26 -12 33 -23 38 -54
4 -22 10 -39 14 -39 6 0 30 75 30 93 0 3 -24 15 -52 27 -29 12 -88 40 -132 61
-43 22 -82 39 -86 39 -4 0 -19 -18 -33 -39z"/>
<path d="M6748 1097 c-43 -18 -76 -36 -74 -42 2 -5 10 -9 18 -7 23 4 30 -10
97 -167 56 -134 60 -146 45 -162 -32 -35 -4 -37 66 -6 70 32 85 51 39 52 -18
0 -29 10 -46 45 -30 61 -28 75 8 90 60 25 84 96 55 164 -31 74 -88 83 -208 33z
m132 -49 c11 -18 20 -46 20 -62 0 -29 -24 -66 -42 -66 -10 0 -68 124 -68 146
0 9 12 14 35 14 29 0 39 -6 55 -32z"/>
<path d="M3500 1047 c-35 -17 -72 -95 -64 -133 3 -17 28 -56 55 -88 27 -32 49
-66 49 -77 0 -31 -46 -71 -73 -64 -38 11 -67 52 -67 96 0 57 -24 50 -36 -11
-10 -47 -9 -51 15 -74 38 -35 65 -46 110 -46 50 0 96 37 112 90 16 53 7 80
-51 146 -28 31 -50 66 -50 76 0 37 19 58 54 58 39 0 66 -25 75 -72 9 -43 24
-39 34 8 6 29 3 41 -10 57 -41 44 -104 59 -153 34z"/>
<path d="M6598 1041 c-51 -17 -60 -30 -28 -38 22 -6 25 -28 14 -119 l-7 -52
-53 60 c-53 60 -64 78 -44 78 6 0 10 7 10 15 0 18 8 19 -75 -9 l-70 -24 -14
27 c-7 14 -15 28 -17 30 -1 1 -75 -14 -163 -35 l-161 -39 0 -57 c0 -43 4 -58
14 -58 8 0 17 15 20 36 6 28 14 38 41 50 19 8 40 14 47 14 9 0 30 -65 61 -192
43 -171 46 -194 33 -204 -25 -17 -20 -37 7 -30 12 4 46 12 75 18 53 11 71 34
30 40 -20 3 -27 22 -71 192 -27 104 -45 192 -40 196 4 4 22 11 39 15 27 5 38
1 67 -24 40 -36 51 -39 45 -13 -11 42 43 7 114 -72 60 -67 77 -94 92 -144 18
-59 18 -63 2 -81 -26 -29 -8 -31 66 -7 67 21 91 46 44 46 -21 0 -27 9 -46 66
-21 62 -22 72 -11 177 9 78 17 114 27 120 14 8 20 38 7 36 -5 -1 -29 -9 -55
-18z"/>
<path d="M3958 773 c-92 -147 -130 -199 -146 -201 -41 -6 -23 -29 34 -41 63
-14 75 -10 50 18 -17 19 -17 22 11 71 27 50 29 51 65 46 82 -13 88 -19 88 -86
0 -44 -4 -60 -14 -60 -7 0 -19 -7 -26 -15 -14 -17 -20 -14 80 -38 75 -17 89
-14 62 17 -16 18 -21 47 -31 186 -20 276 -23 300 -37 300 -6 0 -68 -89 -136
-197z m92 -19 c0 -35 -3 -64 -7 -64 -5 0 -25 5 -45 10 l-37 11 36 59 c19 33
39 57 44 54 5 -3 9 -34 9 -70z"/>
<path d="M4280 841 c0 -5 9 -15 19 -22 19 -14 19 -17 -4 -159 -13 -80 -24
-153 -24 -163 -1 -10 -12 -22 -26 -27 -14 -5 -25 -13 -25 -18 0 -10 150 -35
159 -26 3 3 -5 13 -18 23 -22 16 -23 22 -16 78 3 32 10 65 15 73 10 16 17 4
59 -107 20 -50 39 -84 49 -87 61 -17 82 -17 82 -2 0 9 -5 16 -11 16 -10 0 -42
66 -69 141 -13 35 -12 37 19 66 26 22 34 39 38 74 9 83 -22 112 -148 134 -99
18 -99 18 -99 6z m155 -66 c27 -26 31 -49 14 -92 -13 -34 -26 -43 -63 -43 -19
0 -27 4 -23 13 3 8 8 40 12 73 11 85 18 92 60 49z"/>
<path d="M5685 814 c-44 -7 -104 -13 -133 -13 -57 -1 -57 -1 -66 -68 -8 -53
12 -58 34 -11 11 23 25 35 49 41 18 4 35 6 37 4 2 -2 13 -78 24 -168 19 -147
19 -165 5 -175 -41 -30 4 -38 103 -18 24 5 31 24 8 24 -8 0 -17 4 -20 8 -4 7
-46 310 -46 335 0 4 18 7 39 7 30 0 44 -6 59 -25 16 -20 43 -34 42 -22 -2 26
-31 92 -41 93 -8 1 -50 -4 -94 -12z"/>
<path d="M4597 793 c-12 -20 -18 -93 -8 -93 6 0 11 4 11 8 0 22 43 52 75 52
42 0 41 6 23 -203 -10 -121 -14 -140 -30 -145 -10 -2 -18 -11 -18 -18 0 -10
15 -14 54 -14 30 0 61 -3 70 -6 21 -8 21 15 0 31 -15 10 -15 27 -4 179 l13
167 36 -3 c28 -2 40 -10 56 -35 28 -45 37 -41 33 15 l-3 47 -60 6 c-135 15
-243 20 -248 12z"/>
<path d="M5263 775 c-64 -27 -85 -128 -38 -183 14 -16 44 -37 67 -47 57 -22
88 -52 88 -85 0 -63 -80 -82 -124 -29 -14 17 -26 37 -26 45 0 8 -7 14 -16 14
-13 0 -14 -8 -9 -47 8 -55 22 -69 76 -78 82 -14 146 28 156 102 9 68 -17 106
-100 148 -40 20 -75 42 -79 48 -24 38 8 87 56 87 27 0 76 -39 76 -60 0 -5 6
-10 13 -10 9 0 11 12 9 41 -4 35 -9 43 -38 55 -41 17 -70 17 -111 -1z"/>
<path d="M4970 770 c0 -5 9 -14 21 -20 19 -11 20 -18 17 -177 -3 -143 -5 -166
-20 -177 -33 -24 -19 -33 52 -34 54 0 70 3 70 14 0 8 -7 14 -15 14 -13 0 -15
26 -15 175 0 164 1 175 20 185 38 20 20 30 -55 30 -42 0 -75 -4 -75 -10z"/>
</g>
</svg>
