<?xml version="1.0" standalone="no"?>
<!DOCTYPE svg PUBLIC "-//W3C//DTD SVG 20010904//EN"
 "http://www.w3.org/TR/2001/REC-SVG-20010904/DTD/svg10.dtd">
<svg version="1.0" xmlns="http://www.w3.org/2000/svg"
 width="1021.000000pt" height="1021.000000pt" viewBox="0 0 1021.000000 1021.000000"
 preserveAspectRatio="xMidYMid meet">

<g transform="translate(0.000000,1021.000000) scale(0.100000,-0.100000)"
fill="#000000" stroke="none">
<path d="M4880 10200 c-1169 -54 -2265 -496 -3140 -1267 -157 -138 -415 -403
-541 -553 -672 -806 -1059 -1731 -1171 -2800 -20 -196 -17 -794 5 -1000 158
-1438 868 -2691 2018 -3561 678 -512 1485 -846 2344 -968 262 -37 395 -46 715
-46 389 0 629 23 985 91 1560 300 2912 1345 3611 2789 262 541 418 1104 486
1745 21 197 17 784 -5 990 -70 631 -227 1182 -493 1725 -250 513 -559 943
-983 1365 -278 278 -493 455 -796 655 -890 589 -1963 884 -3035 835z m515 -70
c700 -41 1354 -217 1975 -530 985 -497 1769 -1288 2255 -2275 269 -545 416
-1048 491 -1675 22 -182 30 -731 15 -928 -44 -543 -166 -1056 -365 -1535 -476
-1143 -1334 -2058 -2441 -2602 -540 -266 -1078 -422 -1697 -492 -194 -22 -797
-25 -988 -5 -846 89 -1592 350 -2278 799 -1160 757 -1963 1964 -2206 3313 -57
317 -78 561 -78 905 0 360 28 650 92 978 239 1206 919 2288 1910 3039 948 717
2133 1077 3315 1008z"/>
<path d="M5290 9904 c0 -17 15 -32 35 -35 26 -5 29 -65 12 -303 l-12 -180 -32
-8 c-18 -5 -33 -15 -33 -22 0 -10 29 -15 112 -20 62 -4 116 -8 121 -9 5 -1 12
4 14 11 3 7 -8 17 -26 23 -30 11 -31 12 -30 72 0 34 6 140 12 236 12 180 12
180 60 195 9 3 17 12 17 21 0 12 -14 15 -72 15 -40 0 -97 3 -125 6 -29 4 -53
3 -53 -2z"/>
<path d="M4615 9890 c-10 -16 4 -30 29 -30 13 0 28 -6 34 -12 8 -10 27 -329
27 -453 0 -14 -10 -23 -32 -30 -20 -5 -33 -16 -33 -26 0 -13 8 -16 43 -13 23
2 86 6 140 10 106 6 130 24 55 40 -50 11 -56 24 -57 137 -1 107 13 103 119
-33 51 -65 97 -115 115 -123 34 -15 175 -12 175 5 0 5 -18 17 -40 25 -31 13
-60 40 -121 117 l-80 100 40 33 c90 76 74 195 -33 244 -35 16 -67 19 -208 19
-101 0 -169 -4 -173 -10z m311 -63 c39 -34 46 -112 13 -151 -23 -26 -104 -54
-118 -41 -3 4 -8 54 -9 111 l-4 104 46 0 c32 0 52 -6 72 -23z"/>
<path d="M4388 9860 c-15 -4 -96 -20 -180 -35 -206 -36 -198 -33 -198 -50 0
-10 10 -15 28 -15 15 0 32 -4 38 -8 6 -4 28 -99 48 -212 21 -113 40 -214 43
-226 3 -16 -4 -26 -33 -43 -48 -28 -35 -47 22 -32 22 6 120 24 218 41 99 17
181 32 182 33 1 1 6 35 9 75 7 62 5 72 -8 72 -9 0 -24 -19 -36 -44 -23 -53
-52 -70 -145 -87 -56 -9 -70 -9 -81 2 -13 13 -50 187 -42 195 5 5 105 24 127
24 9 0 22 -11 28 -25 6 -14 19 -25 28 -25 13 0 15 6 10 33 -4 17 -9 52 -12 77
-8 63 -11 70 -29 64 -9 -4 -15 -18 -15 -35 0 -34 -16 -43 -97 -54 -59 -8 -51
-18 -73 93 -19 98 -18 98 53 111 98 17 113 15 157 -25 21 -20 44 -33 49 -30 9
6 -21 96 -42 124 -11 13 -11 14 -49 2z"/>
<path d="M5827 9839 c-123 -29 -207 -127 -223 -261 -13 -114 49 -229 151 -277
48 -23 193 -51 259 -51 41 0 42 0 74 66 25 50 30 70 22 78 -8 8 -19 3 -39 -20
-46 -51 -71 -64 -128 -64 -63 0 -99 13 -136 48 -61 57 -84 142 -67 243 22 127
87 189 199 189 79 0 133 -26 150 -72 20 -52 27 -63 45 -66 14 -3 16 7 16 67
l0 70 -53 19 c-101 38 -195 49 -270 31z"/>
<path d="M3807 9737 c-91 -32 -106 -50 -44 -55 26 -2 37 -8 37 -19 0 -22 -31
-357 -33 -359 -2 -2 -64 71 -177 210 l-65 78 28 22 c23 19 37 46 23 46 -3 0
-35 -11 -73 -25 -37 -13 -94 -32 -126 -40 -65 -19 -71 -38 -14 -43 34 -3 51
-19 227 -217 115 -130 195 -212 203 -209 10 3 21 84 41 287 27 267 29 283 52
304 22 21 33 55 17 51 -5 0 -48 -15 -96 -31z"/>
<path d="M6310 9750 c0 -6 11 -21 25 -33 l25 -22 -70 -218 c-38 -120 -70 -219
-70 -222 0 -2 -17 -5 -37 -7 -20 -2 -38 -8 -40 -13 -4 -13 219 -85 230 -75 5
4 -3 18 -17 32 l-26 24 36 108 37 109 53 -128 c30 -70 54 -134 54 -141 0 -7
-12 -14 -27 -16 -55 -6 -29 -24 93 -63 99 -32 127 -38 131 -27 3 7 -8 25 -25
40 -24 20 -48 68 -98 190 -36 90 -64 165 -62 167 14 15 241 110 272 114 65 10
53 27 -41 56 -110 34 -106 33 -110 13 -3 -10 4 -19 16 -23 12 -3 21 -11 21
-16 0 -9 -261 -141 -267 -135 -1 1 12 46 29 99 32 96 32 96 68 99 64 5 40 28
-70 64 -113 37 -130 40 -130 24z"/>
<path d="M3084 9469 c-3 -6 -5 -140 -5 -298 2 -278 1 -288 -19 -306 -22 -20
-28 -50 -7 -42 6 3 47 21 89 39 85 36 100 62 38 62 l-35 1 -3 73 -3 72 82 40
82 39 49 -41 c59 -49 66 -63 44 -87 -17 -19 -21 -41 -7 -41 23 0 222 103 218
114 -2 6 -20 11 -39 11 -32 0 -57 19 -246 188 -116 103 -215 187 -221 187 -5
0 -13 -5 -17 -11z m168 -266 c17 -19 16 -20 -52 -50 l-70 -31 0 76 c0 42 -3
88 -7 102 -6 22 1 18 53 -26 32 -29 67 -60 76 -71z"/>
<path d="M7155 9160 c-213 -163 -221 -169 -257 -163 -64 10 -45 -18 43 -65 80
-43 105 -47 81 -14 -27 38 -25 45 24 88 27 24 56 43 64 43 8 1 49 -18 90 -42
l75 -42 -8 -72 -9 -73 -33 0 c-19 0 -36 -4 -39 -9 -5 -7 204 -131 220 -131 11
0 2 36 -15 54 -18 21 -18 28 8 304 15 156 25 285 22 287 -17 18 -72 -16 -266
-165z m141 -27 c-11 -122 -8 -119 -77 -81 -32 18 -59 36 -59 40 0 6 130 117
139 118 2 0 0 -35 -3 -77z"/>
<path d="M2622 9224 c-43 -32 -62 -53 -62 -67 0 -12 16 -107 35 -211 19 -104
33 -191 31 -193 -2 -3 -82 44 -177 103 -96 59 -179 107 -185 107 -16 0 -164
-94 -164 -104 0 -8 10 -11 30 -11 3 0 15 3 26 6 19 6 35 -15 143 -189 66 -107
121 -200 121 -207 0 -6 -7 -19 -16 -29 -9 -10 -14 -25 -10 -34 4 -12 20 -5 81
37 41 29 75 55 75 59 0 15 -19 19 -43 10 -32 -12 -32 -12 -137 159 -46 74 -90
146 -99 160 -9 13 -11 22 -6 19 6 -3 103 -63 217 -132 114 -70 211 -127 217
-127 17 0 14 28 -25 243 -19 110 -33 201 -31 203 4 4 179 -219 201 -254 5 -9
1 -26 -10 -48 -10 -18 -15 -36 -12 -40 4 -3 52 24 107 62 79 52 98 70 90 80
-8 10 -16 11 -31 3 -11 -6 -25 -8 -32 -6 -17 7 -286 354 -286 369 0 6 7 19 16
29 11 12 13 23 7 33 -8 14 -18 9 -71 -30z"/>
<path d="M4895 9150 c-989 -52 -1929 -470 -2636 -1172 -654 -649 -1055 -1468
-1176 -2403 -28 -218 -25 -751 5 -975 148 -1090 684 -2030 1535 -2693 866
-675 1974 -972 3052 -816 1066 153 2008 708 2663 1567 418 548 692 1207 786
1887 57 420 45 904 -34 1320 -287 1504 -1427 2739 -2904 3144 -289 79 -572
125 -882 141 -195 10 -203 10 -409 0z m610 -80 c662 -69 1276 -291 1825 -660
933 -626 1565 -1630 1724 -2735 56 -391 51 -850 -15 -1240 -188 -1120 -868
-2127 -1841 -2724 -499 -307 -1013 -487 -1623 -568 -191 -25 -735 -25 -930 0
-914 120 -1708 504 -2340 1132 -926 920 -1338 2202 -1124 3500 89 539 309
1084 630 1560 681 1010 1789 1650 3019 1745 138 10 535 5 675 -10z"/>
<path d="M4935 8993 c-133 -6 -375 -33 -512 -58 -653 -120 -1231 -384 -1753
-801 -173 -138 -456 -421 -594 -594 -458 -574 -734 -1227 -833 -1970 -23 -169
-26 -723 -5 -890 107 -863 451 -1611 1022 -2225 563 -605 1284 -1007 2095
-1170 231 -46 400 -65 655 -72 918 -25 1805 273 2529 850 163 130 481 448 607
607 463 584 730 1216 831 1970 14 106 18 203 18 455 0 335 -6 414 -51 675
-223 1299 -1107 2408 -2330 2923 -403 170 -837 269 -1294 297 -157 9 -225 10
-385 3z m435 -73 c499 -37 946 -154 1378 -361 525 -250 989 -617 1343 -1061
729 -913 1001 -2062 758 -3208 -164 -776 -603 -1522 -1209 -2054 -588 -517
-1272 -825 -2070 -933 -168 -22 -712 -26 -880 -5 -752 92 -1402 364 -1984 830
-148 118 -432 399 -549 543 -455 559 -740 1206 -836 1899 -122 879 63 1772
523 2524 389 636 946 1138 1621 1462 450 216 894 330 1425 367 108 8 356 6
480 -3z"/>
<path d="M4775 8030 c-238 -27 -460 -92 -672 -194 -919 -446 -1359 -1494
-1034 -2467 73 -218 198 -443 348 -629 72 -89 243 -257 328 -321 167 -128 385
-245 581 -313 105 -36 313 -86 357 -86 l25 0 -24 75 c-13 42 -24 84 -24 94 0
10 -11 63 -25 117 -19 74 -32 105 -54 128 -30 31 -141 236 -141 260 0 7 -12
23 -26 37 -38 35 -64 96 -64 155 0 45 -4 55 -35 87 -26 26 -35 45 -35 69 0 18
-9 46 -20 63 -12 18 -17 38 -14 52 4 14 -2 32 -15 49 -12 15 -21 38 -21 52 0
14 -8 31 -17 38 -15 10 -18 26 -15 98 2 67 -1 91 -14 111 -11 17 -15 37 -11
61 5 27 1 43 -15 65 -21 28 -21 33 -10 125 9 84 9 100 -5 121 -12 19 -15 39
-10 95 4 45 2 79 -5 92 -7 12 -13 64 -14 116 -1 74 -8 116 -32 190 -16 52 -33
106 -36 120 -3 14 -24 54 -46 88 -56 87 -97 171 -105 216 -9 45 10 118 37 143
17 15 23 15 51 4 18 -7 43 -15 56 -18 22 -5 23 -4 15 28 -12 50 -10 91 10 157
32 103 87 141 155 106 20 -10 119 -102 221 -205 l185 -186 70 -17 c148 -38
163 -45 228 -109 34 -34 68 -76 75 -93 10 -22 26 -37 55 -49 56 -23 291 -135
397 -190 74 -38 85 -47 88 -72 2 -20 -4 -35 -20 -50 -36 -32 -158 -91 -206
-99 -23 -4 -45 -11 -48 -16 -3 -5 8 -24 24 -42 16 -19 38 -58 47 -88 10 -30
37 -74 61 -102 23 -27 45 -60 49 -74 3 -13 19 -43 36 -66 17 -22 53 -74 81
-114 37 -54 63 -81 102 -102 28 -16 76 -50 106 -76 65 -55 251 -147 330 -163
30 -6 80 -16 112 -21 38 -8 73 -23 110 -50 29 -21 96 -68 148 -104 53 -36 126
-98 163 -137 l68 -72 36 59 c87 143 178 361 223 533 52 198 74 432 59 644 -63
942 -760 1706 -1699 1862 -114 19 -414 27 -525 15z"/>
<path d="M4167 7099 c-25 -14 -47 -63 -47 -102 0 -19 18 -82 40 -141 22 -59
38 -111 35 -117 -11 -17 -31 -9 -61 22 -42 45 -141 94 -160 78 -26 -21 -15
-54 51 -156 75 -117 85 -138 119 -254 28 -95 46 -198 46 -275 0 -28 7 -66 16
-84 14 -26 15 -39 5 -70 -16 -53 -14 -71 10 -96 20 -21 21 -27 11 -86 -25
-145 -25 -137 2 -150 34 -15 40 -37 21 -81 -14 -34 -14 -36 10 -54 24 -18 24
-18 11 -93 -7 -41 -11 -79 -8 -83 2 -5 15 -6 28 -3 28 7 30 -2 12 -52 -12 -32
-11 -35 14 -56 23 -18 26 -26 21 -61 -4 -30 -1 -44 11 -54 10 -8 16 -29 16
-53 0 -34 4 -41 35 -59 34 -20 35 -23 35 -84 0 -77 10 -107 55 -157 19 -21 35
-46 35 -56 0 -28 78 -182 114 -227 18 -22 38 -49 43 -60 14 -26 49 -158 58
-215 4 -25 22 -94 42 -155 25 -79 37 -141 44 -220 5 -60 13 -128 19 -150 5
-22 13 -99 17 -172 l6 -132 -86 -40 c-95 -44 -109 -66 -62 -97 44 -29 29 -36
-62 -32 l-88 3 3 -32 4 -33 -194 -1 c-281 0 -313 -5 -374 -57 -28 -23 -72 -49
-100 -58 -82 -28 -89 -41 -54 -107 11 -20 20 -41 20 -46 0 -4 -42 -14 -92 -20
-98 -13 -201 -40 -281 -73 -38 -17 -47 -25 -45 -42 4 -24 58 -57 143 -86 75
-26 96 -41 97 -72 1 -55 9 -68 57 -93 62 -31 71 -44 43 -63 -12 -8 -22 -20
-22 -27 0 -15 106 -104 140 -117 14 -5 33 -17 43 -25 16 -16 16 -17 -3 -35
-23 -22 -18 -40 16 -59 14 -7 37 -26 50 -42 21 -25 23 -35 18 -80 -9 -82 4
-102 93 -144 103 -48 113 -57 106 -98 -5 -30 1 -40 70 -114 41 -44 78 -89 82
-101 4 -11 26 -30 49 -41 31 -14 53 -36 81 -79 43 -66 35 -63 195 -82 139 -17
631 -17 775 0 826 97 1535 419 2143 974 102 93 312 315 312 330 0 4 -33 8 -73
8 -65 0 -82 5 -157 41 -113 54 -173 66 -390 74 -102 4 -205 10 -230 13 l-45 7
-6 130 c-7 152 -22 262 -38 293 -6 12 -29 31 -50 42 -52 26 -164 138 -191 189
-20 40 -50 201 -50 272 0 19 6 44 14 55 14 19 15 19 41 -1 15 -11 44 -52 64
-90 53 -102 96 -160 135 -183 19 -11 46 -40 60 -64 25 -43 131 -128 159 -128
8 0 22 -9 32 -20 10 -11 21 -17 25 -15 4 3 44 -13 88 -35 44 -22 88 -40 96
-40 9 0 50 -9 92 -20 48 -13 81 -17 91 -12 9 5 24 7 33 5 9 -3 34 3 55 11 20
9 54 16 74 16 88 0 209 69 312 177 93 98 129 168 136 267 7 85 -6 306 -16 306
-5 0 -16 -18 -26 -41 -11 -24 -36 -52 -59 -69 -23 -15 -59 -47 -81 -70 -48
-49 -136 -100 -225 -130 -49 -17 -98 -23 -211 -27 l-147 -6 -58 36 c-74 45
-106 79 -182 192 -65 98 -76 125 -92 230 -8 49 -26 100 -62 170 -28 55 -56
107 -63 115 -8 8 -34 49 -59 90 -30 50 -63 88 -98 115 -29 22 -72 65 -96 95
-130 163 -249 283 -347 350 -55 37 -118 82 -139 99 -42 33 -67 42 -191 64
-102 18 -309 116 -380 179 -28 24 -70 56 -95 70 -64 37 -107 87 -191 218 -40
63 -95 142 -121 175 -26 33 -55 82 -64 110 -9 27 -39 85 -66 127 -52 81 -55
104 -16 112 153 31 220 50 225 63 9 23 -9 45 -43 56 -26 8 -107 44 -320 142
-49 22 -81 45 -100 70 -95 124 -120 142 -239 170 -97 22 -141 52 -237 157
-114 127 -230 248 -237 248 -3 0 -14 -5 -24 -11z m1864 -2596 c-16 -32 -35
-83 -42 -113 -23 -98 -13 -499 17 -685 12 -74 32 -140 67 -217 31 -66 45 -84
105 -132 115 -91 136 -132 125 -239 l-6 -60 -56 6 c-75 8 -273 59 -374 96 -45
17 -108 35 -141 42 -44 8 -69 20 -100 48 -45 40 -124 79 -171 83 l-30 3 1 130
c1 107 6 155 32 270 17 77 34 166 37 198 7 59 27 78 40 37 7 -22 20 -26 30
-10 4 6 15 10 24 8 10 -2 26 3 35 11 14 12 21 13 38 2 17 -10 23 -9 40 5 15
14 23 16 37 7 12 -7 23 -8 35 -1 13 7 26 6 43 -3 21 -12 27 -11 37 2 6 9 23
24 39 33 27 18 27 20 27 125 0 103 21 220 51 291 16 38 71 120 81 120 4 0 -5
-26 -21 -57z m-884 -362 c43 -15 47 -20 65 -71 32 -96 40 -178 45 -468 3 -211
1 -287 -8 -298 -14 -17 -130 -18 -204 -1 -43 11 -50 16 -53 39 -2 15 8 58 21
95 21 60 25 92 30 263 4 107 12 224 18 260 16 86 15 117 -5 138 -16 19 -21 53
-10 65 8 8 36 1 101 -22z m1294 -589 c29 -53 69 -131 90 -174 41 -81 98 -139
191 -192 73 -42 105 -85 113 -150 4 -30 3 -72 -2 -93 -12 -53 -39 -53 -184 -2
l-119 42 6 131 7 132 -55 47 c-31 26 -61 60 -67 75 -33 86 -66 302 -43 288 6
-4 35 -51 63 -104z"/>
<path d="M7754 9105 c-4 -9 1 -24 10 -34 9 -10 16 -24 16 -31 0 -7 -60 -93
-132 -191 l-133 -179 -42 3 c-23 1 -43 -1 -45 -4 -2 -3 46 -43 106 -88 74 -56
112 -79 119 -72 7 7 1 20 -17 41 -14 17 -26 36 -26 41 0 5 25 43 56 84 79 105
84 99 84 -93 l0 -155 39 -37 c94 -89 129 -96 93 -17 -16 36 -18 59 -14 165 l4
122 52 0 c63 0 106 25 129 73 22 45 21 82 -2 132 -22 47 -40 64 -184 174 -84
64 -109 78 -113 66z m175 -180 c37 -43 40 -83 10 -131 -24 -40 -47 -54 -85
-54 -29 0 -94 35 -94 51 0 14 119 169 129 169 5 0 23 -16 40 -35z"/>
<path d="M8212 8700 c-24 -16 -48 -30 -55 -33 -9 -3 -9 -8 1 -19 10 -13 20
-14 49 -6 48 13 72 5 127 -43 l46 -41 -156 -162 c-87 -88 -164 -165 -171 -169
-9 -5 -23 -3 -37 6 -14 9 -28 12 -36 7 -10 -6 9 -31 75 -94 90 -88 112 -102
101 -66 -3 11 -9 29 -12 41 -5 16 24 51 157 185 l164 165 48 -51 c48 -50 49
-51 45 -108 -2 -40 1 -57 9 -57 15 0 75 93 71 109 -2 6 -72 77 -156 156 -84
80 -164 159 -178 177 -14 18 -30 33 -37 33 -7 0 -31 -13 -55 -30z"/>
<path d="M1763 8556 c-4 -8 -68 -78 -142 -156 -73 -77 -131 -144 -127 -147 3
-3 24 0 45 7 l40 13 160 -154 c88 -85 161 -162 161 -172 0 -9 -6 -26 -12 -37
-9 -14 -9 -23 -2 -30 8 -8 28 6 70 52 33 35 104 109 159 166 l99 103 -17 27
c-10 15 -25 42 -34 60 -18 35 -50 40 -45 7 12 -90 8 -110 -35 -161 -22 -27
-54 -57 -70 -66 l-29 -17 -74 68 -74 67 44 52 c48 56 55 58 95 40 16 -7 29 -8
35 -2 6 6 -14 33 -55 74 -51 51 -67 62 -77 52 -10 -10 -8 -19 6 -42 l17 -30
-49 -52 -50 -52 -68 64 c-38 35 -70 69 -72 75 -1 6 25 37 58 69 l61 58 57 -4
c72 -4 74 10 9 52 -53 33 -72 37 -84 16z"/>
<path d="M8709 8254 c-9 -11 -9 -18 -1 -26 7 -7 12 -19 12 -28 0 -13 -212
-198 -342 -299 -15 -11 -22 -11 -44 4 -14 9 -32 14 -40 11 -11 -4 0 -24 45
-76 33 -38 68 -81 77 -95 20 -31 49 -34 40 -5 -3 11 -8 28 -12 38 -4 13 33 48
152 147 231 190 201 171 236 150 22 -13 33 -14 41 -6 8 8 0 22 -30 54 -22 23
-58 65 -81 94 -34 45 -42 50 -53 37z"/>
<path d="M1355 8103 c-21 -32 -53 -77 -72 -101 -27 -33 -31 -43 -20 -48 9 -3
27 2 41 11 25 16 26 16 106 -41 44 -32 79 -60 78 -64 -16 -34 -136 -188 -144
-185 -6 2 -44 27 -83 56 -72 52 -72 52 -66 91 5 29 3 38 -8 38 -7 0 -19 -10
-24 -22 -6 -13 -36 -56 -66 -97 -31 -41 -54 -78 -51 -83 8 -13 30 -9 44 7 7 8
18 15 25 15 12 0 333 -226 369 -260 15 -15 16 -21 6 -39 -9 -17 -9 -26 1 -37
9 -12 19 -2 58 53 26 38 57 83 71 101 31 42 16 62 -23 32 l-27 -21 -89 64 -90
64 67 96 c37 53 71 96 75 97 14 0 177 -120 177 -131 0 -6 -4 -18 -9 -28 -6
-11 -6 -22 0 -32 8 -11 13 -10 27 11 9 13 43 60 75 102 45 62 54 80 42 84 -9
4 -24 -1 -35 -11 -11 -10 -26 -15 -33 -12 -27 10 -369 259 -373 272 -3 8 -1
22 4 32 10 19 6 43 -7 43 -5 0 -25 -26 -46 -57z"/>
<path d="M8854 7902 c-88 -42 -108 -102 -75 -236 12 -50 21 -104 21 -119 0
-39 -41 -77 -82 -77 -43 0 -73 22 -98 70 -27 53 -25 95 6 154 22 40 24 51 12
62 -11 11 -22 5 -66 -38 -60 -57 -61 -67 -14 -168 74 -157 221 -210 318 -114
45 46 52 89 29 194 -10 47 -20 106 -23 131 -3 41 -1 49 23 68 33 25 46 26 85
6 61 -32 89 -129 55 -194 -11 -22 -12 -32 -2 -44 11 -14 17 -11 56 25 l44 41
-16 51 c-49 155 -168 236 -273 188z"/>
<path d="M923 7453 c-23 -49 -76 -155 -119 -236 l-78 -148 50 -44 c27 -24 52
-44 55 -45 17 -1 16 34 -1 63 -26 43 -25 66 7 131 l27 55 208 -106 209 -105
-3 -36 c-6 -66 20 -45 76 65 54 105 61 148 17 104 -12 -12 -27 -21 -35 -21
-11 0 -394 191 -414 206 -7 5 41 88 63 110 15 15 36 24 54 24 62 0 87 34 34
46 -16 3 -41 10 -57 15 -16 5 -34 9 -40 9 -6 0 -30 -39 -53 -87z"/>
<path d="M9200 7530 c-14 -4 -37 -11 -52 -14 -54 -12 -29 -46 33 -46 18 0 39
-9 54 -24 22 -22 70 -105 63 -110 -23 -18 -401 -206 -413 -206 -9 0 -25 10
-35 23 -13 15 -22 19 -29 11 -8 -7 5 -41 45 -117 30 -59 60 -107 65 -107 5 0
9 17 9 38 l0 38 208 107 208 106 27 -54 c33 -67 33 -85 5 -135 -18 -30 -20
-42 -11 -51 9 -9 23 -1 62 32 28 24 51 47 51 50 0 3 -45 91 -99 195 -55 104
-107 208 -116 232 -18 43 -28 48 -75 32z"/>
<path d="M423 5581 c-77 -35 -133 -150 -117 -240 4 -20 31 -82 60 -139 50 -96
54 -108 54 -172 0 -77 5 -69 -128 -217 -75 -84 -86 -113 -41 -113 13 0 39 17
61 41 30 31 45 40 66 37 24 -3 27 -8 30 -43 2 -25 -10 -85 -33 -158 -40 -134
-42 -147 -16 -147 26 0 34 12 76 115 20 50 41 94 46 100 5 5 6 -46 3 -126 -6
-121 -5 -136 10 -142 27 -11 43 31 55 148 7 61 16 114 20 118 4 4 14 -39 20
-97 14 -117 28 -149 56 -126 14 12 15 27 10 114 -4 56 -9 109 -11 119 -12 41
19 11 63 -63 30 -51 53 -79 63 -78 27 5 21 42 -20 126 -27 56 -40 97 -40 125
0 23 -7 69 -15 102 -18 77 -19 121 -1 128 7 3 32 3 55 0 55 -8 75 9 67 57 -3
22 0 46 9 63 8 15 12 34 9 41 -3 9 3 17 15 21 27 8 26 33 -3 86 -16 30 -24 61
-25 97 -2 121 -52 200 -144 227 -73 22 -201 19 -254 -4z m117 -106 l23 -25 23
25 c67 73 164 -31 108 -115 -9 -14 -42 -51 -73 -83 l-55 -57 -59 57 c-32 32
-65 70 -73 85 -47 90 40 184 106 113z"/>
<path d="M9518 5585 c-93 -30 -137 -102 -142 -231 -2 -44 -10 -72 -30 -106
-24 -42 -25 -47 -11 -62 9 -9 21 -16 27 -16 5 0 8 -7 4 -15 -3 -8 0 -28 6 -43
6 -15 10 -43 9 -63 -2 -49 17 -63 73 -56 66 9 72 -4 53 -106 -9 -45 -19 -106
-23 -136 -3 -30 -23 -89 -45 -133 -21 -44 -35 -86 -32 -94 11 -30 39 -7 83 68
25 42 49 77 54 78 4 0 5 -53 1 -118 -6 -103 -5 -120 9 -132 13 -10 20 -10 28
-2 9 9 36 168 38 222 0 8 3 10 9 5 5 -6 14 -62 21 -125 12 -117 27 -154 57
-143 13 5 14 25 8 142 -7 142 -2 153 29 71 43 -113 69 -160 87 -160 31 0 31
17 0 117 -44 145 -53 190 -41 213 17 32 52 24 95 -20 29 -29 47 -40 64 -38 14
2 26 8 28 14 2 6 -41 62 -95 124 -88 100 -100 118 -106 159 -8 64 3 102 62
216 46 87 52 106 52 160 0 82 -34 154 -91 192 -37 24 -52 28 -138 30 -65 2
-111 -2 -143 -12z m92 -110 l23 -25 23 25 c69 74 163 -31 106 -117 -10 -15
-43 -52 -74 -82 l-55 -54 -61 61 c-70 72 -82 93 -82 141 0 70 73 101 120 51z"/>
<path d="M1417 2816 c-55 -25 -52 -36 9 -36 36 0 46 -5 63 -29 12 -16 21 -33
21 -38 -1 -4 -17 -19 -38 -33 -283 -194 -283 -194 -303 -182 -39 25 -37 0 4
-63 45 -68 70 -83 65 -39 -3 24 12 38 152 135 85 59 160 108 166 108 16 1 44
-44 44 -71 0 -13 -7 -34 -16 -47 -31 -43 0 -43 44 2 l41 42 -81 115 c-44 63
-85 125 -91 138 -12 27 -18 27 -80 -2z"/>
<path d="M8715 2735 c-79 -78 49 -246 222 -290 90 -23 153 6 153 72 0 47 -20
81 -79 136 -104 97 -243 136 -296 82z m133 -41 c77 -42 172 -113 202 -151 44
-56 8 -87 -72 -64 -48 15 -208 122 -242 162 -25 29 -34 68 -19 82 16 17 71 4
131 -29z"/>
<path d="M8540 2466 c0 -19 -4 -46 -10 -60 -11 -31 -4 -33 18 -7 17 19 21 17
152 -85 112 -88 135 -110 133 -130 -3 -35 8 -29 49 28 40 55 43 67 10 47 -17
-11 -36 1 -173 108 -85 66 -160 123 -166 127 -10 5 -13 -3 -13 -28z"/>
<path d="M1624 2467 c5 -20 -11 -37 -117 -123 -146 -120 -144 -119 -162 -104
-9 7 -15 8 -20 0 -7 -11 72 -110 88 -110 5 0 7 10 3 23 -4 18 6 31 56 72 l61
49 44 -49 43 -50 -42 -39 c-66 -60 -86 -70 -102 -57 -10 8 -16 9 -21 2 -6 -11
73 -111 88 -111 4 0 6 11 5 24 -2 19 20 42 126 129 106 88 132 106 152 101 32
-8 30 -2 -13 54 -44 55 -58 62 -58 27 0 -17 -15 -37 -49 -65 -26 -22 -52 -40
-56 -40 -10 0 -80 85 -80 97 0 8 70 70 98 87 7 4 19 3 27 -4 9 -7 15 -8 20 -1
3 6 -11 33 -32 60 -41 54 -69 67 -59 28z"/>
<path d="M1872 2173 c3 -27 -10 -42 -114 -142 -90 -86 -122 -111 -140 -109
-13 2 -24 -1 -25 -7 -1 -5 37 -49 84 -97 l85 -88 44 26 c24 14 44 30 44 34 0
5 -22 7 -48 3 -46 -5 -49 -4 -81 32 l-33 38 53 53 c29 30 56 54 59 54 4 0 16
-13 28 -30 19 -25 20 -33 10 -49 -25 -41 4 -34 49 12 47 47 53 69 13 47 -18
-10 -26 -8 -46 11 -13 12 -24 28 -24 34 0 14 82 95 96 95 6 0 23 -13 38 -29
25 -26 28 -35 22 -70 -8 -50 3 -52 39 -5 l27 35 -83 87 c-46 48 -87 89 -92 91
-5 2 -7 -10 -5 -26z"/>
<path d="M8378 2095 c-60 -66 -69 -82 -42 -71 25 10 207 -160 199 -185 -10
-29 7 -23 48 19 44 45 46 56 9 47 -23 -5 -34 1 -61 29 -33 34 -34 36 -17 55
11 12 25 17 39 14 19 -5 17 -1 -12 30 -19 20 -38 34 -43 31 -5 -3 -3 -12 3
-20 10 -12 8 -19 -8 -35 -19 -20 -20 -20 -62 18 l-42 38 26 27 c20 22 31 26
58 22 31 -5 31 -5 12 11 -44 37 -48 36 -107 -30z"/>
<path d="M8221 1936 c-77 -42 -65 -169 21 -239 106 -86 242 -10 207 116 -12
43 -59 102 -100 123 -35 17 -96 18 -128 0z m112 -57 c76 -50 109 -126 71 -163
-24 -24 -57 -19 -110 17 -81 54 -115 125 -78 161 24 24 66 19 117 -15z"/>
<path d="M2215 1907 c5 -27 -9 -72 -74 -235 -45 -111 -81 -207 -81 -212 0 -21
24 -8 144 80 68 50 126 90 129 90 3 0 -21 -66 -54 -147 -32 -81 -59 -150 -59
-155 0 -19 29 -1 197 119 128 92 186 128 208 129 17 0 30 5 30 10 0 5 -19 26
-42 47 -42 39 -58 37 -48 -5 5 -21 -6 -33 -92 -94 -132 -95 -126 -93 -104 -37
10 26 37 94 60 151 23 56 41 105 41 107 0 16 -39 -6 -149 -85 -69 -49 -126
-88 -128 -86 -2 1 19 56 46 122 47 114 51 119 81 122 17 2 30 7 28 11 -5 13
-117 101 -128 101 -7 0 -9 -13 -5 -33z"/>
<path d="M7805 1741 c-35 -52 -41 -97 -20 -167 27 -94 95 -178 169 -209 108
-45 176 60 111 172 -51 86 -159 101 -198 26 l-14 -26 -21 45 c-28 57 -29 127
-2 161 22 28 25 37 10 37 -5 0 -21 -17 -35 -39z m167 -181 c37 -28 88 -112 88
-143 0 -71 -89 -41 -150 51 -28 42 -39 90 -23 105 13 14 61 6 85 -13z"/>
<path d="M2533 1380 c-92 -69 -169 -120 -179 -118 -33 6 -23 -17 19 -44 45
-28 63 -28 47 2 -8 15 -3 24 25 49 20 17 40 31 46 31 7 0 89 -49 89 -54 0 0
-6 -21 -14 -46 -9 -32 -19 -46 -35 -50 -12 -3 -23 -8 -24 -11 -2 -8 101 -79
114 -79 5 0 6 13 3 29 -4 19 10 92 41 208 26 98 48 182 49 187 4 27 -37 4
-181 -104z m78 -27 c-9 -31 -21 -58 -26 -60 -6 -1 -21 6 -35 17 l-25 20 45 40
c25 22 48 40 51 40 4 0 -1 -26 -10 -57z"/>
<path d="M2782 1380 c-36 -44 -29 -59 16 -33 29 17 32 17 67 0 l36 -17 -19
-33 c-11 -17 -50 -85 -87 -150 -54 -95 -70 -117 -85 -112 -10 3 -21 2 -24 -3
-6 -10 114 -85 123 -77 3 3 0 14 -7 25 -10 16 -1 38 64 152 97 169 94 166 133
139 24 -18 31 -30 31 -57 0 -41 14 -44 28 -6 5 15 13 34 17 43 5 13 -17 29
-97 74 -57 32 -115 66 -130 77 -14 10 -28 18 -30 18 -1 0 -18 -18 -36 -40z"/>
<path d="M7493 1345 c-29 -20 -37 -59 -19 -94 37 -71 136 -47 136 33 0 60 -68
95 -117 61z"/>
<path d="M7052 1227 c-94 -48 -125 -76 -74 -69 18 3 32 -18 97 -147 65 -130
73 -154 63 -171 -7 -10 -9 -22 -6 -26 5 -4 180 75 227 104 2 1 0 23 -5 49 -11
59 -32 68 -36 16 -2 -30 -10 -42 -37 -60 -53 -36 -67 -31 -101 37 -17 34 -28
65 -26 69 3 5 19 14 36 21 27 11 32 11 45 -6 26 -37 27 -4 0 50 -29 60 -51 74
-40 28 5 -25 2 -30 -30 -45 l-35 -17 -30 60 c-16 33 -30 63 -30 68 0 5 19 17
41 28 39 17 43 17 71 1 45 -26 51 -21 22 23 -15 22 -32 40 -38 39 -6 0 -57
-23 -114 -52z"/>
<path d="M3112 1194 c-29 -44 -22 -53 22 -29 29 16 38 17 65 5 17 -7 31 -15
31 -18 0 -3 -32 -75 -72 -159 -43 -92 -76 -152 -83 -149 -7 2 -18 0 -25 -4
-10 -6 6 -18 53 -41 62 -31 96 -34 69 -7 -7 7 -12 18 -12 25 0 24 134 303 146
303 25 0 63 -41 66 -73 4 -43 19 -37 34 14 13 43 11 59 -7 59 -6 0 -63 25
-126 55 -64 30 -121 55 -127 55 -6 0 -21 -16 -34 -36z"/>
<path d="M6798 1105 c-34 -12 -79 -29 -98 -37 -36 -16 -35 -19 16 -33 12 -4
134 -285 134 -310 0 -8 -4 -15 -10 -15 -5 0 -10 -7 -10 -16 0 -18 6 -17 92 18
59 23 71 43 27 43 -19 0 -29 11 -53 60 -16 32 -25 60 -20 62 71 24 113 93 95
154 -26 87 -76 109 -173 74z m57 -31 c19 -8 55 -75 55 -103 0 -19 -35 -61 -51
-61 -3 0 -21 35 -38 77 -24 59 -28 79 -19 85 16 9 31 10 53 2z"/>
<path d="M3479 1019 c-31 -33 -45 -84 -35 -124 3 -13 26 -47 51 -75 49 -56 58
-95 27 -123 -45 -41 -112 -4 -112 62 0 21 -6 44 -13 50 -11 9 -16 0 -26 -45
-15 -64 -10 -73 53 -103 75 -37 140 -20 170 43 30 64 17 124 -39 176 -43 40
-57 74 -43 104 13 31 37 40 70 27 32 -12 46 -30 50 -65 5 -44 24 -42 35 3 9
35 8 42 -11 59 -34 31 -62 42 -106 42 -34 0 -48 -6 -71 -31z"/>
<path d="M6603 1032 c-46 -18 -54 -31 -23 -39 17 -5 19 -12 14 -72 -8 -98 -9
-98 -64 -39 -41 44 -49 58 -44 81 3 15 4 27 1 27 -2 0 -30 -9 -62 -20 -76 -26
-81 -26 -94 11 -8 24 -15 30 -28 24 -10 -4 -83 -23 -163 -43 -80 -20 -146 -37
-148 -38 -8 -5 11 -114 19 -114 10 0 14 8 23 51 6 26 41 49 76 49 22 0 19 7
75 -222 38 -154 39 -157 20 -178 -10 -11 -16 -22 -13 -25 5 -6 145 28 154 38
4 4 -5 11 -19 16 -29 11 -26 3 -82 233 -22 86 -37 160 -33 163 3 3 21 8 41 12
29 4 40 1 67 -26 35 -33 57 -33 40 0 -24 43 48 -6 117 -82 57 -62 75 -89 93
-144 21 -62 21 -69 6 -77 -9 -5 -16 -15 -16 -22 0 -11 18 -8 76 11 71 24 83
37 40 45 -14 2 -25 22 -41 68 -20 60 -21 73 -11 172 6 59 17 113 24 120 13 13
17 39 5 37 -5 -1 -27 -9 -50 -17z"/>
<path d="M3965 769 c-81 -128 -129 -196 -147 -205 -34 -18 -36 -34 -4 -34 12
0 37 -5 55 -11 39 -14 48 -6 32 25 -12 21 -10 30 15 73 l27 50 58 -15 57 -14
4 -55 c3 -60 1 -66 -24 -76 -27 -10 -22 -26 10 -32 15 -3 51 -12 80 -19 55
-14 65 -7 37 24 -12 13 -19 69 -31 226 -17 238 -20 254 -37 254 -6 0 -66 -86
-132 -191z m91 -86 c-3 -3 -79 18 -84 22 -2 2 14 33 35 68 l38 65 7 -76 c3
-42 5 -78 4 -79z"/>
<path d="M4290 830 c0 -5 7 -13 16 -18 15 -8 15 -22 -6 -158 -28 -192 -28
-194 -51 -194 -10 0 -19 -7 -19 -15 0 -10 10 -15 33 -15 17 0 52 -5 76 -11 54
-12 63 -5 28 24 -27 22 -27 22 -15 90 6 37 16 66 21 64 6 -2 26 -45 45 -96 37
-96 41 -101 110 -114 37 -7 42 6 12 31 -10 10 -33 52 -50 95 l-30 78 34 29
c41 37 53 84 32 134 -18 43 -51 61 -143 75 -87 13 -93 13 -93 1z m148 -56 c17
-12 22 -25 22 -60 0 -51 -25 -84 -66 -84 -26 0 -26 1 -20 48 18 123 20 127 64
96z"/>
<path d="M5635 802 c-66 -8 -126 -16 -132 -18 -8 -2 -13 -22 -13 -54 0 -53 15
-67 26 -25 8 31 40 55 74 55 26 0 26 0 43 -142 21 -174 21 -192 2 -208 -26
-22 -8 -27 66 -17 l72 10 -25 21 c-23 19 -27 33 -44 178 -9 87 -16 159 -13
161 2 2 17 7 32 11 23 6 33 1 58 -25 16 -17 32 -29 36 -26 3 4 0 27 -7 52 -10
36 -17 45 -34 44 -11 -1 -75 -9 -141 -17z"/>
<path d="M4606 789 c-2 -8 -9 -29 -15 -48 -15 -47 0 -58 27 -21 19 25 30 30
62 30 26 0 40 -5 40 -12 -1 -7 -7 -82 -15 -167 -12 -139 -16 -156 -35 -171
l-23 -17 33 -6 c18 -4 53 -7 79 -7 46 1 46 1 24 19 -21 18 -21 18 -7 177 7 87
13 162 14 167 0 4 16 7 35 7 30 0 39 -5 56 -35 12 -19 25 -35 30 -35 8 0 4 63
-6 96 -2 7 -53 13 -133 17 -72 4 -137 10 -146 13 -9 3 -18 0 -20 -7z"/>
<path d="M5253 761 c-55 -35 -66 -132 -20 -182 11 -12 41 -30 66 -41 64 -28
81 -46 81 -84 0 -40 -22 -64 -59 -64 -30 0 -53 18 -82 68 -27 45 -38 33 -26
-29 11 -56 30 -70 99 -71 84 -1 128 42 128 125 0 59 -25 89 -111 133 -64 32
-69 36 -69 67 0 40 15 57 51 57 41 0 58 -9 75 -41 22 -44 37 -37 29 14 -4 23
-10 46 -15 50 -4 5 -31 10 -61 13 -43 4 -61 1 -86 -15z"/>
<path d="M4980 760 c0 -6 7 -13 15 -16 13 -5 15 -35 15 -179 0 -165 -1 -174
-20 -180 -40 -13 -19 -23 51 -27 74 -3 93 4 59 22 -19 10 -20 20 -20 148 0
158 7 212 26 212 8 0 14 7 14 15 0 12 -14 15 -70 15 -41 0 -70 -4 -70 -10z"/>
</g>
</svg>
