<svg version="1.1" id="Layer_1" xmlns="http://www.w3.org/2000/svg" xmlns:xlink="http://www.w3.org/1999/xlink" x="0px" y="0px"
	 width="100%" viewBox="0 0 1008 1008" enable-background="new 0 0 1008 1008" xml:space="preserve">
<path fill="#000000" opacity="1.000000" stroke="none" 
	d="
M551.531372,1.000000 
	C556.518860,4.390280 561.997498,2.806851 566.909363,3.355801 
	C585.031128,5.381077 602.990417,8.233742 620.802124,12.007254 
	C650.714233,18.344282 679.878967,27.306704 708.041931,39.147888 
	C745.217346,54.778378 780.264404,74.253036 812.867188,98.196045 
	C838.950317,117.351128 863.127075,138.586472 885.137939,162.190887 
	C913.511292,192.618393 938.105103,225.871445 958.364929,262.351501 
	C974.963684,292.239349 988.418701,323.403564 998.883728,355.884399 
	C1002.542664,367.240906 1005.531677,378.813293 1008.913330,390.643555 
	C1009.000000,404.354218 1009.000000,417.708466 1009.000000,431.531342 
	C1006.241577,425.715637 1006.183655,418.839783 1004.776062,412.262939 
	C998.451965,382.714813 990.109497,353.805786 978.890137,325.719269 
	C970.802429,305.472229 961.449646,285.835510 950.871521,266.803558 
	C938.923096,245.306046 925.226807,224.927750 910.234680,205.421494 
	C894.098328,184.426575 876.589722,164.640671 857.254883,146.562027 
	C827.070374,118.338654 794.100281,93.849907 758.112366,73.421196 
	C723.711365,53.893311 687.444763,38.835850 649.509888,27.875492 
	C626.268311,21.160393 602.615479,16.189751 578.540894,13.222254 
	C562.899414,11.294233 547.267273,9.912744 531.520630,9.086614 
	C521.202820,8.545301 510.878845,8.042950 500.625854,8.533257 
	C479.786591,9.529808 458.969177,10.863226 438.277557,14.083911 
	C415.957153,17.558111 393.921234,22.144285 372.258148,28.443142 
	C350.096161,34.887058 328.452698,42.763809 307.386261,52.290131 
	C289.334259,60.453304 271.725800,69.439430 254.763016,79.614952 
	C232.831131,92.771324 212.051926,107.595245 192.194824,123.763145 
	C174.086655,138.507065 157.347214,154.712555 141.544327,171.768768 
	C118.716545,196.407028 98.720924,223.290863 81.362877,252.143921 
	C60.802689,286.319672 44.294815,322.274750 32.303284,360.297333 
	C23.412237,388.488922 17.270430,417.258575 13.113071,446.554596 
	C8.722040,477.497223 8.245300,508.590332 9.667353,539.583374 
	C11.508923,579.719727 18.758018,619.143127 30.747959,657.619629 
	C37.722706,680.001953 46.166779,701.765625 55.960659,723.067627 
	C67.511292,748.190552 81.303619,771.989624 96.911873,794.756409 
	C107.322662,809.942017 118.625420,824.437073 130.569519,838.480957 
	C145.907486,856.515381 162.556564,873.272339 180.227570,888.887634 
	C205.896408,911.570496 233.796539,931.294006 263.609314,948.315491 
	C294.458954,965.928833 326.747620,980.136353 360.594849,990.837891 
	C384.005768,998.239685 407.750580,1004.261047 432.083252,1007.795593 
	C432.545898,1007.862793 432.965607,1008.225159 433.702667,1008.724915 
	C419.979095,1009.000000 405.958221,1009.000000 391.468658,1009.000000 
	C384.073608,1005.756897 376.504639,1004.640686 369.243042,1002.524841 
	C344.020081,995.175598 319.571014,985.862000 295.703491,974.890259 
	C272.099487,964.039673 249.567184,951.267944 228.035660,936.846680 
	C211.366577,925.682251 195.434494,913.465027 180.108231,900.415833 
	C165.875351,888.297546 152.766785,875.081299 139.793228,861.728699 
	C118.214546,839.519653 99.370461,815.103088 82.554268,789.081848 
	C62.288235,757.722412 45.672157,724.585571 32.608967,689.611084 
	C20.334866,656.749207 11.764015,622.969788 6.578756,588.302490 
	C4.741471,576.018860 3.021572,563.723328 2.634679,551.287292 
	C2.591974,549.914612 2.432565,548.635498 1.250657,547.280334 
	C1.000000,529.645752 1.000000,512.291565 1.000000,494.468658 
	C1.879591,492.281952 1.642280,490.424225 1.656739,488.603638 
	C1.825623,467.339264 4.541245,446.314087 7.921473,425.380707 
	C12.878031,394.685303 20.943644,364.772034 31.575235,335.563629 
	C42.909912,304.423584 57.365749,274.779907 74.429321,246.371979 
	C86.401024,226.441147 99.865562,207.563858 114.490440,189.545914 
	C122.938652,179.137665 131.825714,169.074982 141.154160,159.382767 
	C148.878098,151.357635 156.776993,143.526031 164.919098,135.965607 
	C187.943771,114.585854 212.653122,95.373520 239.352478,78.717506 
	C258.270996,66.915451 277.702454,56.135250 297.986420,46.860733 
	C324.314148,34.822815 351.423859,25.048914 379.403961,17.580641 
	C397.832520,12.661807 416.479797,8.836957 435.303284,6.003709 
	C445.757782,4.430140 456.314087,3.333002 466.883362,2.431307 
	C473.006165,1.908955 479.154816,2.094375 485.622131,1.149331 
	C507.687561,1.000000 529.375122,1.000000 551.531372,1.000000 
z"/>
<path fill="#000000" opacity="1.000000" stroke="none" 
	d="
M1009.000000,631.531372 
	C1004.379089,647.042175 1000.669556,662.351440 995.498657,677.235779 
	C982.868713,713.590759 966.496399,748.133423 946.260681,780.889587 
	C932.807312,802.666931 917.620972,823.159546 901.167297,842.699219 
	C889.178223,856.936829 876.440125,870.551331 862.790649,883.223938 
	C839.677185,904.683105 815.175232,924.471863 788.624390,941.527161 
	C749.739502,966.505310 708.202698,985.959351 664.010437,999.615967 
	C653.902100,1002.739563 643.709045,1005.588928 633.277466,1008.782227 
	C618.645752,1009.000000 604.291565,1009.000000 589.468628,1009.000000 
	C595.105530,1006.230469 601.811584,1006.074097 608.234680,1004.838501 
	C660.423828,994.798279 709.438660,976.252686 755.866211,950.575012 
	C784.454163,934.763794 811.070068,916.148193 835.947449,894.990845 
	C848.989319,883.899353 861.820129,872.577332 873.592529,860.142029 
	C897.708984,834.667664 919.483032,807.300842 938.104004,777.559814 
	C968.333862,729.277344 989.580200,677.213318 1002.355347,621.711060 
	C1004.653015,611.728821 1006.433777,601.627563 1008.726624,591.290649 
	C1009.000000,604.354248 1009.000000,617.708435 1009.000000,631.531372 
z"/>
<path fill="#000000" opacity="1.000000" stroke="none" 
	d="
M105.650452,518.928650 
	C105.349731,471.103668 112.090591,424.882111 127.453522,380.010254 
	C139.913376,343.617615 157.223602,309.686035 179.278366,278.199005 
	C189.367706,263.794708 200.727570,250.415848 212.363785,237.205566 
	C223.951263,224.050598 236.778137,212.287384 250.014221,200.979843 
	C277.444061,177.546646 307.757080,158.505508 340.468384,143.244354 
	C372.840424,128.141510 406.599731,117.714157 441.785919,111.486549 
	C470.719391,106.365608 499.838593,104.794357 529.080688,105.806847 
	C544.270386,106.332764 559.419189,108.090363 574.520508,110.361900 
	C598.538208,113.974625 621.956604,119.758530 644.841248,127.716980 
	C673.175537,137.570602 700.110779,150.367020 725.671753,166.173203 
	C743.235840,177.034286 759.830200,189.203568 775.486816,202.530518 
	C789.900208,214.799240 803.267212,228.252945 815.875488,242.468475 
	C829.888855,258.268280 842.700867,274.923798 854.000061,292.726654 
	C866.126892,311.833527 876.663879,331.765869 885.536987,352.643555 
	C897.854492,381.625641 906.445251,411.648376 912.015137,442.551971 
	C914.303223,455.247345 915.312439,468.141571 916.520935,481.006042 
	C917.709839,493.661987 917.073486,506.270203 917.313416,518.895264 
	C917.676819,538.023376 915.459717,556.935364 912.556274,575.823608 
	C908.660156,601.169556 902.262329,625.827271 893.531738,649.902466 
	C879.443848,688.751160 859.827576,724.548462 834.762024,757.441895 
	C819.994873,776.820679 803.506592,794.603210 785.709717,811.104919 
	C764.246521,831.005981 740.537170,848.021179 715.296021,862.886841 
	C691.430847,876.942139 666.267151,888.185608 640.022949,896.850098 
	C616.392456,904.651611 592.267578,910.484253 567.464600,913.573364 
	C547.830139,916.018799 528.201965,917.485046 508.426422,917.393799 
	C478.629639,917.256409 449.253937,913.621887 420.210480,907.111145 
	C384.819061,899.177429 351.209564,886.326416 319.366516,869.132690 
	C293.018188,854.905884 268.406525,838.044312 245.851807,818.160583 
	C232.723938,806.587280 219.896973,794.745300 208.405243,781.593689 
	C192.338730,763.206604 177.762955,743.666016 165.000275,722.789490 
	C148.472534,695.754333 135.469925,667.114380 125.543793,637.069336 
	C117.522285,612.789246 112.094566,587.868774 108.888382,562.534241 
	C107.602859,552.376404 106.280174,542.130737 106.623581,531.799072 
	C106.761253,527.657166 105.113625,523.616943 105.650452,518.928650 
M382.542786,135.207855 
	C381.622742,135.584900 380.717163,136.002991 379.780548,136.333023 
	C350.520081,146.644012 322.832520,160.202362 296.799255,177.046448 
	C267.380829,196.080811 240.741684,218.364975 217.317703,244.566742 
	C204.337936,259.085754 192.237915,274.223145 181.371262,290.321594 
	C168.529922,309.345428 157.493973,329.400208 148.166229,350.415680 
	C140.343231,368.040894 133.599747,386.051544 128.524399,404.619202 
	C122.628159,426.190033 118.543472,448.106201 116.016968,470.400177 
	C114.442024,484.297546 113.991425,498.245697 113.822922,512.077271 
	C113.701637,522.032349 114.069923,532.247375 115.062157,542.354980 
	C116.455093,556.544495 117.896309,570.735107 120.632919,584.677124 
	C129.291946,628.791748 144.330612,670.548584 167.149506,709.503540 
	C182.820633,736.256226 201.013596,761.054626 222.101715,783.659546 
	C238.331848,801.057068 256.271484,816.661255 275.383728,830.909241 
	C306.236603,853.909607 339.782715,871.997681 375.827789,885.228149 
	C405.610229,896.159912 436.294861,903.774414 468.012543,906.717041 
	C487.990540,908.570496 507.888000,910.245239 528.067932,908.916809 
	C544.637512,907.825928 561.088623,906.354065 577.458862,903.679749 
	C614.744751,897.588562 650.308716,886.055481 684.312927,869.704468 
	C697.651733,863.290527 710.423462,855.837402 723.060486,848.094116 
	C740.106201,837.649597 756.148376,825.820862 771.047852,812.656738 
	C787.224670,798.364014 802.732422,783.287781 816.437073,766.438416 
	C824.705444,756.272644 832.989014,746.119995 840.288391,735.268433 
	C858.053894,708.857544 872.839294,680.903259 884.087158,651.017822 
	C899.126953,611.057251 907.354126,569.754456 909.469482,527.252075 
	C910.111572,514.350525 909.841797,501.361359 908.882324,488.364502 
	C907.405334,468.357330 904.804688,448.616150 900.778564,428.957916 
	C894.498413,398.294312 884.251770,369.058594 870.968445,340.813934 
	C860.549805,318.660553 847.819946,297.872131 833.562012,278.000793 
	C821.143860,260.693512 807.248047,244.564499 792.183044,229.601562 
	C779.373779,216.879074 765.605408,205.129837 751.123535,194.183258 
	C725.401672,174.740555 697.830566,158.566406 668.316895,145.791199 
	C644.533142,135.496262 619.851929,127.796577 594.472839,122.317123 
	C569.280518,116.877983 543.779724,114.278656 518.085510,113.447960 
	C509.315033,113.164413 500.526550,113.603447 491.725464,114.134903 
	C481.782837,114.735291 471.809998,115.324379 461.978851,116.595535 
	C435.157684,120.063477 408.929199,126.383766 382.542786,135.207855 
z"/>
<path fill="#000000" opacity="1.000000" stroke="none" 
	d="
M948.643799,547.516541 
	C948.768188,541.250244 950.170288,535.610352 951.326172,529.932373 
	C952.520691,524.064209 951.592407,522.992981 945.583374,523.324158 
	C939.026611,523.685364 937.639893,522.188904 938.113953,515.692444 
	C938.408752,511.651825 936.604614,507.873871 934.448303,504.940521 
	C932.453308,502.226593 932.419128,500.470703 933.910522,497.930298 
	C936.288086,493.880219 937.740051,489.694916 937.757324,484.760437 
	C937.819397,467.063751 946.867432,462.513672 960.474304,460.816528 
	C964.997437,460.252350 969.682861,460.457123 974.362671,461.351746 
	C985.396118,463.460999 989.864075,474.147369 990.535156,481.982025 
	C991.314697,491.084229 986.839172,497.896484 983.009949,505.203613 
	C981.859985,507.398071 980.785645,509.683380 980.073792,512.046753 
	C977.794067,519.614441 979.066528,526.266602 985.042725,531.947388 
	C989.244385,535.941406 993.080139,540.336304 996.897034,544.711304 
	C998.484558,546.530945 1000.569824,548.930359 998.364624,551.281494 
	C996.181030,553.609680 993.272156,552.367249 991.072693,550.820740 
	C989.346252,549.606628 987.974548,547.825439 986.631592,546.147095 
	C985.425293,544.639526 983.960327,544.042786 982.250732,544.670227 
	C980.277893,545.394226 979.753479,546.988892 980.009033,549.091797 
	C980.878845,556.248657 983.711243,562.834961 985.788635,569.640625 
	C986.272400,571.225159 987.024963,572.783081 987.177124,574.398132 
	C987.334351,576.066711 988.114014,578.338684 985.686340,579.101074 
	C983.355225,579.833069 981.410156,579.005554 980.346558,576.658630 
	C977.952454,571.375793 975.579041,566.083435 972.901367,560.137939 
	C972.003845,562.617981 972.012756,564.747009 972.554565,566.594238 
	C973.908020,571.208191 973.054138,575.868347 973.330383,580.495178 
	C973.463867,582.729675 972.887390,584.716553 970.405945,584.882141 
	C968.007935,585.042175 966.984253,583.153198 966.665222,581.011414 
	C965.959045,576.270447 965.302490,571.521667 964.676758,566.769348 
	C964.489441,565.346741 964.470947,563.901855 964.297180,561.301086 
	C961.351868,565.928894 962.785767,570.303650 961.410950,574.046448 
	C961.081543,574.942993 961.473206,576.099304 961.161194,577.008484 
	C960.467163,579.030579 959.792786,581.522766 956.953430,581.031006 
	C954.463135,580.599609 953.239136,578.461121 953.753418,576.143738 
	C955.164978,569.783813 953.865479,563.225342 954.838806,556.500000 
	C952.629578,560.153076 950.472290,563.839050 948.190796,567.446411 
	C946.896790,569.492432 945.655640,572.491272 942.562012,570.879150 
	C939.515015,569.291382 940.532043,566.365051 941.566040,563.823425 
	C943.750305,558.454346 947.509460,553.785217 948.643799,547.516541 
M977.870911,478.877136 
	C977.430115,476.101318 976.354919,473.815491 973.468384,472.767151 
	C968.311768,470.894318 967.133484,476.522034 963.890442,478.018005 
	C963.425964,477.720520 963.057739,477.609222 962.896240,477.362549 
	C960.713196,474.028107 958.484131,470.611237 953.822327,473.675293 
	C949.598206,476.451660 949.027588,480.499420 952.282959,485.333710 
	C955.441589,490.024292 959.828552,493.553497 964.197998,497.653381 
	C969.338013,491.565002 976.998779,488.173645 977.870911,478.877136 
z"/>
<path fill="#000000" opacity="1.000000" stroke="none" 
	d="
M36.418453,467.507202 
	C44.580338,459.296387 54.314991,460.128418 64.182686,461.439728 
	C73.617912,462.693634 80.293060,467.162994 82.888260,476.788239 
	C83.763695,480.035156 83.811378,483.461517 83.879036,486.627502 
	C83.963242,490.567810 85.441917,493.588806 86.982124,496.825562 
	C88.395134,499.795044 88.785072,502.181946 86.434883,505.450378 
	C84.429955,508.238708 82.916580,512.037903 83.224236,516.052979 
	C83.699432,522.254639 82.458328,523.438599 76.254692,523.354126 
	C69.042091,523.255920 69.197479,523.275818 70.233612,530.396790 
	C71.927704,542.039673 73.605782,553.632263 79.477356,564.140747 
	C80.688354,566.308167 81.484192,569.419678 78.902008,570.818787 
	C76.071220,572.352661 74.599525,569.613586 73.282181,567.382629 
	C71.262970,563.963013 69.089920,560.634277 66.831100,557.025696 
	C65.223312,562.752686 67.561699,568.142212 67.330200,573.587036 
	C67.259796,575.242981 67.363312,576.972229 66.906593,578.526672 
	C66.482834,579.968933 65.239342,581.089417 63.556164,581.095032 
	C61.772869,581.101013 60.905903,579.967957 60.661110,578.269226 
	C59.980118,573.543701 59.275524,568.821594 58.597084,564.095642 
	C58.443047,563.022705 58.357086,561.939941 57.532536,560.876404 
	C56.804432,566.878967 55.989986,572.872864 55.384327,578.887756 
	C55.077515,581.934753 54.416782,585.104797 50.852566,584.795288 
	C47.462181,584.500854 47.243099,581.053040 47.758320,578.441162 
	C48.920570,572.549255 48.551662,566.688232 48.620678,559.519836 
	C45.859848,565.869446 43.565186,570.951050 41.443695,576.103882 
	C40.278648,578.933655 38.297855,580.112000 35.555164,578.972168 
	C32.699524,577.785339 33.993401,575.441406 34.585155,573.382080 
	C36.739231,565.885620 38.751244,558.346130 41.050694,550.894958 
	C41.826500,548.381042 41.238064,546.634888 39.278168,545.258667 
	C36.997879,543.657593 35.608990,545.488647 34.166069,546.841736 
	C32.466099,548.435791 30.968044,550.318054 29.063047,551.601196 
	C26.931595,553.036865 24.535349,552.760925 22.769304,550.716125 
	C21.060213,548.737305 22.832846,547.342957 23.960611,546.017700 
	C28.253376,540.973083 32.292938,535.656128 37.022400,531.052551 
	C45.175610,523.116394 42.947487,513.800537 38.823601,505.955261 
	C35.235207,499.128723 30.498396,492.738129 30.576111,484.365051 
	C30.634130,478.113892 32.172535,472.589600 36.418453,467.507202 
M57.487930,497.232178 
	C61.809204,492.595062 67.634514,489.450226 70.423248,483.255157 
	C72.307251,479.069946 70.778877,476.102325 67.870438,473.689240 
	C64.819748,471.158142 62.003601,472.516510 59.746910,475.331635 
	C59.042610,476.210144 58.343906,477.093140 57.788761,477.790558 
	C55.905540,477.154297 55.314354,475.950317 54.454597,474.947235 
	C51.296944,471.263092 47.261189,471.645844 44.645275,475.763977 
	C42.865234,478.566254 42.933815,481.404144 44.639610,484.197052 
	C47.795757,489.364563 52.277489,493.287170 57.487930,497.232178 
z"/>
<path fill="#000000" opacity="1.000000" stroke="none" 
	d="
M141.001617,294.656616 
	C129.394699,286.677124 117.937294,279.014984 106.534927,271.271820 
	C104.327042,269.772461 102.550034,269.401123 100.393089,271.477661 
	C98.959206,272.858063 96.929008,272.823578 95.499634,271.172760 
	C94.122063,269.581818 95.655777,268.522919 96.480057,267.313141 
	C99.842430,262.378448 103.086212,257.361969 106.503548,252.466278 
	C107.375282,251.217422 108.158852,249.192047 110.314575,250.018402 
	C112.535645,250.869781 112.510101,252.640366 111.714676,254.578476 
	C111.243713,255.726013 111.216377,256.955444 112.233040,257.810181 
	C116.190765,261.137573 120.567863,263.856812 125.141228,266.233093 
	C126.732582,267.059937 127.545181,265.557098 128.286865,264.496429 
	C131.234940,260.280396 134.106079,256.010529 137.056519,251.796143 
	C138.398911,249.878662 137.979935,248.456741 136.114639,247.223175 
	C132.793304,245.026703 129.508148,242.775558 126.191353,240.572128 
	C124.062767,239.158066 122.126099,239.581757 120.334869,241.260406 
	C118.924881,242.581802 117.311104,242.766144 115.849319,241.530777 
	C114.024643,239.988708 115.364677,238.665710 116.326408,237.251846 
	C119.775154,232.181732 123.125359,227.044724 126.536018,221.948517 
	C127.544426,220.441757 128.476013,218.621704 130.819183,219.690033 
	C132.895493,220.636673 132.488754,222.467041 131.910645,223.985977 
	C130.977844,226.436844 132.179932,227.741364 133.979462,228.943359 
	C144.878494,236.223312 155.781723,243.497131 166.653000,250.818375 
	C168.349442,251.960831 169.923553,252.496063 171.546326,250.860901 
	C173.291061,249.102844 175.076645,249.816483 176.666489,250.131424 
	C177.604019,252.417282 176.327713,253.418411 175.505295,254.649490 
	C172.184189,259.620911 168.908386,264.623108 165.668945,269.648193 
	C164.856857,270.907898 164.307526,272.568420 162.365463,271.830017 
	C160.934372,271.285889 160.334381,269.784760 160.782333,268.505005 
	C162.418976,263.829071 158.860123,262.368256 156.038055,260.485779 
	C144.520004,252.802490 144.491989,252.808777 136.874481,264.383820 
	C135.427261,266.582916 134.169037,268.906372 132.562881,271.611603 
	C137.752670,275.068817 142.706314,278.343933 147.630859,281.662231 
	C149.443954,282.883972 150.736862,281.916992 152.066925,280.806335 
	C153.482010,279.624756 155.210403,279.128082 156.584351,280.440643 
	C158.035217,281.826660 156.580017,283.151123 155.781525,284.361023 
	C152.493423,289.343262 149.169434,294.302155 145.920319,299.309631 
	C144.914368,300.860016 144.078384,302.946381 141.825928,301.980347 
	C139.375076,300.929260 140.028534,298.825195 140.863129,296.862030 
	C141.108780,296.284180 141.075699,295.587769 141.001617,294.656616 
z"/>
<path fill="#000000" opacity="1.000000" stroke="none" 
	d="
M698.364868,925.934082 
	C697.274536,929.078979 695.701477,931.295471 692.986755,932.675903 
	C691.316345,933.525269 688.796570,934.178528 690.154724,936.951233 
	C691.650085,940.003784 691.156921,944.601135 695.760132,945.339722 
	C697.297913,945.586426 698.789185,945.115601 699.094971,947.169861 
	C699.372925,949.038025 697.764893,949.207153 696.594116,949.714172 
	C693.394043,951.100037 690.193665,952.485901 686.975281,953.828247 
	C685.703247,954.358826 684.290161,954.646362 683.279663,953.466614 
	C682.413635,952.455444 682.791809,951.232910 683.541504,950.249939 
	C684.871155,948.506775 684.292725,946.853882 683.550415,945.097961 
	C680.383667,937.608032 677.298157,930.083679 674.122131,922.597717 
	C673.367371,920.818909 672.893921,918.447937 670.328308,918.561462 
	C667.451843,918.688782 665.640137,920.825623 665.155151,923.289856 
	C664.232910,927.976257 663.902710,932.780579 663.360229,937.539795 
	C662.798401,942.468323 664.051941,947.088074 665.790955,951.630676 
	C666.514954,953.522095 667.088989,955.438660 669.583801,955.708740 
	C670.825439,955.843079 671.893250,956.527832 671.917480,957.884827 
	C671.946716,959.521606 670.656677,959.945740 669.295166,960.366089 
	C665.971558,961.392334 662.693298,962.565491 659.397583,963.681946 
	C657.021362,964.487000 654.962769,962.927734 656.263062,961.271790 
	C660.743408,955.566284 656.762268,950.611938 654.426392,946.760742 
	C650.725464,940.658997 645.070862,935.742371 639.845398,929.878296 
	C636.939148,934.366211 634.390442,933.325012 632.067505,930.374573 
	C629.323242,926.888977 626.228027,927.322388 622.410706,929.592468 
	C624.842163,939.383118 627.268799,949.306885 629.787537,959.207275 
	C630.588318,962.354980 630.990417,965.567688 634.788635,967.221741 
	C637.258850,968.297424 636.195312,970.412170 634.022034,971.091553 
	C630.392456,972.226074 626.643921,972.977234 622.953003,973.919434 
	C621.940002,974.177917 620.870728,974.381226 620.237244,973.411255 
	C619.574280,972.396118 619.383423,970.979797 620.310608,970.167114 
	C621.953552,968.727051 622.091797,967.065247 621.631042,965.211182 
	C618.878357,954.134338 616.093567,943.065552 613.277771,931.827209 
	C608.490173,931.676270 605.339233,933.313538 604.364624,938.017456 
	C604.034058,939.612732 603.532227,941.054565 601.645386,940.976013 
	C599.435913,940.884094 599.817078,938.988220 599.689453,937.585938 
	C598.878235,928.676086 598.903320,928.727783 607.427307,926.628235 
	C614.354126,924.921997 621.257690,923.116821 628.146057,921.260681 
	C631.281860,920.415649 634.060364,919.973206 635.422607,923.947754 
	C636.180054,926.157593 637.933533,925.694946 639.577576,925.084961 
	C642.224243,924.102844 644.856201,923.081421 647.498169,922.086609 
	C649.760803,921.234619 651.888489,922.287903 650.921692,924.351685 
	C649.270264,927.877136 651.554321,929.099976 653.308533,930.946045 
	C654.784241,932.498962 656.170837,934.136475 658.195557,936.408203 
	C658.317322,931.199219 662.683716,926.563416 656.658813,922.295715 
	C654.782654,920.966675 656.218079,919.242432 658.091187,918.689697 
	C666.404907,916.236084 674.084595,912.150635 682.253540,909.359680 
	C686.683838,907.846069 691.509460,907.756042 694.870239,911.385437 
	C698.428772,915.228455 700.688538,919.963318 698.364868,925.934082 
M681.772522,916.169800 
	C682.132507,919.842102 683.949463,923.014893 685.393005,926.287415 
	C686.570984,928.957886 688.450073,928.579956 689.832153,926.450378 
	C691.796021,923.424438 690.084351,920.661621 688.441345,918.262695 
	C687.036865,916.211975 685.407166,913.596924 681.772522,916.169800 
z"/>
<path fill="#000000" opacity="1.000000" stroke="none" 
	d="
M758.456421,167.463806 
	C757.171387,166.019669 755.132019,165.132111 756.274109,163.137527 
	C757.486877,161.019455 759.371033,161.760956 761.099670,162.561142 
	C763.318054,163.588013 764.637939,162.720886 766.117004,160.878769 
	C773.895020,151.191208 781.899902,141.685913 789.694763,132.011642 
	C791.525818,129.739136 793.484680,127.257454 790.423767,124.178612 
	C789.005493,122.752022 789.459717,120.833298 791.144592,118.864853 
	C793.413147,120.402596 795.762329,121.609024 797.630432,123.335823 
	C802.641052,127.967354 808.201538,131.907532 813.395813,136.293823 
	C821.043762,142.752167 824.826965,153.702942 819.247375,161.384567 
	C816.417847,165.279999 812.734253,167.854431 807.869507,167.272156 
	C802.884583,166.675537 800.610474,168.786667 800.678833,173.377991 
	C800.795288,181.204483 798.216980,189.287231 802.758728,196.764114 
	C803.633240,198.203751 803.814880,200.095047 802.398560,201.392181 
	C800.582092,203.055786 799.425476,201.210510 798.199890,200.229980 
	C796.388428,198.780685 794.663635,197.221130 792.828735,195.803238 
	C789.195740,192.995895 787.127380,189.695435 787.561096,184.749771 
	C788.168579,177.823563 787.025574,170.809418 788.549255,163.880722 
	C788.945007,162.081619 789.182556,159.807053 786.694641,158.705505 
	C783.347351,160.820618 781.618469,164.339279 779.039551,167.069748 
	C776.335999,169.932220 774.460449,172.763733 778.288330,176.327209 
	C779.865173,177.795212 779.639221,179.942368 778.201721,182.566895 
	C770.926636,178.529846 765.513245,172.162537 758.456421,167.463806 
M793.408081,149.709915 
	C792.271912,151.083878 790.699890,152.249176 792.702637,154.266647 
	C797.123840,158.720551 801.053284,158.644577 805.971191,153.801605 
	C810.703613,149.141388 810.956909,144.082611 806.827209,139.943222 
	C804.844849,137.956207 803.129089,137.315674 801.166077,139.877670 
	C798.766296,143.009781 796.292480,146.085144 793.408081,149.709915 
z"/>
<path fill="#000000" opacity="1.000000" stroke="none" 
	d="
M363.390900,91.579582 
	C367.192535,94.006477 370.676666,96.260231 374.128754,98.562027 
	C376.928864,100.429092 379.752594,102.028481 383.347015,101.695587 
	C385.758698,101.472244 387.506805,102.535606 388.002319,105.095856 
	C379.769958,111.710686 370.445740,112.436317 362.067810,107.083694 
	C357.729126,104.311729 353.513367,101.343994 349.128723,98.649155 
	C347.666595,97.750519 346.448853,95.954651 344.291138,96.602310 
	C343.459106,99.886124 347.149567,111.020195 349.555573,112.823959 
	C351.539764,114.311516 353.382996,112.886253 355.289825,112.750984 
	C356.891968,112.637321 358.369446,112.954102 358.983612,114.628075 
	C359.556915,116.190788 358.628113,117.240875 357.280975,117.757881 
	C349.120605,120.889748 340.936493,123.959793 332.710541,127.069321 
	C331.319611,124.694168 331.315948,122.833290 333.459686,121.210320 
	C336.045746,119.252502 335.832458,116.954582 334.692780,114.130653 
	C330.225311,103.061172 325.914978,91.926620 321.694855,80.760101 
	C320.623474,77.925156 319.108887,76.228722 315.916412,76.364006 
	C313.697266,76.458054 311.462250,76.405342 311.197021,73.387917 
	C311.589417,71.968300 312.829224,71.877731 313.908691,71.469215 
	C321.052032,68.765823 328.165833,65.983955 335.317413,63.302700 
	C341.074738,61.144165 347.115601,60.857731 352.974304,62.190849 
	C361.825623,64.204918 365.918976,74.830223 361.035706,83.438400 
	C358.819153,87.345703 359.430817,89.506477 363.390900,91.579582 
M343.213715,70.155762 
	C342.270020,69.903419 341.329163,69.445076 340.382202,69.432243 
	C334.318817,69.349998 332.896057,71.442650 335.019928,77.118004 
	C336.232208,80.357437 337.343384,83.635956 338.616913,86.850578 
	C339.143280,88.179222 339.615967,89.654007 341.697266,89.422081 
	C346.739868,88.860168 350.626068,83.381477 349.194244,78.538956 
	C348.248047,75.338936 347.016876,72.262466 343.213715,70.155762 
z"/>
<path fill="#000000" opacity="1.000000" stroke="none" 
	d="
M643.050903,52.578400 
	C641.019409,51.236935 640.019470,49.747166 641.374573,47.815315 
	C642.532532,46.164497 644.070007,47.216816 645.434998,47.706444 
	C654.939880,51.115940 664.502930,54.374298 673.929504,57.988525 
	C696.497864,66.641449 698.929382,91.361107 686.000244,105.568016 
	C677.579468,114.821007 666.517517,116.120865 654.857300,112.866524 
	C644.967712,110.106361 635.637024,105.634247 625.652222,103.113708 
	C624.274963,102.766037 622.660400,102.071198 622.917480,100.102608 
	C623.199097,97.946198 624.870056,97.528458 626.625671,97.693298 
	C629.971252,98.007401 631.283325,96.103699 632.253174,93.292030 
	C636.144226,82.011368 640.171326,70.777664 644.132751,59.521183 
	C644.963196,57.161388 646.025696,54.744450 643.050903,52.578400 
M656.228149,106.100815 
	C664.396912,108.125381 669.928467,104.067085 674.557190,98.070282 
	C681.865356,88.601837 681.249268,73.610062 673.315063,66.740135 
	C669.201050,63.177937 664.324036,61.256279 658.548706,59.836643 
	C654.630249,71.055885 650.703918,82.119118 646.906006,93.226219 
	C643.691711,102.626434 643.891235,102.905365 653.479126,105.509224 
	C654.116882,105.682434 654.793701,105.711967 656.228149,106.100815 
z"/>
<path fill="#000000" opacity="1.000000" stroke="none" 
	d="
M512.318359,82.500687 
	C514.640442,81.692810 515.488831,80.366356 515.640808,78.253937 
	C516.497986,66.344193 517.494202,54.450214 517.746704,42.497463 
	C517.832947,38.418663 519.158752,34.583786 512.961548,33.866310 
	C510.933075,33.631458 511.686737,30.946218 512.466675,28.935789 
	C522.868713,29.837452 533.237854,30.511309 543.546021,31.709568 
	C550.315735,32.496513 556.445984,35.272511 558.018677,42.661983 
	C559.599792,50.090599 558.192322,56.941853 550.763428,61.142220 
	C550.078308,61.529591 549.535461,62.168510 548.232666,63.285583 
	C554.935364,70.579422 556.501099,81.541435 566.676575,86.023003 
	C568.225891,86.705376 568.556396,88.316467 567.939819,89.903717 
	C567.303528,91.541565 565.850403,91.290138 564.538818,91.107536 
	C563.394592,90.948227 562.206543,90.268677 561.148621,90.453354 
	C550.722717,92.273415 545.743042,85.847870 541.485046,77.929276 
	C539.292297,73.851311 536.567017,70.058792 534.064148,66.148972 
	C533.444946,65.181671 532.901062,64.073097 531.156677,64.114182 
	C528.397461,69.103340 529.177673,74.636322 529.637146,79.976723 
	C529.886719,82.877136 532.764221,83.473427 535.370056,83.783295 
	C537.254639,84.007401 537.805054,85.377419 537.532776,87.030914 
	C537.233521,88.848869 536.034668,89.292068 534.235168,89.126778 
	C526.985229,88.460815 519.721863,87.943428 512.466614,87.332520 
	C511.055420,87.213692 509.263824,87.595505 508.904694,85.484795 
	C508.500305,83.107986 510.111176,82.718338 512.318359,82.500687 
M535.166260,57.534157 
	C542.074768,55.326290 544.884033,52.071266 544.598022,46.605682 
	C544.314392,41.184467 541.001892,38.137360 535.004639,36.982643 
	C532.083984,36.420288 531.405090,37.486946 531.359070,39.959423 
	C531.279114,44.260738 531.494995,48.551704 530.467407,52.830894 
	C529.779419,55.695671 530.975403,57.757809 535.166260,57.534157 
z"/>
<path fill="#000000" opacity="1.000000" stroke="none" 
	d="
M301.971161,145.160751 
	C286.358887,154.056091 266.978638,150.737411 258.632843,134.718506 
	C252.225433,122.420097 254.957687,102.494156 270.816681,93.481400 
	C286.839844,84.375351 305.752899,87.905228 314.001831,101.862556 
	C322.936493,116.980156 317.775452,135.943726 301.971161,145.160751 
M291.654724,100.831963 
	C284.917328,96.397369 277.874237,96.233856 272.736237,100.392723 
	C266.562927,105.389603 264.450195,112.561707 267.682404,120.010056 
	C271.101593,127.889305 276.239319,134.593521 283.945465,138.817734 
	C289.624542,141.930771 295.351196,141.868683 300.717926,137.882797 
	C306.394897,133.666473 308.371918,128.164963 306.673248,121.360474 
	C304.525452,112.756859 299.287933,106.345856 291.654724,100.831963 
z"/>
<path fill="#000000" opacity="1.000000" stroke="none" 
	d="
M151.995758,192.072739 
	C156.396042,187.740860 160.146149,183.306274 163.564407,178.594208 
	C165.460251,175.980804 167.599640,175.479340 170.376190,177.272537 
	C172.462173,178.619751 174.706802,179.719757 176.865707,180.956161 
	C178.177490,181.707428 179.626633,182.459656 179.028580,184.369873 
	C178.476990,186.131668 176.825867,186.768433 175.427917,186.253204 
	C166.772949,183.063293 163.313156,190.135345 158.585449,194.625137 
	C156.605881,196.505051 156.344208,198.495697 158.769623,200.492142 
	C161.583557,202.808304 164.329391,205.232391 166.893341,207.819214 
	C168.981781,209.926331 170.803162,209.650696 172.214813,207.446701 
	C174.433121,203.983261 179.383057,201.344513 175.918472,195.907394 
	C175.272446,194.893585 175.565292,193.240021 176.870255,192.334824 
	C178.317474,191.330917 179.387390,192.280243 180.378479,193.179611 
	C183.697968,196.191833 186.448425,199.801804 190.170273,202.401413 
	C191.224777,203.137985 191.439835,204.358261 190.981308,205.548553 
	C190.510361,206.771149 189.304016,207.693069 188.236847,207.116318 
	C180.452118,202.909027 179.555359,211.020035 175.319214,213.676758 
	C178.226028,219.263809 183.171417,222.208420 187.285126,225.932297 
	C188.672104,227.187866 190.137939,226.472580 191.299530,225.371170 
	C194.555481,222.283936 197.857544,219.240219 200.266068,215.376770 
	C202.139648,212.371445 201.628525,209.393295 200.556625,206.295639 
	C199.820267,204.167633 198.500336,201.719910 201.680176,200.346756 
	C204.649292,199.064621 204.876022,202.039154 205.842178,203.428146 
	C212.688812,213.271179 212.517914,213.179611 204.302628,221.847412 
	C197.234283,229.305099 190.424896,237.014328 183.684097,244.771454 
	C182.249100,246.422806 181.116714,248.180969 178.910614,246.698959 
	C176.965591,245.392349 177.626144,243.539230 178.873672,241.919907 
	C180.935318,239.243790 179.588898,237.525726 177.423126,235.665909 
	C169.638824,228.981216 161.984680,222.145081 154.267899,215.381531 
	C152.649673,213.963196 150.838257,212.740433 149.358047,211.195511 
	C147.298569,209.046066 145.357986,208.738907 142.866364,210.513184 
	C141.503418,211.483734 139.502655,211.995804 138.308197,210.452957 
	C136.998749,208.761612 138.587326,207.455872 139.699982,206.197479 
	C143.757401,201.608536 147.772827,196.982437 151.995758,192.072739 
z"/>
<path fill="#000000" opacity="1.000000" stroke="none" 
	d="
M577.907227,84.751564 
	C580.648254,71.590652 583.021362,58.729469 585.841980,45.967213 
	C586.518311,42.907089 586.113403,41.317131 583.321533,40.122845 
	C581.767883,39.458275 580.233032,38.410656 580.904236,36.354183 
	C581.715088,33.870052 583.899841,34.579067 585.541321,34.942448 
	C597.328308,37.551723 609.076538,40.322025 621.081665,41.830776 
	C623.727295,42.163265 625.678894,43.467094 625.382812,46.770218 
	C625.145874,49.412998 625.367798,52.094070 625.294922,54.755650 
	C625.260193,56.024551 625.548645,57.644299 623.792908,58.032448 
	C622.079041,58.411320 620.517639,57.282322 620.201721,55.948921 
	C617.928284,46.353996 609.844971,46.562187 602.627747,45.150337 
	C600.686462,44.770584 599.782410,45.408333 599.449158,47.203037 
	C598.663330,51.434689 597.934875,55.677776 597.081787,59.895721 
	C596.827820,61.151550 596.824890,62.156986 597.925537,62.999260 
	C601.230103,65.528244 608.280945,64.911003 611.132446,61.816761 
	C612.289368,60.561344 613.483582,59.408176 616.012573,60.354973 
	C616.326111,66.314125 614.249023,72.066116 613.039062,77.926529 
	C612.853882,78.823029 611.998718,79.180031 611.080261,79.052162 
	C609.757507,78.868011 609.203125,77.948624 608.769897,76.764122 
	C607.046387,72.051003 601.895569,68.914841 597.153442,69.598213 
	C595.646179,69.815430 594.744934,70.724503 594.465881,72.159264 
	C593.644348,76.383469 592.948730,80.632950 592.078003,84.846519 
	C591.567444,87.317207 592.708191,88.818085 594.816956,89.433372 
	C602.359619,91.634209 610.002869,94.294662 616.306946,86.587837 
	C617.480835,85.152817 619.184570,83.971893 621.095093,85.361725 
	C623.033875,86.772064 622.093140,88.604149 621.375061,90.315987 
	C616.719299,101.415352 616.772278,101.195152 604.862183,98.467918 
	C594.709534,96.143089 584.428711,94.372726 574.189453,92.437149 
	C572.391907,92.097351 570.244446,92.341644 569.968201,89.900902 
	C569.641663,87.016037 572.457825,87.857605 573.854614,87.063217 
	C575.100464,86.354630 576.882690,86.672310 577.907227,84.751564 
z"/>
<path fill="#000000" opacity="1.000000" stroke="none" 
	d="
M493.899292,40.895256 
	C494.817535,50.524944 495.921753,59.757671 496.240265,69.017426 
	C496.628296,80.299141 491.299072,87.133514 480.218933,89.779572 
	C473.277954,91.437141 466.159576,91.940819 459.078369,90.001411 
	C451.554382,87.940735 446.729065,82.163124 445.771362,73.248535 
	C444.869293,64.851479 444.406281,56.408134 443.609802,47.998447 
	C443.243408,44.129570 443.537628,39.694637 437.850311,39.114384 
	C436.608551,38.987686 435.906494,37.906254 435.935577,36.561604 
	C435.962860,35.299774 436.802399,34.871162 437.890961,34.765972 
	C445.144989,34.064999 452.396484,33.332951 459.657776,32.716686 
	C460.886902,32.612370 462.567871,32.380016 462.975861,34.122818 
	C463.402466,35.944969 462.144196,36.829800 460.589935,37.345181 
	C457.485107,38.374752 455.983032,40.442917 456.352722,43.775646 
	C457.355103,52.813000 458.119263,61.883774 459.401855,70.880859 
	C460.448425,78.222137 467.281250,84.239693 473.312927,83.455719 
	C484.099396,82.053726 488.699402,77.676430 488.719818,68.292641 
	C488.740479,58.802711 486.636658,49.509731 486.570770,40.041626 
	C486.549438,36.976906 484.254303,35.852669 481.631256,35.313671 
	C479.964478,34.971165 478.744659,34.131203 478.983521,32.321178 
	C479.222748,30.508165 480.887817,30.814314 482.158722,30.687929 
	C486.774628,30.228907 491.405792,29.891539 496.002625,29.290085 
	C497.563568,29.085842 499.247467,28.513037 499.826691,30.332912 
	C500.462341,32.330109 499.336029,33.747463 497.284851,34.427090 
	C494.358917,35.396572 492.836792,37.268467 493.899292,40.895256 
z"/>
<path fill="#000000" opacity="1.000000" stroke="none" 
	d="
M922.060608,260.317719 
	C922.323547,261.162720 922.403381,261.660583 922.563354,262.131195 
	C925.550049,270.916138 924.380066,273.969513 916.495056,278.380066 
	C914.388306,279.558502 913.347717,278.671722 912.844055,276.748199 
	C912.310547,274.710602 913.074524,272.859253 913.910645,270.995880 
	C916.854736,264.434265 915.445129,258.780365 910.062195,254.084930 
	C907.908508,252.206314 905.574890,251.813721 903.131470,252.764664 
	C900.603821,253.748413 899.447083,255.827087 899.322021,258.648804 
	C899.067871,264.383972 900.706177,269.810181 901.830017,275.307953 
	C903.604919,283.990967 900.524719,292.127258 893.889771,295.576904 
	C886.365479,299.488892 877.546387,297.578705 871.395325,290.797211 
	C865.990479,284.838562 863.172363,277.721802 861.478394,269.974640 
	C860.921936,267.430023 861.516296,266.040314 863.599915,264.610321 
	C865.768433,263.122070 867.586914,261.122559 869.551941,259.339386 
	C870.835571,258.174561 872.225708,257.079803 873.947021,258.330200 
	C875.730286,259.625641 875.551270,261.489410 874.793091,263.279449 
	C874.409973,264.183777 873.758362,264.972992 873.240845,265.821960 
	C869.079102,272.649780 869.505066,277.969513 874.628784,284.099335 
	C876.955566,286.882996 879.702087,288.498932 883.357605,287.103882 
	C887.033508,285.700989 888.738220,282.878052 888.661072,278.933533 
	C888.569214,274.243835 886.862732,269.860992 886.132324,265.290588 
	C885.550476,261.649353 885.268555,258.055603 886.236328,254.451294 
	C887.957703,248.040863 892.691528,244.809052 898.728455,243.796295 
	C906.170715,242.547775 912.552734,245.157196 917.094971,251.267731 
	C919.053589,253.902740 920.329041,257.045685 922.060608,260.317719 
z"/>
<path fill="#000000" opacity="1.000000" stroke="none" 
	d="
M755.112183,133.692139 
	C753.526489,143.624466 750.547424,153.093918 755.784363,162.545502 
	C751.650879,163.234070 750.021912,160.930969 747.919983,159.790939 
	C743.401184,157.340042 738.958313,154.748444 734.500916,152.185547 
	C733.072632,151.364349 731.329346,150.614349 732.084656,148.446121 
	C732.701416,146.675812 734.320374,146.427048 735.817810,146.800110 
	C738.495605,147.467224 739.416382,146.306442 739.756653,143.855957 
	C740.119507,141.243317 740.764832,138.669998 741.282471,136.078629 
	C741.347290,135.754242 741.465637,135.413635 741.423279,135.098862 
	C740.924500,131.390839 726.162415,125.006485 723.171265,127.196068 
	C722.102295,127.978630 721.033630,128.762192 719.981201,129.566833 
	C717.755249,131.268723 715.869141,132.932465 717.919617,136.160477 
	C718.760010,137.483612 718.708130,139.355591 716.918945,141.389786 
	C711.691101,138.236343 706.349670,135.050888 701.057495,131.785706 
	C700.189575,131.250229 699.690613,130.275711 700.194519,129.189316 
	C700.882996,127.704941 702.382874,127.351624 703.590759,127.830971 
	C707.544556,129.400040 710.032104,127.177650 712.960022,125.074097 
	C724.956848,116.454941 737.124207,108.073013 749.236145,99.614265 
	C750.188965,98.948814 751.224670,98.401733 752.175232,97.733345 
	C753.980530,96.463951 755.980713,96.205757 757.803528,97.298889 
	C759.898926,98.555504 759.303833,100.739136 759.052307,102.723846 
	C757.762817,112.899765 756.492859,123.078171 755.112183,133.692139 
M743.617615,121.051926 
	C743.300598,118.173317 745.703918,115.423904 743.991455,112.253242 
	C739.556519,113.910362 736.261597,116.968719 732.790894,120.231125 
	C735.395569,122.813103 738.298645,124.245941 741.146729,125.548119 
	C742.992310,124.777275 743.139343,123.223236 743.617615,121.051926 
z"/>
<path fill="#000000" opacity="1.000000" stroke="none" 
	d="
M221.652222,151.290436 
	C220.622192,149.964066 219.798004,148.911057 218.865829,147.964386 
	C217.043716,146.113922 216.304138,141.732803 212.903473,143.312988 
	C208.980240,145.135971 205.068344,147.895584 204.417435,152.948334 
	C204.163620,154.918610 204.324631,156.939819 204.242691,158.935608 
	C204.184158,160.361130 203.646088,161.559250 202.164673,162.003998 
	C200.485764,162.508041 199.787674,161.261093 199.087677,160.110107 
	C198.742554,159.542603 198.438614,158.949280 198.131577,158.359528 
	C193.526505,149.513763 193.683304,149.703476 201.394943,143.365051 
	C211.766479,134.840363 222.936768,127.309372 232.738571,118.079941 
	C235.179459,115.781555 237.559784,114.884888 240.394211,117.907410 
	C242.737930,120.406654 245.609344,122.411041 248.230072,124.620453 
	C247.162445,127.476982 245.488800,129.142288 242.828873,127.838692 
	C235.099945,124.050858 230.395340,128.467163 225.468979,133.573120 
	C232.293594,142.285294 238.916702,150.740585 245.541733,159.194336 
	C245.643967,159.324783 245.788834,159.423584 245.882248,159.558929 
	C249.507080,164.810959 252.786682,170.636047 261.494781,168.290253 
	C256.004883,176.212204 248.125153,180.443192 241.791718,186.140350 
	C239.389938,184.672195 239.112183,182.634415 240.075974,181.430527 
	C242.838974,177.979156 240.686676,175.483017 238.815659,173.061111 
	C233.237885,165.841049 227.490433,158.752060 221.652222,151.290436 
z"/>
<path fill="#000000" opacity="1.000000" stroke="none" 
	d="
M867.394470,202.749069 
	C867.925720,196.207443 863.589111,192.885498 859.794556,188.829117 
	C853.696960,194.142471 847.715088,199.059113 842.320923,204.679672 
	C838.525085,208.634827 834.434509,212.314606 830.373901,216.005524 
	C827.926514,218.230118 825.577332,220.256363 827.899536,223.986359 
	C828.626709,225.154388 828.412354,226.647049 827.191467,227.601166 
	C825.786682,228.699020 824.612427,227.788452 823.704102,226.810501 
	C818.954529,221.696930 814.262634,216.529678 809.562927,211.369888 
	C808.822327,210.556854 808.719299,209.595352 809.115112,208.575989 
	C809.855103,207.696915 811.081421,207.401657 811.827820,207.856812 
	C816.706726,210.831894 819.262573,207.446136 822.302612,204.510483 
	C830.197205,196.887146 838.515198,189.714798 846.129578,181.781174 
	C848.528442,179.281723 848.675781,177.319519 846.425659,175.044479 
	C843.025635,171.606674 839.737976,168.056625 833.961975,170.142197 
	C832.124695,170.805588 829.367065,171.121902 828.394165,168.378128 
	C827.458496,165.739273 830.167175,165.583862 831.540100,164.736359 
	C840.438477,159.243134 840.705078,159.048172 847.568115,166.480911 
	C856.148132,175.773270 864.881348,184.907181 873.981323,193.677261 
	C877.484131,197.053055 878.353271,200.125854 874.953979,203.942734 
	C874.077820,204.926514 873.630676,206.318665 872.691406,207.213516 
	C871.407166,208.437057 871.188232,211.441483 868.339172,210.295639 
	C865.774475,209.264175 866.886902,206.916840 866.786255,205.058777 
	C866.752197,204.431183 867.108643,203.782425 867.394470,202.749069 
z"/>
<path fill="#000000" opacity="1.000000" stroke="none" 
	d="
M923.990173,325.116333 
	C918.006165,327.715057 912.361938,330.121979 906.925903,333.027802 
	C904.062561,334.558411 901.834595,336.083771 902.263367,339.769287 
	C902.426758,341.173798 901.866089,342.443604 900.382019,342.927368 
	C899.514893,343.210052 898.607910,342.828308 898.249634,342.036316 
	C894.928894,334.696838 891.671387,327.328766 888.468506,320.132935 
	C890.531433,318.335236 892.468872,318.232300 893.403564,319.725159 
	C895.787415,323.532104 898.262451,321.728149 900.975952,320.443634 
	C911.336182,315.539215 921.733948,310.714142 932.104370,305.831024 
	C933.739929,305.060883 935.306396,304.144165 937.179077,303.149628 
	C934.471985,296.804321 932.717896,290.069427 923.952271,290.279144 
	C922.001343,290.325806 920.927368,289.108521 920.831360,287.124573 
	C920.728760,285.005280 922.294006,284.986542 923.785645,284.578033 
	C934.772766,281.569427 934.643066,281.597839 939.345459,291.668060 
	C944.962402,303.696442 950.814453,315.615051 956.565674,327.580719 
	C957.773987,330.094604 957.848206,332.259277 955.155884,334.021454 
	C953.223816,335.286102 951.482727,336.852753 949.711487,338.349762 
	C948.307739,339.536194 946.871460,341.246674 945.057739,339.426147 
	C943.569458,337.932373 943.059387,335.894836 944.785095,334.056793 
	C949.299194,329.248688 947.596741,324.301361 945.218262,319.299591 
	C944.098999,316.945923 942.691895,316.162048 940.094177,317.481262 
	C934.912109,320.112732 929.590637,322.469482 923.990173,325.116333 
z"/>
<path fill="#000000" opacity="1.000000" stroke="none" 
	d="
M215.624603,872.688477 
	C213.046219,874.819458 210.698380,876.643066 207.763046,877.786316 
	C205.480957,876.248169 205.876465,874.389526 206.745483,872.234619 
	C211.273392,861.007080 215.672104,849.727356 220.218872,838.507507 
	C221.283585,835.880066 222.793411,833.486633 220.971741,830.554199 
	C220.351837,829.556396 220.672012,828.247070 221.760391,827.433350 
	C222.699844,826.731018 223.641968,826.962646 224.507812,827.611206 
	C228.092392,830.296204 231.835556,832.802979 235.185471,835.755310 
	C237.214417,837.543579 236.125778,840.224915 233.861786,839.937866 
	C229.878555,839.432617 229.461197,842.060364 228.496597,844.385742 
	C226.281021,849.726990 224.199768,855.123962 221.920776,860.858704 
	C230.765167,855.724609 238.043564,848.718323 247.777023,845.016052 
	C246.499237,855.085449 241.302460,863.642700 238.282837,874.215210 
	C244.508835,869.683960 250.000824,865.677795 255.503357,861.686218 
	C257.979370,859.890076 255.000061,857.601196 256.460419,855.038269 
	C261.924896,855.064392 264.397095,859.897339 268.676544,862.737305 
	C267.647888,863.646179 267.224792,864.353271 266.722321,864.415039 
	C255.867340,865.750427 249.276474,874.390686 240.714539,879.623230 
	C235.775543,882.641724 231.203842,886.259583 226.447357,889.579712 
	C225.382843,890.322754 224.239380,891.376465 222.861008,890.519531 
	C221.099487,889.424377 222.017166,887.848022 222.540924,886.511414 
	C225.686096,878.484985 228.887497,870.480530 232.332764,861.807373 
	C226.027100,864.805786 221.298462,869.164795 215.624603,872.688477 
z"/>
<path fill="#000000" opacity="1.000000" stroke="none" 
	d="
M96.588211,290.496094 
	C89.965698,292.063873 88.935074,297.684692 86.598984,302.315063 
	C88.187172,304.752686 90.769592,305.351746 92.922241,306.389191 
	C103.386353,311.432312 113.974686,316.217133 124.462814,321.211456 
	C126.386978,322.127747 127.857925,322.176361 129.332367,320.590332 
	C130.791122,319.021210 132.476349,318.201233 134.493607,319.134460 
	C135.560898,320.485565 134.737717,321.518646 134.244522,322.498627 
	C131.331497,328.286652 128.438538,334.076477 126.215515,340.183136 
	C125.688988,341.629517 125.190887,343.592560 122.774750,342.694733 
	C120.785858,341.955658 120.359772,340.534485 121.106323,338.714355 
	C122.099167,336.293793 120.981575,334.935028 118.914558,333.965942 
	C106.901016,328.333496 94.888939,322.697937 82.875351,317.065613 
	C81.802475,316.562592 80.802002,316.153442 79.656013,317.099182 
	C76.238014,319.919861 74.926491,328.199707 77.303955,332.167419 
	C77.981209,333.297729 78.703674,334.458008 79.068794,335.703247 
	C79.491676,337.145538 79.581894,338.747437 78.010590,339.714294 
	C76.468979,340.662872 75.580757,339.332794 74.565346,338.562408 
	C65.344704,331.566376 65.451202,331.614166 70.445076,320.998230 
	C75.885704,309.432556 81.308228,297.848999 86.299408,286.086853 
	C87.842987,282.449280 90.218048,282.362671 93.035271,282.842926 
	C96.273132,283.394836 99.430481,284.419159 102.854340,285.297699 
	C103.347122,289.934326 100.276970,290.311127 96.588211,290.496094 
z"/>
<path fill="#000000" opacity="1.000000" stroke="none" 
	d="
M400.243164,85.477280 
	C397.424438,74.347336 394.759918,63.600094 392.110046,52.912018 
	C383.874329,51.923588 379.134827,54.697807 376.382507,62.255871 
	C375.731384,64.043938 374.950958,65.227806 372.948273,65.157967 
	C370.414642,65.069603 370.685211,63.096912 370.697906,61.507854 
	C370.810089,47.451424 368.897919,50.515499 381.491760,47.560349 
	C393.436554,44.757500 405.372620,41.858837 417.159058,38.468613 
	C421.982086,37.081322 424.748016,37.891796 426.457611,42.614258 
	C427.411133,45.248108 428.743103,47.744957 429.855560,50.195702 
	C427.767944,52.704445 425.823975,52.796150 423.707306,50.768532 
	C422.628143,49.734749 421.547028,48.658417 420.306366,47.846546 
	C417.082642,45.737068 409.752075,45.904186 406.974854,48.336132 
	C403.907257,51.022392 406.675171,53.894501 407.292847,56.535511 
	C409.783783,67.185547 412.642700,77.749519 415.132965,88.399696 
	C415.871460,91.557999 417.071075,93.628502 420.571777,93.716324 
	C421.766418,93.746300 423.019073,93.988602 423.076050,95.538910 
	C423.133575,97.103439 422.205566,98.047569 420.700623,98.243851 
	C413.310181,99.207748 406.256012,101.705139 399.103058,103.282356 
	C397.281830,101.452271 397.070190,99.221474 398.861420,98.407471 
	C403.794678,96.165619 402.117249,92.724258 401.187073,89.253052 
	C400.886658,88.131996 400.658539,86.991547 400.243164,85.477280 
z"/>
<path fill="#000000" opacity="1.000000" stroke="none" 
	d="
M873.669312,223.638885 
	C875.573853,222.283829 877.203308,221.138245 878.727112,219.866089 
	C881.148560,217.844528 883.835999,215.986069 881.918762,212.028214 
	C881.294678,210.739807 881.489197,208.914963 883.216187,208.178787 
	C884.973267,207.429779 886.120361,208.733658 886.893127,209.964493 
	C890.426147,215.591599 894.827026,220.547806 898.884949,225.768295 
	C899.725098,226.849136 900.601135,227.895660 899.433472,229.275360 
	C898.557861,230.309952 897.196472,230.690079 896.313477,229.926529 
	C891.291565,225.584259 888.108337,230.014450 884.808899,232.439804 
	C876.286987,238.704117 867.977417,245.257858 859.605835,251.725449 
	C857.228333,253.562286 854.631287,255.277679 856.913086,259.012390 
	C857.806946,260.475494 856.828064,262.018219 855.480957,262.829224 
	C853.739746,263.877533 852.757996,262.477448 851.858826,261.246979 
	C848.049377,256.033539 844.318176,250.761703 839.916321,246.009079 
	C838.988403,245.007126 838.158691,243.576523 839.267334,242.460312 
	C840.398621,241.321182 842.228943,240.453796 843.699646,241.806824 
	C846.834656,244.691116 848.677246,242.760056 851.232300,240.686020 
	C858.431396,234.842117 865.952637,229.395081 873.669312,223.638885 
z"/>
<path fill="#000000" opacity="1.000000" stroke="none" 
	d="
M142.602997,809.204102 
	C140.101074,808.918762 132.329391,800.946960 132.224274,799.038147 
	C132.101410,796.806702 133.682831,796.594299 135.230331,796.877014 
	C137.239975,797.244202 138.792938,796.618530 140.274918,795.382385 
	C146.139191,790.490845 152.098740,785.709839 157.859390,780.699707 
	C159.918945,778.908630 162.398987,777.621216 162.237091,773.696411 
	C162.127823,771.047485 165.220337,771.853455 166.691025,773.505554 
	C169.319016,776.457764 171.724686,779.607849 174.918777,783.528992 
	C168.516678,784.736694 162.776978,786.285583 159.612411,792.084656 
	C159.742859,792.451416 159.771301,793.060425 160.089478,793.341248 
	C162.394958,795.376160 162.677521,800.646790 167.023575,799.172974 
	C170.948059,797.842224 174.434784,795.269592 174.997681,790.153442 
	C175.331253,787.121460 177.556381,786.878662 179.517410,789.166931 
	C182.190887,792.286316 184.686432,795.558228 187.403412,798.945740 
	C186.829041,799.551270 186.320480,800.442444 185.992844,800.380310 
	C179.666794,799.179565 176.389511,804.195984 172.210648,807.191162 
	C168.175476,810.083496 164.539856,813.529358 160.540558,816.476746 
	C157.403473,818.788696 156.370041,822.192627 155.170990,826.294006 
	C150.335373,823.063049 148.171600,818.414429 144.504883,813.893433 
	C145.232697,813.538452 145.914291,812.892151 146.409027,813.012695 
	C152.226532,814.430359 154.767044,809.225891 158.682327,806.911743 
	C161.099747,805.482910 160.391556,803.121338 158.917862,801.279297 
	C157.472351,799.472473 155.745972,797.890381 153.891632,795.946228 
	C149.534515,799.783936 143.222351,801.725464 142.602997,809.204102 
z"/>
<path fill="#000000" opacity="1.000000" stroke="none" 
	d="
M450.736450,970.348999 
	C451.833893,975.433289 456.105713,978.667603 457.650787,983.467773 
	C449.062897,984.307129 445.986725,982.527649 443.390564,975.920898 
	C442.059875,972.534607 440.676666,969.168762 439.300110,965.800659 
	C438.992676,965.048523 438.613708,964.325623 437.988861,962.995850 
	C437.477203,965.393311 437.003784,967.240417 436.701080,969.115173 
	C436.223816,972.070740 435.524261,975.100098 438.901428,977.060669 
	C439.975067,977.683960 440.492645,978.794067 439.948669,980.070129 
	C439.368164,981.431885 438.080536,981.440247 436.971130,981.181763 
	C432.934418,980.241455 428.881470,979.514343 424.738739,979.185547 
	C422.659149,979.020508 422.076599,976.852112 423.379639,976.028809 
	C430.450592,971.561035 428.009888,964.012939 429.637543,957.830750 
	C430.516815,954.491089 430.930542,951.017883 431.391937,947.583130 
	C431.716766,945.165161 432.362579,942.610474 429.914215,940.706177 
	C428.915375,939.929382 428.447632,938.721924 429.194885,937.611816 
	C429.928436,936.521973 431.240753,936.680847 432.401154,936.893127 
	C436.943848,937.724182 441.449554,938.897095 446.028015,939.364380 
	C455.727356,940.354065 458.278229,953.299194 452.552032,958.536743 
	C448.353149,962.377258 448.282166,965.671875 450.736450,970.348999 
M445.645844,946.823425 
	C444.883575,944.600830 443.227142,943.912903 440.891754,944.021362 
	C439.604279,948.322815 438.974091,952.608704 439.108063,957.008057 
	C444.615570,957.398987 447.118652,953.685059 445.645844,946.823425 
z"/>
<path fill="#000000" opacity="1.000000" stroke="none" 
	d="
M406.999512,975.373718 
	C405.200470,974.891846 403.803040,974.432983 401.517944,973.682739 
	C406.441406,969.215759 409.372925,964.062317 405.007202,958.752441 
	C403.046417,956.367676 398.100494,955.371765 395.445404,957.883179 
	C392.324493,960.835266 388.556854,964.751770 393.494385,970.112793 
	C387.988464,972.431030 383.798584,968.691956 379.353577,968.992920 
	C378.693176,966.911804 379.307983,965.319702 380.827789,964.972717 
	C384.841400,964.056580 386.120026,960.679260 387.945465,957.783203 
	C394.142578,947.951660 400.254578,938.066406 406.477448,928.251404 
	C407.580597,926.511414 408.575043,924.052856 411.393127,925.038940 
	C413.884064,925.910522 413.194763,928.275391 413.343231,930.195251 
	C414.352539,943.242798 415.379059,956.289124 416.356689,969.339050 
	C416.464294,970.775940 417.072937,971.862854 418.031830,972.843323 
	C419.513397,974.358398 419.625153,976.005005 418.395874,978.120178 
	C414.724854,977.210876 411.062958,976.303833 406.999512,975.373718 
M405.520691,945.413757 
	C405.374146,944.038513 405.227600,942.663269 404.980957,940.348816 
	C403.100952,944.407288 400.203369,946.910217 399.976196,950.811951 
	C401.617950,952.097778 403.288055,952.205078 405.074860,951.621643 
	C405.912048,949.782288 405.528107,947.942139 405.520691,945.413757 
z"/>
<path fill="#000000" opacity="1.000000" stroke="none" 
	d="
M157.823044,760.315674 
	C155.827805,758.742126 154.501266,759.825500 153.100632,760.790405 
	C144.633743,766.622620 136.176819,772.470215 127.648384,778.211426 
	C126.112572,779.245300 125.149162,780.322510 125.325340,782.225037 
	C125.503265,784.146484 124.729645,785.436890 122.182053,786.025391 
	C120.064735,781.022827 115.462120,777.275757 113.592667,771.779968 
	C128.419830,769.946472 136.993851,758.197815 148.686203,751.955200 
	C149.934097,751.288879 150.540421,750.111450 149.739243,748.574829 
	C148.515717,746.228271 146.894180,744.650513 144.047943,744.366821 
	C142.003235,744.163025 138.941772,746.871765 138.057648,743.335815 
	C137.151627,739.712158 141.298111,740.387024 143.070511,739.038086 
	C147.053207,736.006775 149.884293,736.902222 152.584946,741.364624 
	C156.785278,748.304932 161.662216,754.840881 166.353867,761.476440 
	C168.530701,764.555237 169.051224,767.033875 165.100632,769.149292 
	C162.955154,770.298035 161.825836,772.898621 159.001877,773.873840 
	C155.778763,769.600525 162.807358,764.530090 157.823044,760.315674 
z"/>
<path fill="#000000" opacity="1.000000" stroke="none" 
	d="
M193.128510,829.011963 
	C190.086472,831.426331 188.640137,835.259949 184.761902,836.056458 
	C183.199493,834.451172 183.825165,832.816956 184.065918,831.202148 
	C184.363388,829.206726 182.894684,828.189758 181.591309,827.197571 
	C179.910828,825.918274 178.845947,827.345398 177.763855,828.318970 
	C176.900208,829.096008 175.979477,829.871643 175.337158,830.819458 
	C174.063889,832.698059 170.352356,834.055359 172.439514,836.780334 
	C174.565201,839.555542 176.892456,843.354492 181.747223,841.435852 
	C183.184509,840.867737 185.080032,839.739502 185.972107,842.056519 
	C186.640381,843.792480 185.073746,844.596985 183.840683,845.523865 
	C177.283081,850.453186 177.250610,850.531006 171.660034,844.692993 
	C167.763489,840.623962 164.029465,836.398926 160.239670,832.228210 
	C159.341888,831.240234 158.318069,830.193115 159.375000,828.752747 
	C160.210785,827.613647 161.381500,827.581360 162.459076,828.341675 
	C164.478790,829.766785 165.516556,828.143799 166.640533,827.032898 
	C172.790375,820.954529 178.898911,814.834412 185.024734,808.731750 
	C186.349014,807.412537 187.481216,806.113037 186.811325,803.955017 
	C186.449982,802.790955 186.921387,801.621460 188.228607,801.112915 
	C189.574890,800.589172 190.376907,801.451782 191.207260,802.319458 
	C195.340912,806.639282 199.510590,810.924683 203.640182,815.248352 
	C206.505432,818.248169 204.433945,826.792053 200.455093,827.798401 
	C198.157257,828.379578 197.217590,826.537170 198.134018,824.802490 
	C200.968048,819.438232 196.766357,817.122986 193.925980,813.727234 
	C191.340042,815.892456 188.927200,817.857605 186.581940,819.900391 
	C185.449905,820.886414 185.161163,822.094116 186.109116,823.438599 
	C187.329712,825.169800 188.583389,826.583923 191.013565,825.315125 
	C192.225784,824.682068 193.658905,824.417236 194.564651,825.860291 
	C195.431213,827.240967 194.081192,827.904297 193.128510,829.011963 
z"/>
<path fill="#000000" opacity="1.000000" stroke="none" 
	d="
M714.760010,941.697998 
	C713.154358,941.198669 712.229004,939.903076 712.891479,938.983398 
	C715.729980,935.042053 712.891357,932.056274 711.419556,928.928528 
	C709.013367,923.815125 706.375549,918.809631 703.782715,913.785767 
	C702.219727,910.757263 701.228516,907.535461 696.728516,906.978699 
	C693.978577,906.638550 694.304749,904.019104 696.653625,902.768677 
	C702.806274,899.493042 709.067810,896.421204 715.303162,893.302673 
	C716.727112,892.590515 718.140503,892.372742 719.327087,893.869751 
	C721.147461,896.166626 723.482056,898.136841 724.090271,901.223755 
	C722.251953,902.962341 720.630371,902.345459 719.103027,901.141052 
	C716.958496,899.449951 714.726746,899.952820 712.497375,900.794617 
	C709.277954,902.010315 707.850037,903.913513 710.217285,907.174072 
	C710.603577,907.706055 710.719421,908.456055 711.153320,908.927734 
	C712.604004,910.505066 712.641785,913.819031 715.787964,913.315430 
	C719.008423,912.799988 719.840271,910.293945 719.870605,907.366272 
	C719.874939,906.942505 720.297180,906.523132 720.945007,905.330017 
	C724.494263,909.388367 726.073486,913.979736 728.357178,918.179993 
	C726.190308,919.605408 724.836731,919.561279 723.482422,917.958679 
	C721.784851,915.949890 720.163940,917.505676 718.639221,918.375427 
	C716.725037,919.467285 717.686401,920.932922 718.321228,922.262024 
	C719.738586,925.229370 721.211243,928.170410 722.783508,931.370850 
	C727.572083,929.060913 732.863770,927.887634 731.875366,921.004639 
	C731.722778,919.941833 732.652466,919.140076 733.739075,919.013977 
	C734.855225,918.884521 735.539734,919.650574 736.064331,920.572510 
	C739.665405,926.900879 738.578735,929.975708 732.016907,933.088928 
	C726.317078,935.793152 720.755432,938.788879 714.760010,941.697998 
z"/>
<path fill="#000000" opacity="1.000000" stroke="none" 
	d="
M262.928589,875.854065 
	C264.950317,874.349304 266.639954,872.992249 268.448822,871.819092 
	C269.539886,871.111511 270.805359,870.375793 272.140961,871.385620 
	C273.474243,872.393677 273.036560,873.642334 272.678223,874.993469 
	C269.829712,885.733276 267.350464,896.584595 264.064484,907.186829 
	C263.022400,910.549072 265.282349,913.713440 263.394928,917.184692 
	C259.096100,915.485107 255.615067,912.708252 252.154755,909.996826 
	C250.353226,908.585449 250.280426,906.526794 252.825317,905.870972 
	C257.012512,904.792114 256.924835,901.087952 257.079071,898.359497 
	C257.247589,895.378357 253.698853,894.525818 251.400803,893.475281 
	C248.636734,892.211792 246.913452,894.778198 244.990250,896.199707 
	C244.188812,896.791931 243.717941,897.658875 243.633148,898.755493 
	C243.217407,904.131653 243.137955,904.217834 238.423508,901.123352 
	C236.321335,899.743530 233.545471,898.843140 232.996246,895.771179 
	C244.838760,891.904175 252.837753,882.633606 262.928589,875.854065 
M260.034088,884.555847 
	C258.999695,886.433167 255.506485,885.899475 255.635330,888.690857 
	C255.713348,890.381287 257.354034,890.913940 258.936066,891.004150 
	C260.935730,887.480469 261.264740,885.890320 260.034088,884.555847 
z"/>
<path fill="#000000" opacity="1.000000" stroke="none" 
	d="
M358.951355,921.417603 
	C355.840820,920.030579 354.072266,921.746948 352.901581,923.755127 
	C351.734436,925.757324 352.171997,927.920593 353.954590,929.658325 
	C355.620972,931.282837 357.320679,932.887451 358.846008,934.639771 
	C365.445343,942.221375 363.174072,954.480164 354.620758,957.699158 
	C348.857086,959.868164 339.193817,956.738098 336.652710,951.418091 
	C334.872437,947.690796 337.118011,943.939575 338.485443,940.608643 
	C339.218842,938.822205 341.545502,940.146851 342.056824,941.978577 
	C342.493042,943.541138 342.226624,945.285767 342.431915,946.929810 
	C342.801727,949.890991 344.644440,951.675842 347.383728,952.569336 
	C349.759491,953.344177 351.568176,952.413086 353.051758,950.538391 
	C354.976105,948.106689 353.897247,945.938721 352.689850,943.642944 
	C351.409546,941.208557 349.199738,939.652588 347.448822,937.672241 
	C341.187073,930.590576 343.977173,922.799438 348.835815,918.118225 
	C353.479340,913.644226 363.136780,915.179749 367.666931,920.676025 
	C371.071991,924.807312 367.673889,928.266296 366.455658,932.840210 
	C362.375854,929.457214 363.865845,923.454773 358.951355,921.417603 
z"/>
<path fill="#000000" opacity="1.000000" stroke="none" 
	d="
M526.391602,976.505432 
	C527.455933,978.028625 528.150635,979.483093 529.294556,980.332336 
	C532.132874,982.439209 534.900085,981.986755 537.303162,979.400574 
	C539.965942,976.535217 538.467468,973.927246 536.246094,972.068970 
	C534.263550,970.410522 531.678894,969.376221 529.229919,968.388916 
	C521.879150,965.425293 518.785522,959.263062 520.902527,951.437927 
	C522.672729,944.894714 528.511108,941.871765 536.271973,943.480164 
	C542.815430,944.836243 544.529358,947.984741 542.393921,954.850769 
	C540.060913,955.123962 539.474060,953.154358 538.417236,951.760376 
	C536.981201,949.866089 535.424011,948.261536 532.695374,948.351257 
	C530.335938,948.428894 528.290527,948.899597 527.564148,951.386719 
	C526.900146,953.660278 527.444763,955.776550 529.624268,957.018921 
	C531.929138,958.332764 534.244751,959.834045 536.756287,960.541382 
	C545.405334,962.977356 548.295227,973.358093 544.183716,981.467285 
	C542.684082,984.425110 539.976501,986.168091 536.529785,986.332092 
	C534.368469,986.435059 532.198120,986.408752 530.033264,986.366150 
	C522.576111,986.219482 519.593933,982.596924 520.737854,975.159790 
	C520.896118,974.130920 521.049744,973.093567 522.295410,972.947815 
	C524.661438,972.670837 525.290649,974.627441 526.391602,976.505432 
z"/>
<path fill="#000000" opacity="1.000000" stroke="none" 
	d="
M896.246216,750.628540 
	C900.398499,752.953491 903.316284,756.165527 906.377136,759.212341 
	C910.137695,762.955688 910.975525,767.595398 910.180908,772.570068 
	C909.532837,776.627930 904.188965,780.008789 899.231262,779.179504 
	C887.853760,777.276428 878.138794,772.379883 871.500305,762.500671 
	C868.224854,757.626221 867.733887,752.241211 870.527283,748.507141 
	C873.946960,743.935974 878.665283,744.167053 883.633301,745.308289 
	C888.048462,746.322510 892.297302,747.608154 896.246216,750.628540 
M893.398621,758.185364 
	C888.797974,754.569702 883.533997,752.120117 878.248535,749.752869 
	C876.581360,749.006165 874.556763,748.869934 873.172424,750.479309 
	C871.612183,752.293396 872.781555,754.080872 873.975830,755.386719 
	C881.686584,763.817688 890.857178,770.107483 901.680908,773.933777 
	C903.529663,774.587402 905.037781,774.229126 906.102600,772.784241 
	C907.334167,771.113281 906.286804,769.743225 905.135986,768.395142 
	C901.883301,764.584961 898.047913,761.446899 893.398621,758.185364 
z"/>
<path fill="#000000" opacity="1.000000" stroke="none" 
	d="
M293.661560,899.676636 
	C291.445679,903.599548 289.363251,907.185242 287.361389,910.815308 
	C284.634125,915.760925 280.218231,920.112793 282.740692,927.869507 
	C276.815521,925.167725 272.274109,923.178528 267.923126,919.153809 
	C277.438568,915.649475 278.399994,906.549866 283.098877,900.269714 
	C284.778320,898.025024 286.132568,895.509155 287.410889,893.002625 
	C288.189697,891.475586 289.618378,889.647766 287.634338,888.062439 
	C286.071350,886.813477 284.219849,885.896301 282.107697,886.960632 
	C281.220123,887.407837 280.346222,887.892517 279.510254,888.429016 
	C278.457367,889.104797 277.334686,889.569885 276.374023,888.514099 
	C275.461365,887.511108 275.903717,886.427490 276.560577,885.339600 
	C280.371002,879.028809 281.951141,878.581726 288.403717,882.239136 
	C293.885193,885.346008 299.172943,888.857178 304.860107,891.519226 
	C309.558380,893.718384 309.896973,896.485168 307.762909,900.535828 
	C306.954529,902.070129 307.129333,904.205872 304.537476,905.023132 
	C300.828949,902.459778 304.641510,894.549866 297.087738,894.363647 
	C296.141510,895.815002 294.986176,897.587097 293.661560,899.676636 
z"/>
<path fill="#000000" opacity="1.000000" stroke="none" 
	d="
M333.153198,905.622070 
	C334.395538,906.208801 335.273895,906.683960 336.174530,907.112305 
	C343.531982,910.612244 343.513916,910.604431 341.356079,918.546509 
	C341.051025,919.669373 341.128326,921.037170 339.524780,921.022339 
	C337.962067,921.007874 337.888397,919.696472 337.665039,918.532471 
	C336.938141,914.745361 335.478790,911.567505 330.829742,910.845154 
	C326.543427,919.981384 322.248901,929.106812 318.003265,938.254944 
	C317.749298,938.802246 317.713074,939.579163 317.875916,940.165894 
	C318.290741,941.660767 320.265137,943.191956 318.563202,944.632935 
	C316.617920,946.279846 314.903748,944.131165 313.143585,943.463440 
	C311.127899,942.698669 309.133087,941.867615 307.176666,940.962769 
	C306.154510,940.490112 304.930023,940.060791 304.920074,938.594849 
	C304.909210,936.992004 306.120605,936.785400 307.305145,936.647217 
	C309.045166,936.444214 309.825043,935.237061 310.476135,933.818542 
	C314.011017,926.117371 317.569153,918.426941 321.102509,910.725098 
	C321.839600,909.118408 323.195953,907.462158 320.863037,905.971802 
	C318.936523,904.741089 317.033844,903.923462 314.950958,905.664490 
	C314.058228,906.410706 313.196045,907.328369 312.151550,907.729553 
	C310.097412,908.518433 308.789307,907.566040 309.038788,905.387329 
	C309.648499,900.062866 314.915894,897.177734 319.679718,899.403015 
	C324.047577,901.443237 328.425873,903.461121 333.153198,905.622070 
z"/>
<path fill="#000000" opacity="1.000000" stroke="none" 
	d="
M573.404419,974.367981 
	C573.436707,977.930664 577.083008,978.358704 578.294617,981.271912 
	C573.809509,983.314697 569.043701,983.566223 564.461182,983.957092 
	C562.193726,984.150574 562.239563,981.302185 563.435120,980.248840 
	C565.801941,978.163635 565.172791,976.057678 564.819641,973.510681 
	C563.890381,966.807617 563.430664,960.040649 562.591248,953.323242 
	C562.279846,950.831360 562.580750,947.292053 559.379456,946.817200 
	C556.470886,946.385864 554.072693,948.333191 553.352295,951.589905 
	C552.988708,953.233459 552.060486,954.484619 550.238892,953.972900 
	C548.138916,953.382996 548.980347,951.722290 549.218018,950.265686 
	C550.580444,941.915588 550.575378,942.107605 559.436096,941.587585 
	C565.029419,941.259338 570.709595,940.733276 576.110718,939.354980 
	C580.195984,938.312500 581.523071,939.733398 582.357178,943.151794 
	C582.860657,945.214844 583.588623,947.223145 584.195801,949.191650 
	C581.728638,951.043640 580.160889,950.223572 579.124817,948.126465 
	C577.490906,944.819519 574.536804,944.655090 571.894714,945.729187 
	C569.054016,946.883972 570.598328,949.628174 570.858459,951.818787 
	C571.734558,959.194519 572.542908,966.578308 573.404419,974.367981 
z"/>
<path fill="#000000" opacity="1.000000" stroke="none" 
	d="
M487.093750,949.785522 
	C482.732239,947.382629 480.377411,947.828369 480.102173,953.203735 
	C479.662567,961.787781 478.820160,970.352539 478.059296,978.917542 
	C477.932190,980.347961 478.612488,981.050720 479.599243,981.757446 
	C480.941498,982.718628 481.682648,983.887085 480.485504,985.894958 
	C476.473877,984.958923 472.162384,985.927917 468.013275,984.433105 
	C466.282776,983.809631 464.856750,982.267334 466.385529,981.396973 
	C472.018616,978.189636 469.509308,972.585876 470.272522,968.310242 
	C471.212677,963.043030 471.425537,957.464172 471.609680,952.001404 
	C471.662598,950.432068 472.222076,948.343628 470.151337,947.666321 
	C468.055298,946.980835 466.037842,947.322876 464.109283,948.877686 
	C462.466156,950.202454 462.022980,954.295776 459.178162,952.593201 
	C456.494659,950.987183 459.549469,948.203247 459.529663,945.913147 
	C459.493958,941.784668 462.179779,941.437317 465.257538,941.683594 
	C473.335480,942.330200 481.408325,943.039978 489.484619,943.707275 
	C490.930389,943.826721 492.295135,944.203064 492.186707,945.924988 
	C492.002594,948.849304 494.915009,952.063416 492.459106,954.484070 
	C490.423676,956.490112 489.652405,953.479309 488.686676,952.147644 
	C488.200226,951.476929 487.809601,950.736694 487.093750,949.785522 
z"/>
<path fill="#000000" opacity="1.000000" stroke="none" 
	d="
M773.667480,856.240540 
	C774.965210,848.715576 779.673950,845.912537 787.310486,847.902588 
	C800.355957,851.302124 814.202026,875.250305 803.342102,888.417358 
	C801.931824,890.127197 800.888062,892.110413 797.903442,890.383057 
	C798.888916,886.836365 802.256042,884.236389 801.861877,880.045471 
	C801.514343,876.350037 801.210266,872.834351 798.301819,869.681946 
	C794.227173,874.992676 788.662781,875.961731 783.264648,873.273010 
	C776.778870,870.042664 773.145935,864.360718 773.667480,856.240540 
M778.868958,856.673645 
	C781.070129,860.945618 783.483215,865.067261 787.278625,868.167114 
	C788.924255,869.511230 790.548584,871.252625 792.901611,869.520752 
	C795.189392,867.837036 795.141174,865.461853 794.041199,863.292480 
	C791.859009,858.988831 788.987122,855.209229 784.705505,852.676392 
	C780.579407,850.235535 779.045471,851.032959 778.868958,856.673645 
z"/>
<path fill="#000000" opacity="1.000000" stroke="none" 
	d="
M818.989624,846.637817 
	C818.103088,844.272583 817.056702,842.295898 816.777161,840.216064 
	C815.412781,830.066589 823.382324,823.374329 833.271423,826.215820 
	C840.310608,828.238464 846.542725,835.571899 847.291504,842.713562 
	C848.287476,852.212463 838.830322,859.182678 829.664551,855.630737 
	C825.247314,853.919128 821.476929,851.315674 818.989624,846.637817 
M839.547974,839.941223 
	C836.561401,836.049011 832.917786,833.055664 828.135193,831.635498 
	C825.756775,830.929199 823.999084,831.878845 822.448792,833.655701 
	C820.948730,835.375000 821.578308,836.920837 822.387512,838.674316 
	C824.345337,842.916138 827.758545,845.705322 831.437134,848.315857 
	C834.272766,850.328064 837.250305,852.135742 840.370422,849.367310 
	C843.644958,846.462036 841.863403,843.415405 839.547974,839.941223 
z"/>
<path fill="#000000" opacity="1.000000" stroke="none" 
	d="
M512.568359,983.764709 
	C513.568115,986.251343 512.683472,987.642273 510.533661,987.059753 
	C507.391846,986.208374 504.262054,986.585754 501.133759,986.353577 
	C500.027496,986.271423 498.686157,986.531555 498.120850,985.155396 
	C497.559509,983.788879 498.413239,983.087219 499.455444,982.357666 
	C501.448700,980.962463 501.677826,978.824097 501.657623,976.582825 
	C501.615631,971.930908 501.741455,967.276001 501.627258,962.626465 
	C501.476318,956.480957 503.470581,949.883301 496.947449,944.871765 
	C502.432343,942.437195 507.026672,945.050293 511.506989,944.001892 
	C513.294067,943.583740 513.864624,946.414673 512.789368,947.261658 
	C508.831970,950.378784 510.063873,954.953125 509.603088,958.713257 
	C508.800629,965.261108 509.429840,971.978638 509.347504,978.623657 
	C509.318604,980.957581 510.636322,982.265564 512.568359,983.764709 
z"/>
<path fill="#000000" opacity="1.000000" stroke="none" 
	d="
M859.041199,837.039795 
	C856.029053,840.586975 855.305359,840.910522 852.266418,836.374329 
	C847.435059,829.162659 841.216980,822.254761 831.268494,819.200867 
	C835.146790,814.805176 838.346252,810.116638 842.578491,806.711853 
	C846.084839,803.890869 848.664368,807.717773 851.506165,810.119629 
	C848.579407,812.796997 842.907471,809.204834 842.054443,815.288452 
	C843.438660,817.400879 845.189331,819.685181 848.021912,820.573242 
	C850.946289,818.850464 848.657837,815.846924 850.605286,813.734497 
	C854.448486,814.735840 856.166870,817.989807 858.305176,820.759644 
	C857.716919,821.469177 857.562378,821.813843 857.300720,821.945251 
	C855.693298,822.752991 852.345825,821.736023 852.795715,824.555054 
	C853.225830,827.250732 855.667053,829.372314 858.468201,830.256592 
	C859.943420,830.722351 862.296082,828.403748 863.025330,831.251160 
	C863.610291,833.535278 861.174744,834.542236 859.991028,836.057312 
	C859.787598,836.317688 859.526978,836.533447 859.041199,837.039795 
z"/>
<path fill="#000000" opacity="1.000000" stroke="none" 
	d="
M883.278931,802.359253 
	C875.878174,794.598450 867.047485,788.982849 858.913635,782.496094 
	C856.520630,780.587708 855.738159,784.517029 853.039368,783.579407 
	C853.349182,779.623718 853.671448,775.508850 854.049377,770.682861 
	C860.122131,772.767151 863.940918,777.320984 868.551514,780.558105 
	C873.833069,784.266357 878.612183,788.682678 883.795776,792.541321 
	C886.200195,794.331177 888.737427,797.264099 892.006653,793.405273 
	C893.158325,797.414917 888.046326,804.997192 883.584961,806.865295 
	C882.158264,805.576843 882.987122,804.122742 883.278931,802.359253 
z"/>
<path fill="#000000" opacity="1.000000" stroke="none" 
	d="
M748.401367,898.423706 
	C745.667908,894.698669 746.239380,891.194458 748.164734,887.882202 
	C749.666321,885.298889 752.554504,884.867920 755.116638,885.150879 
	C758.225708,885.494202 761.693420,886.436707 762.144653,890.247375 
	C762.579468,893.919922 763.411072,898.275513 759.038025,900.371216 
	C755.441101,902.094910 751.646729,902.331909 748.401367,898.423706 
z"/>
<path fill="#000000" opacity="1.000000" stroke="none" 
	d="
M692.301636,857.413208 
	C665.002258,871.954651 636.485107,882.408875 607.009644,890.092712 
	C591.649963,894.096741 575.914001,896.588440 560.101562,898.554993 
	C539.594299,901.105286 519.030090,901.984680 498.437592,901.284668 
	C464.509125,900.131165 431.227814,894.794250 398.663818,884.925659 
	C376.684448,878.264648 355.440186,869.840393 335.039886,859.400024 
	C310.750244,846.969177 287.982513,832.172485 266.701447,814.976990 
	C251.910614,803.025818 238.047333,790.125122 225.193909,776.236206 
	C209.755630,759.554260 195.880371,741.569336 183.621979,722.330688 
	C173.870392,707.026367 165.115616,691.214355 157.466599,674.800781 
	C144.821442,647.666382 135.565735,619.371887 129.707611,590.010742 
	C125.881454,570.833862 123.600754,551.498291 122.411232,531.920471 
	C120.912460,507.252686 122.420311,482.889435 125.437599,458.463196 
	C128.789810,431.325500 135.477203,405.049164 144.665161,379.373077 
	C152.117523,358.547272 161.364258,338.564392 172.248138,319.256744 
	C183.289032,299.670502 195.897507,281.214417 210.190323,263.955811 
	C225.569077,245.385941 242.609909,228.407654 261.028473,212.767303 
	C285.242096,192.206009 311.598083,174.996994 340.042664,160.987030 
	C366.347992,148.030716 393.817963,138.237885 422.416962,131.652969 
	C442.952972,126.924553 463.701111,123.980614 484.747467,122.435936 
	C500.405396,121.286743 516.064331,121.132751 531.629150,121.870621 
	C563.475830,123.380356 594.754028,128.836487 625.354797,138.124863 
	C650.255066,145.682968 674.075256,155.760193 696.972412,167.971481 
	C721.513855,181.059631 744.354431,196.727463 765.348633,215.034851 
	C774.492432,223.008423 783.646423,230.967773 791.997253,239.787003 
	C812.935181,261.899536 831.441040,285.829132 847.114990,312.007141 
	C862.638489,337.933777 874.797913,365.306396 883.913208,394.046356 
	C890.783875,415.709473 895.291443,437.893280 898.495239,460.415833 
	C902.003052,485.075836 902.205994,509.861267 901.079651,534.546143 
	C899.704163,564.691223 894.233704,594.310974 885.549377,623.350342 
	C877.896851,648.939941 867.619507,673.377075 855.058899,696.834412 
	C843.123230,719.124878 828.997925,740.020020 812.707336,759.433289 
	C803.408264,770.514832 793.991577,781.495178 783.493469,791.435486 
	C758.810303,814.807129 732.090149,835.499512 702.187012,851.881104 
	C698.984436,853.635559 695.822083,855.463379 692.301636,857.413208 
M677.816589,167.865753 
	C656.378601,157.140335 634.008728,148.885651 610.884155,142.636002 
	C581.163452,134.603653 550.889648,130.275314 520.136108,129.402054 
	C502.350708,128.897034 484.656067,130.236847 466.973358,132.245544 
	C443.522278,134.909470 420.592621,139.835907 398.123779,146.943939 
	C373.681824,154.676132 350.209747,164.599609 327.737183,177.074860 
	C302.215363,191.242828 278.441803,207.836273 256.901093,227.406082 
	C243.044678,239.994690 229.965134,253.466202 217.967392,267.966614 
	C199.029099,290.855316 182.812790,315.510803 169.567139,342.023651 
	C160.229416,360.714264 152.643906,380.181000 146.393372,400.189392 
	C135.281509,435.759308 130.476257,472.285583 129.548309,509.340302 
	C129.271988,520.374268 130.311798,531.519104 131.193512,542.607361 
	C132.720215,561.806519 135.642441,580.745117 140.139496,599.433411 
	C149.172913,636.973083 163.593491,672.315369 183.277161,705.582642 
	C196.514587,727.955261 211.828842,748.788940 229.350937,767.859253 
	C243.171509,782.900940 257.873016,797.146484 274.032227,809.831482 
	C294.357147,825.786499 315.875916,839.862610 338.804779,851.678162 
	C359.659332,862.424683 381.426361,871.032837 403.958862,877.730286 
	C436.718048,887.467285 470.224854,892.318054 504.288696,893.603271 
	C517.912964,894.117310 531.481384,892.804810 545.069153,891.783447 
	C563.310486,890.412292 581.284546,887.485962 599.006531,883.228455 
	C636.740540,874.163391 672.373413,859.798157 705.826172,840.010803 
	C730.387573,825.482544 752.844971,808.188538 773.740723,788.868896 
	C783.737915,779.625671 792.806030,769.447815 801.763367,759.143738 
	C822.483582,735.308594 839.656067,709.135010 853.794006,681.033936 
	C864.169922,660.410522 872.366394,638.845154 878.845093,616.602539 
	C887.190430,587.951660 891.937012,558.703979 893.452393,529.024597 
	C894.544128,507.643127 893.593445,486.225922 890.825439,464.883606 
	C888.069702,443.635590 883.924988,422.726379 877.736084,402.255188 
	C867.985291,370.002350 854.254150,339.519714 836.449890,310.858704 
	C814.345581,275.275696 787.252075,244.030746 755.022461,217.349884 
	C731.530334,197.902298 706.168823,181.202896 677.816589,167.865753 
z"/>
<path fill="#000000" opacity="1.000000" stroke="none" 
	d="
M474.073151,348.926483 
	C487.241730,359.643951 497.061157,372.770203 506.261597,386.428680 
	C507.556854,388.351562 508.876862,390.259796 510.253510,392.124481 
	C510.612946,392.611298 511.228729,392.908844 512.060120,393.550629 
	C517.357361,386.121429 522.137756,378.571777 527.747986,371.699493 
	C548.775146,345.941650 573.440979,325.179016 606.986389,318.068634 
	C631.214111,312.933228 654.790466,316.244293 677.358276,326.253998 
	C681.041077,327.887482 683.489563,327.684937 686.109375,324.720886 
	C688.642151,321.855408 691.361511,319.118652 694.246643,316.610229 
	C697.584961,313.707794 697.951294,311.440399 694.318298,308.262543 
	C688.836426,303.467438 683.815063,298.145844 677.590271,292.063263 
	C707.030396,279.962616 735.264587,268.357605 763.498840,256.752594 
	C763.903748,257.063873 764.308655,257.375153 764.713562,257.686432 
	C753.115356,286.039551 741.517151,314.392670 729.338379,344.165009 
	C721.774597,335.985321 714.918823,328.571259 708.091614,321.188110 
	C702.593018,324.664612 699.546021,328.909393 695.819702,332.397705 
	C693.540405,334.531311 695.320679,335.741394 697.087402,337.029449 
	C709.579163,346.136902 719.916321,357.243713 727.871460,370.525879 
	C738.086243,387.580811 744.114380,406.008789 746.393005,425.760925 
	C750.118164,458.051788 744.863892,488.956665 732.013550,518.595581 
	C723.981384,537.121399 712.822083,553.817871 700.394470,569.695312 
	C688.816101,584.487732 676.304749,598.409546 663.258240,611.936646 
	C647.573547,628.199097 630.906067,643.332336 613.997864,658.274170 
	C596.348999,673.870422 578.074219,688.711060 560.027954,703.822632 
	C545.983032,715.583557 532.607422,728.002014 519.911316,741.173889 
	C517.185852,744.001465 514.799927,747.156189 512.150024,750.287354 
	C508.385925,748.318787 506.528412,744.781799 504.154297,741.972351 
	C493.691101,729.590698 481.304871,719.317200 469.019257,708.911682 
	C455.742706,697.666870 442.485107,686.399292 429.154144,675.219238 
	C416.192200,664.348633 403.289917,653.410767 390.878815,641.911621 
	C388.910431,640.087891 387.540344,640.456116 385.841248,642.168457 
	C374.809082,653.286865 363.747803,664.376648 352.645203,675.424744 
	C350.681244,677.379089 350.314514,679.669739 350.325714,682.263794 
	C350.377563,694.261292 350.314880,706.259338 350.371613,718.256836 
	C350.383850,720.839905 350.052917,723.054565 348.051575,725.040588 
	C331.965820,741.002991 315.966125,757.052124 299.930145,773.064819 
	C299.117004,773.876648 298.334045,774.797302 296.223053,774.864807 
	C294.594818,761.757141 296.666290,748.392944 295.069366,734.887329 
	C290.417725,736.439819 288.218628,739.966125 285.504700,742.750916 
	C283.224152,745.091003 281.717834,745.091309 279.413544,742.736267 
	C273.789825,736.988892 273.652252,737.063660 279.237000,731.575867 
	C281.237122,729.610596 283.420898,727.832153 285.520905,725.968445 
	C285.309204,725.510925 285.097504,725.053345 284.885773,724.595825 
	C271.888855,724.595825 258.891937,724.595825 246.047958,724.595825 
	C245.257446,721.759460 247.106339,720.959656 248.164444,719.896057 
	C263.442047,704.539734 278.819672,689.282593 294.045441,673.875366 
	C296.489685,671.401978 299.041351,670.530701 302.439697,670.583374 
	C313.434998,670.753723 324.435608,670.563782 335.431915,670.696777 
	C338.652069,670.735657 341.113708,669.865417 343.416656,667.520386 
	C354.273041,656.465576 365.186554,645.463196 376.279694,634.647278 
	C378.900146,632.092346 378.632050,630.559082 376.234009,628.196655 
	C365.445251,617.567932 354.564667,607.016052 344.582123,595.609375 
	C332.026154,581.262207 319.745728,566.695984 309.315826,550.664124 
	C307.585114,548.003784 307.404510,545.487976 308.101257,542.635010 
	C312.035858,526.524597 315.925842,510.403137 319.899475,494.302338 
	C321.415497,488.159576 321.824615,488.161072 327.569519,490.747711 
	C334.960022,494.075317 341.575653,498.990173 350.554626,502.071930 
	C350.522217,478.085266 348.108276,454.902008 347.602081,430.859131 
	C358.568207,433.056824 369.007324,435.143188 379.442810,437.247437 
	C380.742035,437.509460 382.021667,437.868103 383.311127,438.178925 
	C392.404541,440.370667 392.888123,439.648224 393.733429,430.058105 
	C395.052490,415.093323 396.962524,400.180603 398.674194,384.777222 
	C414.708099,388.472107 430.095093,392.017914 446.140930,395.715546 
	C450.405792,376.201660 454.587097,357.070038 458.912598,337.278625 
	C464.962860,340.848358 469.671692,344.387146 474.073151,348.926483 
M555.262451,545.468872 
	C562.626160,546.713318 568.489868,544.366272 573.458740,538.716309 
	C577.850708,533.722351 582.912048,529.323425 587.494629,524.488037 
	C589.895630,521.954529 594.290039,520.017822 591.024048,515.108093 
	C590.380554,514.140808 591.897156,513.099426 592.702087,512.293091 
	C600.234802,504.747284 607.779785,497.213593 615.329712,489.684967 
	C616.510376,488.507568 617.714050,487.033997 619.547058,488.567230 
	C621.817627,490.466461 623.148499,488.826202 624.576843,487.395325 
	C631.050598,480.910370 637.468262,474.368225 644.017578,467.960602 
	C647.212219,464.835114 648.598633,461.014679 648.592224,456.752655 
	C648.580566,449.067169 644.951721,443.432953 638.044617,440.086029 
	C631.296875,436.816345 624.239624,438.193390 617.961426,444.170715 
	C612.050964,449.797882 606.396423,455.693542 600.613770,461.455505 
	C598.605652,463.456390 596.071594,465.206726 598.931396,468.479126 
	C599.722656,469.384552 599.211914,470.740448 598.302124,471.648102 
	C589.832153,480.098236 581.353455,488.539673 572.893005,496.967957 
	C570.424622,495.911285 568.723694,492.982605 565.800293,496.108826 
	C559.658752,502.676361 552.939087,508.707520 546.866577,515.334412 
	C536.969482,526.135071 540.756653,540.490295 555.262451,545.468872 
M587.760864,459.743469 
	C582.578735,454.570007 577.528931,449.255066 572.183472,444.256195 
	C564.166809,436.759308 553.805115,436.546295 546.665344,443.458679 
	C539.885864,450.022278 539.351807,460.630402 545.934937,467.742889 
	C552.147278,474.454865 558.886047,480.676849 565.285828,487.219421 
	C567.909729,489.901917 569.822388,489.425110 572.257141,486.842529 
	C577.506226,481.274536 583.031006,475.966370 588.444641,470.553528 
	C593.495361,465.503479 593.496277,465.504395 587.760864,459.743469 
M618.876709,540.632751 
	C626.555786,547.697632 636.460754,547.547913 643.688171,540.257751 
	C650.430908,533.456299 650.495911,522.745850 643.628845,515.700867 
	C637.250183,509.156952 630.622925,502.855804 624.218445,496.336395 
	C622.346802,494.431152 620.919800,493.979492 618.874634,496.080963 
	C612.616333,502.511353 606.297424,508.885559 599.880310,515.157043 
	C597.376099,517.604431 597.702087,519.527344 600.041077,521.817993 
	C606.213928,527.863159 612.273438,534.023987 618.876709,540.632751 
z"/>
<path fill="#000000" opacity="1.000000" stroke="none" 
	d="
M278.631287,414.889435 
	C287.410248,373.860504 308.708282,342.842896 347.396027,325.496277 
	C359.067413,320.263062 371.509491,317.687378 384.365112,316.453003 
	C406.599182,314.318085 427.139465,319.108612 446.634399,329.471924 
	C447.061584,329.699005 447.426636,330.042969 448.243561,330.643005 
	C443.829193,348.280334 439.381348,366.051422 434.811646,384.309296 
	C426.543976,382.895813 418.601746,381.576111 410.674774,380.170532 
	C404.488922,379.073669 398.312836,377.916168 392.150909,376.692535 
	C389.500061,376.166138 388.598206,377.262939 388.311005,379.783936 
	C386.719208,393.757507 384.907898,407.706848 383.410614,421.690033 
	C382.982544,425.687836 382.342957,427.746399 377.374298,426.681000 
	C366.545288,424.358917 355.532227,422.908020 344.661957,420.759308 
	C340.416473,419.920105 339.414215,421.403107 339.297058,425.300323 
	C338.736481,443.949127 340.948303,462.540466 340.319305,481.183411 
	C340.247192,483.320374 340.689148,485.519470 339.431946,488.189758 
	C329.997284,486.127136 321.705200,480.690857 311.867676,477.883118 
	C306.461426,494.617035 303.108124,511.935211 298.043488,529.443481 
	C294.256104,526.201843 293.109985,522.291382 291.585785,518.769287 
	C283.440643,499.947662 278.367523,480.402679 276.457031,459.865509 
	C275.055908,444.803802 276.021027,430.079529 278.631287,414.889435 
z"/>
<path fill="#000000" opacity="1.000000" stroke="none" 
	d="
M409.323242,679.966064 
	C410.639709,688.516174 415.429779,695.380859 417.666565,703.197937 
	C419.070496,708.104492 418.005615,712.072571 414.202026,715.212585 
	C410.975067,717.876648 402.988037,718.262512 399.527222,716.123718 
	C395.110565,713.394287 393.495758,708.779724 394.930481,704.442139 
	C398.544525,693.515747 403.736176,683.125061 405.610504,670.605652 
	C408.528992,673.861633 408.430664,676.901367 409.323242,679.966064 
z"/>
<path fill="#000000" opacity="1.000000" stroke="none" 
	d="
M413.525452,775.548218 
	C409.139618,779.348877 404.764435,779.221436 400.380157,776.551208 
	C396.095642,773.941650 395.508911,769.274597 396.956055,765.543274 
	C400.411591,756.633484 403.443237,747.594116 406.101166,738.052063 
	C407.631561,739.672485 408.099243,741.037598 408.323944,742.549133 
	C409.230682,748.649109 411.175171,754.387024 413.926666,759.928284 
	C416.418945,764.947510 418.159332,770.184570 413.525452,775.548218 
z"/>
<path fill="#000000" opacity="1.000000" stroke="none" 
	d="
M402.064484,829.412537 
	C397.840698,826.380371 396.822327,822.687256 398.399994,818.216858 
	C400.976837,810.915283 404.612244,803.989807 405.562073,795.280457 
	C407.691345,797.189270 407.997009,798.739685 408.332062,800.233032 
	C409.606537,805.913635 411.177734,811.481995 413.680115,816.777710 
	C415.461395,820.547363 416.356659,824.566895 413.112244,827.960876 
	C410.128723,831.081970 406.284485,830.906189 402.064484,829.412537 
z"/>
</svg>