<?xml version="1.0" standalone="no"?>
<!DOCTYPE svg PUBLIC "-//W3C//DTD SVG 20010904//EN"
 "http://www.w3.org/TR/2001/REC-SVG-20010904/DTD/svg10.dtd">
<svg version="1.0" xmlns="http://www.w3.org/2000/svg"
 width="1021.000000pt" height="1021.000000pt" viewBox="0 0 1021.000000 1021.000000"
 preserveAspectRatio="xMidYMid meet">

<g transform="translate(0.000000,1021.000000) scale(0.100000,-0.100000)"
fill="#000000" stroke="none">
<path d="M4795 10203 c-403 -32 -652 -71 -974 -154 -1325 -341 -2468 -1216
-3155 -2417 -851 -1486 -887 -3348 -97 -4867 506 -972 1308 -1756 2286 -2235
547 -268 1091 -425 1720 -497 200 -22 808 -26 1005 -5 1260 132 2327 648 3200
1548 683 704 1146 1598 1334 2569 100 520 116 1166 41 1683 -123 847 -448
1640 -945 2307 -289 389 -663 767 -1045 1056 -776 588 -1712 936 -2710 1009
-126 9 -560 11 -660 3z m855 -87 c615 -73 1125 -222 1655 -481 228 -112 368
-192 575 -329 941 -625 1643 -1540 2000 -2606 352 -1052 341 -2236 -30 -3268
-567 -1580 -1867 -2774 -3480 -3196 -600 -157 -1270 -200 -1905 -121 -843 105
-1675 441 -2363 954 -289 216 -636 542 -851 801 -659 790 -1045 1698 -1158
2721 -22 204 -25 793 -5 989 88 843 352 1597 798 2278 561 856 1353 1513 2298
1906 466 194 966 316 1501 365 160 15 806 6 965 -13z"/>
<path d="M5143 9903 c-59 -20 -141 -97 -169 -158 -53 -113 -15 -269 83 -339
213 -151 513 -22 513 220 0 175 -128 295 -313 293 -40 0 -91 -7 -114 -16z
m204 -62 c54 -39 84 -105 90 -201 3 -43 0 -93 -6 -118 -14 -50 -59 -105 -101
-122 -42 -17 -121 -8 -158 19 -79 56 -118 243 -72 349 31 72 75 102 151 102
46 0 63 -5 96 -29z"/>
<path d="M4580 9889 c-25 -4 -72 -8 -106 -8 -33 -1 -63 -4 -67 -7 -12 -12 6
-34 29 -34 35 0 40 -21 59 -220 8 -96 18 -193 21 -215 5 -39 4 -41 -31 -58
-20 -10 -35 -23 -32 -30 2 -6 8 -11 13 -10 5 0 83 9 174 17 91 9 188 19 216
22 l51 5 7 65 c10 95 -9 113 -44 44 -11 -22 -31 -47 -43 -55 -32 -21 -171 -32
-182 -15 -9 15 -44 340 -45 412 0 42 2 47 30 57 17 5 30 17 30 25 0 17 -10 18
-80 5z"/>
<path d="M3946 9783 c-129 -39 -226 -163 -226 -288 0 -114 94 -238 205 -271
115 -33 234 -4 324 81 232 217 7 574 -303 478z m133 -58 c78 -40 143 -164 145
-275 1 -76 -20 -122 -74 -157 -39 -27 -116 -31 -159 -9 -74 39 -141 158 -149
266 -4 57 -1 74 18 108 12 21 39 49 59 60 43 26 119 29 160 7z"/>
<path d="M6178 9788 c-8 -7 -87 -107 -173 -223 -87 -115 -160 -212 -162 -214
-1 -2 -19 -7 -40 -10 -42 -7 -55 -28 -21 -35 13 -3 54 -13 91 -22 77 -18 106
-9 63 20 -15 9 -26 21 -26 26 0 21 74 120 89 120 33 -1 164 -39 171 -51 4 -6
11 -39 15 -72 7 -63 0 -77 -37 -77 -10 0 -18 -6 -18 -14 0 -10 20 -19 58 -26
31 -6 83 -18 116 -26 45 -12 61 -13 70 -3 8 8 8 13 -1 16 -46 17 -51 34 -98
298 -55 313 -58 323 -97 293z m-30 -220 c7 -46 12 -88 12 -95 0 -8 -19 -7 -67
4 -38 9 -70 17 -72 19 -4 4 102 153 110 154 3 0 11 -37 17 -82z"/>
<path d="M6595 9682 c-12 -12 -3 -30 20 -40 14 -6 25 -19 25 -28 0 -10 -37
-111 -82 -225 l-81 -208 -39 -3 c-21 -2 -37 -7 -36 -13 2 -9 230 -105 249
-105 21 0 7 31 -20 44 -16 9 -31 22 -34 30 -6 16 55 179 69 183 21 7 33 -20
64 -146 22 -87 40 -141 54 -156 17 -18 132 -75 152 -75 11 0 2 39 -10 43 -24
9 -43 56 -74 180 l-30 117 23 0 c87 0 156 82 140 166 -7 40 -55 98 -99 121
-60 31 -286 120 -291 115z m216 -135 c43 -29 61 -63 53 -102 -18 -85 -64 -116
-139 -95 -25 7 -45 16 -45 20 0 3 12 35 26 71 61 150 52 142 105 106z"/>
<path d="M3445 9620 c-184 -27 -280 -164 -201 -285 33 -50 60 -59 197 -65 142
-6 162 -14 175 -75 11 -56 -60 -115 -139 -115 -34 0 -127 51 -127 70 0 12 -37
13 -44 1 -3 -5 11 -37 31 -71 l38 -63 65 6 c93 8 157 35 211 87 53 52 66 95
49 161 -14 53 -55 94 -106 108 -21 6 -88 11 -147 11 -101 0 -109 2 -132 25
-43 42 -29 92 35 125 54 28 109 26 154 -5 36 -24 57 -31 68 -20 9 9 -52 115
-65 114 -7 -1 -34 -5 -62 -9z"/>
<path d="M7141 9399 c-33 -38 -41 -53 -32 -62 9 -9 19 -8 42 6 17 9 44 17 60
17 28 0 129 -44 129 -56 0 -3 -50 -95 -111 -205 l-111 -200 -36 3 c-60 5 -47
-17 35 -62 43 -24 90 -51 106 -62 24 -17 28 -18 33 -3 4 9 -2 25 -14 38 l-21
23 110 199 c61 110 113 202 115 204 7 8 83 -32 106 -56 14 -15 24 -41 28 -71
8 -72 31 -67 54 13 10 36 17 67 15 69 -2 1 -49 27 -104 56 -55 29 -157 86
-228 127 -70 40 -129 73 -130 73 -1 0 -22 -23 -46 -51z"/>
<path d="M2765 9313 c-22 -15 -103 -65 -179 -110 -77 -46 -142 -86 -145 -89
-12 -11 24 -22 46 -13 14 5 28 9 32 9 10 0 241 -384 241 -401 0 -7 -10 -23
-22 -36 -15 -16 -18 -27 -11 -34 6 -6 40 9 104 49 52 33 136 84 188 113 51 29
95 58 97 64 5 11 -22 124 -30 133 -3 2 -12 2 -21 -1 -10 -5 -15 -20 -15 -52 0
-35 -6 -51 -27 -75 -32 -33 -140 -93 -154 -84 -10 6 -37 46 -83 126 l-27 46
61 37 61 37 24 -22 c15 -14 30 -20 40 -16 15 5 15 9 -5 39 -11 17 -31 51 -43
75 -21 42 -41 54 -50 30 -2 -7 -1 -22 4 -34 4 -11 4 -25 1 -30 -13 -19 -115
-75 -122 -67 -13 15 -101 165 -98 168 24 17 129 74 145 79 14 5 40 0 67 -12
68 -31 76 -10 18 50 -25 26 -49 48 -52 48 -3 0 -23 -12 -45 -27z"/>
<path d="M4765 9149 c-1177 -109 -2209 -683 -2911 -1621 -704 -941 -962 -2144
-708 -3293 142 -640 432 -1224 863 -1740 103 -124 374 -393 504 -500 601 -498
1296 -800 2087 -907 224 -30 757 -33 975 -5 651 85 1245 303 1765 650 902 602
1526 1530 1735 2582 168 843 67 1704 -291 2487 -379 828 -1053 1522 -1880
1936 -402 201 -822 328 -1299 393 -172 24 -668 34 -840 18z m595 -64 c323 -15
699 -90 1039 -207 429 -148 839 -375 1201 -664 173 -138 465 -431 604 -604
669 -837 972 -1866 860 -2928 -96 -919 -515 -1776 -1190 -2432 -939 -912
-2264 -1304 -3549 -1049 -1503 298 -2717 1454 -3089 2939 -88 355 -121 656
-113 1050 6 290 12 354 52 596 158 947 680 1828 1447 2440 654 524 1460 827
2293 864 157 6 191 6 445 -5z"/>
<path d="M4810 8994 c-1223 -106 -2280 -729 -2957 -1744 -341 -511 -550 -1095
-625 -1745 -17 -144 -17 -646 0 -790 106 -919 488 -1720 1123 -2354 630 -631
1416 -1010 2329 -1123 167 -21 721 -18 890 5 803 107 1506 423 2100 944 368
322 697 748 912 1178 421 840 524 1800 291 2710 -325 1272 -1284 2305 -2530
2724 -245 82 -492 139 -775 177 -108 15 -648 27 -758 18z m489 -64 c368 -20
678 -79 1012 -190 1316 -439 2305 -1574 2553 -2930 47 -259 60 -405 60 -700 0
-295 -13 -441 -60 -700 -162 -888 -652 -1707 -1363 -2279 -430 -346 -931 -597
-1457 -730 -572 -144 -1184 -155 -1757 -30 -1103 241 -2052 967 -2577 1973
-220 421 -350 845 -412 1346 -8 66 -13 222 -13 420 0 198 5 354 13 420 94 757
363 1400 830 1984 121 152 401 434 550 554 608 492 1337 791 2082 852 253 20
327 22 539 10z"/>
<path d="M3911 7734 c-58 -29 -93 -74 -111 -141 -19 -73 19 -172 81 -211 l30
-19 -47 -18 c-79 -30 -182 -142 -244 -264 -62 -123 -140 -393 -140 -485 0 -88
50 -147 146 -173 l31 -8 -850 -1635 c-820 -1579 -849 -1635 -834 -1659 23 -38
174 -252 200 -285 l24 -30 195 385 c108 211 440 868 738 1459 298 591 539
1068 537 1060 -3 -8 -309 -691 -681 -1518 -372 -826 -676 -1507 -676 -1512 0
-15 157 -181 272 -288 894 -829 2129 -1165 3323 -903 524 115 1019 345 1445
672 63 48 134 105 157 126 l43 38 -405 909 c-222 501 -403 911 -401 913 1 2
114 -219 251 -490 136 -270 336 -665 443 -876 l195 -384 124 126 125 125 -17
34 c-138 271 -1125 2142 -1143 2167 -29 40 -84 65 -121 56 -68 -17 -94 -63
-490 -852 -209 -417 -386 -766 -394 -777 -12 -16 -83 115 -697 1285 -376 717
-706 1346 -733 1398 l-50 93 30 -6 c36 -8 89 11 116 42 31 35 30 87 -12 376
-23 153 -41 283 -41 288 0 5 9 4 19 -2 57 -30 131 17 131 84 0 45 -12 57 -196
204 -141 113 -152 123 -164 168 -9 30 -29 63 -55 91 l-42 43 39 10 c49 14 106
64 129 115 63 137 -42 295 -197 295 -16 0 -54 -12 -83 -26z m210 -816 c43 -34
78 -63 76 -64 -8 -8 -203 -44 -214 -40 -7 3 -13 12 -13 19 0 17 58 147 66 147
3 0 41 -28 85 -62z m-16 -378 c8 -13 57 -310 53 -322 -3 -8 -158 283 -158 296
0 9 60 35 82 36 9 0 20 -5 23 -10z m627 -2185 c385 -731 717 -1362 738 -1401
l38 -72 -57 -96 c-31 -52 -58 -96 -61 -96 -5 0 -1381 3017 -1388 3044 -5 19
15 -19 730 -1379z m1789 -237 c-43 -99 -573 -1273 -581 -1287 -6 -12 -15 -2
-36 41 l-27 56 328 616 c180 339 329 616 331 616 2 0 -5 -19 -15 -42z"/>
<path d="M7744 9106 c-4 -10 1 -25 11 -36 10 -11 15 -26 12 -35 -4 -8 -63 -96
-133 -195 l-127 -180 -39 6 c-57 10 -48 -9 35 -65 39 -28 84 -60 99 -72 25
-18 29 -19 34 -4 4 8 -1 24 -10 34 -9 10 -16 23 -16 29 0 6 59 95 131 197
l132 186 38 -6 c62 -11 48 13 -43 75 -44 30 -89 61 -99 69 -16 11 -20 11 -25
-3z"/>
<path d="M2285 9010 c-15 -16 -55 -49 -87 -72 -63 -46 -77 -75 -30 -64 15 4
33 8 39 9 7 1 40 -32 73 -73 l60 -75 -37 -33 c-21 -17 -63 -52 -94 -77 l-57
-45 -54 68 c-73 90 -72 89 -53 119 11 16 13 29 7 35 -6 6 -44 -19 -106 -68
-63 -50 -93 -81 -87 -87 6 -6 21 -5 41 3 17 7 32 11 34 9 2 -2 70 -85 150
-184 139 -172 145 -181 131 -202 -16 -24 -20 -53 -7 -53 4 0 35 23 67 50 33
28 75 61 92 73 18 12 31 27 29 32 -3 11 -32 11 -57 1 -12 -5 -33 14 -83 76
-36 46 -66 86 -66 89 0 3 41 39 91 80 l92 73 29 -34 c16 -19 47 -58 69 -87
l41 -52 -18 -30 c-19 -32 -13 -52 10 -36 70 52 172 141 175 153 3 15 2 15 -57
-4 -13 -4 -50 35 -157 167 -77 95 -144 179 -148 186 -5 8 -2 22 7 35 36 52 6
65 -39 18z"/>
<path d="M8003 8819 c-54 -27 -83 -73 -83 -131 0 -35 12 -69 50 -143 28 -54
50 -109 50 -122 0 -32 -51 -83 -83 -83 -32 0 -86 37 -115 80 -21 30 -23 42
-17 85 12 83 11 99 -5 102 -21 4 -83 -104 -76 -133 9 -34 81 -119 129 -152 23
-17 62 -35 85 -41 101 -28 202 49 202 152 0 23 -19 73 -55 144 -30 59 -55 120
-55 135 0 30 40 68 72 68 31 0 75 -28 103 -64 22 -30 26 -44 24 -91 -2 -32 2
-60 9 -67 6 -6 13 -10 15 -7 2 2 18 25 35 50 l32 47 -26 38 c-43 65 -87 105
-139 130 -62 29 -98 30 -152 3z"/>
<path d="M1723 8529 c-71 -83 -268 -297 -294 -320 -16 -14 -29 -32 -29 -39 0
-19 63 -109 76 -110 16 0 23 21 13 45 -18 47 -10 81 32 129 22 25 44 46 48 46
10 0 335 -298 340 -311 2 -6 -3 -22 -10 -35 -9 -18 -10 -27 -2 -35 8 -8 20 -1
45 27 18 22 54 62 81 90 26 28 47 54 47 57 0 11 -29 8 -49 -5 -23 -14 -19 -17
-218 166 l-152 139 30 37 c40 49 70 64 131 65 28 0 53 5 54 10 3 8 -63 52
-108 73 -4 2 -19 -11 -35 -29z"/>
<path d="M8393 8527 c-65 -40 -69 -60 -10 -57 23 2 50 2 60 1 22 -1 109 -80
105 -95 -2 -6 -61 -65 -133 -131 -71 -65 -146 -134 -166 -153 -36 -33 -38 -34
-73 -21 -19 7 -38 10 -42 6 -7 -6 150 -178 169 -186 10 -4 6 29 -7 60 -5 12
38 57 163 172 93 87 174 157 179 157 5 0 27 -21 48 -47 39 -48 40 -54 31 -142
-4 -41 19 -34 57 19 20 27 36 53 36 56 0 3 -53 63 -119 132 -65 70 -145 157
-177 195 -32 37 -60 67 -63 67 -3 -1 -29 -15 -58 -33z"/>
<path d="M436 5595 c-84 -30 -135 -109 -136 -212 0 -56 5 -72 57 -170 52 -100
57 -113 57 -174 0 -76 0 -75 -128 -219 -42 -46 -75 -89 -73 -95 2 -5 16 -11
31 -13 21 -3 35 6 64 37 41 45 75 53 92 20 14 -24 4 -74 -40 -211 -35 -111
-35 -114 -13 -122 24 -10 37 8 83 119 22 54 43 102 47 105 3 3 2 -57 -2 -133
-6 -124 -5 -138 11 -144 28 -11 41 21 54 140 7 61 16 119 21 127 7 13 8 13 9
0 3 -60 29 -213 38 -222 6 -6 18 -8 28 -4 15 6 16 19 9 132 -5 88 -4 125 3
120 6 -4 30 -40 53 -81 42 -73 70 -94 82 -61 3 8 -11 50 -32 94 -22 44 -42
102 -45 133 -4 30 -14 89 -22 132 -20 101 -16 111 41 105 58 -7 87 12 84 56
-1 17 3 44 10 60 6 16 9 37 6 47 -4 13 -1 19 8 19 8 0 20 6 27 14 9 12 6 24
-16 61 -21 36 -28 62 -30 114 -5 124 -54 195 -156 226 -63 18 -170 19 -222 0z
m93 -113 l28 -27 25 27 c31 33 56 35 92 7 21 -17 26 -29 26 -66 0 -42 -5 -50
-67 -116 -38 -40 -69 -74 -71 -76 -5 -8 -123 113 -138 141 -22 41 -18 85 11
113 32 32 60 31 94 -3z"/>
<path d="M9537 5600 c-114 -29 -167 -102 -168 -234 -1 -45 -7 -72 -25 -102
-29 -50 -30 -71 -4 -79 12 -4 20 -14 19 -23 -1 -9 3 -29 9 -44 6 -15 8 -42 5
-61 -7 -46 20 -66 82 -59 59 6 63 -7 42 -118 -10 -48 -17 -103 -17 -124 0 -23
-15 -66 -40 -116 -45 -89 -50 -120 -21 -120 13 0 33 24 66 80 50 85 69 100 61
48 -11 -68 -17 -194 -10 -211 8 -22 41 -22 48 1 3 9 10 60 17 112 17 143 22
140 42 -29 14 -119 25 -146 52 -137 6 2 9 56 8 141 -1 75 2 134 7 129 5 -5 25
-51 45 -102 36 -90 56 -122 76 -122 23 0 20 38 -11 136 -38 123 -48 188 -30
209 20 24 43 18 85 -25 40 -41 81 -53 91 -26 3 9 -33 58 -95 128 l-101 113 0
68 c0 63 4 77 54 175 63 124 71 158 56 227 -26 115 -93 167 -225 171 -44 2
-97 -1 -118 -6z m62 -118 l28 -27 25 27 c32 35 61 36 93 3 19 -18 25 -35 25
-66 0 -37 -7 -48 -67 -112 -38 -40 -69 -74 -71 -76 -5 -8 -123 113 -138 141
-22 41 -18 85 11 113 32 32 60 31 94 -3z"/>
<path d="M1337 2957 c-55 -24 -57 -43 -4 -39 29 3 42 -2 62 -24 14 -15 25 -33
25 -39 0 -7 -72 -59 -160 -115 -143 -90 -163 -101 -192 -95 -37 9 -36 4 17
-79 37 -58 50 -64 50 -21 0 20 28 42 165 129 91 57 168 102 172 99 5 -2 15
-18 24 -35 15 -28 14 -34 -2 -69 -9 -22 -14 -42 -11 -45 6 -7 87 56 87 68 0 4
-36 63 -80 132 -44 69 -83 132 -86 141 -7 18 -7 18 -67 -8z"/>
<path d="M8799 2881 c-15 -11 -30 -32 -33 -46 -16 -63 74 -173 181 -222 108
-50 193 -40 220 25 13 31 12 37 -7 78 -28 56 -87 108 -169 147 -84 40 -156 47
-192 18z m134 -51 c76 -39 181 -113 202 -142 35 -51 9 -87 -52 -72 -100 24
-303 169 -303 217 0 46 57 45 153 -3z"/>
<path d="M1529 2625 c-1 -6 -2 -20 -3 -31 -1 -16 -40 -52 -133 -123 -113 -87
-136 -100 -152 -91 -35 18 -30 -4 15 -64 33 -44 45 -55 50 -43 3 9 3 21 0 26
-9 14 116 111 129 101 6 -5 25 -29 43 -54 l32 -45 -59 -46 c-48 -36 -65 -44
-86 -39 -14 3 -25 3 -25 -1 0 -14 76 -114 85 -111 6 1 9 14 8 27 -2 20 19 40
128 122 103 78 135 98 153 93 38 -9 37 4 -6 58 -48 62 -58 66 -58 29 -1 -21
-11 -36 -45 -61 -25 -18 -51 -35 -58 -38 -7 -2 -29 18 -51 47 l-39 52 24 18
c78 61 99 72 113 60 10 -8 16 -9 21 -1 3 5 -11 31 -31 58 -55 68 -54 67 -55
57z"/>
<path d="M8620 2586 c0 -24 -3 -51 -6 -60 -9 -24 11 -19 22 5 9 19 19 13 152
-83 135 -96 143 -104 138 -130 -3 -16 -4 -28 -1 -28 8 0 85 113 85 124 0 6 -7
3 -14 -6 -7 -10 -18 -18 -24 -18 -6 0 -86 54 -177 120 -91 66 -167 120 -170
120 -3 0 -5 -20 -5 -44z"/>
<path d="M1764 2297 c5 -23 -6 -37 -116 -137 -109 -98 -126 -110 -150 -104
-16 3 -28 2 -28 -3 0 -6 113 -139 160 -187 10 -10 100 33 100 48 0 4 -20 5
-43 2 -42 -6 -46 -5 -81 34 -37 41 -37 42 -19 62 10 11 35 34 56 51 l39 30 26
-27 c24 -23 25 -29 14 -47 -19 -30 -8 -35 25 -11 65 46 90 92 34 62 -14 -7
-24 -3 -46 20 l-29 30 55 49 54 49 28 -26 c33 -32 43 -63 27 -91 -6 -12 -8
-26 -4 -32 7 -12 63 48 64 70 0 13 -144 173 -163 180 -6 2 -7 -6 -3 -22z"/>
<path d="M8475 2219 c-60 -72 -63 -80 -35 -77 30 4 198 -139 199 -169 1 -32
11 -29 49 17 38 46 40 54 8 46 -17 -4 -33 3 -62 28 -38 33 -39 34 -21 54 11
12 26 18 40 15 18 -3 14 3 -17 31 -38 35 -62 42 -36 11 11 -13 10 -19 -5 -35
-10 -11 -21 -20 -24 -20 -3 0 -23 17 -44 36 l-39 36 24 25 c16 18 31 23 50 21
16 -3 28 -1 28 3 0 8 -45 39 -57 39 -4 0 -30 -27 -58 -61z"/>
<path d="M8317 2050 c-14 -11 -31 -37 -37 -56 -46 -138 164 -280 254 -173 59
70 19 186 -81 238 -36 18 -107 14 -136 -9z m126 -51 c102 -67 118 -174 26
-171 -64 2 -159 88 -159 145 0 18 5 38 12 45 21 21 73 13 121 -19z"/>
<path d="M2094 2046 c-4 -9 -1 -22 5 -30 9 -10 -10 -61 -79 -217 -50 -112 -89
-212 -88 -222 2 -14 24 -3 113 56 61 41 122 82 138 92 l28 18 -10 -24 c-5 -13
-34 -81 -65 -150 -31 -70 -56 -130 -56 -133 0 -16 35 4 203 116 138 93 190
123 214 123 18 0 33 3 33 7 0 4 -20 26 -44 48 -45 41 -62 40 -51 -3 6 -20 -6
-31 -100 -96 -58 -40 -108 -71 -111 -69 -2 3 23 67 57 143 33 75 59 144 57
151 -2 9 -48 -16 -138 -76 -74 -49 -135 -88 -137 -86 -2 1 21 56 51 122 48
106 57 119 79 119 14 0 28 3 31 6 3 3 -23 31 -59 63 -51 45 -66 54 -71 42z"/>
<path d="M7898 1835 c-72 -40 -44 -176 59 -281 56 -59 93 -81 152 -90 36 -6
43 -3 71 24 36 36 38 61 9 137 -26 71 -112 165 -181 199 -59 30 -73 31 -110
11z m127 -87 c87 -88 157 -192 153 -228 -2 -20 -9 -26 -37 -28 -32 -3 -41 4
-120 85 -135 139 -178 243 -100 243 25 0 45 -14 104 -72z"/>
<path d="M7660 1633 c0 -10 -9 -33 -20 -51 -26 -42 -25 -46 4 -27 24 16 25 16
74 -52 28 -37 73 -99 101 -138 54 -74 58 -84 39 -103 -6 -6 -9 -14 -7 -16 7
-8 119 74 119 86 0 6 -6 6 -15 -2 -8 -7 -21 -10 -28 -7 -8 3 -67 78 -131 166
-65 89 -122 161 -127 161 -5 0 -9 -8 -9 -17z"/>
<path d="M2397 1480 c-100 -70 -165 -110 -182 -110 -36 0 -31 -12 21 -49 l47
-33 -6 31 c-6 26 -2 33 35 60 l41 30 36 -26 c20 -15 39 -30 44 -33 4 -3 0 -27
-9 -53 -13 -39 -20 -47 -40 -47 -13 0 -24 -4 -24 -9 0 -8 106 -91 116 -91 3 0
3 13 -1 29 -4 21 10 82 49 212 31 100 56 186 56 191 0 21 -39 0 -183 -102z
m72 -38 l-21 -61 -29 21 c-16 12 -28 25 -27 29 3 9 92 78 95 75 2 -2 -6 -30
-18 -64z"/>
<path d="M2652 1477 c-43 -45 -42 -61 3 -40 33 16 37 16 70 0 42 -20 48 -2
-65 -185 -57 -92 -80 -121 -96 -122 -39 0 -33 -13 28 -52 62 -40 82 -42 60 -8
-11 18 -1 38 79 165 l90 145 25 -17 c33 -21 46 -47 38 -78 -10 -41 20 -31 36
13 8 20 16 40 18 43 2 4 -46 37 -105 73 -59 37 -117 73 -129 81 -18 14 -23 12
-52 -18z"/>
<path d="M2967 1271 c-31 -46 -25 -58 13 -31 34 24 33 24 75 4 l34 -16 -79
-151 c-55 -105 -84 -152 -96 -152 -37 0 -21 -21 36 -49 64 -30 79 -30 60 1
-10 16 -1 41 60 163 40 80 74 147 76 149 2 3 20 -3 38 -12 29 -14 35 -22 38
-54 2 -21 7 -37 12 -36 9 2 39 84 33 89 -8 7 -262 134 -267 134 -4 0 -19 -18
-33 -39z"/>
<path d="M7341 1254 c-39 -50 -16 -108 46 -120 26 -5 37 -1 57 19 31 31 33 65
5 101 -15 19 -30 26 -54 26 -24 0 -39 -7 -54 -26z"/>
<path d="M7008 1215 c-3 -3 -48 -25 -99 -48 -52 -23 -95 -47 -97 -52 -2 -6 7
-12 20 -15 33 -8 167 -294 150 -321 -24 -38 -9 -36 93 12 57 27 108 49 114 49
18 0 21 18 10 69 -10 48 -29 62 -29 21 0 -40 -23 -70 -67 -86 -24 -9 -45 -15
-48 -13 -2 3 -17 34 -34 71 l-29 66 36 15 c32 13 39 14 48 1 11 -13 34 -20 34
-9 0 2 -12 29 -27 59 -26 54 -49 67 -37 21 5 -20 0 -26 -32 -40 -20 -8 -38
-14 -39 -13 -9 11 -57 129 -54 131 2 2 23 11 47 22 42 18 43 18 73 -4 41 -31
47 -20 15 29 -25 38 -36 46 -48 35z"/>
<path d="M3365 1110 c-42 -17 -68 -58 -73 -112 -4 -51 -2 -55 42 -106 51 -60
59 -99 26 -132 -24 -24 -32 -25 -69 -5 -32 16 -41 33 -41 78 0 18 -4 39 -10
47 -7 12 -11 10 -18 -10 -32 -86 -26 -107 41 -142 74 -37 140 -21 173 44 32
62 20 110 -48 187 -42 48 -46 65 -22 99 31 44 100 16 113 -47 9 -48 25 -48 37
-2 10 37 9 42 -15 65 -43 41 -93 54 -136 36z"/>
<path d="M6602 1041 c-76 -28 -89 -42 -50 -51 19 -5 32 -31 80 -155 60 -155
65 -175 48 -175 -5 0 -10 -7 -10 -16 0 -9 6 -14 13 -11 6 2 40 14 74 27 62 22
74 40 27 40 -20 0 -28 9 -43 43 -35 80 -35 82 4 96 56 20 78 56 73 120 -4 45
-10 59 -37 83 -40 36 -81 36 -179 -1z m122 -42 c17 -20 26 -42 26 -66 0 -36
-23 -73 -44 -73 -6 0 -24 35 -39 77 -21 59 -25 78 -15 85 24 15 46 8 72 -23z"/>
<path d="M3915 978 c-13 -18 -74 -105 -133 -193 -67 -99 -116 -161 -128 -164
-42 -8 -32 -25 23 -43 64 -19 82 -15 57 13 -16 18 -16 21 1 53 40 75 43 76
105 57 l55 -17 3 -61 c3 -58 2 -61 -23 -67 -42 -11 -24 -27 50 -47 39 -10 73
-19 78 -19 13 0 7 28 -7 33 -10 4 -15 40 -20 149 -11 252 -18 338 -27 338 -4
0 -20 -15 -34 -32z m-28 -244 c-5 -5 -77 16 -77 23 0 4 17 33 38 64 l37 58 3
-70 c2 -39 1 -73 -1 -75z"/>
<path d="M6448 986 c-47 -14 -57 -25 -30 -33 12 -3 22 -13 22 -23 0 -41 -13
-140 -19 -140 -3 0 -28 27 -55 60 -40 50 -46 63 -36 75 20 25 4 28 -46 11 -26
-9 -56 -16 -66 -16 -26 0 -22 -19 6 -29 13 -5 55 -47 94 -92 58 -68 74 -94 88
-146 16 -60 16 -64 -1 -83 -10 -11 -16 -22 -14 -24 2 -3 37 5 77 17 70 20 88
39 44 45 -17 3 -26 17 -41 68 -18 62 -19 71 -4 172 8 59 21 114 29 123 28 31
16 35 -48 15z"/>
<path d="M5985 936 c-122 -26 -150 -35 -149 -49 0 -9 1 -35 2 -58 2 -49 20
-48 36 1 9 28 19 38 50 48 22 7 42 9 46 5 7 -9 80 -349 80 -375 0 -9 -7 -18
-15 -22 -8 -3 -15 -13 -15 -22 0 -10 5 -14 15 -10 9 3 45 11 80 18 69 12 80
23 41 38 -13 5 -27 17 -29 27 -14 47 -79 365 -75 368 1 2 20 6 40 10 33 6 41
4 68 -24 18 -17 36 -31 41 -31 12 0 12 -3 -10 55 -13 34 -25 51 -37 52 -11 0
-86 -13 -169 -31z"/>
<path d="M4130 871 c0 -5 8 -14 17 -19 16 -9 15 -18 -6 -133 -39 -214 -41
-219 -62 -219 -10 0 -19 -6 -19 -13 0 -14 138 -43 149 -32 3 4 -4 14 -16 23
-21 16 -22 20 -11 85 7 37 17 67 23 67 6 0 27 -44 46 -97 l34 -98 45 -11 c57
-14 67 -8 39 22 -12 12 -34 58 -49 100 l-27 78 31 21 c58 39 68 133 18 178
-29 27 -212 68 -212 48z m155 -71 c13 -15 16 -30 12 -60 -7 -53 -22 -70 -62
-70 -33 0 -33 0 -25 38 4 20 11 54 14 75 8 43 32 50 61 17z"/>
<path d="M4432 774 c-16 -59 -8 -67 24 -26 18 22 34 32 52 32 51 0 52 -3 32
-170 -11 -85 -19 -160 -20 -166 0 -7 -9 -14 -20 -17 -40 -10 -19 -24 46 -31
72 -7 89 -2 61 19 -17 13 -18 19 -2 157 22 192 21 188 51 188 37 0 61 -16 68
-45 12 -46 31 -29 28 24 l-4 48 -141 17 c-78 9 -147 16 -152 16 -6 0 -16 -21
-23 -46z"/>
<path d="M5550 800 c-36 -5 -99 -11 -142 -15 l-76 -7 -4 -49 c-4 -56 13 -66
32 -19 13 30 42 45 77 38 16 -3 20 -22 32 -167 12 -150 12 -165 -3 -176 -9 -7
-16 -15 -16 -19 0 -8 87 -8 118 0 26 7 29 21 5 26 -16 3 -20 26 -33 173 l-15
170 39 3 c33 3 43 -1 62 -25 12 -15 25 -25 29 -22 10 10 -16 99 -29 98 -6 -1
-40 -5 -76 -9z"/>
<path d="M4820 777 c0 -6 7 -15 16 -22 15 -10 16 -30 9 -179 -6 -149 -9 -168
-26 -177 -35 -18 -20 -27 51 -31 48 -2 70 1 70 8 0 7 -7 15 -16 18 -14 5 -15
25 -9 174 6 154 9 168 28 184 12 9 20 19 17 21 -10 9 -140 13 -140 4z"/>
<path d="M5080 753 c-25 -22 -33 -39 -37 -74 -8 -67 15 -102 85 -138 72 -36
84 -51 80 -93 -7 -74 -94 -72 -131 5 -19 37 -48 52 -42 20 2 -10 7 -34 10 -55
4 -29 11 -38 37 -47 17 -6 50 -11 74 -11 96 0 152 112 97 197 -8 11 -45 37
-83 57 -39 21 -72 45 -75 56 -25 78 85 103 127 30 9 -17 21 -30 27 -30 11 0 3
81 -10 94 -5 5 -35 12 -67 14 -54 4 -62 2 -92 -25z"/>
</g>
</svg>
