<?xml version="1.0" standalone="no"?>
<!DOCTYPE svg PUBLIC "-//W3C//DTD SVG 20010904//EN"
 "http://www.w3.org/TR/2001/REC-SVG-20010904/DTD/svg10.dtd">
<svg version="1.0" xmlns="http://www.w3.org/2000/svg"
 width="1021.000000pt" height="1021.000000pt" viewBox="0 0 1021.000000 1021.000000"
 preserveAspectRatio="xMidYMid meet">

<g transform="translate(0.000000,1021.000000) scale(0.100000,-0.100000)"
fill="#000000" stroke="none">
<path d="M4880 10200 c-1169 -54 -2265 -496 -3140 -1267 -157 -138 -415 -403
-541 -553 -672 -806 -1059 -1731 -1171 -2800 -20 -196 -17 -794 5 -1000 158
-1438 868 -2691 2018 -3561 678 -512 1485 -846 2344 -968 262 -37 395 -46 715
-46 389 0 629 23 985 91 1560 300 2912 1345 3611 2789 262 541 418 1104 486
1745 21 197 17 784 -5 990 -70 631 -227 1182 -493 1725 -250 513 -559 943
-983 1365 -278 278 -493 455 -796 655 -890 589 -1963 884 -3035 835z m515 -70
c1731 -102 3281 -1078 4123 -2595 319 -576 515 -1192 598 -1885 22 -182 30
-731 15 -928 -44 -543 -166 -1056 -365 -1535 -476 -1143 -1334 -2058 -2441
-2602 -540 -266 -1078 -422 -1697 -492 -194 -22 -797 -25 -988 -5 -846 89
-1592 350 -2278 799 -1160 757 -1963 1964 -2206 3313 -57 317 -78 561 -78 905
0 360 28 650 92 978 239 1206 919 2288 1910 3039 948 717 2133 1077 3315 1008z"/>
<path d="M4935 9915 c-5 -2 -45 -6 -87 -10 -54 -5 -78 -11 -78 -20 0 -7 14
-15 30 -18 17 -4 30 -11 30 -16 0 -4 -22 -57 -49 -115 l-48 -107 -52 82 c-29
44 -59 92 -67 105 -15 23 -15 24 10 34 14 5 26 17 26 26 0 14 -7 15 -38 10
-21 -3 -77 -9 -125 -12 -73 -6 -87 -10 -85 -23 2 -9 17 -18 33 -21 25 -4 44
-26 121 -140 l91 -135 7 -93 8 -92 -36 -15 c-41 -17 -52 -52 -13 -41 12 3 73
9 135 13 100 5 112 8 112 25 0 13 -7 18 -27 18 -48 0 -52 10 -58 115 l-6 100
64 135 c50 107 70 138 93 150 33 17 45 30 38 42 -5 8 -12 9 -29 3z"/>
<path d="M5077 9907 c-3 -9 -9 -43 -13 -76 -6 -53 -4 -61 10 -61 9 0 21 12 27
27 22 59 32 63 156 63 66 0 113 -4 113 -10 0 -5 -69 -107 -154 -227 -84 -120
-161 -230 -170 -244 l-17 -27 148 -6 c81 -4 190 -8 242 -9 l94 -2 13 69 c19
100 3 116 -40 41 -33 -55 -59 -63 -188 -56 l-98 6 170 240 c94 132 170 245
170 251 0 8 -62 13 -192 18 -106 4 -209 10 -229 13 -27 4 -38 1 -42 -10z"/>
<path d="M5670 9870 c0 -10 9 -21 19 -25 41 -13 41 -23 3 -255 l-38 -225 -31
-3 c-36 -4 -64 -29 -42 -36 23 -8 392 -69 421 -70 24 -1 31 7 58 62 24 52 27
64 15 69 -9 3 -32 -10 -55 -31 -33 -30 -47 -36 -85 -36 -64 0 -145 20 -152 37
-5 13 11 143 23 184 4 14 13 14 72 5 64 -11 67 -13 78 -46 17 -52 38 -45 45
15 3 28 9 67 13 88 7 30 5 37 -8 37 -8 0 -23 -14 -31 -31 -13 -24 -21 -30 -38
-26 -12 3 -43 9 -69 12 -40 6 -48 11 -47 29 0 34 25 166 32 173 9 9 144 -15
168 -30 11 -6 27 -29 36 -49 16 -35 38 -55 46 -40 2 4 1 36 -2 71 l-6 64 -198
33 c-109 18 -205 35 -213 38 -9 3 -14 -1 -14 -14z"/>
<path d="M4050 9795 c-58 -12 -104 -25 -102 -28 1 -4 2 -11 2 -16 0 -6 15 -11
33 -13 l32 -3 42 -205 c52 -252 52 -255 12 -275 -27 -15 -36 -43 -11 -38 6 1
91 18 189 38 98 19 194 39 213 43 28 5 35 12 34 30 -4 121 -4 123 -20 120 -9
-2 -22 -21 -29 -42 -19 -54 -34 -66 -101 -82 -69 -16 -111 -18 -119 -5 -8 13
-85 399 -85 425 0 13 12 28 30 38 17 9 30 22 30 28 0 14 -26 11 -150 -15z"/>
<path d="M6270 9762 c0 -10 11 -24 25 -30 15 -7 25 -20 25 -33 0 -18 -38 -147
-116 -391 -15 -47 -17 -48 -55 -48 -55 0 -52 -26 4 -40 23 -7 82 -25 130 -41
103 -34 97 -33 97 -15 0 8 -16 23 -35 35 -19 11 -35 28 -35 38 0 9 12 54 27
99 38 116 51 109 104 -58 23 -72 50 -139 62 -152 20 -21 126 -66 156 -66 21 0
11 26 -18 48 -23 17 -37 46 -70 143 -41 124 -42 138 -2 139 26 0 81 42 97 73
11 21 15 46 11 81 -4 45 -10 55 -51 92 -39 36 -67 49 -189 89 -78 25 -148 49
-154 51 -8 4 -13 -2 -13 -14z m229 -111 c46 -24 65 -64 55 -116 -12 -66 -48
-92 -124 -86 -53 3 -54 11 -20 120 17 55 36 101 41 101 5 0 27 -9 48 -19z"/>
<path d="M3534 9648 c-6 -9 -52 -484 -54 -551 0 -9 -11 -27 -25 -39 -29 -25
-34 -54 -7 -43 9 4 52 18 94 32 54 18 75 30 71 39 -3 8 -20 14 -39 14 l-34 0
1 48 c3 99 5 103 97 135 93 34 90 35 154 -46 l31 -38 -22 -23 c-26 -28 -28
-51 -3 -41 9 3 63 22 120 42 106 37 134 63 68 63 -33 0 -48 14 -227 210 -106
116 -198 210 -205 210 -7 0 -16 -5 -20 -12z m126 -259 c34 -41 39 -36 -59 -70
l-54 -19 6 68 c4 37 7 83 7 102 l1 35 35 -40 c19 -22 48 -56 64 -76z"/>
<path d="M3107 9478 c-82 -43 -91 -65 -23 -60 l34 3 71 -137 c39 -76 70 -139
68 -139 -1 -1 -94 37 -207 86 -113 48 -215 88 -227 88 -30 1 -154 -60 -150
-74 2 -5 19 -9 38 -7 l34 2 109 -211 108 -210 -21 -23 c-21 -22 -28 -46 -13
-46 4 0 42 18 85 41 82 43 95 66 34 61 l-36 -3 -86 171 c-47 95 -82 170 -78
167 4 -3 122 -53 262 -112 184 -77 260 -105 278 -100 24 6 22 9 -97 242 l-120
236 20 22 c23 24 26 45 8 44 -7 0 -48 -19 -91 -41z"/>
<path d="M7354 9337 c-10 -6 -114 -84 -231 -174 -203 -157 -214 -164 -248
-157 -61 11 -41 -18 46 -64 79 -43 105 -47 81 -14 -28 39 -26 45 29 93 l54 47
78 -40 c44 -23 81 -47 84 -55 3 -7 2 -43 -2 -79 l-7 -66 -29 4 c-17 3 -34 -1
-40 -8 -8 -10 6 -21 62 -50 40 -20 90 -47 111 -60 21 -13 40 -24 43 -24 12 0
4 33 -13 55 -17 22 -17 30 -1 221 33 375 33 370 17 376 -8 3 -23 1 -34 -5z
m-79 -188 c-4 -39 -10 -82 -14 -95 l-6 -23 -60 34 c-33 18 -59 36 -58 40 3 7
134 115 140 115 3 0 2 -32 -2 -71z"/>
<path d="M4895 9150 c-989 -52 -1929 -470 -2636 -1172 -654 -649 -1055 -1468
-1176 -2403 -14 -111 -18 -208 -18 -475 1 -370 14 -509 76 -815 292 -1426
1350 -2601 2743 -3044 742 -236 1552 -252 2298 -46 1559 432 2723 1757 2942
3350 57 420 45 904 -34 1320 -233 1220 -1032 2282 -2146 2850 -510 260 -1048
403 -1639 435 -195 10 -203 10 -410 0z m645 -85 c659 -75 1247 -290 1790 -655
933 -626 1565 -1630 1724 -2735 56 -391 51 -850 -15 -1240 -260 -1548 -1435
-2817 -2964 -3199 -348 -87 -551 -110 -960 -110 -413 -1 -622 23 -969 110
-1318 330 -2382 1313 -2816 2602 -238 707 -270 1486 -90 2217 166 676 515
1307 999 1808 695 719 1592 1140 2591 1217 157 12 546 4 710 -15z"/>
<path d="M4935 8993 c-586 -25 -1217 -205 -1728 -494 -152 -86 -394 -250 -537
-365 -257 -206 -563 -533 -753 -806 -363 -520 -587 -1105 -674 -1758 -23 -169
-26 -723 -5 -890 107 -863 451 -1611 1022 -2225 564 -606 1282 -1007 2095
-1170 231 -46 400 -65 655 -72 918 -25 1805 273 2529 850 163 130 481 448 607
607 463 584 730 1217 831 1970 14 106 18 203 18 455 0 335 -6 414 -51 675
-223 1299 -1107 2408 -2330 2923 -403 170 -837 269 -1294 297 -157 9 -225 10
-385 3z m435 -73 c499 -37 946 -154 1378 -361 542 -258 1012 -636 1378 -1105
705 -904 966 -2059 718 -3184 -322 -1465 -1516 -2633 -2984 -2919 -296 -57
-395 -66 -745 -66 -336 0 -417 6 -675 51 -628 110 -1217 379 -1734 792 -148
118 -432 399 -549 543 -455 559 -740 1206 -836 1899 -122 879 63 1772 523
2524 389 636 946 1138 1621 1462 450 216 894 330 1425 367 108 8 356 6 480 -3z"/>
<path d="M4980 7956 c-106 -30 -234 -107 -298 -181 -31 -35 -32 -36 -15 -61
25 -39 131 -121 198 -154 221 -108 458 -70 643 105 l75 70 -75 71 c-82 76
-168 125 -263 149 -70 18 -202 18 -265 1z m25 -88 c-33 -26 -65 -91 -65 -133
0 -42 32 -107 66 -135 l29 -23 -40 7 c-101 17 -245 83 -299 136 -19 19 -19 19
5 39 60 51 247 128 313 130 15 1 14 -3 -9 -21z m344 -14 c66 -25 170 -84 190
-108 27 -33 -166 -136 -303 -162 l-40 -7 36 35 c37 38 62 107 51 146 -5 21 -7
22 -24 6 -42 -38 -105 17 -81 71 6 14 19 25 28 25 14 0 14 2 3 16 -12 15 -9
16 31 9 25 -4 74 -18 109 -31z"/>
<path d="M5035 7394 c-78 -29 -146 -124 -145 -203 l1 -26 16 30 c22 43 53 74
93 95 112 57 260 17 309 -83 l21 -42 0 35 c-1 78 -68 166 -149 195 -53 18 -93
18 -146 -1z"/>
<path d="M5025 7246 c-49 -21 -92 -64 -111 -110 l-18 -43 -68 5 c-267 19 -666
-88 -1058 -283 -157 -78 -308 -116 -465 -116 -117 -1 -180 12 -248 48 -62 34
-102 81 -141 162 l-30 66 -14 -45 c-19 -60 -20 -195 -3 -244 7 -21 29 -56 49
-78 l35 -38 -370 -968 -371 -967 -76 -3 c-87 -3 -90 -7 -55 -79 100 -206 532
-329 1084 -309 358 13 603 76 752 195 55 43 113 130 113 169 0 21 -4 22 -74
22 l-75 0 -19 53 c-11 28 -171 447 -356 931 -185 483 -336 882 -336 887 0 5
39 9 86 9 170 0 461 61 779 163 302 97 485 135 698 144 122 5 137 4 137 -10 0
-9 -7 -92 -15 -183 -9 -92 -14 -169 -11 -171 2 -2 26 7 53 20 125 63 291 63
436 -1 56 -25 52 -44 32 173 -8 88 -15 164 -15 169 0 15 267 -1 390 -24 136
-25 255 -56 445 -117 318 -102 609 -163 779 -163 47 0 86 -4 86 -9 0 -5 -151
-404 -336 -887 -185 -484 -345 -903 -356 -931 l-19 -53 -75 0 c-70 0 -74 -1
-74 -22 0 -39 58 -126 113 -169 149 -119 394 -182 752 -195 286 -11 560 19
755 82 165 53 285 136 330 229 34 69 30 74 -56 77 l-76 3 -370 967 -371 968
35 39 c20 21 42 56 49 77 17 49 16 184 -3 244 l-14 45 -30 -66 c-39 -81 -79
-128 -141 -162 -68 -36 -131 -49 -248 -48 -157 0 -308 38 -465 116 -388 193
-758 294 -1044 283 l-78 -2 -19 39 c-26 53 -56 84 -104 106 -47 22 -136 24
-180 5z m-1629 -1719 l340 -892 -684 -3 c-377 -1 -687 0 -690 3 -3 2 147 402
333 887 186 486 340 889 343 896 2 7 7 10 11 7 3 -4 159 -408 347 -898z m4129
-5 c186 -485 336 -885 333 -887 -3 -3 -313 -4 -690 -3 l-684 3 336 880 c185
484 339 889 344 900 6 17 9 18 15 5 5 -8 161 -412 346 -898z"/>
<path d="M4997 6421 c-107 -35 -187 -105 -237 -205 -40 -79 -40 -119 0 -50 37
65 97 118 180 158 60 29 73 31 170 31 97 0 110 -2 170 -31 79 -37 130 -80 177
-148 31 -45 34 -47 28 -21 -21 98 -107 198 -210 246 -86 41 -193 48 -278 20z"/>
<path d="M5036 6289 c-173 -19 -275 -122 -317 -318 -12 -59 -158 -1135 -154
-1139 2 -2 27 15 56 38 67 51 193 113 279 137 101 27 330 25 433 -5 96 -27
192 -75 275 -137 l64 -46 -6 38 c-3 21 -35 265 -71 543 -36 278 -72 531 -80
562 -58 231 -237 353 -479 327z"/>
<path d="M5028 4879 c-206 -27 -392 -160 -487 -349 -52 -105 -53 -133 -1 -53
78 119 209 220 352 270 98 35 262 43 372 18 162 -36 338 -159 422 -296 20 -32
38 -59 40 -59 9 0 -41 120 -70 168 -129 211 -382 333 -628 301z"/>
<path d="M5025 4744 c-252 -39 -455 -226 -535 -491 -20 -66 -102 -623 -92
-623 2 0 30 23 61 52 111 102 260 182 416 224 109 29 370 27 484 -4 155 -42
298 -122 409 -226 29 -27 54 -47 56 -45 11 10 -75 581 -98 654 -84 267 -313
447 -585 459 -47 3 -99 2 -116 0z"/>
<path d="M4915 3859 c-210 -51 -429 -215 -524 -391 l-23 -43 28 35 c130 159
292 268 479 322 69 20 102 23 240 23 182 -1 237 -12 371 -75 135 -62 242 -145
338 -260 l37 -45 -38 63 c-48 80 -158 195 -243 252 -187 127 -444 173 -665
119z"/>
<path d="M4991 3770 c-498 -70 -792 -520 -597 -915 87 -174 262 -311 481 -376
101 -30 304 -37 414 -15 609 124 816 764 366 1129 -77 62 -218 132 -318 157
-92 23 -256 32 -346 20z m326 -153 c159 -46 304 -157 369 -282 32 -60 32 -60
18 -115 -38 -143 -173 -262 -364 -322 -66 -20 -95 -23 -235 -23 -153 0 -164 2
-246 31 -101 36 -215 108 -263 168 -45 54 -86 142 -86 185 0 75 116 219 233
289 66 40 176 79 255 92 85 13 230 3 319 -23z m422 -436 c24 -151 -25 -289
-148 -412 -127 -127 -282 -188 -479 -189 -259 0 -484 125 -584 326 -35 72 -42
96 -46 163 -2 44 -1 101 3 128 l8 48 13 -74 c34 -196 176 -348 394 -421 93
-31 261 -38 364 -16 253 57 455 269 456 480 0 54 7 42 19 -33z"/>
<path d="M7730 9112 c0 -11 7 -25 15 -32 8 -7 15 -18 15 -26 0 -7 -61 -94
-135 -194 -133 -177 -149 -193 -185 -170 -9 5 -19 5 -27 -2 -10 -8 0 -20 45
-51 31 -23 81 -60 111 -84 36 -29 57 -41 64 -34 9 9 3 21 -37 77 -12 15 99
167 117 161 8 -2 14 -52 17 -158 3 -85 9 -161 13 -169 11 -19 112 -100 126
-100 16 0 13 32 -4 54 -12 15 -15 52 -15 158 l0 138 25 -6 c67 -17 146 29 166
96 26 87 -11 143 -178 271 -122 93 -133 99 -133 71z m200 -192 c26 -49 -7
-131 -63 -158 -31 -15 -76 -5 -113 26 l-22 17 65 88 65 87 29 -21 c16 -11 34
-29 39 -39z"/>
<path d="M2315 9020 c-3 -6 19 -135 51 -287 56 -272 56 -277 39 -309 -28 -53
-9 -58 47 -13 28 22 64 47 80 55 37 19 27 35 -19 32 l-36 -3 -18 70 c-10 38
-16 71 -14 73 2 3 37 28 76 57 l73 52 63 -40 c35 -21 63 -41 63 -43 0 -3 -7
-16 -16 -30 -23 -34 -6 -51 27 -26 13 11 59 44 101 75 62 44 75 57 64 66 -10
9 -20 9 -38 1 -22 -10 -48 3 -267 134 -133 80 -248 146 -256 146 -8 0 -17 -5
-20 -10z m168 -201 c33 -22 62 -41 64 -43 2 -1 -24 -22 -57 -45 -42 -30 -62
-38 -65 -29 -2 7 -13 50 -23 95 -22 95 -29 93 81 22z"/>
<path d="M8183 8713 c-66 -47 -61 -62 20 -56 61 5 62 4 111 -39 l48 -43 -162
-168 c-89 -92 -170 -167 -179 -167 -9 0 -22 5 -28 11 -7 7 -19 9 -29 5 -13 -5
3 -25 77 -96 51 -50 94 -90 96 -90 8 0 2 42 -9 59 -10 17 7 38 153 190 l164
172 49 -51 c48 -51 49 -52 43 -105 -9 -84 12 -89 56 -15 l35 60 -91 88 c-51
48 -136 130 -189 182 -53 52 -101 96 -105 97 -4 1 -31 -15 -60 -34z"/>
<path d="M1705 8489 c-49 -55 -116 -124 -147 -154 -45 -41 -54 -56 -44 -64 9
-8 18 -7 32 4 10 8 26 15 34 15 8 0 89 -71 180 -159 l165 -158 -17 -36 c-25
-52 -4 -58 41 -11 21 22 92 96 159 165 l122 126 -36 61 c-45 75 -68 75 -58 1
4 -26 4 -59 0 -72 -7 -28 -110 -137 -129 -137 -7 0 -43 31 -81 69 l-69 69 44
52 c34 40 48 50 64 45 84 -27 84 -15 3 64 -67 64 -88 66 -67 7 l13 -37 -50
-49 -49 -50 -73 73 -73 73 66 63 65 63 57 -4 c32 -2 57 1 59 7 3 11 -91 75
-110 75 -6 -1 -51 -46 -101 -101z"/>
<path d="M8694 8276 c-4 -10 -2 -28 4 -40 5 -13 7 -27 4 -32 -4 -6 -77 -68
-162 -139 -85 -70 -163 -135 -173 -144 -17 -14 -21 -14 -49 2 -54 31 -56 4 -4
-54 26 -29 61 -72 78 -96 24 -33 34 -40 44 -32 10 8 11 16 4 29 -6 10 -10 25
-10 33 0 8 80 82 177 163 l176 147 30 -17 c75 -42 35 28 -109 193 -2 2 -6 -4
-10 -13z"/>
<path d="M1372 8123 c-22 -32 -54 -75 -71 -97 -17 -21 -31 -43 -31 -47 0 -15
32 -10 51 7 17 15 21 15 46 -1 58 -38 133 -96 133 -103 0 -10 -129 -186 -138
-189 -14 -4 -157 113 -155 128 1 7 5 24 9 37 12 42 -22 24 -61 -34 -21 -31
-54 -75 -72 -97 -27 -35 -30 -43 -17 -50 10 -6 22 -3 33 7 10 9 23 16 30 16 7
0 92 -57 189 -127 97 -71 180 -131 186 -135 8 -5 7 -16 -1 -37 -8 -23 -8 -33
2 -41 9 -7 22 4 50 47 21 32 53 77 71 100 19 23 34 44 34 47 0 11 -31 6 -54
-9 -21 -14 -27 -12 -110 47 -51 36 -85 67 -82 74 13 35 132 184 142 180 7 -3
47 -30 89 -61 l76 -57 -6 -39 c-8 -49 12 -53 39 -8 10 17 41 60 68 96 34 46
46 69 39 76 -7 7 -17 5 -30 -7 -11 -10 -27 -16 -35 -14 -9 1 -97 62 -196 133
l-181 130 6 36 c10 58 -10 55 -53 -8z"/>
<path d="M8831 7918 c-83 -41 -98 -105 -61 -260 25 -103 16 -142 -36 -164 -41
-17 -71 -7 -107 35 -49 59 -52 109 -12 193 10 20 15 44 11 53 -5 13 -17 7 -65
-36 -58 -51 -59 -52 -49 -88 17 -62 69 -149 113 -190 76 -70 158 -73 230 -10
51 45 61 92 40 188 -10 42 -19 104 -22 137 -5 56 -3 63 18 78 33 23 63 20 99
-10 60 -51 75 -112 43 -179 -13 -26 -14 -38 -5 -47 8 -8 22 -2 57 26 51 42 51
41 8 136 -29 67 -74 116 -128 141 -52 24 -81 24 -134 -3z"/>
<path d="M961 7528 c-6 -17 -59 -121 -116 -231 -58 -110 -104 -203 -103 -207
2 -4 25 -24 52 -45 59 -45 77 -36 47 23 -12 23 -21 48 -21 57 0 13 44 110 55
123 2 2 96 -44 210 -103 l206 -107 -3 -36 c-6 -65 19 -44 76 64 55 106 62 150
17 105 -12 -12 -26 -21 -31 -21 -12 0 -102 44 -288 142 l-133 70 27 46 c35 63
56 80 110 88 61 9 56 33 -11 51 -73 19 -82 17 -94 -19z"/>
<path d="M9160 7545 c-62 -16 -65 -40 -6 -49 53 -8 74 -25 110 -88 l26 -47
-127 -67 c-71 -36 -161 -84 -201 -105 -85 -45 -97 -47 -122 -16 -13 15 -22 19
-29 11 -8 -7 5 -41 45 -117 30 -59 60 -107 65 -107 5 0 9 18 9 39 l0 39 206
107 c113 58 207 105 209 103 12 -13 55 -111 55 -124 0 -9 -10 -34 -22 -55 -34
-61 -12 -70 51 -23 28 21 51 41 51 45 0 4 -52 105 -115 225 -63 121 -115 225
-115 232 0 14 -29 14 -90 -3z"/>
<path d="M423 5581 c-77 -35 -133 -150 -117 -240 4 -20 31 -82 60 -139 50 -96
54 -108 54 -172 0 -77 5 -69 -128 -217 -75 -84 -86 -113 -41 -113 13 0 39 17
61 41 30 31 45 40 66 37 24 -3 27 -8 30 -43 2 -25 -10 -85 -33 -158 -40 -134
-42 -147 -16 -147 26 0 34 12 76 115 20 50 41 94 46 99 4 5 6 -50 2 -126 -5
-119 -4 -135 11 -141 27 -11 43 31 55 148 7 61 16 114 20 118 4 4 14 -39 20
-97 14 -117 28 -149 56 -126 14 12 15 27 10 114 -4 56 -9 109 -11 119 -12 41
19 11 63 -63 30 -51 53 -79 63 -78 27 5 21 42 -20 126 -27 56 -40 97 -40 125
0 23 -7 69 -15 102 -18 77 -19 121 -1 128 7 3 32 3 55 0 55 -8 75 9 67 57 -3
22 0 46 9 63 8 15 12 34 9 41 -3 9 3 17 15 21 27 8 26 33 -3 86 -16 30 -24 61
-25 97 -2 121 -52 200 -144 227 -73 22 -201 19 -254 -4z m117 -106 l23 -25 23
25 c67 73 164 -31 108 -115 -9 -14 -42 -51 -73 -83 l-55 -57 -59 57 c-32 32
-65 70 -73 85 -47 90 40 184 106 113z"/>
<path d="M9518 5585 c-93 -30 -137 -102 -142 -231 -2 -44 -10 -72 -30 -106
-24 -42 -25 -47 -11 -62 9 -9 21 -16 27 -16 5 0 8 -7 4 -15 -3 -8 0 -28 6 -43
6 -15 10 -43 9 -63 -2 -49 17 -63 73 -56 66 9 72 -4 53 -106 -9 -45 -19 -106
-23 -136 -3 -30 -23 -89 -45 -133 -21 -44 -35 -86 -32 -94 11 -30 39 -7 83 68
25 42 49 77 54 78 4 0 5 -53 1 -118 -6 -103 -5 -120 9 -132 13 -10 20 -10 28
-2 9 9 36 168 38 222 0 8 3 10 9 5 5 -6 14 -62 21 -125 12 -117 27 -154 57
-143 13 5 14 25 8 142 -7 142 -2 153 29 71 43 -113 69 -160 87 -160 31 0 31
17 0 117 -44 145 -53 190 -41 213 17 32 52 24 95 -20 29 -29 47 -40 64 -38 14
2 26 8 28 14 2 6 -41 62 -95 124 -88 100 -100 118 -106 159 -8 64 3 102 62
216 46 87 52 106 52 160 0 82 -34 154 -91 192 -37 24 -52 28 -138 30 -65 2
-111 -2 -143 -12z m92 -110 l23 -25 23 25 c69 74 163 -31 106 -117 -10 -15
-43 -52 -74 -82 l-55 -54 -61 61 c-70 72 -82 93 -82 141 0 70 73 101 120 51z"/>
<path d="M1417 2816 c-55 -25 -52 -36 9 -36 36 0 46 -5 63 -29 12 -16 21 -33
21 -38 -1 -4 -17 -19 -38 -33 -283 -194 -283 -194 -303 -182 -39 25 -37 0 4
-63 45 -68 70 -83 65 -39 -3 24 12 38 152 135 85 59 160 108 166 108 16 1 44
-44 44 -71 0 -13 -7 -34 -16 -47 -31 -43 0 -43 44 2 l41 42 -81 115 c-44 63
-85 125 -91 138 -12 27 -18 27 -80 -2z"/>
<path d="M8715 2735 c-79 -78 49 -246 222 -290 90 -23 153 6 153 72 0 47 -20
81 -79 136 -104 97 -243 136 -296 82z m133 -41 c77 -42 172 -113 202 -151 44
-56 8 -87 -72 -64 -48 15 -208 122 -242 162 -25 29 -34 68 -19 82 16 17 71 4
131 -29z"/>
<path d="M8540 2466 c0 -19 -4 -46 -10 -60 -11 -31 -4 -33 18 -7 17 19 21 17
152 -85 112 -88 135 -110 133 -130 -3 -35 8 -29 49 28 40 55 43 67 10 47 -17
-11 -36 1 -173 108 -85 66 -160 123 -166 127 -10 5 -13 -3 -13 -28z"/>
<path d="M1624 2467 c5 -21 -11 -37 -125 -130 -108 -88 -135 -106 -155 -101
-33 8 -30 0 18 -57 45 -53 63 -62 54 -26 -4 18 6 31 56 72 l61 49 44 -49 43
-50 -42 -39 c-66 -60 -86 -70 -102 -57 -10 8 -16 9 -21 2 -6 -11 73 -111 88
-111 4 0 6 11 5 24 -2 19 20 42 126 129 106 88 132 106 152 101 32 -8 30 -2
-13 54 -44 55 -58 62 -58 27 0 -17 -15 -37 -49 -65 -26 -22 -52 -40 -56 -40
-10 0 -80 85 -80 97 0 8 70 70 98 87 7 4 19 3 27 -4 9 -7 15 -8 20 -1 3 6 -11
33 -32 60 -41 54 -69 67 -59 28z"/>
<path d="M1872 2173 c3 -27 -10 -42 -114 -142 -90 -86 -122 -111 -140 -109
-13 2 -24 -1 -25 -7 -1 -5 37 -49 84 -97 l85 -88 44 26 c24 14 44 30 44 34 0
5 -22 7 -48 3 -46 -5 -49 -4 -81 32 l-33 38 53 53 c29 30 56 54 59 54 4 0 16
-13 28 -30 19 -25 20 -33 10 -49 -25 -41 4 -34 49 12 47 47 53 69 13 47 -18
-10 -26 -8 -46 11 -13 12 -24 28 -24 34 0 14 82 95 96 95 6 0 23 -13 38 -29
25 -26 28 -35 22 -70 -8 -50 3 -52 39 -5 l27 35 -83 87 c-46 48 -87 89 -92 91
-5 2 -7 -10 -5 -26z"/>
<path d="M8378 2095 c-60 -66 -69 -82 -42 -71 25 10 207 -160 199 -185 -10
-29 7 -23 48 19 44 45 46 56 9 47 -23 -5 -34 1 -61 29 -33 34 -34 36 -17 55
11 12 25 17 39 14 19 -5 17 -1 -12 30 -19 20 -38 34 -43 31 -5 -3 -3 -12 3
-20 10 -12 8 -19 -8 -35 -19 -20 -20 -20 -62 18 l-42 38 26 27 c20 22 31 26
58 22 31 -5 31 -5 12 11 -44 37 -48 36 -107 -30z"/>
<path d="M8221 1936 c-77 -42 -65 -169 21 -239 106 -86 242 -10 207 116 -12
43 -59 102 -100 123 -35 17 -96 18 -128 0z m112 -57 c76 -50 109 -126 71 -163
-24 -24 -57 -19 -110 17 -81 54 -115 125 -78 161 24 24 66 19 117 -15z"/>
<path d="M2215 1907 c5 -27 -9 -72 -74 -235 -45 -111 -81 -207 -81 -212 0 -21
24 -8 144 80 68 50 126 90 129 90 3 0 -21 -66 -54 -147 -32 -81 -59 -150 -59
-155 0 -19 29 -1 197 119 128 92 186 128 208 129 17 0 30 5 30 10 0 5 -19 26
-42 47 -42 39 -58 37 -48 -5 5 -21 -6 -33 -92 -94 -132 -95 -126 -93 -104 -37
10 26 37 94 60 151 23 56 41 105 41 107 0 16 -39 -6 -149 -85 -69 -49 -126
-88 -128 -86 -2 1 19 56 46 122 47 114 51 119 81 122 17 2 30 7 28 11 -5 13
-117 101 -128 101 -7 0 -9 -13 -5 -33z"/>
<path d="M7785 1728 c-53 -29 -73 -99 -37 -131 23 -21 61 -22 68 -2 9 22 -14
45 -43 45 -19 0 -24 4 -21 22 2 12 15 29 30 37 25 14 29 14 55 -5 15 -11 37
-36 47 -56 18 -33 18 -36 3 -68 -18 -35 -15 -52 5 -32 7 7 27 12 44 12 56 0
124 -89 110 -144 -13 -51 -66 -77 -66 -32 0 33 -23 50 -49 36 -43 -22 -11 -80
44 -80 64 0 128 88 111 154 -9 37 -62 94 -95 101 -15 3 -39 1 -53 -4 -26 -10
-26 -10 -11 20 41 81 -61 172 -142 127z"/>
<path d="M2533 1380 c-92 -69 -169 -120 -179 -118 -33 6 -23 -17 19 -44 45
-28 63 -28 47 2 -8 15 -3 24 25 49 20 17 40 31 46 31 7 0 89 -49 89 -54 0 0
-6 -21 -14 -46 -9 -32 -19 -46 -35 -50 -12 -3 -23 -8 -24 -11 -2 -8 101 -79
114 -79 5 0 6 13 3 29 -4 19 10 92 41 208 26 98 48 182 49 187 4 27 -37 4
-181 -104z m78 -27 c-9 -31 -21 -58 -26 -60 -6 -1 -21 6 -35 17 l-25 20 45 40
c25 22 48 40 51 40 4 0 -1 -26 -10 -57z"/>
<path d="M2782 1380 c-36 -44 -29 -59 16 -33 29 17 32 17 67 0 l36 -17 -19
-33 c-11 -17 -50 -85 -87 -150 -54 -95 -70 -117 -85 -112 -10 3 -21 2 -24 -3
-6 -10 114 -85 123 -77 3 3 0 14 -7 25 -10 16 -1 38 64 152 97 169 94 166 133
139 24 -18 31 -30 31 -57 0 -41 14 -44 28 -6 5 15 13 34 17 43 5 13 -17 29
-97 74 -57 32 -115 66 -130 77 -14 10 -28 18 -30 18 -1 0 -18 -18 -36 -40z"/>
<path d="M7493 1345 c-29 -20 -37 -59 -19 -94 37 -71 136 -47 136 33 0 60 -68
95 -117 61z"/>
<path d="M7052 1227 c-94 -48 -125 -76 -74 -69 18 3 32 -18 97 -147 65 -130
73 -154 63 -171 -7 -10 -9 -22 -6 -26 5 -4 180 75 227 104 2 1 0 23 -5 49 -11
59 -32 68 -36 16 -2 -30 -10 -42 -37 -60 -53 -36 -67 -31 -101 37 -16 33 -30
62 -30 64 0 3 14 13 31 21 29 15 32 15 50 -1 31 -28 33 -9 4 50 -29 60 -51 74
-40 28 5 -25 2 -30 -30 -45 l-35 -17 -30 60 c-16 33 -30 63 -30 68 0 5 19 17
41 28 39 17 43 17 71 1 45 -26 51 -21 22 23 -15 22 -32 40 -38 39 -6 0 -57
-23 -114 -52z"/>
<path d="M3112 1194 c-29 -44 -22 -53 22 -29 29 16 38 17 65 5 17 -7 31 -15
31 -18 0 -3 -32 -75 -72 -159 -43 -92 -76 -152 -83 -149 -7 2 -18 0 -25 -4
-10 -6 6 -18 53 -41 62 -31 96 -34 69 -7 -7 7 -12 18 -12 25 0 24 134 303 146
303 25 0 63 -41 66 -73 4 -43 19 -37 34 14 13 43 11 59 -7 59 -6 0 -63 25
-126 55 -64 30 -121 55 -127 55 -6 0 -21 -16 -34 -36z"/>
<path d="M6798 1105 c-34 -12 -79 -29 -98 -37 -36 -16 -35 -19 16 -33 12 -4
134 -285 134 -310 0 -8 -4 -15 -10 -15 -5 0 -10 -7 -10 -16 0 -18 6 -17 92 18
59 23 71 43 27 43 -19 0 -29 11 -53 60 -16 32 -25 60 -20 62 71 24 113 93 95
154 -26 87 -76 109 -173 74z m57 -31 c19 -8 55 -75 55 -103 0 -19 -35 -61 -51
-61 -3 0 -21 35 -38 77 -24 59 -28 79 -19 85 16 9 31 10 53 2z"/>
<path d="M3479 1019 c-31 -33 -45 -84 -35 -124 3 -13 26 -47 51 -75 49 -56 58
-95 27 -123 -45 -41 -112 -4 -112 62 0 21 -6 44 -13 50 -11 9 -16 0 -26 -45
-15 -64 -10 -73 53 -103 75 -37 140 -20 170 43 30 64 17 124 -39 176 -43 40
-57 74 -43 104 13 31 37 40 70 27 32 -12 46 -30 50 -65 5 -44 24 -42 35 3 9
35 8 42 -11 59 -34 31 -62 42 -106 42 -34 0 -48 -6 -71 -31z"/>
<path d="M6603 1032 c-46 -18 -54 -31 -23 -39 17 -5 19 -12 14 -72 -8 -98 -9
-98 -64 -39 -41 44 -49 58 -44 81 3 15 4 27 1 27 -2 0 -30 -9 -62 -20 -76 -26
-81 -26 -94 11 -8 24 -15 30 -28 24 -10 -4 -83 -23 -163 -43 -80 -20 -146 -37
-148 -38 -8 -5 11 -114 19 -114 10 0 14 8 23 51 6 26 41 49 76 49 22 0 19 7
75 -222 38 -154 39 -157 20 -178 -10 -11 -16 -22 -13 -25 5 -6 145 28 154 38
4 4 -5 11 -19 16 -29 11 -26 3 -82 233 -22 86 -37 160 -33 163 3 3 21 8 41 12
29 4 40 1 67 -26 35 -33 57 -33 40 0 -24 43 48 -6 117 -82 57 -62 75 -89 93
-144 21 -62 21 -69 6 -77 -9 -5 -16 -15 -16 -22 0 -11 18 -8 76 11 71 24 83
37 40 45 -14 2 -25 22 -41 68 -20 60 -21 73 -11 172 6 59 17 113 24 120 13 13
17 39 5 37 -5 -1 -27 -9 -50 -17z"/>
<path d="M3965 769 c-81 -128 -129 -196 -147 -205 -34 -18 -36 -34 -4 -34 12
0 37 -5 55 -11 39 -14 48 -6 32 25 -12 21 -10 30 15 73 l27 50 58 -15 57 -14
4 -55 c3 -60 1 -66 -24 -76 -27 -10 -22 -26 10 -32 15 -3 51 -12 80 -19 55
-14 65 -7 37 24 -12 13 -19 69 -31 226 -17 238 -20 254 -37 254 -6 0 -66 -86
-132 -191z m91 -86 c-3 -3 -79 18 -84 22 -2 2 14 33 35 68 l38 65 7 -76 c3
-42 5 -78 4 -79z"/>
<path d="M4290 830 c0 -5 7 -13 16 -18 15 -8 15 -22 -6 -158 -28 -192 -28
-194 -51 -194 -10 0 -19 -7 -19 -15 0 -10 10 -15 33 -15 17 0 52 -5 76 -11 54
-12 63 -5 28 24 -27 22 -27 22 -15 90 6 37 16 66 21 64 6 -2 26 -45 45 -96 37
-96 41 -101 110 -114 37 -7 42 6 12 31 -10 10 -33 52 -50 95 l-30 78 34 29
c41 37 53 84 32 134 -18 43 -51 61 -143 75 -87 13 -93 13 -93 1z m148 -56 c17
-12 22 -25 22 -60 0 -51 -25 -84 -66 -84 -26 0 -26 1 -20 48 18 123 20 127 64
96z"/>
<path d="M5635 802 c-66 -8 -126 -16 -132 -18 -8 -2 -13 -22 -13 -54 0 -53 15
-67 26 -25 8 31 40 55 74 55 26 0 26 0 43 -142 21 -174 21 -192 2 -208 -26
-22 -8 -27 66 -17 l72 10 -25 21 c-23 19 -27 33 -44 178 -9 87 -16 159 -13
161 2 2 17 7 32 11 23 6 33 1 58 -25 16 -17 32 -29 36 -26 3 4 0 27 -7 52 -10
36 -17 45 -34 44 -11 -1 -75 -9 -141 -17z"/>
<path d="M4606 789 c-2 -8 -9 -29 -15 -48 -15 -47 0 -58 27 -21 19 25 30 30
63 30 l40 0 -6 -62 c-3 -35 -10 -110 -15 -168 -8 -89 -12 -106 -31 -121 l-22
-16 33 -6 c18 -4 53 -7 79 -7 46 1 46 1 24 19 -21 18 -21 18 -7 177 7 87 13
162 14 167 0 4 16 7 35 7 30 0 39 -5 56 -35 12 -19 25 -35 30 -35 8 0 4 63 -6
96 -2 7 -53 13 -133 17 -72 4 -137 10 -146 13 -9 3 -18 0 -20 -7z"/>
<path d="M5253 761 c-55 -35 -66 -132 -20 -182 11 -12 41 -30 66 -41 64 -28
81 -46 81 -84 0 -40 -22 -64 -59 -64 -30 0 -53 18 -82 68 -27 45 -38 33 -26
-29 11 -56 30 -70 99 -71 84 -1 128 42 128 125 0 59 -25 89 -111 133 -64 32
-69 36 -69 67 0 40 15 57 51 57 41 0 58 -9 75 -41 22 -44 37 -37 29 14 -4 23
-10 46 -15 50 -4 5 -31 10 -61 13 -43 4 -61 1 -86 -15z"/>
<path d="M4980 760 c0 -6 7 -13 15 -16 13 -5 15 -35 15 -179 0 -165 -1 -174
-20 -180 -40 -13 -19 -23 51 -27 74 -3 93 4 59 22 -19 10 -20 20 -20 148 0
158 7 212 26 212 8 0 14 7 14 15 0 12 -14 15 -70 15 -41 0 -70 -4 -70 -10z"/>
</g>
</svg>
