<?xml version="1.0" standalone="no"?>
<!DOCTYPE svg PUBLIC "-//W3C//DTD SVG 20010904//EN"
 "http://www.w3.org/TR/2001/REC-SVG-20010904/DTD/svg10.dtd">
<svg version="1.0" xmlns="http://www.w3.org/2000/svg"
 width="1021.000000pt" height="1021.000000pt" viewBox="0 0 1021.000000 1021.000000"
 preserveAspectRatio="xMidYMid meet">

<g transform="translate(0.000000,1021.000000) scale(0.100000,-0.100000)"
fill="#000000" stroke="none">
<path d="M4795 10204 c-22 -2 -96 -9 -165 -14 -1636 -141 -3134 -1107 -3964
-2558 -851 -1486 -887 -3348 -97 -4867 506 -972 1308 -1756 2286 -2235 547
-268 1091 -425 1720 -497 200 -22 808 -26 1005 -5 1260 132 2327 648 3200
1548 683 704 1146 1598 1334 2569 100 519 116 1166 41 1683 -123 847 -448
1640 -945 2307 -289 390 -664 768 -1045 1056 -728 551 -1596 892 -2535 995
-136 15 -733 28 -835 18z m855 -88 c614 -73 1125 -222 1655 -481 228 -112 368
-192 575 -329 941 -625 1643 -1540 2000 -2606 386 -1155 335 -2438 -142 -3555
-615 -1439 -1860 -2514 -3368 -2909 -600 -157 -1270 -200 -1905 -121 -843 105
-1675 441 -2363 954 -382 285 -759 661 -1037 1036 -481 646 -801 1397 -930
2183 -50 306 -59 424 -60 807 0 367 7 476 46 745 126 876 494 1719 1052 2415
810 1010 1990 1678 3257 1845 260 34 351 38 725 35 252 -2 401 -8 495 -19z"/>
<path d="M5036 9908 c-8 -13 -60 -133 -117 -267 -97 -228 -105 -245 -136 -257
-18 -8 -33 -20 -33 -27 0 -10 24 -12 98 -10 70 2 97 6 97 15 0 7 -10 14 -22
16 -39 6 -42 23 -15 95 l25 67 96 0 96 0 24 -58 c13 -31 25 -63 28 -70 3 -7
-7 -17 -26 -23 -17 -6 -31 -17 -31 -25 0 -12 22 -14 128 -12 102 2 127 6 127
17 0 8 -14 18 -30 23 -28 7 -38 24 -139 250 -115 257 -131 288 -146 288 -5 0
-16 -10 -24 -22z m28 -227 c20 -45 36 -85 36 -87 0 -2 -31 -4 -70 -4 -38 0
-70 4 -70 9 0 13 62 172 66 168 2 -1 19 -40 38 -86z"/>
<path d="M4689 9906 c-2 -2 -105 -17 -229 -32 -124 -15 -228 -30 -231 -33 -4
-3 -9 -34 -13 -68 -5 -56 -4 -63 12 -63 11 0 25 14 35 35 21 45 50 62 117 70
l55 7 28 -224 c15 -122 27 -229 27 -236 0 -7 -13 -18 -30 -23 -30 -11 -38 -23
-21 -33 8 -5 99 4 209 20 37 6 45 34 10 34 -13 0 -28 4 -34 8 -9 5 -76 459
-70 469 1 1 31 5 68 9 l66 7 44 -41 c29 -27 48 -38 57 -33 10 7 10 14 -2 37
-8 16 -18 44 -22 62 -6 28 -11 32 -39 32 -18 0 -35 -2 -37 -4z"/>
<path d="M5457 9904 c-14 -14 -7 -25 23 -35 36 -13 36 2 9 -265 -21 -218 -26
-234 -71 -234 -10 0 -18 -6 -18 -14 0 -15 28 -20 173 -32 84 -7 100 4 47 31
-36 19 -35 4 -10 255 11 107 20 203 20 212 0 11 12 20 32 26 18 4 34 15 36 24
2 12 -15 16 -101 21 -58 4 -111 9 -119 12 -8 3 -17 2 -21 -1z"/>
<path d="M5820 9857 c0 -8 11 -19 25 -25 14 -7 25 -20 25 -31 0 -23 -88 -430
-96 -442 -3 -5 -18 -9 -35 -9 -16 0 -29 -4 -29 -10 0 -5 0 -13 0 -17 0 -5 26
-13 58 -19 31 -7 72 -15 90 -19 26 -6 32 -4 32 9 0 9 -11 22 -25 28 -14 6 -25
18 -25 27 0 30 74 361 79 355 3 -3 65 -116 136 -252 105 -200 134 -248 153
-250 12 -2 22 -1 22 1 0 17 102 477 110 495 7 16 18 22 40 22 19 0 30 5 30 14
0 8 -27 19 -77 29 -43 8 -86 19 -95 22 -14 5 -18 2 -18 -14 0 -12 6 -21 13
-21 8 0 21 -8 30 -18 16 -17 14 -29 -15 -166 -28 -131 -34 -146 -45 -129 -8
10 -53 92 -100 183 -117 224 -109 215 -194 234 -86 19 -89 19 -89 3z"/>
<path d="M3770 9730 c-58 -15 -117 -31 -132 -34 -44 -10 -35 -36 12 -36 22 0
40 -1 40 -2 0 -2 27 -102 59 -223 32 -121 56 -225 54 -231 -2 -6 -15 -16 -29
-22 -32 -15 -33 -47 -1 -38 12 4 72 19 132 35 77 20 111 34 113 45 3 13 -6 16
-42 16 -25 0 -48 5 -51 10 -4 6 -17 49 -29 95 -22 80 -22 85 -5 90 13 4 48
-18 116 -75 140 -116 140 -116 235 -94 61 13 78 21 76 33 -2 10 -18 18 -44 22
-33 4 -62 22 -138 83 -53 43 -96 82 -96 86 0 4 7 14 17 21 29 24 55 97 47 132
-25 116 -127 143 -334 87z m161 -40 c50 -27 66 -130 26 -168 -24 -22 -84 -48
-93 -39 -11 10 -55 190 -50 203 6 17 87 19 117 4z"/>
<path d="M6530 9691 c0 -10 12 -26 26 -36 31 -20 35 -6 -58 -257 l-72 -197
-40 -3 c-22 -2 -41 -8 -43 -14 -2 -6 62 -34 144 -64 82 -29 172 -64 202 -77
29 -13 61 -23 70 -23 23 1 96 109 82 123 -7 7 -22 2 -52 -19 -54 -37 -97 -36
-184 5 -75 35 -73 21 -23 153 l29 77 57 -21 c72 -27 85 -37 78 -61 -6 -24 3
-47 18 -47 9 0 34 61 63 153 8 25 -25 22 -47 -5 -18 -22 -18 -22 -71 -5 -86
27 -84 22 -48 123 18 49 33 91 35 93 2 2 38 -9 79 -24 80 -29 102 -50 114
-108 4 -17 14 -33 22 -35 11 -2 17 13 25 63 5 37 7 68 4 70 -3 2 -79 30 -170
63 -91 33 -182 67 -202 76 -36 16 -38 15 -38 -3z"/>
<path d="M3360 9592 c-30 -14 -113 -49 -185 -79 -134 -54 -161 -78 -90 -78
l39 0 90 -214 89 -214 -26 -23 c-22 -19 -37 -54 -23 -54 2 0 33 14 69 31 36
16 130 56 209 88 l143 59 -3 63 c-2 35 -8 68 -12 73 -15 16 -40 -3 -40 -29 0
-51 -28 -85 -96 -116 -35 -16 -76 -29 -91 -29 -26 0 -31 7 -66 92 -20 50 -36
92 -35 93 2 1 31 13 66 28 l63 27 24 -26 c14 -15 31 -24 39 -21 13 5 11 16
-13 69 -16 35 -31 71 -35 81 -10 30 -31 14 -36 -27 -5 -36 -9 -39 -64 -62 -33
-13 -63 -21 -66 -17 -14 15 -71 165 -68 175 6 16 118 58 156 58 18 0 47 -9 63
-21 16 -11 36 -18 44 -15 12 4 7 17 -22 61 -20 30 -44 55 -53 54 -8 0 -40 -12
-70 -27z"/>
<path d="M7103 9474 c-3 -8 6 -25 21 -39 l27 -25 -61 -115 c-164 -307 -152
-290 -195 -290 -61 0 -53 -21 23 -59 38 -19 92 -48 121 -65 44 -26 53 -28 58
-15 4 10 -6 25 -28 44 l-34 28 45 86 c66 126 76 120 101 -64 9 -69 22 -137 27
-151 10 -25 123 -99 151 -99 18 0 13 20 -13 50 -23 28 -30 59 -52 238 l-7 52
29 0 c16 0 48 9 72 20 34 15 47 29 63 66 24 54 20 91 -15 144 -25 37 -71 69
-229 155 -77 42 -99 50 -104 39z m193 -145 c58 -36 69 -81 35 -148 -28 -54
-67 -69 -126 -46 -25 9 -45 21 -45 27 0 12 92 188 99 188 2 0 19 -9 37 -21z"/>
<path d="M2820 9342 c-52 -32 -153 -92 -225 -132 -71 -41 -132 -75 -134 -77
-2 -1 5 -32 15 -68 23 -80 46 -85 54 -13 7 53 29 83 90 117 l39 22 87 -148
c48 -81 100 -169 115 -196 34 -56 35 -64 9 -92 -12 -12 -16 -25 -11 -33 6 -11
20 -6 62 21 30 18 78 46 107 62 51 27 65 44 40 46 -7 0 -26 2 -42 2 -28 2 -39
17 -142 192 -62 105 -113 195 -114 201 0 16 93 64 124 64 14 0 41 -8 61 -17
60 -28 63 -4 8 56 l-48 51 -95 -58z"/>
<path d="M4830 9154 c-19 -2 -87 -9 -150 -15 -529 -49 -1111 -237 -1589 -513
-1543 -890 -2328 -2662 -1945 -4391 142 -640 432 -1224 863 -1740 103 -124
374 -393 504 -500 601 -498 1296 -800 2087 -907 224 -30 757 -33 975 -5 651
85 1245 303 1765 650 902 602 1526 1530 1735 2582 194 975 26 1983 -473 2835
-396 678 -992 1234 -1698 1588 -320 160 -687 284 -1039 352 -251 48 -398 61
-705 65 -162 2 -311 1 -330 -1z m530 -69 c323 -15 699 -90 1039 -207 429 -148
839 -375 1201 -664 173 -138 465 -431 604 -604 669 -837 972 -1866 860 -2928
-96 -919 -515 -1776 -1190 -2432 -939 -912 -2264 -1304 -3549 -1049 -1503 298
-2717 1454 -3089 2939 -88 355 -121 656 -113 1050 6 290 12 354 52 596 158
947 680 1828 1447 2440 654 524 1460 827 2293 864 157 6 191 6 445 -5z"/>
<path d="M4810 8994 c-1103 -95 -2073 -611 -2756 -1467 -461 -577 -738 -1255
-826 -2022 -17 -144 -17 -646 0 -790 106 -919 488 -1720 1123 -2354 630 -631
1416 -1010 2329 -1123 167 -21 721 -18 890 5 803 107 1506 423 2100 944 368
322 697 748 912 1178 421 840 524 1800 291 2710 -325 1272 -1284 2305 -2530
2724 -245 82 -492 139 -775 177 -108 15 -648 27 -758 18z m489 -64 c368 -20
678 -79 1012 -190 1316 -439 2305 -1574 2553 -2930 47 -259 60 -405 60 -700 0
-295 -13 -441 -60 -700 -166 -908 -672 -1739 -1409 -2316 -817 -639 -1854
-917 -2885 -773 -1218 169 -2288 927 -2860 2023 -220 421 -350 845 -412 1346
-8 66 -13 222 -13 420 0 198 5 354 13 420 94 757 363 1400 830 1984 121 152
401 434 550 554 608 492 1337 791 2082 852 253 20 327 22 539 10z"/>
<path d="M4648 7877 l-26 -22 151 -207 c84 -114 154 -207 157 -207 3 -1 18 9
33 22 l29 23 -151 204 c-83 113 -155 206 -159 207 -4 1 -19 -8 -34 -20z"/>
<path d="M5353 7692 l-151 -207 26 -22 c15 -12 30 -21 34 -20 4 1 75 94 158
207 l151 205 -28 22 c-15 13 -30 23 -33 23 -3 0 -73 -94 -157 -208z"/>
<path d="M4830 6515 l-265 -815 -857 0 c-472 0 -858 -3 -858 -7 0 -5 311 -233
690 -508 379 -275 690 -504 690 -508 0 -5 -117 -369 -260 -809 -143 -441 -259
-805 -258 -809 2 -5 312 216 691 491 378 275 690 500 693 500 3 0 316 -225
696 -501 379 -276 691 -499 692 -497 2 1 -116 369 -261 816 -145 448 -263 815
-261 816 2 2 316 229 698 507 l695 504 -865 5 -864 5 -263 809 c-144 445 -264
810 -266 812 -1 2 -122 -363 -267 -811z"/>
<path d="M3775 7050 l-78 -240 -254 -2 -253 -3 205 -149 c113 -82 204 -154
202 -160 -3 -9 -88 -266 -147 -449 l-9 -28 47 34 c26 19 115 83 197 144 83 60
155 112 162 116 7 5 94 -52 217 -143 113 -82 206 -147 206 -144 0 3 -34 108
-75 234 -41 126 -75 234 -75 242 0 7 91 78 202 158 l202 145 -254 3 -255 3
-74 232 c-41 128 -78 235 -81 240 -3 4 -41 -101 -85 -233z"/>
<path d="M6255 7051 l-79 -241 -253 -2 -253 -3 204 -148 204 -148 -44 -137
c-24 -75 -59 -184 -78 -240 -23 -66 -31 -102 -22 -99 7 3 99 68 206 146 148
108 196 138 209 131 9 -5 102 -71 206 -148 105 -77 191 -138 192 -137 2 1 -32
110 -76 242 l-78 241 205 149 204 148 -254 3 -253 2 -74 229 c-41 127 -77 235
-81 241 -4 6 -42 -97 -85 -229z"/>
<path d="M2478 6329 l-28 -21 64 -91 c35 -51 101 -146 148 -213 l84 -121 32
22 32 22 -146 211 c-81 117 -149 212 -153 212 -3 0 -18 -10 -33 -21z"/>
<path d="M7538 6141 c-76 -109 -140 -205 -143 -212 -3 -9 7 -22 25 -33 17 -10
33 -16 34 -14 31 40 278 401 282 411 5 13 -34 47 -53 47 -4 0 -70 -90 -145
-199z"/>
<path d="M2565 5650 c-49 -16 -156 -49 -236 -74 l-147 -46 11 -35 c6 -19 14
-35 18 -35 11 0 480 147 485 152 8 9 -18 68 -29 68 -7 -1 -52 -14 -102 -30z"/>
<path d="M7509 5653 c-9 -26 -12 -53 -5 -53 4 0 257 -79 468 -146 12 -3 19 5
28 31 7 20 10 37 8 39 -1 1 -57 19 -123 39 -66 21 -175 55 -243 76 l-123 39
-10 -25z"/>
<path d="M3184 4813 l-79 -243 -255 -2 -255 -3 198 -144 c110 -79 201 -149
204 -156 2 -7 -30 -118 -71 -246 -42 -128 -75 -234 -73 -235 1 -1 94 65 206
147 127 93 208 146 215 140 16 -12 335 -243 372 -269 l32 -22 -44 138 c-24 75
-59 184 -79 242 -33 99 -34 106 -18 118 10 7 103 75 207 150 l188 137 -255 3
-254 2 -80 243 -80 242 -79 -242z"/>
<path d="M6848 4808 l-75 -233 -256 -5 -255 -5 200 -145 c110 -80 202 -148
204 -152 3 -4 -29 -112 -70 -240 -42 -127 -74 -234 -71 -236 2 -2 94 62 205
142 l201 146 200 -146 c110 -80 202 -144 205 -142 2 3 -30 109 -71 237 -42
127 -74 235 -71 239 2 4 94 72 204 152 l200 145 -255 5 -255 5 -76 233 c-42
127 -79 232 -82 232 -4 0 -40 -105 -82 -232z"/>
<path d="M5017 3410 l-78 -240 -256 -2 -257 -3 207 -150 c145 -105 205 -154
202 -165 -82 -245 -150 -468 -141 -463 11 6 87 61 292 210 l111 81 204 -148
c112 -82 205 -148 206 -146 2 1 -31 106 -72 233 -41 127 -75 236 -75 242 0 5
88 74 195 152 108 78 198 146 201 151 3 4 -109 8 -248 8 l-254 0 -73 229 c-41
126 -77 234 -81 240 -3 6 -41 -97 -83 -229z"/>
<path d="M3325 3020 c-82 -27 -189 -60 -237 -75 -91 -27 -96 -32 -79 -78 l9
-24 244 75 c134 41 245 76 246 78 6 5 -19 74 -26 73 -4 -1 -74 -23 -157 -49z"/>
<path d="M6686 3028 c-3 -17 -3 -35 1 -38 18 -15 476 -151 484 -143 4 4 9 21
11 37 l3 29 -235 73 c-129 41 -240 74 -246 74 -6 0 -14 -14 -18 -32z"/>
<path d="M3680 2610 l0 -260 40 0 40 0 0 260 0 260 -40 0 -40 0 0 -260z"/>
<path d="M6430 2611 l0 -261 40 0 40 0 -2 258 -3 257 -37 3 -38 3 0 -260z"/>
<path d="M2321 9036 c-6 -7 -38 -33 -71 -56 -72 -53 -66 -78 11 -46 13 6 41
-22 117 -116 55 -67 99 -124 98 -125 -1 -2 -106 18 -234 43 l-231 47 -65 -49
c-79 -57 -83 -81 -10 -59 18 6 41 -20 159 -167 76 -95 142 -178 147 -184 5 -7
2 -24 -9 -42 -23 -40 -10 -52 25 -24 15 13 49 39 75 59 34 25 45 39 37 47 -7
7 -19 7 -41 -1 -29 -11 -31 -10 -89 60 -109 134 -178 222 -176 224 1 2 128
-22 281 -53 249 -50 279 -54 293 -40 11 11 12 19 5 28 -242 301 -313 392 -313
401 0 6 7 18 16 28 9 10 13 23 9 28 -9 15 -20 14 -34 -3z"/>
<path d="M7845 8734 c-215 -111 -244 -123 -277 -118 -21 3 -42 3 -48 -1 -5 -3
24 -33 66 -67 58 -45 78 -57 85 -47 5 8 2 20 -8 31 -22 25 -15 35 54 73 l61
35 71 -58 c39 -31 71 -64 70 -72 0 -8 -8 -40 -18 -70 -16 -53 -18 -55 -53 -55
-20 0 -39 -3 -42 -6 -4 -3 19 -26 51 -50 32 -24 77 -61 100 -82 34 -31 44 -36
49 -24 3 8 -1 28 -9 44 -14 26 -10 44 59 292 41 146 73 272 72 280 -2 9 -12
17 -23 18 -11 1 -128 -54 -260 -123z m129 -59 c-13 -44 -27 -86 -29 -93 -3 -9
-22 1 -59 30 -30 24 -55 46 -55 50 -1 6 162 99 166 94 1 -1 -9 -38 -23 -81z"/>
<path d="M8415 8570 c-3 -5 2 -24 12 -40 20 -35 43 -8 -180 -214 -81 -75 -151
-136 -155 -136 -4 0 -16 7 -26 15 -24 18 -46 19 -46 3 1 -7 43 -58 95 -112 74
-78 96 -96 101 -83 3 10 -1 28 -10 42 -26 40 -19 57 53 122 95 87 101 78 65
-104 -15 -77 -24 -149 -21 -163 8 -32 102 -138 113 -127 4 4 3 26 -3 48 -9 34
-6 62 13 162 13 67 24 123 24 124 0 0 28 -1 61 -4 80 -8 120 12 150 74 24 50
21 96 -12 152 -22 37 -210 251 -221 251 -4 0 -10 -4 -13 -10z m140 -197 c37
-56 34 -97 -14 -144 -51 -52 -87 -52 -139 -4 l-37 36 79 74 c44 41 81 75 82
75 2 0 15 -17 29 -37z"/>
<path d="M1597 8390 c-104 -113 -144 -162 -133 -166 8 -3 26 2 41 12 30 20 7
37 223 -166 117 -110 142 -138 137 -155 -26 -80 -13 -85 47 -17 23 26 91 97
150 158 60 60 108 116 108 123 0 21 -64 121 -75 117 -6 -2 -9 -28 -7 -59 2
-35 -2 -67 -12 -84 -15 -30 -109 -123 -123 -123 -4 1 -41 32 -81 69 l-74 68
50 53 c48 53 49 54 81 40 59 -24 54 2 -14 70 -53 53 -65 61 -71 46 -4 -9 -1
-29 5 -42 13 -28 -1 -55 -56 -106 l-28 -26 -75 69 -75 69 68 66 67 66 55 -7
c73 -9 73 9 1 53 -30 17 -56 32 -58 32 -1 0 -70 -72 -151 -160z"/>
<path d="M8783 8084 c-67 -30 -64 -54 6 -54 26 0 56 -6 67 -14 31 -22 79 -95
68 -105 -31 -30 -366 -261 -378 -261 -7 0 -19 7 -26 15 -14 17 -40 20 -40 6 0
-6 24 -43 53 -83 28 -41 59 -85 69 -98 12 -19 19 -22 28 -14 9 9 9 17 0 33 -6
12 -10 26 -8 31 2 5 89 70 193 145 212 151 190 145 243 56 l26 -44 -18 -49
c-16 -45 -15 -68 3 -68 4 0 27 23 51 51 30 35 40 55 34 64 -74 101 -255 358
-269 383 -23 38 -33 38 -102 6z"/>
<path d="M1198 7908 c-7 -12 -58 -89 -113 -172 -55 -83 -104 -157 -108 -164
-15 -24 23 -25 48 -2 13 12 31 20 39 17 43 -17 376 -249 376 -263 0 -8 -4 -24
-10 -34 -7 -13 -6 -21 3 -29 10 -8 38 27 123 155 60 91 117 177 126 192 16 27
16 27 -32 82 -39 43 -52 52 -62 42 -9 -9 -8 -19 5 -47 22 -47 21 -77 -3 -125
-21 -42 -77 -110 -90 -110 -6 0 -154 93 -168 105 -2 2 15 31 38 65 35 51 45
60 63 54 24 -7 25 -7 45 -5 25 2 10 19 -58 64 -93 62 -109 61 -73 -1 17 -29
16 -30 -17 -86 -19 -31 -38 -56 -43 -56 -6 0 -141 86 -165 106 -6 4 73 117 94
136 11 10 40 18 69 20 68 4 64 23 -10 53 -33 14 -61 25 -62 25 -2 0 -8 -10
-15 -22z"/>
<path d="M9207 7563 c-4 -4 -5 -21 -1 -38 l6 -32 -200 -112 c-110 -61 -207
-111 -216 -111 -9 0 -19 7 -22 15 -4 8 -15 15 -26 15 -25 0 -24 -2 41 -115 28
-49 51 -93 51 -98 0 -5 6 -7 13 -4 7 2 12 20 12 41 l0 37 195 110 c107 60 203
109 213 109 10 0 20 -7 23 -15 6 -14 44 -22 44 -9 0 10 -115 213 -121 214 -3
0 -9 -3 -12 -7z"/>
<path d="M879 7399 c-13 -30 -36 -78 -51 -108 -15 -29 -28 -57 -28 -62 0 -16
23 -10 46 12 l22 20 91 -43 92 -43 -52 -107 c-29 -60 -55 -108 -58 -108 -3 0
-44 19 -91 43 -82 40 -85 43 -85 76 0 19 -4 36 -10 37 -8 3 -88 -152 -113
-217 -8 -19 37 -8 50 13 l15 22 74 -34 c41 -18 138 -64 217 -102 143 -67 143
-68 140 -99 -6 -64 21 -38 71 67 36 75 48 111 41 118 -7 7 -18 2 -35 -16 l-25
-27 -99 46 -100 46 23 51 c44 98 80 166 88 166 5 0 49 -20 98 -45 85 -42 89
-46 92 -80 2 -19 8 -35 13 -34 6 1 33 50 62 110 41 86 48 109 35 109 -8 0 -25
-9 -37 -20 l-22 -20 -209 99 c-205 97 -209 99 -210 130 -1 58 -20 58 -45 0z"/>
<path d="M9275 7187 c-92 -37 -105 -64 -105 -225 0 -113 -2 -123 -24 -148 -17
-21 -33 -28 -59 -28 -45 0 -71 23 -93 80 -22 57 -13 106 26 155 30 37 38 63
22 73 -5 3 -36 -14 -71 -36 l-62 -41 6 -41 c11 -70 45 -163 74 -204 74 -101
225 -96 279 8 19 39 22 59 22 172 0 115 2 130 20 148 42 42 106 15 136 -56 21
-50 17 -95 -11 -136 -45 -67 -28 -81 44 -36 57 35 58 37 25 154 -33 122 -139
197 -229 161z"/>
<path d="M589 6756 c-5 -6 -9 -19 -9 -30 -1 -16 -93 -327 -136 -457 -4 -12 10
-25 52 -48 32 -17 61 -31 66 -31 17 0 7 33 -18 63 -23 27 -25 38 -21 82 2 27
9 62 15 76 l11 27 223 -67 223 -67 3 -37 c5 -57 27 -45 47 26 9 34 25 86 35
114 22 63 9 81 -26 38 l-23 -29 -222 67 c-122 37 -224 69 -226 70 -6 7 32 107
49 126 9 11 35 25 57 31 30 8 41 16 41 30 0 16 -9 19 -66 22 -36 1 -69 -1 -75
-6z"/>
<path d="M9474 6748 c-8 -13 22 -38 47 -38 33 0 69 -40 85 -96 9 -31 13 -58
10 -61 -7 -7 -425 -133 -441 -133 -6 0 -17 11 -23 25 -10 23 -42 36 -42 18 0
-5 14 -51 30 -103 17 -51 30 -102 30 -113 0 -12 6 -17 18 -15 11 2 17 13 17
32 0 16 7 33 15 38 8 4 110 37 227 72 l212 63 16 -52 c23 -79 18 -102 -28
-153 -14 -15 -18 -25 -10 -33 13 -13 123 39 123 58 0 7 -25 93 -55 191 -30 97
-62 207 -71 245 l-17 67 -68 0 c-40 0 -71 -5 -75 -12z"/>
<path d="M436 5595 c-84 -30 -135 -109 -136 -212 0 -56 5 -72 57 -170 52 -100
57 -113 57 -174 0 -76 0 -75 -128 -219 -42 -46 -75 -89 -73 -95 2 -5 16 -11
31 -13 21 -3 35 6 64 37 41 45 75 53 92 20 14 -24 4 -74 -40 -211 -35 -111
-35 -114 -13 -122 24 -10 37 8 83 119 22 54 43 102 47 105 3 3 2 -57 -2 -133
-6 -124 -5 -138 11 -144 28 -11 41 21 54 140 7 61 16 119 21 127 7 13 8 13 9
0 3 -60 29 -213 38 -222 6 -6 18 -8 28 -4 15 6 16 19 9 132 -5 88 -4 125 3
120 6 -4 30 -40 53 -81 42 -73 70 -94 82 -61 3 8 -11 50 -32 94 -22 44 -42
102 -45 133 -4 30 -14 89 -22 132 -20 101 -16 111 41 105 58 -7 87 12 84 56
-1 17 3 44 10 60 6 16 9 37 6 47 -4 13 -1 19 8 19 8 0 20 6 27 14 9 12 6 24
-16 61 -21 36 -28 62 -30 114 -5 124 -54 195 -156 226 -63 18 -170 19 -222 0z
m93 -113 l28 -27 25 27 c31 33 56 35 92 7 21 -17 26 -29 26 -66 0 -42 -5 -50
-67 -116 -38 -40 -69 -74 -71 -76 -5 -8 -123 113 -138 141 -22 41 -18 85 11
113 32 32 60 31 94 -3z"/>
<path d="M9537 5600 c-114 -29 -167 -102 -168 -234 -1 -45 -7 -72 -25 -102
-29 -50 -30 -71 -4 -79 12 -4 20 -14 19 -23 -1 -9 3 -29 9 -44 6 -15 8 -42 5
-61 -7 -46 20 -66 82 -59 59 6 63 -7 42 -118 -10 -48 -17 -103 -17 -124 0 -23
-15 -66 -40 -116 -45 -89 -50 -120 -21 -120 13 0 33 24 66 80 50 85 69 100 61
48 -11 -68 -17 -194 -10 -211 8 -22 41 -22 48 1 3 9 10 60 17 112 17 143 22
140 42 -29 14 -119 25 -146 52 -137 6 2 9 56 8 141 -1 75 2 134 7 129 5 -5 25
-51 45 -102 36 -90 56 -122 76 -122 23 0 20 38 -11 136 -38 123 -48 188 -30
209 20 24 43 18 85 -25 40 -41 81 -53 91 -26 3 9 -33 58 -95 128 l-101 113 0
68 c0 63 4 77 54 175 63 124 71 158 56 227 -26 115 -93 167 -225 171 -44 2
-97 -1 -118 -6z m62 -118 l28 -27 25 27 c32 35 61 36 93 3 19 -18 25 -35 25
-66 0 -37 -7 -48 -67 -112 -38 -40 -69 -74 -71 -76 -5 -8 -123 113 -138 141
-22 41 -18 85 11 113 32 32 60 31 94 -3z"/>
<path d="M1418 2827 c-60 -28 -64 -50 -9 -41 36 6 43 3 70 -27 17 -18 31 -36
31 -39 -1 -3 -73 -54 -161 -113 -140 -95 -164 -108 -190 -102 -16 4 -29 4 -29
0 0 -15 84 -134 92 -129 4 3 8 17 8 32 1 24 21 41 162 136 l161 109 18 -24
c20 -26 25 -84 9 -94 -12 -7 -14 -45 -2 -45 4 0 25 18 47 40 l38 39 -41 58
c-23 32 -65 95 -94 140 -29 45 -55 82 -58 82 -3 -1 -26 -11 -52 -22z"/>
<path d="M8711 2742 c-17 -17 -31 -41 -31 -54 1 -69 87 -168 185 -214 101 -48
181 -41 211 19 14 27 14 33 -1 72 -34 90 -173 189 -284 202 -46 5 -52 3 -80
-25z m161 -59 c114 -69 188 -137 188 -174 0 -45 -35 -48 -116 -10 -121 57
-244 157 -244 200 0 56 62 50 172 -16z"/>
<path d="M8530 2466 c0 -24 -3 -53 -7 -63 -6 -17 -5 -17 15 1 21 19 22 18 89
-34 38 -29 99 -76 136 -104 61 -46 68 -54 63 -78 -3 -16 -4 -28 -1 -28 7 0 85
106 85 115 0 4 -8 0 -19 -9 -18 -16 -26 -11 -178 107 -87 68 -164 126 -171
131 -9 5 -12 -5 -12 -38z"/>
<path d="M1619 2493 c-1 -5 -1 -16 0 -25 1 -11 -45 -56 -126 -123 -114 -94
-131 -105 -157 -99 -15 3 -27 2 -25 -3 8 -17 84 -112 92 -112 4 -1 7 12 7 28
0 24 11 38 58 75 l57 46 42 -47 c24 -27 42 -51 40 -55 -1 -5 -27 -28 -57 -53
-45 -37 -60 -44 -82 -39 -16 3 -28 2 -28 -3 1 -4 23 -33 50 -63 l50 -55 0 31
c0 33 -6 27 203 197 46 37 62 45 73 36 7 -6 18 -8 23 -4 12 7 -69 115 -84 111
-5 -1 -10 -13 -10 -25 0 -15 -18 -39 -51 -67 l-52 -45 -43 52 -43 52 49 44
c40 35 56 43 76 39 15 -3 29 -3 32 0 6 7 -74 112 -85 113 -5 1 -9 -2 -9 -6z"/>
<path d="M1867 2204 c-4 -4 -4 -17 -1 -29 4 -17 -18 -43 -116 -138 -104 -102
-123 -116 -140 -107 -13 7 -21 7 -26 -1 -4 -6 30 -48 77 -97 46 -48 85 -89 87
-91 6 -10 92 44 92 57 0 9 -6 12 -16 8 -49 -19 -62 -17 -98 14 -20 18 -36 40
-36 50 0 10 23 39 51 63 l52 45 25 -30 c21 -25 23 -33 14 -49 -22 -35 3 -27
51 16 45 42 50 70 7 43 -17 -11 -23 -9 -47 15 l-28 27 52 52 52 52 31 -29 c37
-35 45 -58 30 -86 -23 -42 6 -41 35 1 l28 40 -79 83 c-43 45 -81 85 -84 90 -4
4 -9 4 -13 1z"/>
<path d="M8367 2098 c-50 -57 -54 -63 -34 -66 30 -5 198 -161 195 -181 -1 -9
0 -18 2 -21 6 -5 80 73 80 83 0 4 -12 4 -27 1 -23 -4 -35 1 -62 30 -30 30 -32
37 -21 51 8 10 23 15 37 12 32 -6 29 3 -13 44 -36 33 -37 34 -30 8 4 -19 0
-31 -13 -43 -18 -16 -21 -16 -55 14 -20 18 -36 38 -36 44 0 23 36 46 71 46
l34 0 -25 20 c-14 11 -30 20 -37 20 -6 0 -36 -28 -66 -62z"/>
<path d="M8225 1951 c-60 -25 -82 -109 -46 -179 48 -95 163 -133 230 -76 57
48 50 142 -16 206 -55 54 -114 71 -168 49z m68 -42 c34 -18 80 -59 99 -88 21
-30 23 -82 6 -99 -45 -45 -183 42 -203 130 -12 50 46 84 98 57z"/>
<path d="M2200 1938 c0 -8 5 -19 11 -25 9 -9 -11 -67 -75 -229 -48 -119 -84
-220 -79 -224 4 -5 66 34 138 85 71 51 131 92 132 91 2 -1 -24 -69 -57 -151
-33 -82 -57 -152 -53 -156 5 -4 93 53 196 127 151 107 193 133 211 128 13 -3
26 -2 29 3 7 10 -75 83 -92 83 -14 0 -14 -27 -1 -35 16 -10 4 -22 -98 -97 -54
-39 -103 -75 -110 -81 -8 -7 -6 7 6 39 11 27 38 95 61 152 43 106 47 122 33
122 -5 0 -69 -43 -142 -96 -73 -53 -131 -90 -128 -83 3 8 27 67 54 132 44 107
50 117 72 115 41 -5 33 15 -24 60 -64 50 -84 60 -84 40z"/>
<path d="M7820 1779 c0 -9 -22 -34 -50 -55 -27 -21 -50 -45 -50 -53 0 -8 25
-48 56 -89 l56 -74 19 31 c42 69 113 44 169 -61 27 -51 25 -82 -6 -107 -37
-29 -44 -26 -44 13 0 42 -32 59 -59 32 -14 -15 -14 -19 -1 -44 12 -21 24 -28
54 -30 32 -3 44 2 72 29 59 58 55 135 -12 202 -19 19 -49 37 -66 41 -35 7 -91
-16 -113 -47 -12 -17 -17 -18 -29 -7 -18 14 -60 80 -55 84 47 33 99 81 99 91
0 7 -9 23 -20 36 -15 19 -19 20 -20 8z"/>
<path d="M2530 1390 c-109 -84 -163 -119 -182 -120 -39 0 -35 -11 17 -44 49
-30 63 -30 46 2 -9 16 -4 24 30 52 44 35 51 34 108 -9 22 -17 23 -19 9 -67
-10 -36 -19 -49 -33 -49 -30 0 -27 -19 8 -41 17 -11 45 -29 60 -39 l29 -18 -7
34 c-4 24 9 87 44 219 46 171 51 201 33 199 -4 0 -77 -54 -162 -119z m73 -33
c-9 -31 -21 -57 -27 -57 -6 0 -22 9 -36 19 l-25 20 25 19 c14 11 36 29 50 40
14 11 26 19 27 18 2 -1 -5 -28 -14 -59z"/>
<path d="M2775 1384 c-33 -43 -28 -51 16 -29 30 16 35 16 66 1 18 -9 33 -19
32 -23 0 -5 -37 -71 -82 -148 -63 -107 -87 -141 -105 -143 -34 -5 -27 -16 30
-48 73 -40 71 -40 64 -7 -6 25 6 52 75 171 l82 142 31 -18 c24 -14 32 -26 34
-52 5 -54 17 -55 37 -5 9 25 15 48 13 51 -11 10 -249 144 -257 144 -5 0 -21
-16 -36 -36z"/>
<path d="M7510 1363 c-51 -19 -68 -85 -30 -123 45 -45 123 -13 123 51 0 46
-52 86 -93 72z"/>
<path d="M7042 1233 c-97 -51 -118 -73 -69 -73 19 0 34 -24 96 -148 66 -134
72 -150 60 -170 -7 -11 -11 -23 -8 -26 2 -3 58 22 123 55 94 49 116 64 111 77
-4 9 -9 32 -12 50 -8 47 -31 41 -35 -10 -3 -39 -7 -45 -45 -66 -24 -13 -47
-20 -53 -17 -11 7 -73 125 -68 130 2 1 17 10 34 18 28 15 33 15 44 2 7 -8 19
-15 26 -15 10 0 6 17 -16 60 -30 60 -52 73 -43 26 4 -19 -1 -28 -25 -40 -17
-9 -33 -16 -36 -16 -6 0 -66 115 -66 125 0 3 19 14 42 25 42 19 61 17 89 -7 9
-7 18 -10 22 -7 8 9 -43 84 -57 83 -6 -1 -57 -26 -114 -56z"/>
<path d="M3106 1199 c-15 -22 -25 -43 -23 -45 2 -3 20 4 39 15 30 18 38 19 66
9 18 -7 32 -17 32 -23 0 -5 -31 -75 -68 -155 -55 -118 -72 -146 -90 -148 -35
-5 -22 -20 41 -49 61 -28 76 -27 57 4 -10 15 -1 42 55 163 36 80 69 148 73
152 4 4 22 -1 39 -12 23 -14 32 -27 35 -51 5 -49 22 -45 36 7 7 26 11 48 10
49 -2 1 -55 26 -118 54 -63 29 -119 57 -124 62 -18 17 -33 9 -60 -32z"/>
<path d="M6747 1098 c-43 -17 -76 -36 -74 -42 2 -6 11 -10 20 -8 20 3 22 1 93
-168 56 -133 60 -147 46 -163 -27 -30 -4 -31 68 -2 68 28 89 53 38 47 -22 -3
-28 4 -52 59 -15 34 -25 62 -24 63 69 28 108 74 108 126 0 36 -31 90 -61 105
-40 21 -74 18 -162 -17z m128 -44 c26 -41 31 -91 10 -114 -10 -11 -23 -20 -30
-20 -12 0 -76 146 -67 155 3 3 20 5 38 5 23 0 36 -7 49 -26z"/>
<path d="M3481 1035 c-66 -56 -63 -140 9 -210 41 -40 51 -76 30 -114 -14 -28
-37 -32 -75 -17 -34 15 -41 28 -47 90 -4 39 -24 44 -31 8 -3 -17 -9 -41 -12
-55 -6 -23 -1 -30 41 -57 89 -56 180 -30 204 60 15 55 5 81 -51 145 -66 76
-66 135 1 135 38 0 68 -26 76 -65 9 -50 21 -52 34 -4 10 35 9 44 -7 61 -45 51
-125 61 -172 23z"/>
<path d="M6598 1040 c-49 -15 -65 -40 -27 -40 20 0 21 -4 15 -52 -3 -29 -6
-69 -6 -88 l0 -35 -47 54 c-63 70 -67 79 -52 97 20 24 6 25 -64 2 -67 -22 -80
-38 -40 -48 12 -3 54 -42 95 -88 60 -66 78 -94 93 -142 18 -58 18 -61 0 -80
-10 -11 -16 -22 -13 -25 8 -8 137 39 138 50 1 6 -8 11 -19 13 -14 2 -27 21
-42 60 -20 53 -21 64 -12 175 8 86 15 123 27 136 24 26 9 29 -46 11z"/>
<path d="M6135 970 c-117 -29 -150 -41 -149 -54 0 -9 1 -34 2 -56 2 -28 6 -40
17 -40 8 0 15 9 15 21 0 11 4 29 10 39 11 21 78 46 90 34 4 -5 28 -91 52 -191
38 -153 43 -184 32 -194 -23 -19 -17 -42 9 -35 12 4 46 12 75 18 56 12 65 23
28 37 -20 8 -28 30 -70 197 -26 103 -43 190 -39 195 4 4 23 10 40 14 28 6 37
2 64 -24 17 -17 34 -29 39 -26 14 8 -32 105 -49 104 -9 -1 -83 -18 -166 -39z"/>
<path d="M4044 913 c-20 -32 -77 -122 -126 -200 -62 -99 -95 -143 -108 -143
-10 0 -20 -6 -23 -13 -4 -10 13 -17 55 -26 65 -13 85 -8 54 15 -18 13 -19 15
-2 51 33 74 38 76 99 63 52 -12 55 -14 61 -49 11 -69 8 -87 -21 -100 -34 -15
-22 -26 47 -39 30 -6 63 -14 73 -17 21 -9 23 12 3 34 -10 11 -19 79 -31 236
-9 121 -18 226 -20 233 -8 24 -25 12 -61 -45z m5 -186 c1 -38 1 -39 -31 -32
-58 13 -59 16 -20 82 l37 61 7 -36 c4 -20 7 -54 7 -75z"/>
<path d="M4280 840 c0 -6 7 -13 15 -16 20 -8 19 -22 -7 -198 -20 -135 -24
-149 -45 -157 -13 -5 -23 -12 -23 -17 0 -10 150 -35 159 -26 3 3 -5 14 -18 24
-24 17 -24 20 -15 86 5 38 14 68 19 68 6 -1 26 -43 45 -94 37 -97 43 -103 103
-114 42 -8 49 5 17 32 -10 10 -30 46 -44 82 -13 36 -27 72 -31 81 -4 11 0 18
14 22 26 6 61 64 61 100 0 36 -25 83 -50 97 -17 9 -166 40 -192 40 -5 0 -8 -5
-8 -10z m160 -66 c19 -19 16 -91 -6 -115 -9 -11 -30 -19 -47 -19 -25 0 -28 3
-24 23 3 12 9 48 12 80 7 53 9 57 29 51 11 -3 28 -12 36 -20z"/>
<path d="M5685 814 c-44 -7 -99 -13 -123 -13 -66 -1 -82 -14 -82 -66 0 -48 15
-59 29 -22 12 30 29 43 69 52 23 5 32 3 32 -7 0 -7 9 -83 20 -168 17 -136 17
-156 5 -166 -31 -23 -16 -33 43 -27 84 7 91 11 64 32 -21 15 -26 34 -42 162
-27 200 -28 189 19 189 31 0 44 -6 60 -26 11 -14 24 -24 29 -22 12 5 -17 98
-31 97 -7 -1 -48 -8 -92 -15z"/>
<path d="M4597 793 c-4 -6 -9 -30 -12 -54 l-7 -44 29 33 c23 26 35 32 67 32
l39 0 -7 -72 c-3 -40 -9 -117 -12 -172 -6 -84 -10 -99 -26 -104 -10 -2 -18
-10 -18 -17 0 -9 22 -14 68 -17 75 -6 85 -2 58 18 -17 12 -18 22 -12 116 14
227 16 238 42 238 36 0 54 -10 70 -41 18 -37 34 -37 34 -1 0 65 -5 69 -93 76
-45 4 -112 9 -148 12 -39 4 -69 2 -72 -3z"/>
<path d="M5264 776 c-44 -20 -64 -53 -64 -106 1 -65 19 -90 97 -130 79 -41 98
-71 69 -114 -11 -18 -25 -26 -45 -26 -45 0 -60 9 -82 51 -27 55 -43 51 -34 -8
4 -27 9 -51 11 -55 9 -15 88 -29 125 -23 69 12 112 89 89 158 -14 44 -43 70
-112 100 -59 26 -75 49 -64 93 12 48 95 44 121 -6 18 -36 35 -39 35 -7 0 48
-12 67 -49 77 -46 13 -59 12 -97 -4z"/>
<path d="M4970 770 c0 -5 10 -14 21 -21 21 -11 21 -14 15 -178 -7 -148 -10
-168 -27 -181 -29 -23 -14 -30 63 -30 69 0 85 10 48 30 -20 11 -21 17 -14 178
6 148 9 169 26 182 10 9 16 19 12 23 -11 11 -144 8 -144 -3z"/>
</g>
</svg>
