<?xml version="1.0" standalone="no"?>
<!DOCTYPE svg PUBLIC "-//W3C//DTD SVG 20010904//EN"
 "http://www.w3.org/TR/2001/REC-SVG-20010904/DTD/svg10.dtd">
<svg version="1.0" xmlns="http://www.w3.org/2000/svg"
 width="1021.000000pt" height="1021.000000pt" viewBox="0 0 1021.000000 1021.000000"
 preserveAspectRatio="xMidYMid meet">

<g transform="translate(0.000000,1021.000000) scale(0.100000,-0.100000)"
fill="#000000" stroke="none">
<path d="M4785 10199 c-1490 -94 -2856 -834 -3761 -2037 -550 -731 -888 -1594
-991 -2532 -22 -206 -25 -804 -5 -1000 86 -818 330 -1547 742 -2210 443 -712
1093 -1339 1820 -1752 1381 -786 3082 -879 4544 -247 614 265 1148 636 1631
1130 852 873 1346 1977 1436 3214 14 198 6 677 -15 865 -120 1071 -521 2002
-1209 2804 -1039 1211 -2593 1866 -4192 1765z m845 -83 c1022 -112 1933 -501
2730 -1167 159 -132 445 -417 581 -579 699 -828 1105 -1810 1189 -2874 5 -71
10 -249 10 -395 0 -412 -35 -738 -120 -1109 -287 -1265 -1066 -2385 -2155
-3097 -197 -130 -329 -203 -570 -321 -566 -275 -1095 -421 -1760 -486 -195
-19 -691 -16 -905 6 -628 62 -1205 228 -1760 505 -1391 694 -2390 1994 -2695
3506 -106 529 -127 1097 -60 1640 173 1393 947 2671 2114 3488 197 139 390
253 626 372 615 310 1211 472 1950 529 121 9 688 -3 825 -18z"/>
<path d="M5272 9902 c-10 -10 -53 -100 -96 -200 -43 -101 -81 -180 -85 -177
-3 4 -44 91 -91 193 l-86 187 -98 3 c-88 2 -97 1 -94 -15 2 -9 14 -20 28 -23
32 -7 33 -21 23 -280 l-8 -195 -32 -14 c-18 -8 -33 -21 -33 -28 0 -10 23 -13
96 -13 85 0 95 2 92 17 -2 9 -14 20 -28 23 l-25 6 -3 144 c-1 80 1 172 5 204
l8 59 105 -227 c69 -149 109 -226 118 -224 7 2 47 80 89 173 41 94 82 186 91
205 15 35 16 33 28 -135 7 -93 11 -175 9 -182 -2 -6 -17 -14 -34 -18 -17 -4
-31 -13 -31 -21 0 -11 24 -14 125 -14 69 0 125 4 125 8 0 14 -24 32 -42 32
-10 0 -21 6 -23 13 -4 12 -35 405 -35 447 0 14 10 24 30 31 17 6 30 17 30 25
0 23 -135 19 -158 -4z"/>
<path d="M5600 9882 c0 -13 10 -24 30 -31 38 -13 38 -9 -3 -271 l-32 -205 -35
-5 c-23 -3 -36 -11 -38 -22 -2 -10 2 -18 10 -18 22 0 343 -49 386 -58 22 -5
44 -7 49 -3 5 3 17 26 27 51 10 25 23 51 29 58 8 10 7 16 -4 23 -21 13 -25 11
-43 -16 -28 -42 -71 -58 -138 -51 -76 9 -118 24 -118 43 0 9 5 56 12 105 l12
89 45 -7 c83 -13 95 -19 105 -52 14 -51 34 -48 41 6 4 26 11 65 15 86 5 22 7
43 4 48 -8 13 -31 -2 -43 -29 -11 -25 -13 -25 -79 -18 -37 4 -70 9 -73 11 -5
2 19 193 25 201 4 5 155 -25 172 -34 11 -7 29 -30 39 -52 28 -62 45 -54 45 22
0 72 -10 87 -58 87 -33 0 -332 46 -364 56 -13 4 -18 0 -18 -14z"/>
<path d="M4266 9842 c-3 -5 -32 -118 -66 -253 -77 -309 -74 -301 -112 -322
-50 -29 -22 -38 67 -22 44 8 86 14 93 15 6 0 12 7 12 15 0 10 -10 15 -29 15
-17 0 -32 4 -35 9 -6 9 17 138 26 146 5 5 156 35 175 35 12 0 83 -109 83 -127
0 -5 -12 -15 -26 -22 -26 -11 -28 -37 -3 -34 23 2 213 35 226 39 24 6 1 34
-28 34 -28 0 -41 17 -187 240 -147 225 -178 261 -196 232z m58 -226 c25 -40
46 -78 46 -84 0 -5 -21 -13 -47 -17 -27 -3 -59 -9 -72 -12 -19 -5 -22 -2 -18
13 3 11 13 54 22 97 9 42 18 77 20 77 2 0 24 -33 49 -74z"/>
<path d="M6204 9788 c-7 -12 13 -36 37 -43 10 -4 19 -14 18 -23 0 -9 -28 -111
-63 -227 l-63 -210 -39 -5 c-50 -6 -52 -31 -4 -42 37 -9 190 -55 215 -64 10
-4 15 0 15 13 0 12 -13 25 -35 36 -19 9 -35 22 -35 28 0 7 12 51 26 99 37 122
49 116 106 -48 26 -76 53 -138 68 -153 28 -30 149 -74 163 -60 5 5 -7 23 -26
42 -27 26 -44 60 -76 152 -23 65 -41 120 -41 122 0 1 15 6 34 9 72 14 122 80
113 151 -5 48 -27 83 -73 114 -41 28 -332 122 -340 109z m233 -115 c48 -22 68
-69 53 -124 -16 -59 -41 -79 -97 -79 -78 0 -79 4 -48 111 15 52 29 97 32 102
6 11 22 9 60 -10z"/>
<path d="M3750 9720 c-25 -10 -109 -38 -188 -62 -108 -32 -142 -46 -139 -58 2
-10 12 -14 33 -12 17 2 36 -3 41 -10 6 -7 41 -107 78 -223 l67 -209 -33 -28
c-60 -50 -22 -49 131 3 80 28 173 57 207 66 34 8 67 20 72 27 5 6 7 42 4 79
-7 81 -28 89 -49 19 -17 -61 -38 -79 -112 -102 -106 -33 -106 -33 -136 65 -15
47 -29 91 -32 98 -3 8 18 20 63 35 l68 22 20 -25 c21 -26 61 -35 51 -12 -3 6
-15 45 -28 85 -26 81 -51 95 -56 31 -3 -34 -5 -36 -69 -57 -37 -12 -68 -20
-68 -19 -5 6 -55 176 -55 185 0 11 126 52 161 52 12 0 37 -11 55 -25 29 -23
64 -33 64 -20 0 3 -14 30 -31 60 -35 62 -45 65 -119 35z"/>
<path d="M3060 9449 c-85 -32 -270 -126 -270 -137 0 -8 13 -12 41 -10 l41 3
100 -208 101 -208 -26 -27 c-14 -15 -23 -32 -19 -38 8 -13 252 100 252 116 0
16 -18 20 -45 10 -15 -6 -35 -8 -45 -5 -14 5 -90 154 -90 178 0 19 49 1 158
-58 65 -36 130 -65 144 -65 31 0 158 56 158 70 0 11 -11 13 -53 10 -17 -1 -71
22 -145 61 -64 34 -119 63 -120 65 -2 1 6 16 18 32 48 65 31 161 -35 202 -35
22 -120 27 -165 9z m62 -79 c14 -11 33 -38 42 -60 22 -55 5 -96 -53 -128 -22
-13 -41 -21 -41 -19 0 3 -20 48 -45 101 l-44 96 27 14 c38 21 85 19 114 -4z"/>
<path d="M7076 9204 c-200 -160 -221 -174 -253 -172 -20 2 -37 -1 -39 -7 -3
-9 150 -96 169 -95 13 0 7 24 -13 45 -22 24 -21 27 43 82 l49 42 79 -40 c44
-22 82 -45 85 -53 3 -7 1 -41 -3 -77 -7 -59 -10 -64 -33 -66 -14 0 -31 -1 -37
-2 -29 -2 -9 -24 45 -48 31 -15 79 -39 105 -55 70 -41 86 -34 48 20 -19 27
-19 30 -1 272 26 327 26 330 -2 329 -14 0 -112 -71 -242 -175z m140 -41 c-4
-48 -10 -90 -12 -93 -3 -2 -34 10 -68 29 l-63 34 66 58 c36 32 70 58 75 58 5
1 6 -37 2 -86z"/>
<path d="M7670 9160 c0 -6 10 -24 21 -40 l22 -29 -133 -183 c-73 -101 -137
-186 -143 -189 -5 -4 -22 -2 -38 4 -21 8 -32 8 -40 0 -8 -8 5 -21 45 -48 31
-21 82 -57 113 -81 53 -41 73 -47 73 -21 0 6 -12 23 -27 39 l-27 28 48 69 c87
128 96 124 97 -57 1 -75 4 -148 8 -162 9 -32 128 -127 142 -113 7 7 4 21 -10
44 -18 30 -21 50 -21 168 l0 133 25 -6 c67 -17 158 41 171 109 15 80 -29 140
-194 262 -110 81 -132 94 -132 73z m185 -175 c25 -26 35 -45 35 -67 0 -35 -33
-93 -60 -108 -30 -16 -80 -11 -117 11 l-33 21 37 51 c20 29 48 69 62 89 14 21
29 37 33 38 4 0 23 -16 43 -35z"/>
<path d="M4815 9149 c-904 -75 -1720 -419 -2385 -1007 -661 -583 -1115 -1365
-1290 -2221 -62 -304 -74 -441 -74 -816 0 -355 7 -447 55 -712 281 -1565 1463
-2830 3004 -3217 891 -223 1826 -138 2668 245 597 271 1148 714 1548 1245 446
589 710 1256 801 2019 17 145 17 692 0 840 -78 676 -296 1278 -657 1820 -671
1005 -1730 1652 -2930 1790 -167 19 -586 27 -740 14z m610 -69 c623 -52 1203
-238 1735 -558 813 -487 1433 -1261 1733 -2162 151 -452 217 -939 196 -1438
-51 -1181 -634 -2283 -1584 -2997 -630 -473 -1340 -739 -2125 -794 -1416 -101
-2791 577 -3587 1769 -910 1363 -889 3149 52 4490 387 551 885 979 1495 1285
463 232 959 368 1490 408 106 8 485 6 595 -3z"/>
<path d="M4810 8989 c-796 -69 -1517 -354 -2128 -841 -164 -131 -481 -448
-609 -609 -469 -592 -740 -1242 -835 -2009 -8 -67 -13 -223 -13 -430 0 -362 9
-462 70 -766 240 -1190 1032 -2206 2129 -2734 1163 -560 2513 -509 3632 136
470 271 935 697 1247 1146 356 511 583 1096 668 1721 26 197 37 608 20 809
-68 804 -361 1534 -870 2158 -105 130 -333 363 -466 479 -596 516 -1309 830
-2105 926 -160 19 -588 28 -740 14z m797 -88 c709 -97 1343 -368 1898 -814
1169 -938 1680 -2463 1314 -3922 -194 -771 -645 -1485 -1263 -1998 -235 -195
-451 -336 -731 -477 -426 -215 -835 -336 -1325 -391 -151 -17 -629 -17 -780 0
-1041 117 -1950 614 -2596 1417 -708 880 -988 2039 -764 3155 161 801 600
1559 1220 2103 612 538 1340 855 2160 942 191 20 672 12 867 -15z"/>
<path d="M5671 7177 c-46 -194 -87 -358 -91 -365 -5 -9 -92 54 -296 214 -346
272 -322 253 -308 234 6 -8 113 -145 238 -304 124 -159 224 -291 221 -294 -2
-3 -168 -44 -367 -92 -344 -83 -361 -88 -323 -98 22 -6 187 -46 368 -89 180
-42 326 -81 325 -85 -2 -4 -107 -140 -235 -303 -128 -162 -229 -295 -225 -294
4 0 140 105 302 233 174 138 297 229 301 222 3 -6 43 -170 90 -364 55 -234 86
-347 91 -335 4 10 44 171 88 358 45 187 82 343 83 348 1 4 135 -97 297 -224
162 -127 302 -237 310 -243 17 -13 12 -6 -254 332 -113 144 -206 266 -206 270
0 5 156 46 348 91 191 46 353 87 359 90 7 4 -146 44 -340 90 -193 46 -357 87
-363 90 -7 4 83 126 222 301 128 162 233 298 233 302 1 4 -132 -97 -294 -225
-163 -128 -299 -233 -303 -235 -4 -1 -46 156 -92 350 -46 194 -86 358 -89 365
-3 6 -44 -147 -90 -340z"/>
<path d="M3911 6540 c-460 -175 -796 -571 -903 -1063 -32 -147 -32 -427 0
-574 65 -298 200 -542 418 -753 273 -264 618 -403 999 -403 372 0 723 138 984
388 86 82 194 205 187 213 -3 2 -36 -3 -73 -12 -274 -62 -611 -30 -872 82
-450 194 -774 606 -856 1087 -23 132 -23 348 0 480 31 185 108 385 204 533 22
34 35 62 28 62 -6 0 -59 -18 -116 -40z"/>
<path d="M4537 5324 c-121 -18 -258 -56 -381 -104 -135 -53 -144 -60 -127 -96
34 -77 153 -237 241 -324 256 -257 579 -390 943 -390 211 0 380 35 556 116 41
19 76 32 78 30 7 -7 -67 -148 -120 -226 -234 -350 -577 -581 -997 -671 -89
-20 -135 -23 -305 -23 -170 0 -216 3 -305 23 -278 59 -517 177 -725 358 -134
116 -281 305 -359 461 -26 51 -28 53 -59 47 -18 -4 -69 -22 -115 -41 -336
-134 -517 -349 -516 -614 0 -271 148 -494 412 -625 211 -104 448 -153 782
-160 l195 -5 66 -54 c220 -183 481 -309 728 -350 183 -31 425 -17 611 34 237
66 492 196 671 342 l55 45 95 -24 c129 -34 338 -42 463 -19 168 32 330 102
464 200 l61 45 168 0 c410 -1 649 103 734 318 33 84 33 241 1 335 -43 123
-157 255 -292 336 -129 77 -326 150 -483 179 l-93 17 -52 72 c-188 255 -431
406 -697 430 -136 12 -333 -30 -477 -102 l-66 -33 -41 53 c-52 68 -160 171
-237 227 -234 172 -557 243 -877 193z"/>
<path d="M2500 9124 c-34 -12 -319 -192 -350 -221 -11 -10 25 -20 47 -12 12 4
28 6 35 3 19 -7 258 -366 258 -385 0 -9 -7 -22 -15 -29 -17 -14 -20 -40 -5
-40 19 0 299 201 331 237 49 57 69 109 68 183 0 36 -6 79 -12 97 -21 56 -74
120 -122 149 -60 35 -166 43 -235 18z m106 -83 c51 -23 103 -76 138 -142 24
-43 28 -59 24 -110 -3 -46 -11 -67 -34 -96 -28 -35 -116 -103 -134 -103 -9 0
-260 364 -260 377 0 11 100 72 136 83 46 14 86 11 130 -9z"/>
<path d="M8142 8765 c-24 -18 -48 -35 -54 -37 -6 -2 -8 -9 -4 -16 5 -8 25 -10
64 -6 56 6 58 5 110 -36 28 -23 52 -45 52 -48 -1 -4 -74 -83 -163 -175 l-162
-168 -32 13 c-18 6 -36 9 -40 5 -6 -7 157 -167 178 -175 13 -5 11 36 -1 43
-24 15 -1 46 148 204 l157 168 36 -28 c49 -39 73 -89 61 -132 -21 -75 11 -76
57 -1 l33 56 -23 22 c-13 13 -101 95 -196 184 -94 89 -173 162 -175 161 -1 0
-22 -15 -46 -34z"/>
<path d="M1698 8486 c-82 -84 -148 -156 -148 -159 0 -11 38 -8 45 3 19 31 56
5 210 -150 l160 -160 -18 -32 c-13 -22 -15 -34 -7 -42 7 -7 57 37 170 149 88
88 159 165 158 170 -2 6 -17 34 -33 62 -43 75 -72 69 -52 -9 7 -27 6 -47 -3
-67 -14 -34 -112 -131 -132 -131 -8 0 -45 32 -83 70 l-70 70 51 51 c51 51 51
51 81 36 16 -9 35 -12 42 -8 9 6 -6 27 -53 75 -52 53 -67 64 -72 51 -4 -9 -1
-28 5 -42 11 -23 7 -30 -35 -80 l-47 -55 -74 74 -74 73 65 63 66 64 56 -4 c32
-2 58 1 60 7 3 10 -97 76 -113 74 -4 -1 -74 -70 -155 -153z"/>
<path d="M8645 8330 c-3 -5 -1 -19 5 -30 6 -12 10 -27 8 -35 -4 -21 -340 -305
-360 -305 -9 0 -20 5 -23 10 -7 12 -45 13 -45 2 0 -5 10 -17 21 -28 12 -10 49
-52 82 -92 40 -50 63 -70 70 -63 7 7 6 20 -3 41 -15 37 -35 15 179 199 l164
141 28 -17 c19 -11 32 -14 39 -7 6 6 -12 34 -51 79 -34 39 -68 80 -76 93 -16
24 -28 28 -38 12z"/>
<path d="M1381 8134 c-51 -68 -69 -100 -62 -107 7 -7 16 -5 30 7 11 10 29 16
39 14 23 -6 151 -100 152 -111 0 -11 -133 -187 -143 -187 -4 0 -42 26 -83 57
-62 47 -74 60 -69 77 22 72 -3 69 -55 -6 -24 -34 -57 -77 -73 -95 -21 -24 -27
-37 -19 -45 7 -7 17 -6 33 6 13 9 29 16 35 16 6 0 93 -61 193 -135 l183 -136
-7 -39 c-9 -51 5 -52 41 -2 15 20 48 63 72 95 32 43 42 61 33 70 -8 8 -16 6
-29 -6 -10 -9 -24 -17 -31 -17 -7 0 -51 27 -97 61 l-85 61 24 31 c13 18 46 62
73 98 l50 67 88 -66 c73 -55 86 -69 81 -86 -20 -67 4 -71 46 -9 18 26 50 70
72 96 29 36 37 51 29 59 -9 9 -17 7 -31 -6 -11 -10 -29 -16 -39 -14 -10 3 -98
65 -196 138 -152 114 -176 137 -171 154 25 81 -4 67 -84 -40z"/>
<path d="M8817 7985 c-102 -35 -127 -108 -87 -253 27 -97 26 -137 -5 -167 -32
-33 -75 -32 -115 1 -65 56 -78 127 -34 202 22 37 24 46 13 57 -12 11 -23 5
-68 -36 l-54 -50 13 -42 c20 -68 60 -134 111 -182 76 -71 159 -73 232 -6 35
33 41 44 45 92 3 38 -3 79 -17 130 -29 105 -28 152 5 178 35 28 56 26 94 -5
58 -49 77 -127 46 -184 -10 -18 -11 -30 -4 -43 9 -18 13 -16 54 24 24 24 44
47 44 51 0 29 -48 124 -81 162 -64 72 -124 95 -192 71z"/>
<path d="M1006 7607 c-7 -12 -46 -85 -86 -162 -40 -77 -90 -170 -111 -207 -22
-36 -39 -71 -39 -76 0 -5 23 -28 51 -52 59 -50 80 -41 48 19 -10 20 -19 46
-19 59 0 27 46 122 60 122 8 0 342 -177 388 -207 20 -12 23 -20 17 -49 -12
-67 22 -36 79 72 31 58 56 107 56 110 0 11 -26 2 -46 -17 l-23 -22 -209 112
-209 112 29 55 c34 63 36 64 103 79 51 12 69 37 30 43 -11 2 -39 9 -63 17 -40
13 -43 13 -56 -8z"/>
<path d="M9132 7607 c-35 -10 -61 -24 -59 -30 2 -6 27 -16 57 -23 35 -8 60
-20 71 -35 21 -28 54 -98 48 -103 -2 -1 -96 -52 -208 -111 l-204 -109 -18 23
c-11 14 -25 21 -34 17 -12 -4 -4 -26 40 -108 57 -108 80 -128 80 -68 l0 35
199 107 c110 60 202 108 206 108 12 0 60 -96 60 -119 0 -12 -9 -39 -19 -60
-31 -60 -13 -70 47 -25 28 22 51 45 51 53 1 8 -12 35 -28 60 -15 26 -70 127
-120 224 -51 97 -96 178 -99 180 -4 2 -35 -5 -70 -16z"/>
<path d="M455 5596 c-66 -19 -118 -75 -140 -151 -22 -75 -15 -108 51 -237 50
-99 54 -112 54 -176 l0 -70 -77 -87 c-129 -145 -128 -144 -111 -162 14 -13 19
-13 45 1 17 8 37 26 46 40 20 30 53 42 72 26 24 -20 18 -77 -22 -208 -29 -96
-34 -125 -25 -134 22 -22 43 4 84 102 21 52 43 99 48 104 6 6 7 -45 3 -127 -6
-136 -6 -137 16 -137 29 0 35 21 51 158 7 61 16 112 20 112 4 0 13 -44 19 -97
16 -128 18 -135 44 -131 21 3 22 7 19 98 -1 52 -5 110 -8 129 -8 51 10 35 63
-54 79 -131 112 -96 43 45 -23 49 -40 99 -40 119 0 19 -7 73 -17 121 -21 113
-17 124 46 116 59 -8 87 15 78 63 -4 17 -2 33 3 36 6 4 8 10 5 15 -3 5 -1 11
5 15 5 3 7 17 4 29 -4 18 -1 25 15 29 27 7 26 29 -3 80 -17 30 -24 59 -24 101
-2 112 -37 176 -117 212 -66 31 -180 40 -250 20z m58 -97 c12 -6 29 -21 38
-32 l17 -20 11 22 c18 33 56 44 90 26 33 -16 41 -33 41 -81 0 -29 -12 -47 -72
-112 l-73 -78 -50 51 c-75 76 -95 105 -95 143 0 42 15 71 43 82 29 11 25 12
50 -1z"/>
<path d="M9541 5595 c-111 -31 -159 -98 -165 -227 -2 -56 -9 -83 -29 -118 -27
-46 -25 -61 5 -73 11 -4 15 -12 12 -21 -3 -8 1 -28 9 -44 8 -16 12 -44 9 -62
-7 -46 17 -62 79 -54 42 6 48 4 54 -15 3 -11 -1 -56 -9 -98 -8 -43 -18 -100
-22 -128 -4 -27 -24 -87 -46 -134 -34 -74 -37 -86 -24 -99 20 -20 28 -12 80
78 26 44 49 80 52 80 3 0 4 -57 2 -127 -3 -125 -2 -128 19 -131 16 -2 22 3 27
25 4 23 26 188 26 201 0 2 4 1 8 -2 5 -3 14 -57 21 -120 14 -122 26 -154 56
-143 16 7 17 19 10 140 -4 74 -3 128 1 124 5 -4 27 -51 49 -104 41 -100 64
-128 87 -105 10 10 6 32 -20 110 -49 152 -56 190 -37 218 22 34 38 30 88 -21
47 -48 67 -54 87 -30 10 12 -4 32 -81 121 -52 58 -98 113 -103 122 -6 9 -10
44 -10 77 0 53 7 73 58 174 57 113 58 115 54 187 -3 61 -8 79 -34 116 -16 24
-49 53 -72 66 -55 31 -165 38 -241 17z m48 -100 c16 -8 32 -22 35 -31 6 -16 8
-15 22 5 59 84 171 1 123 -92 -7 -12 -39 -51 -73 -87 l-62 -65 -55 54 c-70 70
-89 99 -89 139 0 51 23 82 68 91 2 1 16 -6 31 -14z"/>
<path d="M1410 2815 c-36 -19 -41 -25 -27 -30 9 -4 28 -4 42 -1 20 5 32 0 55
-23 17 -16 30 -34 30 -40 0 -9 -69 -60 -253 -184 -56 -38 -72 -45 -88 -36 -35
18 -41 -1 -11 -39 15 -20 36 -50 45 -65 19 -29 42 -28 32 3 -7 21 13 38 198
164 121 83 129 87 143 69 24 -31 28 -63 11 -99 -24 -50 -2 -54 45 -7 l39 40
-53 74 c-29 41 -71 102 -93 137 -22 34 -47 62 -55 61 -8 0 -35 -11 -60 -24z"/>
<path d="M8750 2763 c-8 -3 -25 -15 -37 -26 -98 -88 128 -313 295 -294 153 17
81 204 -113 292 -53 25 -120 38 -145 28z m62 -47 c115 -51 258 -169 258 -212
0 -56 -86 -38 -213 45 -123 81 -171 143 -135 179 17 17 30 15 90 -12z"/>
<path d="M1627 2494 c-4 -4 -5 -16 -2 -28 4 -17 -19 -40 -126 -126 -72 -58
-134 -104 -137 -103 -4 1 -15 5 -24 8 -29 11 -21 -9 24 -64 45 -55 64 -65 54
-27 -5 22 12 42 104 113 13 10 23 3 58 -42 l42 -53 -58 -47 c-45 -36 -63 -45
-84 -41 -16 3 -28 3 -28 0 0 -11 85 -114 93 -114 5 0 6 11 3 24 -5 21 10 37
125 131 109 89 134 106 155 101 34 -9 30 4 -17 62 -42 52 -63 59 -54 19 4 -17
-7 -31 -51 -66 l-55 -44 -25 29 c-64 76 -64 72 -9 120 41 36 55 43 78 38 15
-3 27 -2 27 2 0 6 -80 114 -85 114 -1 0 -5 -3 -8 -6z"/>
<path d="M8538 2458 c-3 -24 -8 -52 -12 -63 -7 -17 -5 -17 13 3 12 15 25 21
33 16 7 -4 71 -52 141 -107 113 -88 128 -103 123 -123 -9 -35 -1 -30 44 29 43
57 52 81 21 53 -24 -22 -10 -30 -197 116 -84 65 -154 118 -157 118 -3 0 -7
-19 -9 -42z"/>
<path d="M1874 2177 c5 -20 -13 -42 -113 -140 -114 -113 -119 -117 -152 -110
-33 6 -30 3 60 -94 l93 -101 44 26 c54 33 56 46 5 37 -47 -8 -71 3 -101 46
-22 29 -22 31 -4 51 11 11 36 34 57 51 l39 30 26 -27 c24 -23 25 -29 14 -47
-23 -36 -4 -33 40 6 54 48 58 59 21 51 -23 -5 -34 -1 -53 19 l-24 26 53 52 52
52 30 -35 c27 -31 30 -40 25 -77 -3 -24 -2 -43 3 -43 4 0 20 18 35 39 l27 39
-82 86 c-46 47 -87 86 -92 86 -5 0 -7 -10 -3 -23z"/>
<path d="M8376 2096 c-31 -35 -56 -66 -56 -69 0 -4 9 -6 21 -4 14 1 49 -24
109 -78 73 -67 87 -84 82 -104 -2 -13 -1 -22 5 -20 17 7 83 86 76 92 -3 4 -12
2 -19 -4 -10 -8 -23 -2 -54 22 -22 18 -40 38 -40 44 0 20 28 37 50 30 28 -9
25 1 -12 35 -37 33 -53 38 -39 12 9 -18 -7 -52 -25 -52 -5 0 -26 17 -47 36
l-39 36 24 25 c19 20 29 23 58 18 l35 -5 -30 25 c-16 14 -33 25 -37 25 -3 0
-31 -29 -62 -64z"/>
<path d="M8234 1946 c-44 -19 -64 -53 -64 -104 0 -161 218 -244 276 -106 29
69 -16 163 -98 203 -51 24 -71 25 -114 7z m101 -65 c100 -68 115 -176 24 -173
-38 1 -115 57 -142 102 -24 43 -17 86 16 100 29 11 53 4 102 -29z"/>
<path d="M2213 1903 c1 -39 -14 -87 -78 -245 -43 -109 -76 -201 -72 -204 5 -6
131 79 245 164 l33 25 -20 -49 c-10 -27 -37 -95 -60 -152 -44 -111 -48 -127
-28 -119 8 3 96 64 196 135 107 77 188 129 197 125 8 -3 21 -2 30 1 12 5 4 16
-35 46 -28 22 -53 40 -56 40 -3 0 -3 -15 0 -32 5 -32 3 -35 -102 -109 -60 -42
-109 -76 -110 -75 -2 2 24 69 57 151 33 82 56 153 52 157 -4 4 -66 -34 -137
-86 -72 -52 -131 -93 -133 -91 -1 1 21 59 49 128 51 125 52 126 80 120 16 -3
29 -1 29 4 0 8 -125 113 -135 113 -2 0 -3 -21 -2 -47z"/>
<path d="M7797 1734 l-87 -67 26 -46 c42 -72 58 -78 29 -10 -4 12 9 29 50 63
31 25 60 46 64 46 4 0 14 -39 23 -87 10 -49 25 -112 35 -142 20 -64 81 -135
107 -125 28 11 18 37 -39 102 -58 67 -74 106 -96 237 -6 39 -15 76 -18 83 -5
9 -33 -7 -94 -54z"/>
<path d="M2535 1385 c-107 -82 -158 -115 -177 -115 -39 0 -35 -11 17 -48 43
-30 71 -28 44 4 -7 9 -8 18 -3 22 5 4 23 20 41 36 l31 28 46 -31 c25 -18 46
-33 46 -35 0 -1 -7 -23 -16 -49 -11 -32 -21 -47 -33 -47 -37 0 -29 -15 29 -52
34 -21 63 -38 66 -38 3 0 2 15 -1 34 -5 24 6 82 39 204 50 184 53 202 34 202
-7 0 -80 -52 -163 -115z m79 -22 c-9 -27 -18 -54 -20 -61 -3 -11 -11 -10 -35
6 -17 10 -31 22 -30 26 0 9 83 76 93 76 4 0 0 -21 -8 -47z"/>
<path d="M2781 1380 c-29 -36 -30 -40 -12 -40 11 0 23 5 26 10 11 18 74 9 103
-15 6 -5 -162 -287 -172 -290 -51 -14 -51 -15 8 -50 64 -39 82 -43 71 -17 -12
28 -11 32 75 180 l82 143 32 -24 c23 -18 32 -34 34 -61 2 -20 7 -36 11 -36 13
0 46 93 34 97 -6 2 -65 35 -132 73 -66 39 -122 70 -124 70 -2 0 -18 -18 -36
-40z"/>
<path d="M7485 1340 c-28 -31 -24 -79 9 -107 33 -28 56 -29 90 -2 33 26 36 79
6 109 -26 26 -81 26 -105 0z"/>
<path d="M7060 1234 c-109 -57 -129 -74 -87 -74 23 0 34 -17 102 -147 67 -131
75 -150 64 -170 -7 -13 -10 -25 -8 -28 8 -7 234 111 232 121 -14 64 -25 94
-33 89 -6 -3 -10 -17 -10 -30 0 -13 -3 -31 -6 -40 -6 -16 -73 -55 -94 -55 -5
0 -25 29 -42 65 -28 56 -31 67 -18 76 32 20 61 21 80 4 27 -25 25 -5 -5 55
-27 52 -50 67 -39 26 5 -20 0 -27 -25 -40 -16 -9 -34 -16 -38 -16 -9 0 -63
103 -63 120 0 13 54 40 81 40 12 0 31 -8 41 -17 34 -31 38 0 5 39 l-32 36
-105 -54z"/>
<path d="M3114 1200 c-31 -46 -26 -60 12 -35 27 17 87 15 99 -5 3 -5 -25 -75
-63 -157 -53 -115 -74 -149 -91 -153 -12 -3 -21 -9 -19 -15 5 -15 117 -65 123
-55 3 5 1 11 -5 15 -5 3 -10 14 -10 23 0 23 131 302 142 302 14 0 52 -21 60
-34 4 -6 8 -23 8 -38 0 -45 24 -32 36 18 l11 46 -51 23 c-41 18 -189 88 -218
103 -4 2 -19 -15 -34 -38z"/>
<path d="M6762 1097 c-85 -34 -101 -50 -59 -55 20 -3 32 -24 86 -154 56 -134
61 -154 50 -175 -7 -12 -10 -25 -7 -28 8 -8 148 58 142 67 -3 4 -16 8 -30 8
-20 0 -29 10 -49 56 -14 31 -25 58 -25 60 0 2 13 10 30 19 64 33 87 83 70 147
-6 19 -21 44 -34 57 -38 36 -81 35 -174 -2z m117 -43 c31 -39 37 -90 15 -115
-10 -11 -24 -18 -32 -17 -15 3 -74 136 -66 149 12 19 63 9 83 -17z"/>
<path d="M3511 1047 c-37 -19 -63 -60 -68 -109 -5 -42 -2 -48 46 -103 57 -64
65 -101 31 -135 -26 -26 -51 -25 -84 1 -19 15 -26 30 -26 54 0 77 -23 86 -40
15 -11 -46 -10 -53 6 -72 30 -33 101 -61 138 -54 55 10 96 68 96 135 0 34 -7
49 -45 91 -62 70 -69 85 -53 118 9 19 22 28 43 30 35 3 75 -28 75 -58 0 -24
10 -50 20 -50 4 0 12 19 18 42 13 50 8 59 -52 87 -49 24 -71 26 -105 8z"/>
<path d="M6595 1033 c-51 -18 -53 -21 -22 -32 25 -10 26 -12 20 -83 -3 -40 -7
-75 -9 -77 -6 -6 -42 28 -77 73 -25 31 -28 42 -19 56 17 28 6 29 -64 4 -75
-28 -84 -29 -84 -11 0 7 -6 21 -12 30 -12 16 -25 14 -172 -23 -88 -22 -161
-42 -163 -44 -7 -7 10 -116 19 -116 9 0 13 8 22 52 6 29 23 41 67 52 l27 6 48
-195 c48 -191 48 -195 29 -209 -35 -25 -8 -30 70 -11 74 17 94 36 47 43 -15 2
-24 14 -31 40 -6 20 -28 108 -49 194 -39 155 -39 156 -18 162 43 12 73 6 96
-19 28 -30 56 -35 41 -6 -9 16 -7 17 14 13 14 -2 55 -38 98 -86 56 -61 80 -96
97 -144 22 -60 22 -63 5 -82 -10 -11 -16 -22 -13 -25 8 -9 148 39 145 50 -2 5
-14 12 -28 15 -19 5 -29 19 -45 65 -20 56 -20 67 -9 174 7 71 16 116 23 119
16 5 15 32 0 31 -7 -1 -31 -8 -53 -16z"/>
<path d="M4047 903 c-24 -38 -80 -127 -126 -200 -57 -92 -89 -133 -104 -135
-42 -6 -27 -26 33 -41 61 -15 69 -11 48 22 -10 16 -8 26 6 53 38 71 38 70 97
55 l54 -13 5 -58 c6 -62 4 -69 -22 -79 -33 -12 -19 -24 40 -36 31 -6 67 -14
80 -17 26 -7 31 13 7 30 -12 9 -19 58 -31 226 -17 236 -20 260 -34 260 -6 0
-29 -30 -53 -67z m6 -142 l6 -73 -42 6 c-23 4 -43 9 -45 11 -3 2 13 33 34 69
21 36 39 64 40 63 0 -1 4 -35 7 -76z"/>
<path d="M4290 839 c0 -6 7 -17 16 -24 16 -11 15 -23 -5 -161 -25 -164 -33
-194 -56 -194 -21 0 -19 -18 3 -24 9 -2 46 -7 82 -11 l65 -6 -27 23 c-27 23
-27 24 -16 91 7 41 15 66 22 64 6 -2 25 -40 41 -84 37 -99 46 -110 96 -118 49
-8 61 1 32 23 -12 9 -35 52 -52 96 l-30 78 34 32 c58 55 56 133 -5 177 -14 10
-56 23 -95 29 -38 6 -78 13 -87 16 -10 3 -18 0 -18 -7z m154 -65 c20 -20 21
-83 0 -112 -10 -14 -25 -22 -46 -22 -29 0 -30 2 -25 33 3 17 9 51 12 75 7 46
30 56 59 26z"/>
<path d="M5765 822 c-11 -3 -76 -12 -145 -21 l-125 -16 -3 -47 c-3 -48 12 -66
25 -30 12 33 36 52 68 52 l31 0 17 -142 c21 -174 21 -197 2 -204 -8 -4 -15
-11 -15 -16 0 -11 130 0 144 13 5 5 -1 12 -15 18 -24 9 -26 15 -43 169 -10 88
-15 165 -11 171 14 23 63 12 94 -21 33 -36 38 -28 21 34 -12 42 -17 46 -45 40z"/>
<path d="M4596 765 c-4 -20 -10 -43 -13 -51 -3 -8 1 -14 11 -14 9 0 16 5 16
10 0 18 40 50 63 50 47 0 47 -5 33 -178 -13 -148 -16 -164 -37 -180 -22 -19
-22 -19 51 -26 40 -3 76 -4 79 -1 3 4 -4 14 -16 23 -21 17 -21 18 -8 172 8 85
14 161 15 169 0 10 8 12 32 7 38 -8 57 -23 69 -55 15 -37 28 -12 22 40 l-5 46
-109 7 c-60 3 -128 9 -152 12 l-44 6 -7 -37z"/>
<path d="M4980 764 c0 -7 7 -14 15 -18 13 -4 15 -33 15 -175 0 -160 -1 -171
-20 -181 -38 -20 -20 -30 55 -30 62 0 73 2 69 15 -4 8 -13 15 -21 15 -13 0
-15 24 -12 171 4 155 6 172 23 185 11 7 18 16 15 18 -2 2 -34 6 -71 8 -48 3
-68 0 -68 -8z"/>
<path d="M5241 753 c-40 -40 -49 -91 -25 -140 15 -29 34 -45 84 -71 73 -38 80
-45 80 -88 0 -41 -19 -56 -66 -52 -30 2 -43 10 -61 36 -12 18 -23 38 -25 44
-2 6 -8 9 -14 7 -6 -3 -7 -23 -1 -56 8 -48 11 -53 44 -64 97 -32 183 19 183
107 0 68 -22 102 -88 131 -74 33 -92 50 -92 84 0 63 85 76 118 19 26 -46 45
-39 37 13 -4 23 -9 44 -12 47 -2 2 -33 6 -68 8 -60 4 -66 3 -94 -25z"/>
</g>
</svg>
