<?xml version="1.0" standalone="no"?>
<!DOCTYPE svg PUBLIC "-//W3C//DTD SVG 20010904//EN"
 "http://www.w3.org/TR/2001/REC-SVG-20010904/DTD/svg10.dtd">
<svg version="1.0" xmlns="http://www.w3.org/2000/svg"
 width="1021.000000pt" height="1021.000000pt" viewBox="0 0 1021.000000 1021.000000"
 preserveAspectRatio="xMidYMid meet">

<g transform="translate(0.000000,1021.000000) scale(0.100000,-0.100000)"
fill="#000000" stroke="none">
<path d="M4860 10200 c-1260 -60 -2421 -567 -3327 -1454 -591 -577 -1021
-1264 -1278 -2041 -117 -354 -192 -718 -237 -1145 -20 -189 -17 -773 5 -970
128 -1151 580 -2144 1356 -2975 1184 -1268 2929 -1842 4648 -1530 1434 260
2694 1137 3458 2405 107 179 285 537 358 725 193 492 305 979 347 1509 13 167
13 585 0 757 -76 973 -415 1887 -984 2654 -268 360 -627 726 -991 1010 -139
109 -445 313 -595 398 -715 403 -1462 616 -2301 657 -221 10 -229 10 -459 0z
m680 -80 c422 -41 774 -114 1150 -240 1385 -462 2501 -1501 3065 -2856 163
-390 286 -850 339 -1269 58 -455 53 -965 -14 -1409 -263 -1733 -1423 -3213
-3048 -3892 -428 -179 -878 -295 -1377 -356 -247 -30 -813 -33 -1065 -5 -1179
130 -2226 629 -3050 1456 -405 406 -707 830 -960 1346 -265 540 -413 1047
-486 1665 -22 185 -30 692 -15 902 64 864 338 1677 808 2393 493 750 1156
1343 1952 1744 609 308 1251 483 1941 530 158 11 608 6 760 -9z"/>
<path d="M4940 9900 c0 -9 14 -20 33 -25 30 -9 32 -13 35 -60 2 -27 1 -133 -3
-233 l-7 -184 -34 -14 c-19 -8 -34 -20 -34 -27 0 -9 55 -13 229 -15 l229 -3
20 68 c27 88 14 98 -48 32 l-46 -49 -71 0 c-40 0 -83 4 -97 10 -24 9 -26 15
-26 63 0 30 3 75 6 101 l7 46 68 0 68 0 9 -32 c4 -18 16 -34 25 -36 15 -3 17
7 17 71 0 42 3 82 6 91 4 11 0 16 -14 16 -13 0 -24 -10 -31 -30 -10 -30 -11
-30 -80 -30 l-71 0 0 100 0 100 83 0 c91 0 117 -11 142 -61 14 -26 45 -41 45
-21 0 31 -25 124 -34 128 -6 2 -104 5 -219 6 -181 3 -207 1 -207 -12z"/>
<path d="M5550 9886 c0 -9 12 -21 27 -27 15 -6 30 -15 33 -20 6 -8 -54 -428
-64 -456 -3 -6 -20 -13 -38 -15 -19 -2 -34 -9 -36 -18 -2 -12 23 -19 121 -32
69 -10 132 -20 141 -24 11 -4 16 -1 16 14 0 14 -9 22 -29 27 -50 11 -55 24
-41 122 7 49 14 91 17 96 12 21 47 -24 101 -131 33 -64 69 -125 79 -134 10 -9
53 -23 96 -31 70 -13 77 -13 77 2 -1 9 -15 25 -33 36 -23 14 -48 51 -89 130
-32 61 -57 112 -58 115 0 3 20 16 45 29 86 46 106 145 44 216 -39 44 -87 61
-237 86 -70 11 -137 23 -149 26 -17 4 -23 1 -23 -11z m279 -95 c49 -35 52
-121 6 -167 -20 -20 -34 -24 -80 -24 -49 0 -56 2 -51 18 3 9 10 53 16 97 6 44
13 86 16 93 5 17 59 7 93 -17z"/>
<path d="M4550 9879 c-25 -4 -68 -8 -97 -8 -28 -1 -58 -4 -67 -7 -22 -9 -7
-34 20 -34 16 0 28 -8 34 -22 7 -19 51 -404 50 -445 0 -7 -16 -19 -36 -28 -34
-14 -44 -42 -13 -38 29 4 297 33 365 39 l72 6 6 37 c18 110 -6 148 -44 67 -25
-52 -46 -63 -144 -72 -62 -6 -77 -4 -81 8 -10 25 -51 438 -45 448 3 5 18 13
33 19 30 12 37 42 10 40 -10 -1 -38 -5 -63 -10z"/>
<path d="M4065 9799 c-60 -16 -150 -37 -200 -47 -62 -13 -90 -23 -90 -33 0 -9
13 -15 37 -17 24 -2 39 -9 42 -20 21 -66 102 -433 97 -440 -3 -5 -16 -14 -28
-21 -21 -11 -32 -41 -15 -41 4 0 70 15 147 34 77 19 167 39 200 46 102 20 95
12 95 96 0 65 -2 75 -17 72 -9 -2 -21 -17 -27 -34 -19 -52 -39 -74 -86 -90
-63 -22 -136 -29 -144 -15 -12 19 -47 174 -42 186 2 7 32 18 66 25 l63 13 19
-26 c27 -37 53 -36 43 1 -4 15 -12 53 -19 85 -7 32 -15 58 -19 57 -4 0 -11 0
-16 0 -6 0 -11 -15 -13 -32 -3 -35 -25 -47 -110 -63 l-34 -6 -18 78 c-10 43
-20 88 -23 99 -4 20 3 23 72 39 86 19 116 15 151 -20 25 -25 54 -33 54 -16 0
21 -53 121 -63 120 -7 -1 -61 -14 -122 -30z"/>
<path d="M3510 9641 c-36 -15 -120 -47 -187 -72 -68 -24 -123 -49 -123 -56 0
-7 18 -13 41 -15 l41 -3 80 -214 81 -215 -27 -22 c-30 -27 -36 -60 -8 -49 21
9 381 144 401 151 11 3 13 20 8 75 -3 39 -8 74 -11 77 -10 9 -36 -20 -36 -40
0 -10 -7 -33 -16 -49 -19 -37 -110 -82 -167 -83 l-39 -1 -34 90 c-18 49 -30
92 -26 96 4 3 34 16 67 28 l60 22 21 -27 c13 -16 28 -25 37 -21 12 5 9 19 -17
86 -33 86 -56 105 -56 45 0 -32 -4 -37 -45 -55 -87 -38 -92 -36 -130 64 -38
100 -42 92 63 128 71 25 82 24 127 -7 21 -14 44 -23 51 -20 20 8 -47 110 -72
113 -11 1 -48 -11 -84 -26z"/>
<path d="M6500 9436 c-172 -183 -197 -205 -228 -208 -20 -2 -37 -8 -39 -14 -4
-13 165 -76 179 -68 5 4 -3 19 -17 34 l-28 29 48 56 c27 31 53 54 59 52 6 -2
40 -14 76 -26 94 -31 92 -29 94 -112 l1 -74 -32 -3 c-57 -6 -36 -27 55 -56 48
-16 99 -35 115 -43 24 -12 28 -12 33 1 3 9 -5 25 -19 38 -25 23 -26 26 -42
298 -9 151 -18 281 -20 288 -11 34 -53 0 -235 -192z m140 -43 c0 -46 -2 -83
-5 -83 -2 0 -26 8 -52 18 -26 11 -56 22 -66 25 -16 6 -9 17 44 77 44 48 65 66
71 57 4 -6 8 -49 8 -94z"/>
<path d="M7090 9467 c0 -8 9 -22 20 -32 11 -10 20 -24 20 -32 0 -18 -199 -391
-213 -400 -7 -4 -26 -6 -44 -4 -50 4 -41 -21 15 -46 26 -12 80 -40 120 -63 58
-33 73 -38 78 -26 3 9 -7 26 -27 44 l-32 29 44 86 c42 83 59 101 75 76 3 -6
14 -68 24 -137 10 -70 23 -139 28 -153 14 -35 150 -116 158 -94 4 8 -5 28 -19
44 -24 29 -34 74 -53 234 l-6 54 45 5 c60 7 102 38 122 92 37 96 -17 163 -213
269 -68 37 -127 67 -133 67 -5 0 -9 -6 -9 -13z m196 -139 c60 -46 68 -81 35
-147 -27 -52 -68 -69 -123 -50 -22 7 -42 19 -45 26 -5 12 87 193 98 193 3 0
19 -10 35 -22z"/>
<path d="M3003 9432 c-23 -15 -105 -58 -182 -97 -77 -38 -138 -74 -137 -80 2
-5 19 -10 39 -10 20 0 40 -4 46 -10 5 -5 55 -97 111 -203 l102 -194 -28 -29
c-19 -20 -25 -32 -18 -39 13 -13 255 109 250 125 -2 6 -25 9 -52 7 l-49 -2
-42 79 c-24 44 -43 84 -43 90 0 13 93 61 119 61 10 0 21 -7 25 -15 5 -15 46
-22 46 -8 0 19 -77 153 -87 153 -8 0 -13 -14 -13 -39 0 -38 -3 -41 -56 -72
-66 -38 -59 -42 -123 80 l-40 77 73 37 c84 43 106 45 153 16 24 -15 38 -18 45
-11 7 7 -2 26 -32 61 -24 28 -48 51 -54 50 -6 0 -30 -12 -53 -27z"/>
<path d="M7605 9135 c-38 -35 -46 -48 -37 -57 9 -9 17 -9 37 0 44 20 88 14
138 -19 26 -17 47 -35 47 -40 0 -4 -59 -91 -131 -191 -133 -186 -138 -191
-189 -177 -41 11 -5 -29 80 -90 91 -66 130 -78 96 -30 -9 13 -16 29 -16 37 0
7 59 96 132 197 l131 184 29 -17 c57 -33 82 -69 88 -125 7 -69 24 -67 58 7
l26 59 -24 16 c-57 37 -270 188 -336 238 -40 29 -73 53 -75 53 -2 -1 -26 -21
-54 -45z"/>
<path d="M4875 9150 c-817 -51 -1575 -330 -2218 -817 -149 -113 -245 -198
-410 -361 -604 -598 -998 -1356 -1141 -2192 -42 -249 -51 -367 -51 -685 0
-322 12 -458 61 -725 213 -1155 927 -2170 1948 -2769 472 -277 1029 -460 1601
-527 187 -22 641 -25 825 -6 1238 130 2318 783 2996 1812 339 516 550 1082
635 1704 26 193 37 638 20 841 -134 1614 -1200 2985 -2731 3513 -474 163
-1049 243 -1535 212z m660 -85 c189 -22 358 -52 515 -90 926 -228 1750 -791
2308 -1578 844 -1189 963 -2764 309 -4072 -74 -149 -129 -243 -243 -416 -597
-908 -1546 -1535 -2617 -1729 -386 -69 -872 -79 -1257 -24 -1298 184 -2424
993 -3011 2164 -209 416 -334 830 -396 1305 -22 175 -26 747 -5 915 74 598
245 1104 543 1605 177 297 353 521 613 780 684 682 1555 1080 2526 1155 159
12 558 4 715 -15z"/>
<path d="M4920 8993 c-132 -6 -374 -34 -507 -58 -668 -123 -1278 -408 -1800
-840 -130 -108 -381 -356 -484 -480 -434 -518 -718 -1110 -849 -1765 -65 -325
-87 -769 -56 -1097 79 -826 398 -1575 937 -2198 111 -128 357 -368 479 -467
386 -311 775 -524 1239 -678 1280 -426 2677 -160 3715 706 555 463 980 1089
1207 1776 71 214 130 477 165 728 22 159 30 629 15 813 -117 1365 -950 2574
-2186 3173 -588 285 -1230 417 -1875 387z m615 -88 c464 -55 868 -176 1279
-382 1070 -536 1834 -1551 2050 -2726 44 -236 59 -412 60 -687 0 -272 -10
-396 -49 -636 -134 -804 -521 -1541 -1111 -2114 -606 -588 -1342 -941 -2204
-1057 -193 -26 -715 -26 -915 0 -872 112 -1630 483 -2246 1097 -292 292 -542
636 -721 995 -206 411 -333 850 -383 1320 -17 164 -20 566 -5 735 104 1153
737 2208 1705 2845 458 301 931 488 1460 579 121 21 225 34 415 50 99 9 542
-4 665 -19z"/>
<path d="M5087 8268 c-33 -53 -207 -357 -207 -363 0 -3 27 -5 60 -5 42 0 60
-4 60 -12 -2 -51 93 -1587 99 -1602 4 -10 17 150 29 355 12 206 34 573 49 816
l27 442 62 3 61 3 -107 188 c-59 103 -110 190 -113 193 -3 3 -12 -5 -20 -18z"/>
<path d="M3510 7646 c0 -124 3 -226 6 -226 3 0 28 12 54 27 27 15 51 25 53 23
11 -13 369 -553 373 -563 3 -8 -23 -18 -73 -30 -261 -59 -502 -266 -629 -542
-23 -51 -39 -73 -47 -68 -16 9 -491 325 -496 329 -2 2 8 26 22 53 15 27 27 51
27 55 0 3 -99 6 -221 6 -171 0 -220 -3 -217 -12 4 -18 212 -377 218 -378 3 0
18 22 33 50 l28 50 288 -145 289 -144 -18 -75 c-57 -238 -50 -533 20 -806 10
-41 17 -76 15 -79 -3 -2 -202 8 -442 23 -241 14 -446 26 -455 26 -15 0 -18 9
-18 61 0 36 -4 59 -10 57 -20 -7 -379 -213 -379 -218 0 -4 358 -210 379 -218
5 -2 10 23 12 55 l3 58 425 27 c234 14 448 27 475 27 l50 1 24 -62 c59 -155
211 -413 354 -603 l46 -60 -522 -262 c-287 -144 -525 -262 -529 -262 -4 -1
-19 21 -35 49 -15 27 -30 50 -33 50 -6 0 -214 -359 -218 -377 -3 -10 44 -13
217 -13 122 0 221 3 221 8 0 4 -11 27 -25 51 -14 23 -25 45 -25 47 0 6 978
654 986 654 3 0 17 -15 32 -32 109 -132 228 -263 349 -389 l143 -146 -311
-469 c-170 -258 -316 -473 -323 -478 -8 -6 -28 0 -58 18 -24 14 -48 26 -51 26
-4 0 -7 -99 -7 -220 0 -157 3 -220 11 -220 6 0 84 42 173 94 88 51 171 99 184
105 31 16 28 23 -23 50 -25 13 -45 28 -45 32 0 5 113 234 250 510 l251 501
122 -114 c170 -158 571 -558 590 -588 14 -23 14 -53 -4 -320 -10 -162 -19
-298 -19 -302 0 -5 -27 -8 -60 -8 -33 0 -60 -2 -60 -4 0 -7 203 -361 214 -373
9 -10 36 29 116 169 58 100 106 188 108 195 3 10 -11 13 -52 13 l-55 0 -5 53
c-3 28 -13 168 -21 310 l-16 259 50 57 c56 65 398 401 567 558 l110 101 254
-508 c140 -280 252 -511 250 -513 -3 -2 -27 -16 -54 -31 l-48 -28 78 -46 c44
-24 131 -75 194 -112 l115 -68 3 221 c1 121 0 222 -2 224 -2 3 -25 -7 -51 -22
-27 -16 -50 -24 -55 -19 -9 10 -496 742 -580 873 l-52 82 123 127 c116 118
294 317 364 405 l30 38 485 -321 c267 -177 491 -325 499 -330 11 -6 8 -17 -17
-59 -18 -28 -32 -53 -32 -56 0 -3 101 -5 225 -5 124 0 225 2 225 4 0 6 -211
369 -220 379 -4 5 -20 -13 -36 -41 l-27 -49 -526 259 c-289 143 -528 262 -530
264 -2 2 15 30 37 61 166 229 267 399 338 566 l43 102 58 -3 c32 -1 240 -14
462 -27 223 -14 411 -25 418 -25 9 0 13 -17 13 -60 0 -33 3 -60 7 -60 10 0
383 214 383 220 0 7 -358 214 -377 218 -10 3 -13 -11 -13 -52 0 -50 -2 -56
-22 -60 -30 -6 -890 -57 -894 -53 -2 2 3 27 12 57 50 188 74 456 55 630 -10
94 -32 215 -46 259 -4 14 51 44 281 157 158 76 289 140 293 141 3 2 19 -20 34
-47 16 -28 30 -50 32 -50 3 0 215 363 223 382 2 4 -98 8 -223 8 l-227 0 31
-54 30 -54 -259 -171 -260 -170 -35 75 c-67 146 -180 290 -298 382 -86 66
-235 138 -328 159 -51 12 -78 22 -75 30 5 11 362 551 375 565 3 4 28 -7 55
-23 26 -17 50 -28 52 -26 3 2 3 103 2 225 l-3 221 -170 -99 c-93 -55 -181
-105 -194 -113 l-24 -14 49 -29 c27 -15 50 -29 52 -30 2 -1 -72 -153 -165
-338 l-168 -335 -45 -6 c-244 -29 -408 -113 -600 -305 -111 -111 -214 -248
-277 -367 -21 -40 -40 -73 -43 -73 -3 0 -22 33 -43 73 -101 192 -297 413 -463
524 -132 87 -241 126 -414 148 l-45 6 -168 334 -167 335 50 28 c27 15 50 30
50 34 0 5 -352 214 -382 226 -4 2 -8 -98 -8 -222z m1764 -1958 c-4 -54 -84
-1541 -84 -1568 0 -6 -36 -10 -84 -10 l-84 0 -6 88 c-4 48 -22 384 -41 747
-19 363 -37 693 -40 733 l-6 72 175 0 175 0 -5 -62z m-130 -1752 c108 -45 100
-193 -13 -227 -71 -21 -151 40 -151 116 0 42 34 93 73 110 41 18 50 18 91 1z"/>
<path d="M2329 9034 c-7 -8 -82 -68 -166 -131 -84 -64 -150 -120 -147 -125 6
-10 34 -7 65 6 11 5 49 -38 152 -173 75 -99 137 -189 137 -199 0 -11 -7 -25
-15 -32 -17 -14 -20 -40 -4 -40 5 0 67 44 137 98 70 54 148 113 175 132 26 18
47 41 47 49 0 9 -10 41 -23 72 -19 46 -26 55 -39 48 -12 -6 -14 -20 -11 -51 6
-58 -19 -94 -97 -147 -49 -32 -66 -39 -76 -30 -17 14 -114 144 -114 152 0 4
24 25 54 47 54 41 55 41 80 25 14 -10 33 -15 41 -11 11 4 3 21 -37 73 -28 37
-56 68 -62 68 -12 0 -13 -30 -2 -56 5 -13 -7 -28 -47 -59 -30 -24 -58 -43 -62
-42 -4 0 -33 36 -65 78 l-58 78 53 42 c78 60 104 69 149 50 34 -14 71 -12 64
3 -6 14 -96 91 -105 91 -6 0 -16 -7 -24 -16z"/>
<path d="M8170 8771 c0 -11 5 -23 10 -26 6 -3 10 -14 10 -23 0 -22 -296 -358
-313 -355 -6 1 -24 5 -39 9 -38 9 -36 -11 5 -44 17 -15 58 -51 89 -81 45 -42
59 -50 64 -38 3 8 1 24 -5 36 -6 11 -11 24 -11 29 0 5 61 79 136 163 189 214
167 194 204 179 21 -8 34 -10 41 -3 7 7 -13 29 -58 66 -37 30 -79 67 -92 81
-29 31 -41 33 -41 7z"/>
<path d="M1816 8611 c-88 -89 -99 -117 -35 -90 30 12 32 11 102 -59 l72 -72
-85 -85 -85 -85 -73 74 c-73 72 -74 74 -59 97 10 15 13 29 7 38 -6 11 -29 -6
-94 -73 -89 -91 -103 -114 -63 -101 61 19 57 21 225 -147 l162 -163 -12 -32
c-7 -18 -9 -36 -5 -40 4 -4 47 32 95 80 68 68 84 89 74 99 -9 9 -15 9 -24 0
-25 -25 -54 -11 -125 61 l-72 72 84 86 84 85 76 -70 c79 -72 79 -71 60 -133
-13 -42 13 -25 100 64 84 87 97 120 35 88 l-31 -16 -165 162 c-90 90 -164 169
-164 176 0 7 6 22 12 33 8 13 9 23 2 30 -6 6 -39 -19 -98 -79z"/>
<path d="M8383 8459 c-53 -26 -86 -78 -86 -133 0 -23 16 -81 37 -133 43 -109
44 -136 11 -168 -33 -34 -84 -33 -125 1 -60 51 -75 116 -44 189 30 72 -4 88
-51 23 -16 -23 -35 -48 -42 -57 -26 -35 71 -179 153 -227 90 -53 197 -25 239
62 23 49 16 105 -29 216 -20 48 -36 99 -36 113 0 37 33 65 77 65 29 0 43 -8
74 -39 44 -47 54 -84 39 -140 -11 -40 -7 -61 9 -61 5 0 25 20 45 45 l37 44
-26 52 c-36 69 -109 141 -161 157 -56 16 -72 15 -121 -9z"/>
<path d="M1384 8151 c-5 -3 -18 -19 -28 -36 -29 -47 -195 -275 -238 -326 -21
-26 -38 -53 -38 -60 1 -8 21 -36 44 -63 40 -44 45 -47 54 -29 7 13 6 25 -4 43
-7 14 -13 37 -14 51 0 26 56 120 76 125 5 2 90 -57 189 -130 l180 -133 -3 -41
c-3 -51 15 -56 42 -11 10 17 41 60 68 96 34 46 46 69 39 76 -7 7 -16 5 -29 -6
-10 -9 -24 -17 -32 -17 -10 0 -164 109 -379 266 -6 5 37 69 64 94 21 20 37 25
78 25 74 0 73 23 -2 56 -32 15 -63 24 -67 20z"/>
<path d="M8775 8140 c-3 -5 -24 -15 -45 -21 -63 -19 -47 -44 29 -44 39 -1 48
-5 88 -49 24 -27 43 -55 41 -62 -3 -15 -356 -274 -373 -274 -6 0 -21 7 -34 16
-39 28 -45 2 -10 -42 17 -21 49 -65 70 -96 47 -69 64 -74 55 -19 l-6 39 178
129 c97 71 182 133 189 137 8 4 26 -11 48 -41 37 -50 39 -69 19 -155 -10 -43
15 -35 63 21 l43 49 -38 49 c-52 67 -214 290 -243 335 -23 37 -60 51 -74 28z"/>
<path d="M485 5600 c-92 -13 -148 -59 -175 -143 -25 -80 -16 -132 44 -249 53
-101 56 -110 56 -180 l0 -73 -101 -113 c-99 -111 -114 -142 -70 -142 11 0 43
20 71 45 41 37 54 43 69 35 39 -20 35 -58 -21 -232 -26 -78 -30 -100 -20 -110
23 -23 46 5 87 105 22 53 44 100 48 104 5 4 6 -53 2 -128 -7 -117 -5 -137 8
-142 30 -11 44 26 57 146 18 167 27 163 46 -20 4 -35 12 -71 20 -80 12 -17 14
-17 30 -1 15 15 16 29 8 132 -6 77 -6 115 1 113 5 -2 27 -32 47 -67 51 -86 64
-99 83 -79 13 13 11 24 -24 96 -22 45 -42 103 -46 130 -3 26 -13 87 -22 135
-20 108 -14 120 56 111 56 -6 76 10 69 59 -3 17 1 43 8 57 8 14 11 34 8 44 -3
9 -1 17 5 17 5 0 17 7 26 16 14 15 13 20 -11 62 -20 34 -28 63 -30 107 -5 88
-23 143 -61 181 -50 50 -168 78 -268 64z m49 -125 l23 -25 23 25 c47 50 120
18 120 -53 0 -46 -13 -67 -83 -139 l-60 -62 -54 52 c-95 92 -114 147 -72 201
27 34 72 35 103 1z"/>
<path d="M9584 5600 c-149 -21 -209 -87 -217 -237 -2 -49 -10 -81 -25 -107
-27 -46 -28 -73 -2 -81 15 -5 19 -12 15 -25 -3 -10 -1 -21 5 -25 6 -3 8 -10 5
-15 -3 -5 -1 -11 4 -14 5 -4 7 -22 4 -41 -8 -52 10 -69 68 -62 71 9 76 -3 56
-116 -9 -51 -19 -111 -22 -135 -3 -24 -21 -74 -40 -112 -36 -72 -43 -104 -24
-116 15 -9 33 12 77 86 36 62 70 93 59 54 -3 -11 -9 -64 -12 -119 -6 -88 -5
-103 10 -115 28 -23 41 7 55 125 6 58 15 103 20 100 4 -2 13 -55 20 -117 14
-127 22 -148 52 -148 21 0 21 2 14 137 -4 88 -3 134 3 128 5 -6 24 -46 41 -90
39 -100 55 -125 80 -125 27 0 26 16 -11 129 -40 126 -49 199 -24 217 22 16 39
8 88 -41 19 -19 45 -35 56 -35 45 0 34 29 -41 113 -133 148 -128 140 -128 219
0 66 3 78 50 163 60 113 74 166 59 234 -27 129 -138 193 -295 171z m16 -125
l26 -25 24 25 c47 50 120 16 120 -55 0 -42 -31 -89 -102 -157 l-44 -43 -55 58
c-74 75 -89 100 -89 141 0 42 33 81 69 81 14 0 37 -11 51 -25z"/>
<path d="M1413 2817 c-24 -11 -43 -25 -43 -29 0 -4 20 -8 44 -8 38 0 48 -5 70
-32 l26 -33 -23 -17 c-12 -9 -86 -61 -165 -115 -116 -78 -147 -95 -160 -87
-40 25 -38 0 5 -62 47 -67 69 -81 60 -39 -4 23 10 36 154 135 88 61 163 110
168 110 13 0 41 -47 41 -69 0 -11 -5 -32 -12 -46 -19 -42 0 -41 43 2 l41 40
-34 44 c-18 25 -60 86 -93 136 -33 51 -64 92 -70 92 -5 0 -29 -10 -52 -22z"/>
<path d="M8706 2737 c-32 -32 -33 -66 -5 -124 60 -124 282 -220 354 -153 34
32 36 64 7 121 -43 88 -169 170 -274 177 -50 4 -59 1 -82 -21z m117 -33 c123
-62 241 -165 235 -205 -3 -21 -8 -24 -50 -23 -37 0 -62 10 -128 50 -134 81
-207 164 -173 197 14 15 66 6 116 -19z"/>
<path d="M8530 2459 c0 -22 -5 -49 -10 -60 -14 -25 4 -25 21 1 13 19 20 16
149 -85 113 -88 135 -109 133 -130 -1 -14 1 -25 5 -25 13 1 84 101 77 108 -4
4 -10 1 -12 -5 -3 -7 -11 -13 -18 -13 -8 0 -86 56 -175 125 -88 69 -163 125
-165 125 -3 0 -5 -18 -5 -41z"/>
<path d="M1615 2467 c5 -19 -13 -38 -126 -131 -113 -93 -135 -107 -150 -98
-37 23 -29 -9 13 -58 45 -52 64 -63 55 -31 -6 24 -3 27 62 81 l54 44 44 -49
c23 -27 43 -52 42 -55 0 -3 -27 -27 -60 -53 -49 -40 -62 -46 -78 -37 -36 19
-31 -7 11 -59 23 -28 45 -51 50 -51 4 0 8 12 9 28 0 22 21 44 124 127 107 86
128 100 156 97 l32 -4 -48 61 c-47 60 -70 71 -59 27 4 -19 -4 -31 -47 -65 -28
-22 -55 -41 -59 -41 -8 0 -80 90 -80 100 0 4 24 26 53 48 42 33 58 39 81 35
l29 -6 -44 56 c-46 59 -74 74 -64 34z"/>
<path d="M1865 2172 c5 -25 -5 -38 -115 -141 -100 -94 -125 -112 -144 -107
-13 3 -26 3 -29 0 -3 -3 36 -49 87 -101 l93 -95 41 27 c23 15 42 31 42 36 0 4
-22 5 -48 2 -45 -5 -50 -3 -75 27 -15 17 -27 37 -27 44 0 6 23 34 50 61 l50
49 27 -26 c23 -24 25 -30 15 -52 -19 -42 2 -38 48 9 44 44 49 66 12 46 -16 -8
-24 -5 -47 19 l-29 30 25 26 c13 14 37 35 52 46 l28 20 26 -23 c37 -36 44 -54
33 -85 -6 -15 -8 -29 -5 -33 6 -5 64 57 65 69 0 8 -167 180 -174 180 -4 0 -5
-12 -1 -28z"/>
<path d="M8368 2095 c-32 -34 -58 -66 -58 -69 0 -4 9 -6 20 -4 30 5 203 -158
195 -183 -10 -29 7 -23 48 19 43 44 46 57 12 48 -19 -5 -33 1 -62 28 -37 33
-37 35 -20 54 12 13 26 18 40 15 19 -5 17 -1 -12 31 -41 42 -45 44 -38 14 4
-13 0 -29 -10 -40 -14 -16 -18 -15 -59 19 l-44 37 27 28 c22 23 33 28 58 23
l30 -7 -30 26 c-16 14 -32 25 -35 25 -3 0 -31 -29 -62 -64z"/>
<path d="M2204 1936 c-3 -9 -1 -23 5 -30 9 -11 -7 -60 -74 -227 -47 -118 -85
-217 -85 -221 0 -18 27 -3 146 83 69 50 127 89 129 87 2 -2 -21 -64 -51 -138
-67 -166 -68 -170 -54 -170 6 0 91 57 188 127 133 96 185 128 210 129 18 1 35
4 38 6 2 3 -18 24 -45 46 -50 43 -66 42 -56 0 5 -21 -7 -33 -96 -98 -57 -41
-106 -76 -110 -78 -4 -2 16 57 46 130 67 171 69 178 54 178 -7 0 -64 -38 -128
-83 -152 -110 -145 -107 -122 -50 74 187 82 203 112 203 36 0 37 13 3 35 -14
9 -43 32 -65 52 -32 29 -40 32 -45 19z"/>
<path d="M8194 1916 c-28 -28 -34 -42 -34 -75 0 -60 33 -117 87 -152 141 -89
263 51 163 189 -33 46 -83 72 -140 72 -34 0 -48 -6 -76 -34z m129 -36 c55 -35
87 -82 87 -128 0 -37 -32 -59 -72 -49 -37 10 -106 64 -128 100 -24 39 -25 65
-3 89 23 26 62 22 116 -12z"/>
<path d="M7758 1713 c-43 -46 -41 -102 6 -149 24 -24 43 -34 65 -34 35 0 35 1
21 -36 -14 -36 2 -82 41 -120 25 -24 39 -29 80 -29 46 0 54 4 85 37 26 29 34
46 34 75 0 74 -62 139 -125 131 -31 -4 -34 -2 -29 19 8 32 -14 90 -43 113 -39
31 -102 27 -135 -7z m82 -19 c43 -37 75 -101 59 -120 -27 -33 -78 -11 -114 50
-28 48 -31 66 -13 84 18 18 33 15 68 -14z m150 -160 c30 -26 70 -91 70 -115 0
-21 -32 -49 -56 -49 -44 0 -124 93 -124 143 0 23 28 47 55 47 13 0 38 -12 55
-26z"/>
<path d="M2529 1383 c-92 -70 -164 -118 -178 -119 -39 -1 -34 -17 14 -46 43
-26 69 -22 46 6 -9 11 -2 22 31 49 l42 35 44 -30 c36 -25 43 -34 38 -54 -14
-54 -26 -74 -45 -74 -39 0 -30 -18 28 -54 33 -20 62 -36 66 -36 4 0 4 13 0 29
-4 20 8 84 39 198 53 201 54 205 40 210 -6 2 -80 -49 -165 -114z m74 -30 c-9
-32 -18 -60 -19 -61 -4 -6 -64 31 -64 39 0 6 89 79 96 79 1 0 -5 -26 -13 -57z"/>
<path d="M2778 1386 c-40 -50 -36 -73 6 -41 26 20 56 19 83 -3 l22 -17 -83
-145 c-66 -114 -88 -145 -105 -145 -35 0 -21 -18 41 -53 l59 -34 -5 34 c-5 28
5 52 71 167 43 74 83 136 89 138 6 2 23 -6 37 -17 20 -16 27 -30 27 -56 0 -19
4 -34 9 -34 7 0 41 70 41 84 0 4 -234 141 -260 153 -3 2 -17 -13 -32 -31z"/>
<path d="M7480 1340 c-31 -31 -30 -72 3 -107 44 -48 117 -16 117 51 0 63 -77
99 -120 56z"/>
<path d="M7042 1227 c-98 -50 -120 -71 -73 -72 19 0 35 -24 98 -149 67 -129
75 -151 64 -168 -7 -11 -10 -22 -7 -25 6 -6 231 106 230 115 -9 89 -40 125
-46 55 -2 -30 -10 -42 -37 -60 -53 -36 -67 -31 -101 37 -17 34 -28 65 -26 69
3 5 20 14 37 21 28 12 33 12 45 -5 27 -37 27 -3 1 51 -27 54 -48 66 -40 21 4
-18 -3 -26 -31 -40 l-36 -17 -30 60 c-16 33 -30 63 -30 68 0 5 18 17 41 27 39
18 42 18 75 0 19 -10 36 -16 39 -14 7 8 -47 79 -59 78 -6 0 -57 -23 -114 -52z"/>
<path d="M3102 1194 c-12 -20 -20 -39 -17 -42 2 -3 20 3 39 13 29 16 38 17 65
5 17 -7 31 -16 31 -19 0 -4 -31 -75 -69 -157 -51 -108 -75 -149 -87 -149 -38
0 -21 -22 37 -49 65 -30 78 -29 58 2 -11 18 -4 39 56 169 37 81 69 150 71 152
2 2 17 -2 34 -9 28 -12 34 -23 42 -74 5 -32 21 -20 35 26 6 23 11 44 9 46 -9
8 -243 115 -261 118 -14 3 -26 -6 -43 -32z"/>
<path d="M6785 1104 c-120 -44 -125 -46 -119 -55 3 -5 15 -9 27 -9 20 0 31
-20 85 -148 65 -156 69 -171 50 -190 -25 -25 4 -24 61 2 32 14 64 26 71 26 24
0 3 25 -24 28 -22 3 -31 14 -52 60 -14 32 -21 58 -15 60 33 11 77 52 89 84 25
65 -15 143 -83 162 -11 3 -51 -6 -90 -20z m72 -39 c26 -18 47 -77 39 -110 -5
-21 -42 -53 -51 -43 -1 2 -17 37 -34 77 -23 57 -28 77 -18 83 19 12 40 10 64
-7z"/>
<path d="M3479 1028 c-34 -32 -53 -81 -45 -121 3 -18 26 -55 51 -84 50 -57 58
-98 27 -126 -25 -23 -54 -21 -86 4 -20 16 -26 29 -26 59 0 20 -6 43 -13 49
-11 8 -16 0 -26 -42 l-12 -52 35 -32 c79 -73 188 -46 215 54 14 48 -1 88 -54
144 -32 34 -45 57 -45 77 0 31 26 62 52 62 28 0 66 -39 72 -75 9 -45 22 -45
35 2 9 31 8 40 -7 56 -46 51 -132 63 -173 25z"/>
<path d="M6593 1032 c-47 -18 -54 -31 -22 -39 19 -5 21 -11 15 -51 -3 -25 -6
-61 -6 -80 l0 -36 -36 35 c-59 57 -78 87 -64 105 22 25 3 27 -64 4 -69 -23
-81 -34 -43 -44 12 -3 56 -43 97 -89 62 -68 79 -94 94 -145 19 -61 19 -63 0
-76 -36 -27 -4 -30 66 -7 70 22 91 41 46 41 -21 0 -28 9 -46 58 -20 51 -21 68
-15 169 5 88 11 118 26 137 10 13 15 26 12 30 -8 7 -8 7 -60 -12z"/>
<path d="M6270 999 c-14 -6 -81 -24 -150 -41 -69 -16 -128 -33 -132 -37 -12
-11 3 -112 16 -108 6 2 12 15 14 29 4 32 29 56 70 68 36 10 26 34 86 -207 41
-160 42 -175 21 -193 -29 -24 0 -28 70 -10 73 18 91 34 52 44 -22 5 -28 19
-55 123 -49 185 -66 262 -60 268 3 3 22 9 42 12 32 5 41 2 70 -26 19 -18 36
-29 38 -24 6 10 -39 113 -49 112 -5 0 -19 -5 -33 -10z"/>
<path d="M3956 769 c-85 -135 -128 -194 -148 -205 -37 -19 -31 -26 35 -41 60
-13 75 -8 51 18 -18 20 -16 30 20 87 l25 40 52 -13 c28 -8 52 -15 54 -17 1 -2
6 -29 9 -60 7 -56 6 -58 -18 -68 -14 -5 -26 -13 -26 -18 0 -5 36 -18 80 -28
79 -20 94 -16 65 16 -11 12 -19 77 -32 248 -14 195 -20 232 -33 232 -9 0 -64
-78 -134 -191z m92 -84 c-4 -4 -79 14 -86 20 -1 1 14 31 35 66 l38 64 9 -73
c4 -40 6 -75 4 -77z"/>
<path d="M4280 834 c0 -7 8 -17 17 -22 16 -9 15 -20 -6 -163 -28 -189 -28
-189 -52 -189 -10 0 -19 -6 -19 -14 0 -9 20 -15 65 -20 36 -4 72 -9 80 -12 27
-11 16 22 -11 35 -15 6 -24 17 -21 25 3 7 8 39 12 70 5 35 12 55 19 53 6 -2
25 -39 41 -83 42 -109 44 -113 98 -123 51 -9 64 4 28 30 -11 8 -33 49 -49 92
l-30 78 34 32 c57 53 56 135 -1 173 -38 25 -205 55 -205 38z m152 -61 c26 -23
25 -96 -2 -123 -11 -11 -32 -20 -46 -20 -24 0 -26 3 -21 33 3 17 9 53 13 80 7
51 23 60 56 30z"/>
<path d="M5625 803 c-66 -8 -126 -16 -132 -19 -16 -4 -18 -104 -2 -104 5 0 15
14 21 30 11 34 34 50 71 50 23 0 24 -3 44 -167 21 -165 21 -168 2 -181 -33
-23 -13 -29 60 -19 71 10 88 20 51 32 -24 8 -25 13 -45 180 -20 171 -21 162
17 170 28 6 36 3 60 -24 41 -46 47 -39 27 32 -11 42 3 41 -174 20z"/>
<path d="M4596 789 c-29 -86 -22 -113 16 -64 15 19 29 25 60 25 l41 0 -6 -57
c-4 -32 -10 -105 -13 -162 -6 -92 -10 -107 -31 -127 l-23 -21 37 -7 c52 -8
113 -8 113 2 0 4 -8 12 -18 18 -17 11 -17 20 -6 160 7 82 13 157 13 167 1 13
9 17 34 17 34 0 58 -18 70 -52 4 -10 12 -18 18 -18 8 0 9 14 4 48 -4 26 -9 50
-11 53 -2 3 -59 9 -126 13 -68 3 -133 9 -145 12 -15 4 -24 1 -27 -7z"/>
<path d="M5249 766 c-51 -29 -68 -125 -32 -175 11 -14 46 -39 79 -56 67 -34
90 -68 74 -109 -11 -30 -51 -43 -85 -28 -14 6 -36 30 -50 53 -15 22 -29 39
-32 36 -3 -3 -2 -29 2 -57 8 -58 25 -70 100 -70 88 0 129 37 129 119 0 64 -23
93 -102 131 -74 35 -82 43 -82 81 0 35 18 49 62 49 34 0 41 -5 59 -35 12 -19
26 -35 31 -35 13 0 4 78 -11 93 -17 17 -113 19 -142 3z"/>
<path d="M4970 760 c0 -5 9 -14 20 -20 18 -10 19 -18 13 -177 -6 -153 -8 -169
-27 -185 -20 -17 -19 -17 57 -18 73 0 100 11 57 25 -17 6 -20 15 -20 74 0 148
13 281 27 281 7 0 13 7 13 15 0 12 -14 15 -70 15 -38 0 -70 -4 -70 -10z"/>
</g>
</svg>
